<svg xmlns="http://www.w3.org/2000/svg" viewBox="0 0 170 60"><defs><style>.cls-1{fill:#191818}.cls-2{fill:#ff002d}.cls-3{fill:#fff}.cls-4{fill:#8e030e}.cls-5{fill:#0052b4}.cls-6{fill:#004494}.cls-7{fill:#e3011a}</style></defs><g id="Layer_1_copy" data-name="Layer 1 copy"><path class="cls-1" d="M155.65 17.59l.46-3.32h-1.76l.11-.82H159l-.11.82h-1.76l-.47 3.32zm9.73 0l.26-1.89c.09-.63.14-1 .19-1.32-.19.29-.44.62-.81 1.12l-1.54 2.09h-1l-.89-2.07c-.21-.48-.33-.75-.48-1.14 0 .44-.08.73-.17 1.33l-.26 1.88h-1l.58-4.14h1.42l1.39 3.28 2.38-3.28h1.4l-.58 4.14z"/><path class="cls-1" d="M73.48 36.25L74.78 26.73 57.29 26.73 55.98 36.25 50.33 36.25 53.48 13.68 59.14 13.68 57.92 22.36 75.41 22.36 76.63 13.68 82.28 13.68 79.13 36.25 73.48 36.25z"/><path class="cls-1" d="M86.56 36.25L89.71 13.68 113.81 13.68 113.15 18.32 94.35 18.32 93.81 22.27 112.29 22.27 111.66 26.53 93.19 26.53 92.48 31.7 111.4 31.7 110.77 36.25 86.56 36.25z"/><path class="cls-1" d="M141 36.25L133.25 27.51 123.13 36.25 115.82 36.25 130.22 24.4 119.53 13.53 126.78 13.53 134 21.43 143.79 13.53 150.79 13.53 137.26 24.49 148.1 36.25 141 36.25z"/><path class="cls-2" d="M.11 37.62a7.16 7.16 0 0 0 3.56 6.17L11 48l5.86 3.38a7.06 7.06 0 0 0 7.11 0l5.63-3.25 7.6-4.38a7.15 7.15 0 0 0 3.55-6.17v-.21H.11z"/><path class="cls-3" d="M40.79 22.57L0.11 22.57 0.11 30.2 0.11 37.41 40.79 37.41 40.79 30.2 40.79 22.57z"/><path class="cls-2" d="M40.79 22.35a7.14 7.14 0 0 0-3.55-6.16l-7.6-4.39L24 8.56a7.06 7.06 0 0 0-7.11 0L11 11.94l-7.33 4.25a7.15 7.15 0 0 0-3.56 6.16v.22h40.68z"/><path class="cls-4" d="M20.45 7.73a7 7 0 0 1 3.55.94l13.18 7.63a7 7 0 0 1 3.5 6.07v15.26a7 7 0 0 1-3.5 6.07L24 51.33a7 7 0 0 1-7 0L3.73 43.7a7 7 0 0 1-3.5-6.07V22.37a7 7 0 0 1 3.5-6.07L17 8.67a7 7 0 0 1 3.5-.94m0-.23a7.19 7.19 0 0 0-3.61 1L3.61 16.1A7.26 7.26 0 0 0 0 22.37v15.26a7.26 7.26 0 0 0 3.61 6.27l13.23 7.63a7.22 7.22 0 0 0 7.23 0l13.22-7.63a7.24 7.24 0 0 0 3.62-6.27V22.37a7.24 7.24 0 0 0-3.62-6.27L24.07 8.47a7.2 7.2 0 0 0-3.62-1z"/><path class="cls-3" d="M1.1 26.09h-1v8.17h1a1.09 1.09 0 0 0 1.09-1.09v-6a1.08 1.08 0 0 0-1.09-1.08z"/><path class="cls-4" d="M1.1 34.31h-1V26h1a1.14 1.14 0 0 1 1.15 1.14v6a1.14 1.14 0 0 1-1.15 1.17zm-.93-.11h.93a1 1 0 0 0 1-1v-6a1 1 0 0 0-1-1H.17z"/><path class="cls-3" d="M13.58 11.85l-.52-.85L6 15.05l.54.9a1.07 1.07 0 0 0 1.46.39l5.2-3a1.08 1.08 0 0 0 .38-1.49z"/><path class="cls-4" d="M7.45 16.54a1.13 1.13 0 0 1-1-.56L5.9 15l7.18-4.14.55.93a1.11 1.11 0 0 1 .12.87 1.14 1.14 0 0 1-.53.7l-5.2 3a1.06 1.06 0 0 1-.57.18zm-1.39-1.47l.5.86a1 1 0 0 0 1.44.36l5.19-3a1 1 0 0 0 .48-.63 1 1 0 0 0-.11-.78L13 11z"/><path class="cls-3" d="M33.31 15.28l.53-.9-7.07-4.09-.53.89a1.08 1.08 0 0 0 .4 1.49l5.19 3a1.09 1.09 0 0 0 1.48-.39z"/><path class="cls-4" d="M32.37 15.87a1.18 1.18 0 0 1-.57-.15l-5.19-3a1.12 1.12 0 0 1-.54-.7 1.15 1.15 0 0 1 .13-.87l.55-.93 7.17 4.14-.56 1a1.15 1.15 0 0 1-.99.51zm-5.58-5.5l-.5.84a1 1 0 0 0-.11.78 1 1 0 0 0 .49.63l5.19 3a1 1 0 0 0 1.4-.37l.51-.85z"/><path class="cls-3" d="M38.6 27.17v6a1.09 1.09 0 0 0 1.09 1.09h1v-8.17h-1a1.08 1.08 0 0 0-1.09 1.08z"/><path class="cls-4" d="M40.73 34.31h-1a1.14 1.14 0 0 1-1.14-1.14v-6a1.14 1.14 0 0 1 1.1-1.17h1zm-1-8.17a1 1 0 0 0-1 1v6a1 1 0 0 0 1 1h.93v-8z"/><path class="cls-3" d="M6.55 44.41l-.48.82 7.08 4.08.47-.79a1.09 1.09 0 0 0-.39-1.5L8 44a1.09 1.09 0 0 0-1.45.41z"/><path class="cls-4" d="M13.17 49.39L6 45.25l.51-.87A1.15 1.15 0 0 1 8.06 44l5.19 3a1.14 1.14 0 0 1 .42 1.57zm-7-4.18l7 4 .44-.75a1 1 0 0 0 .11-.79 1 1 0 0 0-.48-.63l-5.2-3a1 1 0 0 0-1.4.37z"/><path class="cls-3" d="M26.09 49.07l.48.8 7.07-4.08-.48-.79a1.09 1.09 0 0 0-1.48-.39l-5.19 3a1.08 1.08 0 0 0-.4 1.46z"/><path class="cls-4" d="M26.55 50l-.55-.9a1.15 1.15 0 0 1-.12-.87 1.12 1.12 0 0 1 .54-.7l5.19-3a1.15 1.15 0 0 1 1.56.41l.51.87zm5.67-5.46a1.06 1.06 0 0 0-.51.14l-5.2 3a1 1 0 0 0-.48.63 1 1 0 0 0 .11.79l.45.74 7-4-.48-.84a1 1 0 0 0-.89-.51zm-2.15-2.1a.11.11 0 0 1-.1-.06.11.11 0 0 1 0-.15l1-.57a.11.11 0 0 1 .11.19l-1 .57s.01.02-.01.02zm-19.28 0h-.06l-1-.57a.11.11 0 0 1 0-.15.11.11 0 0 1 .16 0l1 .57a.11.11 0 0 1 .05.15.12.12 0 0 1-.15-.03zM32 41.3a.12.12 0 0 1-.1-.06.11.11 0 0 1 0-.15l1-.57a.11.11 0 0 1 .16 0 .11.11 0 0 1 0 .15l-1 .57zm-23.23 0h-.06l-1-.57-.11-.06a.1.1 0 0 1 0-.15.1.1 0 0 1 .15 0h.1l1 .57a.13.13 0 0 1 0 .16.11.11 0 0 1-.04.02zM34 40.07a.11.11 0 0 1-.08-.2 5.36 5.36 0 0 0 .76-.82.12.12 0 0 1 .16 0 .11.11 0 0 1 0 .16A5.32 5.32 0 0 1 34 40a.13.13 0 0 1 0 .07zM6.82 40a.11.11 0 0 1-.08 0A5.79 5.79 0 0 1 6 39a.12.12 0 0 1 0-.16.11.11 0 0 1 .16 0 5.3 5.3 0 0 0 .73.84.12.12 0 0 1 0 .16.09.09 0 0 1-.07.16zm28.49-1.7h-.05a.11.11 0 0 1 0-.15 5.72 5.72 0 0 0 .3-1.15.11.11 0 1 1 .22 0 5.27 5.27 0 0 1-.37 1.1.12.12 0 0 1-.1.15zm-29.78-.21a.12.12 0 0 1-.11-.09 5.53 5.53 0 0 1-.33-1.12.11.11 0 0 1 .09-.13.13.13 0 0 1 .14.09 4.87 4.87 0 0 0 .31 1.07.11.11 0 0 1-.06.15zM35.8 36a.12.12 0 0 1-.12-.12v-1.1a.11.11 0 0 1 .12-.11.11.11 0 0 1 .11.11v1.15a.11.11 0 0 1-.11.07zm-30.69-.14a.11.11 0 0 1-.11-.11v-1.14a.11.11 0 1 1 .22 0v1.14a.11.11 0 0 1-.11.11zm30.69-2.1a.12.12 0 0 1-.12-.12V32.5a.11.11 0 0 1 .12-.11.11.11 0 0 1 .11.11v1.14a.12.12 0 0 1-.11.12zm-30.69-.18a.11.11 0 0 1-.11-.12v-1.14a.11.11 0 0 1 .22 0v1.14a.11.11 0 0 1-.11.12zm30.69-2.11a.11.11 0 0 1-.12-.11v-1.14a.12.12 0 0 1 .12-.12.12.12 0 0 1 .11.12v1.14a.11.11 0 0 1-.11.11zM5.11 31.3a.11.11 0 0 1-.11-.12V30a.11.11 0 0 1 .22 0v1.14a.11.11 0 0 1-.11.16zm30.69-2.11a.11.11 0 0 1-.12-.11v-1.14a.12.12 0 0 1 .12-.12.11.11 0 0 1 .11.12v1.14a.11.11 0 0 1-.11.11zM5.11 29a.11.11 0 0 1-.11-.1v-1.14a.11.11 0 1 1 .22 0v1.14a.11.11 0 0 1-.11.1zm30.69-2.1a.11.11 0 0 1-.12-.11v-1.14a.11.11 0 0 1 .12-.11.11.11 0 0 1 .11.11v1.15a.11.11 0 0 1-.11.11zm-30.69-.17a.11.11 0 0 1-.11-.11v-1.14a.11.11 0 1 1 .22 0v1.14a.11.11 0 0 1-.11.11zm30.69-2.1a.12.12 0 0 1-.12-.12v-.08a5.14 5.14 0 0 0-.1-1 .11.11 0 0 1 .09-.13.13.13 0 0 1 .14.09 5.46 5.46 0 0 1 .1 1.07v.08a.11.11 0 0 1-.11.09zm-30.69-.18a.11.11 0 0 1-.11-.12 5 5 0 0 1 .14-1.15.12.12 0 0 1 .14-.09.11.11 0 0 1 .08.14 5.18 5.18 0 0 0-.13 1.11.13.13 0 0 1-.12.11zm30.25-2a.12.12 0 0 1-.11-.07 5.19 5.19 0 0 0-.54-1 .1.1 0 0 1 0-.15.11.11 0 0 1 .16 0 5.11 5.11 0 0 1 .57 1 .11.11 0 0 1-.06.15zm-29.74-.21a.11.11 0 0 1-.05-.15 5.56 5.56 0 0 1 .6-1 .12.12 0 0 1 .16 0 .11.11 0 0 1 0 .16 5.17 5.17 0 0 0-.57 1 .11.11 0 0 1-.14-.01zm28.43-1.68a.11.11 0 0 1-.08 0 4.83 4.83 0 0 0-.89-.67.11.11 0 0 1 .11-.19 5.29 5.29 0 0 1 .94.69.11.11 0 0 1 0 .16.12.12 0 0 1-.08.01zM7 20.44a.09.09 0 0 1-.08 0 .1.1 0 0 1 0-.16 4.65 4.65 0 0 1 .85-.6l.1-.06a.11.11 0 0 1 .16 0 .11.11 0 0 1 0 .15l-.1.06a5.19 5.19 0 0 0-.81.58.13.13 0 0 1-.12.03zm25.16-1.13h-.06l-1-.57a.11.11 0 0 1 0-.15.12.12 0 0 1 .16-.05l1 .57a.12.12 0 0 1-.05.22zm-23.25-.09a.11.11 0 0 1-.09-.06.1.1 0 0 1 0-.15l1-.58a.11.11 0 0 1 .15.05.11.11 0 0 1 0 .15L9 19.2zm21.26-1h-.06l-1-.57a.12.12 0 0 1-.05-.16.13.13 0 0 1 .16 0l1 .57a.12.12 0 0 1 0 .16.11.11 0 0 1-.05-.05z"/><path class="cls-5" d="M8.88 39.6L18 44.84a5 5 0 0 0 5 0l9-5.24a5 5 0 0 0 2.48-4.31V24.8A5 5 0 0 0 32 20.49l-9.09-5.25a5 5 0 0 0-5 0l-9.03 5.25a5 5 0 0 0-2.49 4.31v10.49a5 5 0 0 0 2.49 4.31z"/><path class="cls-3" d="M8.88 39.6L18 44.84a5 5 0 0 0 5 0l9-5.24a5 5 0 0 0 2.48-4.31V24.8A5 5 0 0 0 32 20.49l-9.09-5.25a5 5 0 0 0-5 0l-9.03 5.25a5 5 0 0 0-2.49 4.31v10.49a5 5 0 0 0 2.49 4.31z"/><path class="cls-4" d="M20.45 45.57a5 5 0 0 1-2.51-.68l-9.09-5.24a5.06 5.06 0 0 1-2.51-4.36V24.8a5.06 5.06 0 0 1 2.51-4.36l9.09-5.25a5.07 5.07 0 0 1 5 0l9.09 5.25a5.06 5.06 0 0 1 2.51 4.36v10.49a5.06 5.06 0 0 1-2.51 4.36L23 44.89a5 5 0 0 1-2.55.68zm-11.54-6L18 44.8a4.94 4.94 0 0 0 4.91 0L32 39.55a4.93 4.93 0 0 0 2.46-4.26V24.8A4.93 4.93 0 0 0 32 20.54l-9.09-5.25a4.94 4.94 0 0 0-4.91 0l-9.09 5.25a4.93 4.93 0 0 0-2.46 4.26v10.49a4.93 4.93 0 0 0 2.46 4.26z"/><path class="cls-4" d="M20.45 45.62a5 5 0 0 1-2.54-.68L8.82 39.7a5.11 5.11 0 0 1-2.54-4.41V24.8a5.11 5.11 0 0 1 2.54-4.41l9.09-5.24a5.09 5.09 0 0 1 5.09 0l9.09 5.24a5.13 5.13 0 0 1 2.54 4.41v10.49a5.13 5.13 0 0 1-2.54 4.41L23 44.94a5.05 5.05 0 0 1-2.55.68zM8.94 39.5L18 44.75a4.88 4.88 0 0 0 4.85 0L32 39.5a4.88 4.88 0 0 0 2.43-4.21V24.8A4.88 4.88 0 0 0 32 20.59l-9.09-5.25a4.88 4.88 0 0 0-4.85 0l-9.12 5.25a4.88 4.88 0 0 0-2.43 4.21v10.49a4.88 4.88 0 0 0 2.43 4.21zm1.95-21.42a.11.11 0 0 1-.1-.06.13.13 0 0 1 0-.16l1-.57a.12.12 0 0 1 .16.05.11.11 0 0 1 0 .15l-1 .57zM28.19 17h-.05l-1-.57a.11.11 0 0 1 .11-.2l1 .57a.11.11 0 0 1 0 .16.12.12 0 0 1-.06.04zm-15.32-.06a.11.11 0 0 1-.1-.06.12.12 0 0 1 0-.16l1-.57a.11.11 0 0 1 .15 0 .11.11 0 0 1 0 .16l-1 .57zm13.35-1.06h-.06l-1-.57a.12.12 0 1 1 .12-.2l1 .57a.11.11 0 0 1-.06.21zm-11.38-.09a.14.14 0 0 1-.1 0 .12.12 0 0 1 0-.16l1-.57a.12.12 0 0 1 .12.2l-1 .57zm9.4-1.05h-.06l-1-.57a.12.12 0 0 1-.05-.16.13.13 0 0 1 .16 0l1 .57a.11.11 0 0 1-.06.21zm-7.42-.09a.11.11 0 0 1-.06-.21l.93-.53h.06a.12.12 0 0 1 .16 0 .12.12 0 0 1-.05.16h-.06l-.92.53zm5.4-.96a5.65 5.65 0 0 0-1.08-.25.11.11 0 0 1-.1-.12.11.11 0 0 1 .13-.1 5 5 0 0 1 1.13.26.11.11 0 0 1 .07.14.12.12 0 0 1-.15.07zm-3.36-.05a.12.12 0 0 1-.11-.08.11.11 0 0 1 .07-.15 5.6 5.6 0 0 1 1.18-.22.11.11 0 0 1 .13.1.13.13 0 0 1-.11.13 5 5 0 0 0-1.09.21zm1.59 33.51h-.61a.12.12 0 0 1-.1-.13.11.11 0 0 1 .13-.1 5.87 5.87 0 0 0 1.11 0 .12.12 0 0 1 .13.1.11.11 0 0 1-.11.12 4.93 4.93 0 0 1-.55.01zm1.66-.26a.11.11 0 0 1 0-.22 4.65 4.65 0 0 0 1-.45.12.12 0 1 1 .12.2 6 6 0 0 1-1.07.47zm-3.37-.02a5.21 5.21 0 0 1-1-.46.11.11 0 0 1 0-.16.11.11 0 0 1 .15 0 5.07 5.07 0 0 0 1 .44.12.12 0 0 1 .07.15.12.12 0 0 1-.22.03zm5.4-1.01a.11.11 0 0 1-.06-.21l1-.57a.11.11 0 0 1 .15 0 .11.11 0 0 1 0 .16l-1 .57zm-7.42-.03h-.06l-1-.57a.13.13 0 0 1 0-.16.11.11 0 0 1 .15 0l1 .57a.1.1 0 0 1 0 .15.1.1 0 0 1-.09.01zm9.39-1.11a.1.1 0 0 1-.09-.06.1.1 0 0 1 0-.15l1-.57a.11.11 0 0 1 .15 0 .13.13 0 0 1 0 .16l-1 .57zm-11.37-.03h-.06l-1-.58a.11.11 0 1 1 .12-.19l1 .57a.11.11 0 0 1 0 .15.11.11 0 0 1-.06.05zm13.35-1.11a.11.11 0 0 1-.1-.06.11.11 0 0 1 0-.15l1-.57a.11.11 0 0 1 .16 0 .13.13 0 0 1 0 .16l-1 .57zm-15.33-.03l-1-.57a.11.11 0 0 1 .11-.19l1 .57a.11.11 0 0 1 0 .15.11.11 0 0 1-.11.04z"/><path d="M53.83 45.57a6.29 6.29 0 0 0 1-.06 1.59 1.59 0 0 0 .55-.15.59.59 0 0 0 .27-.27 1.88 1.88 0 0 0 .13-.4h1.15c0 .21-.08.41-.13.58a2.13 2.13 0 0 1-.2.46 1.42 1.42 0 0 1-.35.34 2 2 0 0 1-.55.23 5.23 5.23 0 0 1-.82.13h-1.16a10.59 10.59 0 0 1-1.38-.07 2.69 2.69 0 0 1-.87-.24.93.93 0 0 1-.44-.46 1.69 1.69 0 0 1-.13-.72v-.46c0-.17 0-.34.07-.54s.1-.63.16-.88a2.83 2.83 0 0 1 .24-.66 1.57 1.57 0 0 1 .39-.46 1.71 1.71 0 0 1 .59-.29 4.62 4.62 0 0 1 .86-.15h1.2a10.62 10.62 0 0 1 1.4.07 2.56 2.56 0 0 1 .84.21.86.86 0 0 1 .4.37 1.27 1.27 0 0 1 .1.54v.49H56a1.3 1.3 0 0 0 0-.35.37.37 0 0 0-.2-.23 1.62 1.62 0 0 0-.52-.13 8.06 8.06 0 0 0-1 0 7.51 7.51 0 0 0-1.08.06 1.2 1.2 0 0 0-.59.23.83.83 0 0 0-.28.47c0 .21-.1.48-.15.8v.44a2.12 2.12 0 0 0 0 .34.9.9 0 0 0 .07.4.54.54 0 0 0 .27.24 1.53 1.53 0 0 0 .52.12c.16-.02.44 0 .79 0zM64 45.42h-3.25l-.69 1h-1.28l3.36-4.85h1.53l1.94 4.85h-1.24zm-.34-.88c-.14-.36-.25-.66-.35-.9s-.17-.45-.23-.61-.11-.3-.14-.41a2.43 2.43 0 0 1-.09-.3l-.2.31-.26.4-.41.61-.62.9zm10.15-2.16v.32c0 .1-.05.21-.08.32h-1.14v-.12a.81.81 0 0 0 0-.16.25.25 0 0 0 0-.15.34.34 0 0 0-.2-.11 3.39 3.39 0 0 0-.44 0h-1.48a4.69 4.69 0 0 0-.49 0 1.48 1.48 0 0 0-.32.08.59.59 0 0 0-.17.13.49.49 0 0 0-.08.18 1.49 1.49 0 0 0 0 .21.46.46 0 0 0 0 .14.22.22 0 0 0 .09.1.61.61 0 0 0 .18.08h.28c.16 0 .36.05.61.07h.8a9.9 9.9 0 0 1 1.07.07 2.65 2.65 0 0 1 .7.17.82.82 0 0 1 .37.31 1 1 0 0 1 .11.49 3.64 3.64 0 0 1 0 .56 1.52 1.52 0 0 1-.19.54 1.26 1.26 0 0 1-.34.39 1.65 1.65 0 0 1-.55.24 4 4 0 0 1-.79.12H69.3a3.61 3.61 0 0 1-.85-.17A.84.84 0 0 1 68 46a.9.9 0 0 1-.12-.48 2.55 2.55 0 0 1 .08-.61h1.17a.7.7 0 0 0 0 .14.78.78 0 0 0 0 .16.27.27 0 0 0 .07.2.44.44 0 0 0 .24.13 2.74 2.74 0 0 0 .51.06h1.54a4.24 4.24 0 0 0 .47 0 .83.83 0 0 0 .29-.09.32.32 0 0 0 .16-.14.43.43 0 0 0 .07-.2 1.49 1.49 0 0 0 0-.21.31.31 0 0 0 0-.17.27.27 0 0 0-.14-.11 1.45 1.45 0 0 0-.29-.06 4.24 4.24 0 0 0-.47 0H69.99c-.23 0-.45 0-.67-.09a1.49 1.49 0 0 1-.74-.32 1 1 0 0 1-.27-.74 3.5 3.5 0 0 1 0-.54 1.58 1.58 0 0 1 .21-.52 1 1 0 0 1 .33-.34 1.9 1.9 0 0 1 .55-.22 5.27 5.27 0 0 1 .82-.11h2.37a3.94 3.94 0 0 1 .78.14.67.67 0 0 1 .51.71zm1.95 4.04l.67-4.85h1.2L77 46.42zm8.53 0l-2.18-2.58-.59-.7c-.16-.2-.32-.39-.46-.58v.76c0 .14 0 .28-.06.44s0 .35-.08.56l-.29 2.1h-1.2l.68-4.85h1.58l2 2.41.37.45.28.34.23.28.19.24a2.65 2.65 0 0 1 0-.27v-.33c0-.12 0-.26.06-.42s0-.36.08-.58l.29-2.12h1.15l-.67 4.85zm7.01.06c-.6 0-1.09 0-1.48-.06a3.06 3.06 0 0 1-.91-.21.86.86 0 0 1-.47-.42 1.63 1.63 0 0 1-.14-.71 4.42 4.42 0 0 1 0-.49c0-.18 0-.37.08-.59s.1-.65.15-.9a2.76 2.76 0 0 1 .24-.67 1.45 1.45 0 0 1 .39-.46 1.93 1.93 0 0 1 .61-.28 5.07 5.07 0 0 1 .91-.15h1.29a14.49 14.49 0 0 1 1.46.06 3 3 0 0 1 .92.22 1 1 0 0 1 .47.44A1.7 1.7 0 0 1 95 43v.48c0 .17 0 .36-.07.57s-.11.65-.17.9a2.12 2.12 0 0 1-.24.67 1.31 1.31 0 0 1-.39.45 1.82 1.82 0 0 1-.61.28 4.26 4.26 0 0 1-.91.14c-.4-.02-.82-.01-1.31-.01zm.12-.9a7.49 7.49 0 0 0 1.06-.06 1.66 1.66 0 0 0 .65-.2.84.84 0 0 0 .33-.37 2.17 2.17 0 0 0 .16-.6c0-.21 0-.38.07-.51s0-.24 0-.31v-.17-.1a.83.83 0 0 0-.09-.41.6.6 0 0 0-.3-.26 1.89 1.89 0 0 0-.58-.14h-.92a7.88 7.88 0 0 0-1.07 0 1.86 1.86 0 0 0-.65.19.72.72 0 0 0-.33.38 2.19 2.19 0 0 0-.15.6c0 .22-.06.39-.07.52s0 .23 0 .31v.26a1 1 0 0 0 .08.41.6.6 0 0 0 .3.26 2.24 2.24 0 0 0 .58.14c.24.04.51.06.93.06zm10.47.84l.28-2h-3.75l-.29 2h-1.21l.68-4.85h1.21l-.26 1.87h3.76l.26-1.87h1.21l-.67 4.85zm3.68 0l.67-4.85h5.18l-.14 1h-4l-.12.85h4l-.13.91h-4l-.15 1.11h4.06l-.13 1zm12.65 0l-1.66-1.86-2.16 1.86h-1.56l3.08-2.53-2.28-2.32h1.54l1.54 1.69 2.09-1.69h1.5l-2.89 2.34 2.31 2.51zm3.96 0l.13-1h1l-.13 1zm8.4-1h-3.22l-.69 1h-1.28l3.36-4.85h1.53l1.94 4.85H131zm-.34-.88c-.14-.36-.25-.66-.35-.9s-.17-.45-.23-.61-.1-.3-.14-.41a2.43 2.43 0 0 1-.09-.3c-.06.1-.13.2-.19.31L129 43l-.41.61-.62.9zm5.92 1.88l.54-3.88h-2.06l.13-1h5.33l-.13 1h-2.06l-.55 3.88z"/><path d="M19 20.17c.16.06.25.62.52.58.08-.13.19-.61.37-.6a1.85 1.85 0 0 1 .34 0c.11 0 .17.45.33.59 0 0 .09.06.13 0 .12-.29.24-.59.5-.59h.45l-.35 1.47h-2.4c-.15-.42-.36-.89-.51-1.45a2.54 2.54 0 0 1 .61 0" id="path3062"/><path d="M27.49 23.08c.19 2.47 0 5.46-3 6.85a2.51 2.51 0 0 1-1 0c0-.67-.13-1.9.12-2a4.37 4.37 0 0 0 1.72-3.13c-.1-1.28-1.17-1.73-.6-2.7.67-.61 1.42-.38 2.2-.46.39.18.5.88.56 1.42" id="path3066"/><path d="M16.1 22.38c.53 1.34-1.07 2.25-.43 3.59a3.15 3.15 0 0 0 2 2.07V30a3.4 3.4 0 0 1-2.8-1.32c-1.4-1.54-1.71-4.57-1.21-6.76l.23-.14c.88 0 1.73-.12 2.23.63" id="path3070"/><path d="M22.76 22v.08c-.22.32-.56.37-1.21.42a3.62 3.62 0 0 0 2 .92c-.25.49-1.07.3-1.63.21h-.07a5 5 0 0 1 .61 4h-3.17a2.42 2.42 0 0 0 .21-1.7c-.17-.27-.55-.54-.49-.79.34-.13.84.37 1.09-.13-.42-.65-1.07-1.74-1.92-1.8l-.51.06a1.51 1.51 0 0 1 .07-1c.36-.54 1.82-.23 2.65-.31.72.08 1.55-.05 2.39 0m-4 .53l.14.53c.26.29.53.19.71-.11l.07-.45-.17.21c-.43.43-.55-.21-.75-.18" id="path3074"/><path d="M17.84 24.13c.38 0 .92-.63 1.28-.14l.42.6c-.27 0-.78-.33-1.11 0a.69.69 0 0 1-.82.15 1.75 1.75 0 0 1-.56-1.11c.19.15.41.52.79.5" id="path3078"/><path d="M31 21.93c0 .7-.59 1-1 1.43l1.27-.19a4 4 0 0 1-1.73.69v.12a5.31 5.31 0 0 0 2.21.1c.21.14-.09.25-.19.4a2.85 2.85 0 0 1-1.22.85v.08a2.53 2.53 0 0 0 1.14.12c-.32.28-1.27.17-1.69.36.47.46 1.57.29 2.25.27-.15.68-1.11 1.12-1.74 1.34l-1.53.13c.05.18.34.11.56.3a2.66 2.66 0 0 1 .65.17c.21-.06.81.18.92.09a2.21 2.21 0 0 1-1.13.09 4.18 4.18 0 0 0-.62-.05 4.32 4.32 0 0 0 2.89.82c.23.06.05.14-.19.43-1.13.94-2.91.55-4.23.49a15.65 15.65 0 0 0 3.45 1.34 5.93 5.93 0 0 1-3.81-1.14h-.18a8.38 8.38 0 0 0 2.77 2.45 3.45 3.45 0 0 0 .82.25c-.14.61-.18 1.09-.37 1.76a8.59 8.59 0 0 1-1.2-.2c-.05.51-.18 1.14-.18 1.58l.41.08A13.87 13.87 0 0 1 29 38c-.26.17-.72.1-.74.56-.1.25.05.72-.41.59-1 .1.12-1.11-.91-1.15-.46-1.3-1.88-1.09-2.63-2.07-.11-.23.06-.65-.32-.69-.88.18-.87-.84-1.15-1.32a2.67 2.67 0 0 0 .7-2c.08.32.16.23.25.38a12.3 12.3 0 0 0 2.82 3.7c.51 0 1.59.38 1.51-.56a6.81 6.81 0 0 0 .13-1.32c-.39-.09-.58-.09-.85-.16-.07 0 0-.37-.24-.07a2.58 2.58 0 0 1-1.51-.38 4.07 4.07 0 0 1-2.06-2.71c0-.15-.05-.22 0-.35a4.54 4.54 0 0 0 3.77-3 10.53 10.53 0 0 0 .26-5.45 5.56 5.56 0 0 0 3.18-.13zm-5.64 9.84c0 .64 1.44 1.62 1.82 1.74l.05-.39c-.36-.29-1.5-.73-1.87-1.35m.76.06a2.26 2.26 0 0 0 1.17 1l.06-.25c-.32-.16-1.08-.41-1.23-.77" id="path3082"/><path d="M21 34.79c.19 1.41 2.79.52 2.27 2.4-.63-.71-1.49.27-2-.69-.19.15 0 .38 0 .55.75.9 2.09.08 2.85 1.06a1.91 1.91 0 0 1 .33 1.74c-.16.23-.29.59-.56.52a.81.81 0 0 0 .19-.88C24 39 23.41 39 23 38.93a12.79 12.79 0 0 1-1.71-.09c-.23.25 0 .45 0 .68a1 1 0 0 0 .92.43c.08.3-.36.32-.61.49-.17 0-.37-.19-.5 0s-.13.46-.42.46-.4-.67-.86-.53a1 1 0 0 1-.79-.23V40c.48.21.56-.34.92-.49s.17-.39.23-.66c-.3-.07-.71.18-1.11.16-.65.19-1.34-.25-1.88.36-.05.33-.36.71 0 1-.62-.06-.39-.79-.56-1.15A1.86 1.86 0 0 1 18 37.61c.44 0 .84-.21 1.38-.19s.46-.54.55-.88a2.74 2.74 0 0 1-1.6.42c-.13.06-.29.32-.52.27a1.85 1.85 0 0 1 .19-1.1c.61-.88 1.84 0 2.16-1.34a4.41 4.41 0 0 0 .89 0" id="path3086"/><path d="M12.36 22.16c0-.16.82-.39.88 0-.38 2.41-.26 5.45 1.64 7.14a4 4 0 0 0 2.67 1.13c.33.86-.46 1.63-1 2.2-.51.42-1 1.09-1.7 1.21-.42 0-.79 0-1-.23a4.55 4.55 0 0 0 1.61-2.13l-.07-.08a7.7 7.7 0 0 1-3.05 2.3c.15-.11.19-.27.33-.38a7 7 0 0 0 1.18-.86c0-.23-.23 0-.23 0a7.37 7.37 0 0 1-2.33 1 .21.21 0 0 0 0 .36c.21 0 .55.38.84.15.54-.21.54.48.77.77s-.16.32-.27.42a4.68 4.68 0 0 0 .36 1 2.88 2.88 0 0 0 2.85-1.28 13.68 13.68 0 0 0 1.8-3.21 2.8 2.8 0 0 0 .74 2.27c-.27.5-.49 1.23-1.06 1.34s-.12 1-.75 1.15c-.84.33-2.24.58-2.47 1.71-.82.07.08.84-.59 1-.94.4-.4-1.28-1.44-.92a7.86 7.86 0 0 1-.59-2c.19 0 .46 0 .5-.29a1.45 1.45 0 0 0-.37-.92 3 3 0 0 1-2-1.68 2.15 2.15 0 0 1 .25-2 1.78 1.78 0 0 1 1.9-.47 3.5 3.5 0 0 0 1.49-.78c-.32-.19-.73.06-1.09.1-1 .19-2.57.36-3.37-.69v-.13c1.19-.16 2.43-.12 3.37-1.12-.15-.1-.44.09-.66.09a4.07 4.07 0 0 1-2 0c.27-.15 1.82-.29 2.26-.4v-.1c-1-.13-2.55-.15-3-1.4 0-.38 1.87.62 2.55-.53-.34 0-1.13.19-1.61-.22.29-.1.92.17 1.09 0-.63-.37-1.59-.68-1.61-1.58.71.08 1.54.29 2.13-.19-.44-.06-1.22-.07-1.43-.43a2.93 2.93 0 0 0 1.36 0c-.59-.26-1.56-.85-1.31-1.57a5.85 5.85 0 0 0 2.47.23m1.34 8.13a2.76 2.76 0 0 1-1.43.73l.44.38c.2.25 1.24-.8 1-1.11m-1.57 1.12c-.3-.13-.76.17-1 .26s-.36.5-.32.73a5.89 5.89 0 0 0 1.73-.73c0-.09-.28-.2-.45-.26" id="path3090"/><path class="cls-3" d="M23.05 29.88h-4.93V32h4.93z" id="path3092"/><path class="cls-6" d="M23.05 29.89h-4.93v-1.78h4.93z" id="path3094"/><g id="path3096"><path class="cls-7" d="M23.05 29.89h-4.93v-1.78h4.93z"/><path class="cls-7" d="M23.05 29.9h-4.94v-1.8h4.94zm-4.92 0H23v-1.78h-4.87z"/></g><path class="cls-6" d="M18.13 32h4.92a2.21 2.21 0 0 1-2.44 2.37A2.36 2.36 0 0 1 18.13 32" id="path3100"/><g id="path3104"><path class="cls-7" d="M18.13 32h4.92a2.21 2.21 0 0 1-2.44 2.37A2.36 2.36 0 0 1 18.13 32z"/><path class="cls-7" d="M20.61 34.35a2.62 2.62 0 0 1-1.75-.64 2.3 2.3 0 0 1-.74-1.71h4.94a2.3 2.3 0 0 1-.71 1.81 2.6 2.6 0 0 1-1.74.54zM18.14 32a2.27 2.27 0 0 0 .73 1.7 2.77 2.77 0 0 0 3.47.08A2.25 2.25 0 0 0 23 32z"/></g></g></svg>