<?xml version="1.0" encoding="utf-8"?>
<!-- Generator: Adobe Illustrator 19.2.0, SVG Export Plug-In . SVG Version: 6.00 Build 0)  -->
<svg version="1.1" id="Layer_1" xmlns="http://www.w3.org/2000/svg" xmlns:xlink="http://www.w3.org/1999/xlink" x="0px" y="0px"
	 viewBox="0 0 165.1 45" style="enable-background:new 0 0 165.1 45;" xml:space="preserve">
<style type="text/css">
	.st0{fill:#191818;}
	.st1{enable-background:new    ;}
	.st2{fill:#FF9933;}
	.st3{fill:#128807;}
	.st4{fill:#FFFFFF;}
	.st5{fill:#000088;}
</style>
<title>170x60px_IN</title>
<g id="Layer_2">
	<g id="Layer_1-2">
		<g>
			<path class="st0" d="M153.8,10.1l0.5-3.3h-1.8l0.1-0.8h4.5l-0.1,0.8h-1.8l-0.5,3.3H153.8z M163.6,10.1l0.3-1.9
				c0.1-0.6,0.1-1,0.2-1.3c-0.2,0.3-0.4,0.6-0.8,1.1l-1.5,2.1h-1L159.8,8c-0.2-0.5-0.3-0.8-0.5-1.1c-0.1,0.4-0.1,0.7-0.2,1.3
				l-0.3,1.9h-1l0.6-4.1h1.4l1.4,3.3l2.4-3.3h1.4l-0.6,4.1L163.6,10.1z"/>
		</g>
		<g>
			<polygon class="st0" points="73.4,28.7 74.7,19.2 57.2,19.2 55.9,28.7 50.3,28.7 53.4,6.2 59.1,6.2 57.9,14.8 75.3,14.8 
				76.5,6.2 82.2,6.2 79,28.7 			"/>
		</g>
		<g>
			<polygon class="st0" points="84.9,28.7 88,6.2 112.1,6.2 111.4,10.8 92.6,10.8 92.1,14.8 110.6,14.8 109.9,19 91.5,19 90.8,24.2 
				109.7,24.2 109,28.7 			"/>
		</g>
		<g>
			<polygon class="st0" points="139.2,28.7 131.5,20 121.4,28.7 114.1,28.7 128.5,16.9 117.8,6 125,6 132.2,13.9 142,6 149,6 
				135.5,17 146.3,28.7 			"/>
		</g>
		<g class="st1">
			<path d="M52.8,38.1c0.5,0,0.8,0,1.1-0.1c0.3,0,0.5-0.1,0.6-0.2c0.1-0.1,0.2-0.2,0.3-0.3c0.1-0.1,0.1-0.3,0.1-0.4h1.3
				c0,0.2-0.1,0.5-0.1,0.7s-0.1,0.4-0.2,0.5c-0.1,0.1-0.2,0.3-0.4,0.4c-0.2,0.1-0.4,0.2-0.6,0.3S54.3,39,53.9,39
				c-0.4,0-0.8,0.1-1.3,0.1c-0.6,0-1.2,0-1.6-0.1c-0.4-0.1-0.7-0.1-1-0.3c-0.2-0.1-0.4-0.3-0.5-0.5s-0.1-0.5-0.1-0.8
				c0-0.2,0-0.3,0-0.5c0-0.2,0-0.4,0.1-0.6c0.1-0.4,0.1-0.7,0.2-1c0.1-0.3,0.2-0.5,0.3-0.7c0.1-0.2,0.3-0.4,0.4-0.5
				c0.2-0.1,0.4-0.3,0.7-0.3c0.3-0.1,0.6-0.1,1-0.2c0.4,0,0.8-0.1,1.4-0.1c0.7,0,1.2,0,1.6,0.1c0.4,0.1,0.7,0.1,0.9,0.2
				c0.2,0.1,0.4,0.2,0.5,0.4s0.1,0.4,0.1,0.6c0,0.1,0,0.2,0,0.3c0,0.1,0,0.2,0,0.3h-1.3c0-0.2,0-0.3,0-0.4c0-0.1-0.1-0.2-0.2-0.3
				c-0.1-0.1-0.3-0.1-0.6-0.1s-0.6,0-1.1,0c-0.5,0-0.9,0-1.2,0.1s-0.5,0.1-0.7,0.3c-0.2,0.1-0.3,0.3-0.3,0.5
				c-0.1,0.2-0.1,0.5-0.2,0.9c0,0.2,0,0.3-0.1,0.5c0,0.1,0,0.3,0,0.4c0,0.2,0,0.3,0.1,0.4c0.1,0.1,0.2,0.2,0.3,0.3
				c0.1,0.1,0.3,0.1,0.6,0.1C52,38,52.4,38.1,52.8,38.1z"/>
			<path d="M57.3,36.3c0-0.3,0.1-0.5,0.2-0.6c0.1-0.2,0.3-0.3,0.5-0.3c0.2-0.1,0.5-0.1,0.8-0.2c0.3,0,0.8,0,1.3,0c0.5,0,0.9,0,1.2,0
				c0.3,0,0.5,0.1,0.7,0.1s0.3,0.1,0.4,0.3s0.1,0.3,0.1,0.4c0,0.1,0,0.1,0,0.2s0,0.2,0,0.3l-0.3,1.9c0,0.1,0,0.3,0,0.3s0,0.2,0,0.2
				c0,0.1,0,0.1,0,0.2H61c0,0,0-0.1,0-0.2c0,0,0,0,0-0.1c0,0,0,0,0-0.1c0,0-0.1,0.1-0.2,0.1c-0.1,0-0.2,0.1-0.3,0.1
				c-0.1,0-0.3,0.1-0.6,0.1c-0.2,0-0.5,0-0.9,0c-0.4,0-0.8,0-1,0c-0.3,0-0.5-0.1-0.6-0.1c-0.2-0.1-0.3-0.2-0.3-0.3
				c-0.1-0.1-0.1-0.2-0.1-0.4c0-0.1,0-0.1,0-0.2c0-0.1,0-0.1,0-0.2c0-0.2,0.1-0.4,0.2-0.6c0.1-0.2,0.2-0.3,0.4-0.4
				c0.2-0.1,0.4-0.2,0.7-0.2c0.3,0,0.7-0.1,1.2-0.1c0.5,0,0.9,0,1.1,0.1s0.5,0.1,0.6,0.1c0-0.1,0-0.2,0-0.3c0-0.1,0-0.1,0-0.2
				s0-0.1,0-0.1c0,0,0,0,0,0c0-0.1,0-0.1,0-0.2c0,0-0.1-0.1-0.2-0.1s-0.2,0-0.4-0.1c-0.2,0-0.4,0-0.7,0c-0.3,0-0.6,0-0.8,0
				c-0.2,0-0.3,0-0.4,0.1s-0.2,0.1-0.2,0.1s-0.1,0.1-0.1,0.2H57.3z M61.1,37.5c0,0-0.1,0-0.1,0c-0.1,0-0.1,0-0.3,0
				c-0.1,0-0.2,0-0.4,0s-0.4,0-0.6,0c-0.4,0-0.7,0-0.9,0c-0.2,0-0.4,0.1-0.4,0.1c-0.1,0-0.1,0.1-0.2,0.2c0,0.1,0,0.2,0,0.3
				c0,0.1,0,0.1,0,0.2c0,0,0.1,0.1,0.2,0.1c0.1,0,0.2,0,0.4,0c0.2,0,0.4,0,0.7,0c0.5,0,0.8,0,1.1-0.1c0.2,0,0.4-0.1,0.5-0.1
				L61.1,37.5z"/>
			<path d="M65.6,37.5c-0.3,0-0.6,0-0.8,0c-0.2,0-0.4,0-0.5-0.1s-0.2,0-0.3-0.1c-0.1,0-0.1,0-0.2-0.1c-0.1-0.1-0.3-0.1-0.3-0.2
				s-0.1-0.2-0.1-0.4c0-0.1,0-0.2,0-0.3c0-0.2,0.1-0.4,0.2-0.6s0.2-0.3,0.4-0.4c0.2-0.1,0.5-0.2,0.8-0.2s0.8-0.1,1.3-0.1
				c0.4,0,0.8,0,1.1,0s0.5,0.1,0.7,0.1c0.2,0.1,0.3,0.1,0.4,0.2c0.1,0.1,0.1,0.2,0.1,0.4c0,0.1,0,0.3-0.1,0.4H67c0-0.1,0-0.1,0-0.2
				c0,0,0-0.1,0-0.1c0,0-0.1-0.1-0.2-0.1s-0.2,0-0.4,0s-0.4,0-0.6,0c-0.2,0-0.4,0-0.5,0c-0.1,0-0.3,0-0.4,0c-0.1,0-0.2,0-0.2,0
				c-0.1,0-0.1,0-0.1,0.1c0,0-0.1,0.1-0.1,0.1c0,0.1,0,0.1,0,0.2c0,0.1,0,0.1,0,0.1c0,0,0.1,0.1,0.2,0.1c0.1,0,0.2,0,0.4,0.1
				c0.2,0,0.4,0,0.6,0c0.3,0,0.6,0,0.8,0c0.2,0,0.4,0,0.5,0c0.1,0,0.3,0,0.3,0.1c0.1,0,0.2,0,0.3,0.1c0.1,0.1,0.3,0.1,0.3,0.2
				c0.1,0.1,0.1,0.2,0.1,0.4c0,0.1,0,0.2,0,0.3c0,0.3-0.1,0.5-0.2,0.6c-0.1,0.2-0.2,0.3-0.4,0.4c-0.2,0.1-0.4,0.2-0.8,0.2
				c-0.3,0-0.7,0.1-1.2,0.1s-0.9,0-1.2,0c-0.3,0-0.6-0.1-0.7-0.1c-0.2-0.1-0.3-0.2-0.4-0.3c-0.1-0.1-0.1-0.2-0.1-0.4
				c0-0.1,0-0.1,0-0.2c0-0.1,0-0.1,0-0.2h1.2c0,0,0,0.1,0,0.1c0,0,0,0.1,0,0.1c0,0.1,0,0.1,0,0.1c0,0,0.1,0.1,0.1,0.1s0.1,0,0.2,0.1
				c0.1,0,0.2,0,0.4,0c0.2,0,0.4,0,0.6,0c0.2,0,0.4,0,0.5,0c0.1,0,0.3,0,0.4,0c0.1,0,0.2,0,0.2-0.1c0.1,0,0.1,0,0.1-0.1
				c0,0,0.1-0.1,0.1-0.1c0-0.1,0-0.1,0-0.2c0-0.1,0-0.1,0-0.1c0,0-0.1-0.1-0.2-0.1c-0.1,0-0.2,0-0.4-0.1
				C66.1,37.5,65.9,37.5,65.6,37.5z"/>
			<path d="M68.8,39l0.5-3.9h1.2L70,39H68.8z M69.4,34.5l0.1-1h1.2l-0.1,1H69.4z"/>
			<path d="M75.1,39l0.4-2.6c0,0,0,0,0-0.1c0-0.1,0-0.1-0.1-0.1c0,0-0.1-0.1-0.2-0.1c-0.1,0-0.2,0-0.4-0.1c-0.2,0-0.4,0-0.7,0
				c-0.2,0-0.4,0-0.5,0s-0.3,0.1-0.4,0.1c-0.1,0-0.2,0.1-0.3,0.2c-0.1,0.1-0.2,0.1-0.2,0.2L72.3,39h-1.2l0.5-3.9h1.2l-0.1,0.5
				c0.1-0.1,0.2-0.2,0.3-0.2c0.1-0.1,0.2-0.1,0.4-0.2c0.2-0.1,0.3-0.1,0.6-0.1s0.5,0,0.8,0c0.4,0,0.8,0,1.1,0c0.3,0,0.5,0.1,0.6,0.1
				c0.2,0.1,0.3,0.1,0.3,0.2s0.1,0.2,0.1,0.3c0,0.1,0,0.2,0,0.3L76.4,39H75.1z"/>
			<path d="M80,39.1c-0.5,0-0.9,0-1.3-0.1c-0.3-0.1-0.6-0.1-0.8-0.2c-0.2-0.1-0.3-0.2-0.4-0.4s-0.1-0.4-0.1-0.6c0-0.1,0-0.2,0-0.3
				s0-0.2,0-0.4c0-0.3,0.1-0.5,0.1-0.7s0.1-0.4,0.2-0.5c0.1-0.1,0.2-0.3,0.3-0.4c0.1-0.1,0.3-0.2,0.5-0.2s0.5-0.1,0.8-0.1
				c0.3,0,0.7,0,1.1,0c0.5,0,0.9,0,1.2,0.1c0.3,0,0.6,0.1,0.8,0.2c0.2,0.1,0.3,0.2,0.4,0.4c0.1,0.2,0.1,0.3,0.1,0.6
				c0,0.1,0,0.2,0,0.4s0,0.3-0.1,0.4c0,0.3-0.1,0.5-0.1,0.7s-0.1,0.4-0.2,0.5s-0.2,0.3-0.3,0.4c-0.1,0.1-0.3,0.2-0.5,0.2
				s-0.5,0.1-0.8,0.1S80.4,39.1,80,39.1z M80.1,38.2c0.3,0,0.6,0,0.8,0s0.4-0.1,0.5-0.1s0.2-0.2,0.2-0.3c0-0.1,0.1-0.3,0.1-0.5
				c0-0.2,0.1-0.4,0.1-0.5c0-0.1,0-0.2,0-0.2c0-0.1,0-0.2-0.1-0.3s-0.1-0.1-0.2-0.2c-0.1,0-0.2-0.1-0.4-0.1c-0.2,0-0.4,0-0.7,0
				c-0.3,0-0.6,0-0.8,0c-0.2,0-0.4,0.1-0.5,0.1c-0.1,0.1-0.2,0.2-0.2,0.3c0,0.1-0.1,0.3-0.1,0.5c0,0.1,0,0.2,0,0.3s0,0.1,0,0.2
				s0,0.1,0,0.1s0,0.1,0,0.1c0,0.1,0,0.2,0.1,0.3c0,0.1,0.1,0.1,0.2,0.2s0.3,0.1,0.4,0.1C79.6,38.2,79.8,38.2,80.1,38.2z"/>
			<path d="M89.3,39l0.3-2.3h-4.3L85,39h-1.4l0.8-5.5h1.4l-0.3,2.1h4.3l0.3-2.1h1.4L90.6,39H89.3z"/>
			<path d="M91.6,39l0.8-5.5h5.9l-0.2,1.1h-4.6l-0.1,1h4.5l-0.2,1h-4.5l-0.2,1.3h4.6L97.5,39H91.6z"/>
			<path d="M104.1,39l-1.9-2.1L99.8,39H98l3.5-2.9l-2.6-2.6h1.8l1.7,1.9l2.4-1.9h1.7l-3.3,2.6l2.6,2.8H104.1z"/>
			<path d="M106.5,39l0.2-1.1h1.2l-0.2,1.1H106.5z"/>
			<path d="M108.7,39l0.5-3.9h1.2l-0.5,3.9H108.7z M109.3,34.5l0.1-1h1.2l-0.1,1H109.3z"/>
			<path d="M115,39l0.4-2.6c0,0,0,0,0-0.1c0-0.1,0-0.1-0.1-0.1c0,0-0.1-0.1-0.2-0.1c-0.1,0-0.2,0-0.4-0.1c-0.2,0-0.4,0-0.7,0
				c-0.2,0-0.4,0-0.5,0s-0.3,0.1-0.4,0.1c-0.1,0-0.2,0.1-0.3,0.2c-0.1,0.1-0.2,0.1-0.2,0.2l-0.3,2.5H111l0.5-3.9h1.2l-0.1,0.5
				c0.1-0.1,0.2-0.2,0.3-0.2c0.1-0.1,0.2-0.1,0.4-0.2c0.2-0.1,0.3-0.1,0.5-0.1s0.5,0,0.8,0c0.4,0,0.8,0,1.1,0c0.3,0,0.5,0.1,0.6,0.1
				c0.2,0.1,0.3,0.1,0.3,0.2c0.1,0.1,0.1,0.2,0.1,0.3c0,0.1,0,0.2,0,0.3l-0.4,2.9H115z"/>
		</g>
		<g>
			<path class="st2" d="M37.2,8.7L24,1.1c-2.2-1.3-4.9-1.3-7.1,0L3.7,8.7c-2,1.2-3.3,3.3-3.5,5.6h40.6C40.6,12,39.3,9.9,37.2,8.7z"
				/>
		</g>
		<g>
			<path class="st3" d="M3.7,36.3l13.2,7.6c2.2,1.3,4.9,1.3,7.1,0l13.2-7.6c2-1.2,3.3-3.3,3.5-5.6H0.1C0.3,33,1.6,35.1,3.7,36.3z"/>
		</g>
		<g>
			<path class="st4" d="M40.8,14.9c0-0.2,0-0.4,0-0.5H0.1c0,0.2,0,0.4,0,0.5v15.3c0,0.2,0,0.4,0,0.5h40.6c0-0.2,0-0.4,0-0.5
				L40.8,14.9z"/>
		</g>
		<g id="_Group_">
			<g>
				<path class="st4" d="M20.5,38.2c-0.9,0-1.8-0.2-2.5-0.7l-9.1-5.2c-1.6-0.9-2.5-2.6-2.5-4.4V17.4c0-1.8,1-3.5,2.5-4.4l9.1-5.2
					c1.6-0.9,3.5-0.9,5.1,0l9.1,5.2c1.6,0.9,2.5,2.6,2.5,4.4v10.5c0,1.8-1,3.5-2.5,4.4L23,37.5C22.2,38,21.3,38.2,20.5,38.2z"/>
			</g>
		</g>
		<g>
			<ellipse class="st5" cx="20.5" cy="22.6" rx="11.8" ry="11.3"/>
		</g>
		<g>
			<ellipse class="st4" cx="20.5" cy="22.6" rx="10.3" ry="9.9"/>
		</g>
		<g>
			<ellipse class="st5" cx="20.5" cy="22.6" rx="2.1" ry="2"/>
		</g>
		<g id="b">
			<g id="a">
				<g>
					<ellipse class="st5" cx="30.7" cy="23.9" rx="0.5" ry="0.5"/>
				</g>
				<g>
					<path class="st5" d="M20.5,32.6l0.4-6l-0.4-2.8l-0.4,2.8L20.5,32.6z"/>
				</g>
			</g>
			<g id="a-2">
				<g>
					<ellipse class="st5" cx="30" cy="26.4" rx="0.5" ry="0.5"/>
				</g>
				<g>
					<path class="st5" d="M17.8,32.2l2-5.7l0.4-2.8L19,26.4L17.8,32.2z"/>
				</g>
			</g>
		</g>
		<g id="c">
			<g id="b-2">
				<g id="a-3">
					<g>
						<ellipse class="st5" cx="28.7" cy="28.7" rx="0.5" ry="0.5"/>
					</g>
					<g>
						<path class="st5" d="M15.3,31.2l3.4-5l1.2-2.6l-1.8,2.3L15.3,31.2z"/>
					</g>
				</g>
				<g id="a-4">
					<g>
						<ellipse class="st5" cx="26.8" cy="30.5" rx="0.5" ry="0.5"/>
					</g>
					<g>
						<path class="st5" d="M13.1,29.6l4.6-4l1.8-2.2l-2.3,1.8L13.1,29.6z"/>
					</g>
				</g>
			</g>
		</g>
		<g id="d">
			<g id="b-3">
				<g id="a-5">
					<g>
						<ellipse class="st5" cx="24.4" cy="31.8" rx="0.5" ry="0.5"/>
					</g>
					<g>
						<path class="st5" d="M11.5,27.6l5.5-2.7l2.4-1.7l-2.7,1.1L11.5,27.6z"/>
					</g>
				</g>
				<g id="a-6">
					<g>
						<ellipse class="st5" cx="21.8" cy="32.5" rx="0.5" ry="0.5"/>
					</g>
					<g>
						<path class="st5" d="M10.5,25.2l6.1-1.2l2.8-1.1l-2.9,0.4L10.5,25.2z"/>
					</g>
				</g>
			</g>
			<g id="c-2">
				<g id="b-4">
					<g id="a-7">
						<g>
							<ellipse class="st5" cx="19.1" cy="32.5" rx="0.5" ry="0.5"/>
						</g>
						<g>
							<path class="st5" d="M10.1,22.6l6.2,0.3l3-0.3l-3-0.3L10.1,22.6z"/>
						</g>
					</g>
					<g id="a-8">
						<g>
							<ellipse class="st5" cx="16.5" cy="31.8" rx="0.5" ry="0.5"/>
						</g>
						<g>
							<path class="st5" d="M10.5,20.1l5.9,1.9l2.9,0.4l-2.8-1.1L10.5,20.1z"/>
						</g>
					</g>
				</g>
			</g>
		</g>
		<g id="b-5">
			<g id="a-9">
				<g>
					<ellipse class="st5" cx="14.2" cy="30.5" rx="0.5" ry="0.5"/>
				</g>
				<g>
					<path class="st5" d="M11.5,17.7l5.2,3.3l2.7,1.1L17,20.4L11.5,17.7z"/>
				</g>
			</g>
			<g id="a-10">
				<g>
					<ellipse class="st5" cx="12.2" cy="28.7" rx="0.5" ry="0.5"/>
				</g>
				<g>
					<path class="st5" d="M13.1,15.6l4.1,4.4l2.3,1.8l-1.8-2.2L13.1,15.6z"/>
				</g>
			</g>
		</g>
		<g id="c-3">
			<g id="b-6">
				<g id="a-11">
					<g>
						<ellipse class="st5" cx="10.9" cy="26.4" rx="0.5" ry="0.5"/>
					</g>
					<g>
						<path class="st5" d="M15.3,14l2.8,5.3l1.8,2.3L18.7,19L15.3,14z"/>
					</g>
				</g>
				<g id="a-12">
					<g>
						<ellipse class="st5" cx="10.2" cy="23.9" rx="0.5" ry="0.5"/>
					</g>
					<g>
						<path class="st5" d="M17.8,13.1l1.2,5.8l1.1,2.6l-0.4-2.8L17.8,13.1z"/>
					</g>
				</g>
			</g>
		</g>
		<g id="d-2">
			<g id="b-7">
				<g id="a-13">
					<g>
						<ellipse class="st5" cx="10.2" cy="21.3" rx="0.5" ry="0.5"/>
					</g>
					<g>
						<path class="st5" d="M20.5,12.7l-0.4,6l0.4,2.8l0.4-2.8L20.5,12.7z"/>
					</g>
				</g>
				<g id="a-14">
					<g>
						<ellipse class="st5" cx="10.9" cy="18.8" rx="0.5" ry="0.5"/>
					</g>
					<g>
						<path class="st5" d="M23.1,13.1l-2,5.7l-0.4,2.8l1.1-2.6L23.1,13.1z"/>
					</g>
				</g>
			</g>
			<g id="c-4">
				<g id="b-8">
					<g id="a-15">
						<g>
							<ellipse class="st5" cx="12.2" cy="16.6" rx="0.5" ry="0.5"/>
						</g>
						<g>
							<path class="st5" d="M25.6,14l-3.4,5l-1.2,2.6l1.8-2.3L25.6,14z"/>
						</g>
					</g>
					<g id="a-16">
						<g>
							<ellipse class="st5" cx="14.2" cy="14.8" rx="0.5" ry="0.5"/>
						</g>
						<g>
							<path class="st5" d="M27.8,15.6l-4.6,4l-1.8,2.2l2.3-1.8L27.8,15.6z"/>
						</g>
					</g>
				</g>
			</g>
		</g>
		<g id="b-9">
			<g id="a-17">
				<g>
					<ellipse class="st5" cx="16.5" cy="13.5" rx="0.5" ry="0.5"/>
				</g>
				<g>
					<path class="st5" d="M29.4,17.7l-5.5,2.7l-2.4,1.7l2.7-1.1L29.4,17.7z"/>
				</g>
			</g>
			<g id="a-18">
				<g>
					<ellipse class="st5" cx="19.1" cy="12.8" rx="0.5" ry="0.5"/>
				</g>
				<g>
					<path class="st5" d="M30.4,20.1l-6.1,1.2l-2.8,1.1l2.9-0.4L30.4,20.1z"/>
				</g>
			</g>
		</g>
		<g id="c-5">
			<g id="b-10">
				<g id="a-19">
					<g>
						<ellipse class="st5" cx="21.8" cy="12.8" rx="0.5" ry="0.5"/>
					</g>
					<g>
						<path class="st5" d="M30.8,22.6l-6.2-0.3l-3,0.3l3,0.3L30.8,22.6z"/>
					</g>
				</g>
				<g id="a-20">
					<g>
						<ellipse class="st5" cx="24.4" cy="13.5" rx="0.5" ry="0.5"/>
					</g>
					<g>
						<path class="st5" d="M30.4,25.2l-5.9-1.9l-2.9-0.4l2.8,1.1L30.4,25.2z"/>
					</g>
				</g>
			</g>
		</g>
		<g id="d-3">
			<g id="b-11">
				<g id="a-21">
					<g>
						<ellipse class="st5" cx="26.8" cy="14.8" rx="0.5" ry="0.5"/>
					</g>
					<g>
						<path class="st5" d="M29.4,27.6l-5.2-3.3l-2.7-1.1l2.4,1.7L29.4,27.6z"/>
					</g>
				</g>
				<g id="a-22">
					<g>
						<ellipse class="st5" cx="28.7" cy="16.6" rx="0.5" ry="0.5"/>
					</g>
					<g>
						<path class="st5" d="M27.8,29.6l-4.1-4.4l-2.3-1.8l1.8,2.2L27.8,29.6z"/>
					</g>
				</g>
			</g>
			<g id="c-6">
				<g id="b-12">
					<g id="a-23">
						<g>
							<ellipse class="st5" cx="30" cy="18.8" rx="0.5" ry="0.5"/>
						</g>
						<g>
							<path class="st5" d="M25.6,31.2l-2.8-5.3L21,23.6l1.2,2.6L25.6,31.2z"/>
						</g>
					</g>
					<g id="a-24">
						<g>
							<ellipse class="st5" cx="30.7" cy="21.3" rx="0.5" ry="0.5"/>
						</g>
						<g>
							<path class="st5" d="M23.1,32.2l-1.3-5.8l-1.1-2.6l0.4,2.8L23.1,32.2z"/>
						</g>
					</g>
				</g>
			</g>
		</g>
		<g>
			<path class="st4" d="M0.2,26.7v-8.3h1.1c0.6,0,1.1,0.5,1.1,1.1v6c0,0.6-0.5,1.1-1.1,1.1c0,0,0,0,0,0H0.2z"/>
		</g>
		<g>
			<path class="st4" d="M7.6,8.9c-0.4,0-0.8-0.2-1-0.6L6,7.4l7.2-4.2l0.6,0.9c0.2,0.3,0.2,0.6,0.1,0.9c-0.1,0.3-0.3,0.6-0.5,0.7
				l-5.2,3C7.9,8.9,7.7,8.9,7.6,8.9L7.6,8.9z"/>
		</g>
		<g>
			<path class="st4" d="M32.4,8.4c-0.2,0-0.4-0.1-0.6-0.1l-5.2-3c-0.3-0.1-0.5-0.4-0.5-0.7c-0.1-0.3,0-0.6,0.1-0.9l0.5-0.9l7.2,4.1
				l-0.6,0.9C33.2,8.2,32.8,8.4,32.4,8.4L32.4,8.4z"/>
		</g>
		<g>
			<path class="st4" d="M39.7,26.7c-0.6,0-1.1-0.5-1.1-1.1v-6c0-0.6,0.5-1.1,1.1-1.1h1v8.3H39.7z"/>
		</g>
		<g>
			<path class="st4" d="M6.1,37.6l0.5-0.9c0.3-0.5,1-0.7,1.6-0.4l5.2,3c0.3,0.2,0.5,0.4,0.5,0.7c0.1,0.3,0,0.6-0.1,0.9l-0.5,0.8
				L6.1,37.6z"/>
		</g>
		<g>
			<path class="st4" d="M26.2,41.5C26,41.2,26,40.9,26,40.6c0.1-0.3,0.3-0.5,0.5-0.7l5.2-3c0.5-0.3,1.2-0.1,1.5,0.4c0,0,0,0,0,0
				l0.5,0.9l-7.2,4.2L26.2,41.5z"/>
		</g>
		<g>
			<path class="st0" d="M20.5,0.2c1.2,0,2.5,0.3,3.5,0.9l13.2,7.6c2.2,1.3,3.5,3.6,3.5,6.1v15.3c0,2.5-1.3,4.8-3.5,6.1L24,43.8
				c-2.2,1.3-4.8,1.3-7,0L3.7,36.2c-2.2-1.3-3.5-3.6-3.5-6.1V14.9c0-2.5,1.3-4.8,3.5-6.1L17,1.2C18.1,0.6,19.3,0.2,20.5,0.2 M20.5,0
				c-1.3,0-2.5,0.4-3.6,1L3.6,8.6C1.4,9.9,0,12.3,0,14.9v15.3c0,2.6,1.4,5,3.6,6.3L16.8,44c2.2,1.3,5,1.3,7.2,0l13.2-7.6
				c2.2-1.3,3.6-3.7,3.6-6.3V14.9c0-2.6-1.4-5-3.6-6.3L24.1,1C23,0.4,21.7,0,20.5,0L20.5,0z"/>
		</g>
		<g>
			<path class="st0" d="M1.2,18.5c0.6,0,1.1,0.5,1.1,1.1v6c0,0.6-0.5,1.1-1.1,1.1c0,0,0,0,0,0h-1v-8.2H1.2 M1.2,18.4H0.1v8.4h1.1
				c0.7,0,1.2-0.5,1.2-1.2l0,0v-6C2.4,18.9,1.9,18.4,1.2,18.4C1.2,18.4,1.2,18.4,1.2,18.4z"/>
		</g>
		<g>
			<path class="st0" d="M13.2,3.3l0.5,0.9c0.3,0.5,0.1,1.2-0.4,1.5c0,0,0,0,0,0l-5.2,3C7.9,8.8,7.8,8.9,7.6,8.9
				c-0.4,0-0.7-0.2-0.9-0.5L6.1,7.4L13.2,3.3 M13.2,3.2L13.2,3.2L6,7.3L5.9,7.4L6,7.5l0.5,0.9C6.7,8.8,7.1,9,7.5,9
				c0.2,0,0.4-0.1,0.6-0.2l5.2-3c0.6-0.3,0.8-1.1,0.4-1.6c0,0,0,0,0,0L13.2,3.2C13.2,3.3,13.2,3.2,13.2,3.2z"/>
		</g>
		<g>
			<path class="st0" d="M26.8,2.8l7.1,4.1l-0.5,0.9c-0.2,0.3-0.6,0.5-0.9,0.5c-0.2,0-0.4-0.1-0.5-0.1l-5.2-3c-0.5-0.3-0.7-1-0.4-1.5
				c0,0,0,0,0,0L26.8,2.8 M26.8,2.6L26.8,2.6l-0.6,1c-0.3,0.6-0.1,1.3,0.4,1.6c0,0,0,0,0,0l5.2,3c0.2,0.1,0.4,0.2,0.6,0.2
				c0.4,0,0.8-0.2,1-0.6l0.5-0.9L34,6.8l-0.1-0.1L26.8,2.6L26.8,2.6L26.8,2.6z"/>
		</g>
		<g>
			<path class="st0" d="M40.7,18.5v8.2h-1c-0.6,0-1.1-0.5-1.1-1.1c0,0,0,0,0,0v-6c0-0.6,0.5-1.1,1.1-1.1l0,0H40.7 M40.8,18.4h-1.1
				c-0.7,0-1.2,0.5-1.2,1.2v0v6c0,0.7,0.5,1.2,1.2,1.2l0,0h1.1C40.8,26.8,40.8,18.4,40.8,18.4z"/>
		</g>
		<g>
			<path class="st0" d="M7.6,36.3c0.2,0,0.4,0.1,0.5,0.2l5.2,3c0.5,0.3,0.7,1,0.4,1.5c0,0,0,0,0,0l-0.5,0.8l-7.1-4.1l0.5-0.8
				C6.9,36.5,7.2,36.3,7.6,36.3 M7.6,36.1c-0.4,0-0.8,0.2-1,0.6l-0.5,0.8L6,37.7l0.1,0.1l7.1,4.1l0.1,0l0.1-0.1l0.5-0.8
				c0.2-0.3,0.2-0.6,0.2-1c-0.1-0.3-0.3-0.6-0.6-0.7l-5.2-3C8.1,36.2,7.9,36.1,7.6,36.1L7.6,36.1z"/>
		</g>
		<g>
			<path class="st0" d="M32.3,36.8c0.4,0,0.7,0.2,0.9,0.5l0.5,0.8l-7.1,4.1l-0.5-0.8c-0.3-0.5-0.1-1.2,0.4-1.5l5.2-3
				C32,36.9,32.1,36.9,32.3,36.8 M32.3,36.7c-0.2,0-0.4,0.1-0.6,0.2l-5.2,3c-0.3,0.2-0.5,0.4-0.6,0.7c-0.1,0.3,0,0.6,0.1,0.9
				l0.5,0.8l0.1,0.1h0.1l7.1-4.1l0.1-0.1l-0.1-0.1l-0.5-0.8C33.2,37,32.8,36.8,32.3,36.7L32.3,36.7z"/>
		</g>
		<g id="_Group_2">
			<g>
				<path class="st0" d="M20.5,39.7c-0.2,0-0.4,0-0.6,0c-0.1,0-0.1-0.1-0.1-0.1c0,0,0,0,0,0c0-0.1,0.1-0.1,0.1-0.1c0,0,0,0,0,0
					c0.4,0,0.7,0,1.1,0c0.1,0,0.1,0,0.1,0.1c0,0,0,0,0,0c0,0.1,0,0.1-0.1,0.1L20.5,39.7z M22.1,39.4c0,0-0.1,0-0.1-0.1
					c0-0.1,0-0.1,0.1-0.1c0.3-0.1,0.7-0.3,1-0.5c0.1,0,0.1,0,0.2,0c0,0.1,0,0.1,0,0.1c0,0,0,0,0,0C22.8,39.1,22.5,39.3,22.1,39.4
					L22.1,39.4z M18.7,39.4L18.7,39.4c-0.3-0.1-0.7-0.3-1-0.5h-0.1c0,0,0-0.1,0-0.2c0,0,0.1,0,0.1,0h0c0.3,0.2,0.7,0.3,1,0.4
					c0.1,0,0.1,0.1,0.1,0.2C18.9,39.4,18.8,39.4,18.7,39.4C18.7,39.4,18.7,39.4,18.7,39.4L18.7,39.4z M24.1,38.4
					c-0.1,0-0.1-0.1-0.1-0.1c0,0,0-0.1,0.1-0.1l1-0.6c0,0,0.1,0,0.2,0c0,0,0,0.1,0,0.2l-1,0.6L24.1,38.4z M16.7,38.3L16.7,38.3
					l-1-0.6c-0.1,0-0.1-0.1,0-0.2c0-0.1,0.1-0.1,0.2,0l1,0.6c0.1,0,0.1,0.1,0.1,0.1C16.8,38.3,16.8,38.4,16.7,38.3L16.7,38.3z
					 M26.1,37.3c0,0-0.1,0-0.1-0.1c-0.1,0-0.1,0-0.1-0.1c0-0.1,0-0.1,0.1-0.1l1-0.6c0,0,0.1,0,0.1,0c0,0,0,0,0,0c0,0,0,0.1,0,0.2
					l-1,0.6L26.1,37.3z M14.7,37.2L14.7,37.2l-1.1-0.6c0,0,0-0.1,0-0.2c0,0,0.1,0,0.2,0l1,0.6c0.1,0,0.1,0.1,0.1,0.1
					C14.9,37.2,14.8,37.3,14.7,37.2L14.7,37.2z M28.1,36.1C28,36.1,28,36,28.1,36.1C28,36,28,35.9,28,35.8l1-0.6c0,0,0.1,0,0.1,0
					c0,0,0,0,0,0c0,0,0,0.1,0,0.1c0,0,0,0,0,0L28.1,36.1L28.1,36.1z M12.8,36L12.8,36l-1.1-0.6c-0.1,0-0.1-0.1-0.1-0.2
					c0-0.1,0.1-0.1,0.2-0.1c0,0,0,0,0,0l1,0.6C12.9,35.8,12.9,35.9,12.8,36C12.8,36,12.8,36,12.8,36C12.8,36,12.8,36,12.8,36z
					 M30,35c0,0-0.1,0-0.1-0.1c0-0.1,0-0.1,0-0.1c0,0,0,0,0,0l1-0.6c0.1,0,0.1,0,0.2,0c0,0.1,0,0.1,0,0.2L30,35L30,35z M10.8,35
					L10.8,35l-1-0.6c0,0,0-0.1,0-0.1c0,0,0,0,0,0c0-0.1,0.1-0.1,0.1-0.1c0,0,0,0,0,0l1,0.6c0,0,0,0.1,0,0.2
					C10.9,34.9,10.8,34.9,10.8,35L10.8,35z M32,33.8c0,0-0.1,0-0.1-0.1c0,0,0-0.1,0-0.1c0,0,0,0,0,0l1-0.6c0,0,0.1,0,0.2,0
					c0,0,0,0.1,0,0.2L32,33.8L32,33.8z M8.8,33.8L8.8,33.8l-1.1-0.6c-0.1-0.1-0.1-0.2-0.2-0.2c0,0,0-0.1,0-0.1c0,0,0,0,0,0
					c0,0,0.1,0,0.2,0L7.9,33l1,0.6c0,0,0,0.1,0,0.2C8.9,33.8,8.9,33.8,8.8,33.8L8.8,33.8z M33.9,32.6C33.9,32.6,33.9,32.6,33.9,32.6
					c-0.1,0-0.1-0.1-0.1-0.2c0,0,0,0,0,0c0.3-0.2,0.5-0.5,0.8-0.8c0,0,0.1,0,0.2,0c0,0,0,0.1,0,0.2c0,0,0,0,0,0
					C34.5,32.1,34.3,32.4,33.9,32.6C33.9,32.6,33.9,32.6,33.9,32.6z M6.7,32.3C6.7,32.4,6.6,32.4,6.7,32.3c-0.4-0.3-0.6-0.6-0.8-0.9
					c0,0,0-0.1,0-0.1c0,0,0,0,0,0c0,0,0.1,0,0.1,0c0,0,0,0,0,0c0.2,0.3,0.4,0.6,0.7,0.9C6.8,32.2,6.8,32.3,6.7,32.3
					C6.7,32.3,6.7,32.3,6.7,32.3C6.7,32.3,6.7,32.3,6.7,32.3z M35.3,30.8L35.3,30.8c-0.1,0-0.1-0.1-0.1-0.1c0,0,0,0,0,0
					c0.2-0.3,0.3-0.7,0.4-1c0-0.1,0.1-0.1,0.1-0.1c0,0,0,0,0,0c0.1,0,0.1,0.1,0.1,0.1c0,0,0,0,0,0c-0.1,0.4-0.2,0.7-0.4,1.1
					C35.4,30.8,35.3,30.8,35.3,30.8C35.3,30.8,35.3,30.8,35.3,30.8z M5.5,30.4c0,0-0.1,0-0.1-0.1c-0.1-0.4-0.2-0.7-0.3-1.1
					c0-0.1,0-0.1,0.1-0.1c0.1,0,0.1,0,0.1,0.1c0,0,0,0,0,0c0.1,0.4,0.2,0.7,0.3,1.1C5.6,30.4,5.6,30.4,5.5,30.4L5.5,30.4z
					 M35.8,28.6L35.8,28.6c-0.1,0-0.1,0-0.1-0.1c0,0,0,0,0,0v-1.1c0-0.1,0.1-0.1,0.1-0.1c0.1,0,0.1,0.1,0.1,0.1v1.1
					C35.9,28.5,35.9,28.6,35.8,28.6C35.8,28.6,35.8,28.6,35.8,28.6z M5.1,28.2c-0.1,0-0.1,0-0.1-0.1c0,0,0,0,0,0V27
					c0-0.1,0-0.1,0.1-0.1c0.1,0,0.1,0,0.1,0.1c0,0,0,0,0,0v1.1C5.2,28.2,5.2,28.2,5.1,28.2z M35.8,26.3c-0.1,0-0.1,0-0.1-0.1
					c0,0,0,0,0,0v-1.1c0,0,0.1-0.1,0.1-0.1c0.1,0,0.1,0,0.1,0.1c0,0,0,0,0,0v1.1C35.9,26.3,35.9,26.3,35.8,26.3z M5.1,25.9
					c-0.1,0-0.1,0-0.1-0.1l0,0v-1.1c0-0.1,0-0.1,0.1-0.1c0.1,0,0.1,0,0.1,0.1c0,0,0,0,0,0v1.1C5.2,25.9,5.2,25.9,5.1,25.9
					C5.1,25.9,5.1,25.9,5.1,25.9z M35.8,24c-0.1,0-0.1,0-0.1-0.1c0,0,0,0,0,0v-1.1c0-0.1,0-0.1,0.1-0.1c0,0,0,0,0,0
					c0.1,0,0.1,0,0.1,0.1c0,0,0,0,0,0v1.1C35.9,24,35.9,24,35.8,24z M5.1,23.6c-0.1,0-0.1,0-0.1-0.1v-1.1c0-0.1,0-0.1,0.1-0.1
					c0.1,0,0.1,0,0.1,0.1c0,0,0,0,0,0v1.1C5.2,23.6,5.2,23.6,5.1,23.6C5.1,23.6,5.1,23.6,5.1,23.6z M35.8,21.8
					c-0.1,0-0.1-0.1-0.1-0.1v-1.1c0-0.1,0-0.1,0.1-0.1c0,0,0,0,0,0c0.1,0,0.1,0,0.1,0.1c0,0,0,0,0,0v1.1
					C35.9,21.7,35.9,21.8,35.8,21.8C35.8,21.8,35.8,21.8,35.8,21.8z M5.1,21.4c-0.1,0-0.1,0-0.1-0.1l0,0v-1.1C5,20.1,5,20,5.1,20
					c0.1,0,0.1,0,0.1,0.1c0,0,0,0,0,0v1.1C5.2,21.3,5.2,21.4,5.1,21.4C5.1,21.4,5.1,21.4,5.1,21.4z M35.8,19.5
					c-0.1,0-0.1-0.1-0.1-0.1v-1.1c0-0.1,0-0.1,0.1-0.1c0,0,0,0,0,0c0.1,0,0.1,0,0.1,0.1c0,0,0,0,0,0v1.1
					C35.9,19.4,35.9,19.5,35.8,19.5C35.8,19.5,35.8,19.5,35.8,19.5z M5.1,19.1c-0.1,0-0.1,0-0.1-0.1v-1.2c0-0.1,0-0.1,0.1-0.1
					c0.1,0,0.1,0,0.1,0.1c0,0,0,0,0,0V19C5.2,19.1,5.2,19.1,5.1,19.1z M35.8,17.2c-0.1,0-0.1,0-0.1-0.1c0,0,0,0,0,0v-0.2
					c0-0.3,0-0.7-0.1-1c0-0.1,0-0.1,0.1-0.1s0.1,0,0.1,0.1c0.1,0.3,0.1,0.7,0.1,1v0.2C35.9,17.2,35.9,17.2,35.8,17.2L35.8,17.2z
					 M5.1,16.8L5.1,16.8c-0.1,0-0.1-0.1-0.1-0.1c0-0.4,0.1-0.8,0.2-1.1c0-0.1,0.1-0.1,0.1-0.1c0,0,0,0,0,0c0.1,0,0.1,0.1,0.1,0.1
					c0,0,0,0,0,0c-0.1,0.4-0.1,0.7-0.2,1.1C5.2,16.8,5.2,16.8,5.1,16.8z M35.4,15c0,0-0.1,0-0.1-0.1c-0.1-0.4-0.3-0.7-0.5-1
					c0,0,0-0.1,0-0.2c0,0,0.1,0,0.2,0c0,0,0,0,0,0c0.2,0.3,0.4,0.6,0.5,1C35.5,14.8,35.5,14.9,35.4,15C35.4,14.9,35.4,14.9,35.4,15
					L35.4,15z M5.7,14.6L5.7,14.6c0,0,0-0.1,0-0.1c0,0,0,0,0,0c0.2-0.4,0.4-0.7,0.6-1c0,0,0.1,0,0.2,0c0,0,0,0.1,0,0.2c0,0,0,0,0,0
					c-0.2,0.3-0.4,0.6-0.6,0.9C5.8,14.6,5.8,14.7,5.7,14.6C5.7,14.6,5.7,14.6,5.7,14.6z M34.1,13.1C34.1,13.1,34.1,13.1,34.1,13.1
					c-0.4-0.3-0.7-0.5-1-0.7c0,0,0-0.1,0-0.1c0,0,0,0,0,0c0,0,0.1,0,0.1,0c0,0,0,0,0,0c0.3,0.2,0.6,0.4,0.9,0.7c0,0,0,0.1,0,0.2
					C34.2,13.2,34.1,13.1,34.1,13.1z M7.1,12.9C7.1,12.9,7,12.9,7.1,12.9C7,12.8,7,12.7,7,12.7c0,0,0,0,0,0c0.2-0.2,0.5-0.4,0.8-0.5
					L8,12c0,0,0.1,0,0.1,0c0,0,0,0.1,0,0.2c0,0,0,0,0,0l-0.2,0.1c-0.3,0.2-0.5,0.3-0.7,0.5C7.2,12.8,7.1,12.9,7.1,12.9L7.1,12.9z
					 M32.2,11.9L32.2,11.9l-1.1-0.6c-0.1,0-0.1-0.1-0.1-0.1c0,0,0,0,0,0c0,0,0.1,0,0.2,0c0,0,0,0,0,0l1,0.6
					C32.3,11.8,32.3,11.8,32.2,11.9C32.3,11.9,32.2,11.9,32.2,11.9L32.2,11.9z M9,11.7c0,0-0.1,0-0.1-0.1c0,0,0-0.1,0-0.2l1-0.6
					c0.1,0,0.1,0,0.2,0.1c0,0,0,0.1,0,0.1L9,11.7L9,11.7z M30.2,10.7L30.2,10.7l-1.1-0.6c0,0,0-0.1,0-0.1c0,0,0.1,0,0.2,0
					c0,0,0,0,0,0l1,0.6c0,0,0,0.1,0,0.1c0,0,0,0,0,0C30.3,10.7,30.3,10.7,30.2,10.7L30.2,10.7z M11,10.5c-0.1,0-0.1-0.1-0.1-0.1
					c0,0,0-0.1,0.1-0.1l1-0.6c0,0,0.1,0,0.2,0c0,0,0,0.1,0,0.1L11,10.5L11,10.5z M28.3,9.6L28.3,9.6l-1-0.6c-0.1,0-0.1-0.1,0-0.2
					c0,0,0.1-0.1,0.1,0l1,0.6C28.4,9.4,28.4,9.5,28.3,9.6C28.3,9.5,28.3,9.6,28.3,9.6z M13,9.4c0,0-0.1,0-0.1-0.1c0,0,0-0.1,0-0.1
					l1-0.6c0.1,0,0.1,0,0.2,0c0,0.1,0,0.1,0,0.2c0,0,0,0,0,0L13,9.4L13,9.4z M26.3,8.4C26.3,8.4,26.3,8.4,26.3,8.4l-1.1-0.6
					c-0.1,0-0.1-0.1,0-0.2c0,0,0.1,0,0.2,0l1,0.6C26.4,8.3,26.4,8.3,26.3,8.4C26.4,8.4,26.3,8.4,26.3,8.4L26.3,8.4z M14.9,8.2
					c0,0-0.1,0-0.1-0.1c0,0,0-0.1,0-0.1l1-0.6c0,0,0.1,0,0.2,0c0,0,0,0,0,0c0,0,0,0.1,0,0.2L14.9,8.2L14.9,8.2z M24.3,7.2L24.3,7.2
					l-1.1-0.6c0,0,0-0.1,0-0.2c0,0,0.1,0,0.2,0l1,0.6c0,0,0,0.1,0,0.1c0,0,0,0,0,0C24.4,7.3,24.4,7.3,24.3,7.2L24.3,7.2z M16.9,7.1
					C16.9,7.1,16.8,7,16.9,7.1c-0.1-0.1-0.1-0.2-0.1-0.2c0,0,0,0,0,0l0.8-0.5l0.2-0.1c0,0,0.1,0,0.1,0c0,0,0,0.1,0,0.2l-0.2,0.1
					L16.9,7.1L16.9,7.1z M22.3,6.2L22.3,6.2C22,6.1,21.6,6,21.2,6c-0.1,0-0.1-0.1-0.1-0.1c0,0,0,0,0,0c0-0.1,0.1-0.1,0.1-0.1
					c0.4,0,0.8,0.1,1.1,0.2c0.1,0,0.1,0.1,0.1,0.2C22.4,6.2,22.4,6.2,22.3,6.2z M19,6.1c-0.1,0-0.1,0-0.1-0.1c0,0,0,0,0,0
					c0-0.1,0-0.1,0.1-0.1c0,0,0,0,0,0c0.4-0.1,0.8-0.2,1.1-0.2c0.1,0,0.1,0,0.1,0.1c0,0,0,0,0,0c0,0.1,0,0.1-0.1,0.1
					C19.7,5.9,19.4,6,19,6.1L19,6.1z"/>
			</g>
		</g>
		<g id="_Group_3">
			<g>
				<path class="st0" d="M20.5,38.2c-0.9,0-1.8-0.2-2.5-0.7l-9.1-5.2c-1.6-0.9-2.5-2.6-2.5-4.4V17.4c0-1.8,1-3.5,2.5-4.4l9.1-5.2
					c1.6-0.9,3.5-0.9,5.1,0l9.1,5.2c1.6,0.9,2.5,2.6,2.5,4.4v10.5c0,1.8-1,3.5-2.5,4.4L23,37.6C22.2,38,21.3,38.2,20.5,38.2z
					 M20.5,7.3c-0.9,0-1.7,0.2-2.5,0.7l-9.1,5.2c-1.5,0.9-2.4,2.5-2.4,4.2v10.5c0,1.7,0.9,3.3,2.4,4.2l9.1,5.2
					c1.5,0.9,3.3,0.9,4.9,0l9.1-5.2c1.5-0.9,2.4-2.5,2.4-4.2V17.4c0-1.7-0.9-3.3-2.4-4.2L22.9,8C22.1,7.6,21.3,7.3,20.5,7.3z"/>
			</g>
		</g>
	</g>
</g>
</svg>
