<svg xmlns="http://www.w3.org/2000/svg" viewBox="0 0 170 60"><defs><style>.cls-1{fill:#fff}.cls-2{fill:red}.cls-3{fill:#c52129}.cls-4{fill:#191818}</style></defs><g id="Layer_1_copy" data-name="Layer 1 copy"><path class="cls-1" d="M40.79 22.37a7.15 7.15 0 0 0-3.55-6.17L24 8.57a7.06 7.06 0 0 0-7.11 0L3.67 16.2a7.16 7.16 0 0 0-3.56 6.17v7.84h40.68z"/><path class="cls-2" d="M.11 30.21v7.42a7.16 7.16 0 0 0 3.56 6.17l13.23 7.63a7.06 7.06 0 0 0 7.11 0l13.23-7.63a7.15 7.15 0 0 0 3.55-6.17v-7.42z"/><path class="cls-3" d="M20.45 7.73a7 7 0 0 1 3.55.94l13.18 7.63a7 7 0 0 1 3.5 6.07v15.26a7 7 0 0 1-3.5 6.07L24 51.33a7 7 0 0 1-7 0L3.73 43.7a7 7 0 0 1-3.5-6.07V22.37a7 7 0 0 1 3.5-6.07L17 8.67a7 7 0 0 1 3.5-.94m0-.23a7.19 7.19 0 0 0-3.61 1L3.61 16.1A7.26 7.26 0 0 0 0 22.37v15.26a7.26 7.26 0 0 0 3.61 6.27l13.23 7.63a7.22 7.22 0 0 0 7.23 0l13.22-7.63a7.24 7.24 0 0 0 3.62-6.27V22.37a7.24 7.24 0 0 0-3.62-6.27L24.07 8.47a7.2 7.2 0 0 0-3.62-1z"/><path class="cls-1" d="M.17 34.2v-8.28h1.05a1.14 1.14 0 0 1 1.14 1.14v6a1.14 1.14 0 0 1-1.14 1.14z"/><path class="cls-3" d="M1.22 26a1.09 1.09 0 0 1 1.09 1.09v6a1.08 1.08 0 0 1-1.09 1.08h-1V26h1m0-.11H.12v8.4h1.1a1.2 1.2 0 0 0 1.2-1.2v-6a1.2 1.2 0 0 0-1.2-1.2z"/><path class="cls-1" d="M7.57 16.43a1.15 1.15 0 0 1-1-.56L6 14.92l7.17-4.15.55.94a1.15 1.15 0 0 1 .13.87 1.12 1.12 0 0 1-.54.7l-5.19 3a1.16 1.16 0 0 1-.57.15z"/><path class="cls-3" d="M13.17 10.85l.53.89a1.08 1.08 0 0 1-.4 1.49l-5.19 3a1.06 1.06 0 0 1-.54.14 1.08 1.08 0 0 1-.94-.53l-.53-.9 7.07-4.09m0-.15l-.09.05L6 14.84l-.1.06.1.1.53.9a1.22 1.22 0 0 0 1 .59 1.28 1.28 0 0 0 .6-.16l5.19-3a1.2 1.2 0 0 0 .43-1.65l-.52-.89-.06-.09z"/><path class="cls-1" d="M32.37 15.87a1.16 1.16 0 0 1-.57-.15l-5.19-3a1.12 1.12 0 0 1-.54-.7 1.15 1.15 0 0 1 .13-.87l.55-.93 7.17 4.14-.56 1a1.15 1.15 0 0 1-1 .56z"/><path class="cls-3" d="M26.77 10.29l7.07 4.09-.53.9a1.09 1.09 0 0 1-.94.54 1.08 1.08 0 0 1-.54-.15l-5.19-3a1.08 1.08 0 0 1-.4-1.49l.53-.89m0-.15l-.06.09-.52.89a1.2 1.2 0 0 0 .43 1.65l5.19 3a1.28 1.28 0 0 0 .6.16 1.22 1.22 0 0 0 1-.59l.53-.9.06-.1-.1-.06-7.08-4.09h-.09z"/><path class="cls-1" d="M39.69 34.26a1.2 1.2 0 0 1-1.2-1.2v-6a1.2 1.2 0 0 1 1.2-1.2h1.1v8.4z"/><path class="cls-3" d="M40.68 26v8.17h-1a1.08 1.08 0 0 1-1.09-1.08v-6a1.09 1.09 0 0 1 1.1-1.09h1m.23-.23h-1.23a1.32 1.32 0 0 0-1.32 1.32v6a1.32 1.32 0 0 0 1.32 1.31h1.22v-8.66z"/><path class="cls-1" d="M6.11 45.13l.51-.86a1.14 1.14 0 0 1 1.55-.41l5.2 3a1.14 1.14 0 0 1 .53.7 1.1 1.1 0 0 1-.12.87l-.5.85z"/><path class="cls-3" d="M7.6 43.76a1.11 1.11 0 0 1 .55.15l5.19 3a1.08 1.08 0 0 1 .39 1.49l-.47.8-7.08-4.09.49-.81a1.07 1.07 0 0 1 .93-.54m0-.11a1.18 1.18 0 0 0-1 .59l-.48.82-.12.09.1.06 7.1 4.09.1.05.06-.09.47-.8a1.23 1.23 0 0 0 .13-.92 1.18 1.18 0 0 0-.56-.73l-5.2-3a1.15 1.15 0 0 0-.6-.16z"/><path class="cls-1" d="M26.16 49a1.11 1.11 0 0 1-.12-.87 1.14 1.14 0 0 1 .53-.7l5.2-3a1.12 1.12 0 0 1 1.55.41l.51.86-7.17 4.15z"/><path class="cls-3" d="M32.34 44.32a1.07 1.07 0 0 1 .93.54l.49.81-7.08 4.09-.47-.8a1.08 1.08 0 0 1 .39-1.49l5.19-3a1.11 1.11 0 0 1 .55-.15m0-.11a1.15 1.15 0 0 0-.6.16l-5.2 3a1.18 1.18 0 0 0-.56.73 1.24 1.24 0 0 0 .13.92l.47.8.06.09h.1l7.07-4.09.1-.06-.06-.1-.48-.81a1.18 1.18 0 0 0-1-.59z"/><path class="cls-3" d="M20.45 47.15h-.61a.12.12 0 0 1-.1-.13.11.11 0 0 1 .13-.1 5.87 5.87 0 0 0 1.11 0 .12.12 0 0 1 .13.1.11.11 0 0 1-.11.12 4.93 4.93 0 0 1-.55.01zm1.66-.26a.11.11 0 0 1 0-.22 4.65 4.65 0 0 0 1-.45.12.12 0 1 1 .12.2 6 6 0 0 1-1.07.47zm-3.37 0a5.21 5.21 0 0 1-1-.46.11.11 0 0 1 0-.16.11.11 0 0 1 .15 0 5.07 5.07 0 0 0 1 .44.12.12 0 0 1 .07.15.12.12 0 0 1-.22.01zm5.4-1a.11.11 0 0 1-.06-.21l1-.57a.11.11 0 0 1 .15 0 .11.11 0 0 1 0 .16l-1 .57zm-7.42 0h-.06l-1-.57a.13.13 0 0 1 0-.16.11.11 0 0 1 .15 0l1 .57a.1.1 0 0 1 0 .15.1.1 0 0 1-.09-.05zm9.39-1.11a.1.1 0 0 1-.09-.06.1.1 0 0 1 0-.15l1-.57a.11.11 0 0 1 .15 0 .13.13 0 0 1 0 .16l-1 .57zm-11.37 0h-.06l-1-.58a.11.11 0 1 1 .12-.19l1 .57a.11.11 0 0 1 0 .15.11.11 0 0 1-.06-.04zm13.35-1.11a.11.11 0 0 1-.1-.06.11.11 0 0 1 0-.15l1-.57a.11.11 0 0 1 .16 0 .13.13 0 0 1 0 .16l-1 .57zm-15.33 0l-1-.57a.11.11 0 0 1 .11-.19l1 .57a.11.11 0 0 1 0 .15.11.11 0 0 1-.11-.08zm17.31-1.11a.11.11 0 0 1-.1-.06.11.11 0 0 1 0-.15l1-.57a.11.11 0 0 1 .11.19l-1 .57s.01-.1-.01-.1zm-19.28 0h-.06l-1-.57a.11.11 0 0 1 0-.15.11.11 0 0 1 .16 0l1 .57a.11.11 0 0 1 .05.15.12.12 0 0 1-.15-.15zM32 41.3a.12.12 0 0 1-.1-.06.11.11 0 0 1 0-.15l1-.57a.11.11 0 0 1 .16 0 .11.11 0 0 1 0 .15l-1 .57zm-23.23 0h-.06l-1-.57-.11-.06a.1.1 0 0 1 0-.15.1.1 0 0 1 .15 0h.1l1 .57a.13.13 0 0 1 0 .16.11.11 0 0 1-.04.02zM34 40.07a.11.11 0 0 1-.08-.2 5.36 5.36 0 0 0 .76-.82.12.12 0 0 1 .16 0 .11.11 0 0 1 0 .16A5.32 5.32 0 0 1 34 40a.13.13 0 0 1 0 .07zM6.82 40a.11.11 0 0 1-.08 0A5.79 5.79 0 0 1 6 39a.12.12 0 0 1 0-.16.11.11 0 0 1 .16 0 4.84 4.84 0 0 0 .73.84.12.12 0 0 1 0 .16.09.09 0 0 1-.07.16zm28.49-1.7h-.05a.11.11 0 0 1 0-.15 5.72 5.72 0 0 0 .3-1.15.11.11 0 1 1 .22 0 5.27 5.27 0 0 1-.37 1.1.12.12 0 0 1-.1.15zm-29.78-.21a.12.12 0 0 1-.11-.09 5.53 5.53 0 0 1-.33-1.12.11.11 0 0 1 .09-.13.13.13 0 0 1 .14.09 4.87 4.87 0 0 0 .31 1.07.11.11 0 0 1-.06.15zM35.8 36a.12.12 0 0 1-.12-.12v-1.1a.11.11 0 0 1 .12-.11.11.11 0 0 1 .11.11v1.14a.11.11 0 0 1-.11.08zm-30.69-.14a.11.11 0 0 1-.11-.11v-1.14a.11.11 0 1 1 .22 0v1.14a.11.11 0 0 1-.11.11zm30.69-2.1a.12.12 0 0 1-.12-.12V32.5a.11.11 0 0 1 .12-.11.11.11 0 0 1 .11.11v1.14a.12.12 0 0 1-.11.12zm-30.69-.18a.11.11 0 0 1-.11-.12v-1.14a.11.11 0 0 1 .22 0v1.14a.11.11 0 0 1-.11.12zm30.69-2.11a.11.11 0 0 1-.12-.11v-1.14a.12.12 0 0 1 .12-.12.12.12 0 0 1 .11.12v1.14a.11.11 0 0 1-.11.11zM5.11 31.3a.11.11 0 0 1-.11-.12V30a.11.11 0 0 1 .22 0v1.14a.11.11 0 0 1-.11.16zm30.69-2.11a.11.11 0 0 1-.12-.11v-1.14a.12.12 0 0 1 .12-.12.11.11 0 0 1 .11.12v1.14a.11.11 0 0 1-.11.11zM5.11 29a.11.11 0 0 1-.11-.1v-1.14a.11.11 0 1 1 .22 0v1.14a.11.11 0 0 1-.11.1zm30.69-2.1a.11.11 0 0 1-.12-.11v-1.14a.11.11 0 0 1 .12-.11.11.11 0 0 1 .11.11v1.15a.11.11 0 0 1-.11.11zm-30.69-.17a.11.11 0 0 1-.11-.11v-1.14a.11.11 0 1 1 .22 0v1.14a.11.11 0 0 1-.11.11zm30.69-2.1a.12.12 0 0 1-.12-.12v-.08a5.14 5.14 0 0 0-.1-1 .11.11 0 0 1 .09-.13.13.13 0 0 1 .14.09 5.46 5.46 0 0 1 .1 1.07v.08a.11.11 0 0 1-.11.09zm-30.69-.18a.11.11 0 0 1-.11-.12 5 5 0 0 1 .14-1.15.12.12 0 0 1 .14-.09.11.11 0 0 1 .08.14 5.18 5.18 0 0 0-.13 1.11.13.13 0 0 1-.12.11zm30.25-2a.12.12 0 0 1-.11-.07 5.19 5.19 0 0 0-.54-1 .1.1 0 0 1 0-.15.11.11 0 0 1 .16 0 5.11 5.11 0 0 1 .57 1 .11.11 0 0 1-.06.15zm-29.74-.21a.11.11 0 0 1-.05-.15 5.56 5.56 0 0 1 .6-1 .12.12 0 0 1 .16 0 .11.11 0 0 1 0 .16 5.17 5.17 0 0 0-.57 1 .11.11 0 0 1-.14-.01zm28.43-1.68a.11.11 0 0 1-.08 0 4.83 4.83 0 0 0-.89-.67.1.1 0 0 1 0-.15.1.1 0 0 1 .15 0 5.29 5.29 0 0 1 .94.69.11.11 0 0 1 0 .16.12.12 0 0 1-.12-.03zM7 20.44a.09.09 0 0 1-.08 0 .1.1 0 0 1 0-.16 4.65 4.65 0 0 1 .85-.6l.1-.06a.11.11 0 0 1 .16 0 .11.11 0 0 1 0 .15l-.1.06a5.19 5.19 0 0 0-.81.58.13.13 0 0 1-.12.03zm25.16-1.13h-.06l-1-.57a.11.11 0 0 1 0-.15.12.12 0 0 1 .16-.05l1 .57a.12.12 0 0 1-.05.22zm-23.25-.09a.11.11 0 0 1-.09-.06.1.1 0 0 1 0-.15l1-.58a.11.11 0 0 1 .15.05.11.11 0 0 1 0 .15L9 19.2zm21.26-1h-.06l-1-.57a.12.12 0 0 1-.05-.16.13.13 0 0 1 .16 0l1 .57a.12.12 0 0 1 0 .16.11.11 0 0 1-.05-.05zm-19.28-.09a.11.11 0 0 1-.1-.06.13.13 0 0 1 0-.16l1-.57a.12.12 0 0 1 .16.05.11.11 0 0 1 0 .15l-1 .57zM28.19 17h-.05l-1-.57a.11.11 0 0 1 .11-.2l1 .57a.11.11 0 0 1 0 .16.12.12 0 0 1-.06.04zm-15.32-.08a.11.11 0 0 1-.1-.06.12.12 0 0 1 0-.16l1-.57a.11.11 0 0 1 .15 0 .11.11 0 0 1 0 .16l-1 .57zm13.35-1.06h-.06l-1-.57a.12.12 0 1 1 .12-.2l1 .57a.11.11 0 0 1-.06.21zm-11.38-.09a.11.11 0 0 1-.09 0 .11.11 0 0 1 0-.16l1-.57a.12.12 0 0 1 .12.2l-1 .57zm9.4-1h-.06l-1-.57a.11.11 0 0 1 0-.16.11.11 0 0 1 .15 0l1 .57a.11.11 0 0 1-.06.21zm-7.42-.09a.11.11 0 0 1-.06-.21l1-.57a.12.12 0 0 1 .16 0 .12.12 0 0 1-.05.16h-.06l-.92.53zm5.4-1a5.65 5.65 0 0 0-1.08-.25.11.11 0 0 1-.1-.12.11.11 0 0 1 .13-.1 5 5 0 0 1 1.13.26.11.11 0 0 1 .07.14.12.12 0 0 1-.15.08zm-3.36 0a.12.12 0 0 1-.11-.08.11.11 0 0 1 .07-.15 5.6 5.6 0 0 1 1.18-.26.11.11 0 0 1 .13.1.13.13 0 0 1-.11.13 5 5 0 0 0-1.09.21z" id="_Group_" data-name="&lt;Group&gt;"/><g id="_Group_2" data-name="&lt;Group&gt;"><path class="cls-1" d="M8.88 39.71L18 45a5 5 0 0 0 5 0l9-5.29a5 5 0 0 0 2.48-4.3v-10.5a5 5 0 0 0-2.48-4.3l-9.09-5.25a5 5 0 0 0-5 0l-9.03 5.25a5 5 0 0 0-2.49 4.3v10.5a5 5 0 0 0 2.49 4.3z"/><path class="cls-3" d="M20.45 45.74a5.15 5.15 0 0 1-2.54-.68l-9.09-5.25a5.09 5.09 0 0 1-2.54-4.4v-10.5a5.08 5.08 0 0 1 2.54-4.4l9.09-5.25a5.09 5.09 0 0 1 5.09 0l9.09 5.25a5.1 5.1 0 0 1 2.54 4.4v10.5a5.11 5.11 0 0 1-2.54 4.4L23 45.06a5.15 5.15 0 0 1-2.55.68zM8.94 39.61L18 44.86a4.88 4.88 0 0 0 4.85 0L32 39.61a4.85 4.85 0 0 0 2.43-4.2v-10.5a4.85 4.85 0 0 0-2.43-4.2l-9.09-5.25a4.83 4.83 0 0 0-4.85 0l-9.12 5.25a4.85 4.85 0 0 0-2.43 4.2v10.5a4.85 4.85 0 0 0 2.43 4.2z"/></g><path d="M54.66 46.42l-2.21-2.11h-1l-.29 2.11H50l.67-4.85h1.2l-.26 1.87h.78l2.87-1.87h1.68l-3.44 2.22 2.82 2.63zm8.27-1H59.7l-.69 1h-1.27l3.35-4.85h1.53l1.94 4.85h-1.24zm-.34-.88q-.21-.54-.36-.9c-.09-.25-.17-.45-.23-.61s-.1-.3-.14-.41a2.43 2.43 0 0 1-.09-.3c-.06.1-.13.2-.19.31l-.27.4c-.11.17-.24.37-.41.61l-.61.9zm9.66-2.16a1.67 1.67 0 0 1 0 .32 1.87 1.87 0 0 1-.08.32H71v-.12a.81.81 0 0 0 0-.16.25.25 0 0 0 0-.15.34.34 0 0 0-.2-.11 3.39 3.39 0 0 0-.44 0h-1.97a1.65 1.65 0 0 0-.32.08.59.59 0 0 0-.17.13.49.49 0 0 0-.08.18 1.49 1.49 0 0 0 0 .21.26.26 0 0 0 0 .14.16.16 0 0 0 .08.1.75.75 0 0 0 .18.08h.28c.16 0 .36.05.61.07h.8a9.72 9.72 0 0 1 1.07.07 2.65 2.65 0 0 1 .7.17.82.82 0 0 1 .37.31 1 1 0 0 1 .11.49 3.64 3.64 0 0 1 0 .56 1.52 1.52 0 0 1-.19.54 1.26 1.26 0 0 1-.34.39 1.69 1.69 0 0 1-.54.24 4.23 4.23 0 0 1-.8.12H67.7a3.61 3.61 0 0 1-.85-.17.84.84 0 0 1-.44-.3.9.9 0 0 1-.12-.48 2.15 2.15 0 0 1 .09-.61h1.16v.14a.78.78 0 0 0 0 .16.32.32 0 0 0 .07.2.44.44 0 0 0 .24.13 2.85 2.85 0 0 0 .51.06h2.02a.9.9 0 0 0 .29-.09.29.29 0 0 0 .15-.14.43.43 0 0 0 .07-.2.75.75 0 0 0 0-.21.31.31 0 0 0 0-.17.27.27 0 0 0-.14-.11 1.45 1.45 0 0 0-.29-.06 4.24 4.24 0 0 0-.47 0H68.4c-.23 0-.45 0-.67-.09a1.53 1.53 0 0 1-.83-.42 1 1 0 0 1-.27-.74 2.62 2.62 0 0 1 .06-.54 1.37 1.37 0 0 1 .2-.52 1 1 0 0 1 .33-.34 1.9 1.9 0 0 1 .55-.22 5.27 5.27 0 0 1 .82-.11h2.37a3.94 3.94 0 0 1 .78.14.78.78 0 0 1 .4.28.71.71 0 0 1 .11.43zM76 46.42l.23-1.72L74 41.57h1.44l.84 1.27.34.55.25.43c.1-.13.22-.27.35-.42l.51-.56 1.18-1.27h1.45l-3 3.13-.24 1.72zm10.22 0L84 43.84l-.59-.7c-.16-.2-.32-.39-.46-.58v.76c0 .14 0 .28-.06.44s0 .35-.08.56l-.29 2.1h-1.16l.64-4.85h1.58l2 2.41.37.45.28.34.23.28.19.24a2.65 2.65 0 0 1 0-.27v-.33c0-.12 0-.26.06-.42s0-.36.08-.58l.29-2.12h1.15l-.67 4.85zm6.49.06q-.88 0-1.47-.06a3.21 3.21 0 0 1-.92-.21.93.93 0 0 1-.47-.42 1.8 1.8 0 0 1-.13-.71 4.42 4.42 0 0 1 0-.49c0-.18 0-.37.08-.59a7.63 7.63 0 0 1 .15-.9 2.76 2.76 0 0 1 .24-.67 1.45 1.45 0 0 1 .39-.46 1.93 1.93 0 0 1 .61-.28 4.92 4.92 0 0 1 .91-.15h1.29a14.49 14.49 0 0 1 1.46.06 3.1 3.1 0 0 1 .92.22 1 1 0 0 1 .47.44 1.7 1.7 0 0 1 .13.73v.48c0 .17 0 .36-.07.57s-.11.65-.17.9a2.76 2.76 0 0 1-.24.67 1.31 1.31 0 0 1-.39.45 1.82 1.82 0 0 1-.61.28 4.36 4.36 0 0 1-.91.14c-.35-.01-.77 0-1.27 0zm.13-.9a7.49 7.49 0 0 0 1.06-.06 1.56 1.56 0 0 0 .64-.2.81.81 0 0 0 .34-.37 2.17 2.17 0 0 0 .16-.6c0-.21 0-.38.07-.51s0-.24 0-.31v-.27a.83.83 0 0 0-.08-.41.6.6 0 0 0-.3-.26 2 2 0 0 0-.58-.14h-.92a7.88 7.88 0 0 0-1.07 0 1.86 1.86 0 0 0-.65.19.78.78 0 0 0-.34.38 3.27 3.27 0 0 0-.15.6c0 .22 0 .39-.07.52s0 .23 0 .31v.26a1 1 0 0 0 .08.41.6.6 0 0 0 .3.26 2.24 2.24 0 0 0 .58.14c.24.04.55.06.93.06zm9.67.84l.28-2H99l-.28 2h-1.18l.68-4.85h1.21l-.26 1.87h3.75l.27-1.87h1.21l-.68 4.85zm3.16 0l.68-4.85h5.18l-.15 1h-4l-.12.85h4l-.13.91h-4l-.16 1.11H111l-.14 1zm12.14 0l-1.65-1.86-2.16 1.86h-1.56l3.07-2.53-2.28-2.32h1.55l1.54 1.69 2.09-1.69h1.49l-2.9 2.34 2.32 2.51zm3.64 0l.13-1h1l-.14 1zm6.09-.85a6.29 6.29 0 0 0 1-.06 1.59 1.59 0 0 0 .55-.15.59.59 0 0 0 .27-.27 1.45 1.45 0 0 0 .13-.4h1.15c0 .21-.08.41-.13.58a2.13 2.13 0 0 1-.2.46 1.42 1.42 0 0 1-.35.34 2 2 0 0 1-.55.23 5.23 5.23 0 0 1-.82.13h-1.16a10.59 10.59 0 0 1-1.38-.07 2.69 2.69 0 0 1-.87-.24.93.93 0 0 1-.44-.46 1.69 1.69 0 0 1-.13-.72v-.46c0-.17 0-.34.07-.54s.1-.63.16-.88a2.83 2.83 0 0 1 .24-.66 1.57 1.57 0 0 1 .39-.46 1.71 1.71 0 0 1 .59-.29 4.62 4.62 0 0 1 .86-.15h1.2a10.52 10.52 0 0 1 1.4.07 2.56 2.56 0 0 1 .84.21.86.86 0 0 1 .4.37 1.27 1.27 0 0 1 .1.54v.49h-1.14a1.3 1.3 0 0 0 0-.35.37.37 0 0 0-.2-.23 1.62 1.62 0 0 0-.52-.13 8.06 8.06 0 0 0-1 0 7.51 7.51 0 0 0-1.08.06 1.2 1.2 0 0 0-.59.23.83.83 0 0 0-.28.47c-.05.21-.1.48-.15.8v.44a2.12 2.12 0 0 0 0 .34.9.9 0 0 0 .07.4.54.54 0 0 0 .27.24 1.53 1.53 0 0 0 .52.12c.15-.02.43 0 .78 0zm7.86.91a14.71 14.71 0 0 1-1.47-.06 3.13 3.13 0 0 1-.92-.21.93.93 0 0 1-.47-.42 1.64 1.64 0 0 1-.13-.71 4.42 4.42 0 0 1 0-.49c0-.18 0-.37.07-.59s.1-.65.16-.9a2.76 2.76 0 0 1 .24-.67 1.56 1.56 0 0 1 .38-.46 2.1 2.1 0 0 1 .62-.28 4.92 4.92 0 0 1 .91-.15h1.28a14.57 14.57 0 0 1 1.47.06 3.1 3.1 0 0 1 .92.22 1 1 0 0 1 .47.44 1.87 1.87 0 0 1 .13.73 4.26 4.26 0 0 1 0 .48c0 .17 0 .36-.07.57s-.1.65-.16.9a2.76 2.76 0 0 1-.24.67 1.31 1.31 0 0 1-.39.45 1.87 1.87 0 0 1-.62.28 4.26 4.26 0 0 1-.9.14c-.36-.01-.78 0-1.28 0zm.13-.9a7.59 7.59 0 0 0 1.06-.06 1.61 1.61 0 0 0 .64-.2.81.81 0 0 0 .34-.37 2.58 2.58 0 0 0 .16-.6c0-.21.05-.38.07-.51s0-.24 0-.31v-.27a1 1 0 0 0-.08-.41.6.6 0 0 0-.3-.26 2 2 0 0 0-.58-.14h-.92a8 8 0 0 0-1.08 0 1.87 1.87 0 0 0-.64.19.78.78 0 0 0-.34.38 3.27 3.27 0 0 0-.15.6c0 .22-.05.39-.07.52s0 .23 0 .31a1.49 1.49 0 0 0 0 .17v.09a1 1 0 0 0 .08.41.6.6 0 0 0 .3.26 2.14 2.14 0 0 0 .58.14c.24.04.55.06.93.06zm11.58.84l.31-2.21c0-.18.05-.35.07-.5s0-.28.06-.41 0-.23 0-.34 0-.2.05-.3c-.11.17-.25.36-.4.57l-.55.74-1.8 2.45h-1.17l-1-2.42-.16-.38c-.05-.11-.1-.22-.14-.33s-.09-.2-.13-.3l-.13-.33v.37c0 .11 0 .22-.05.34s0 .24 0 .38 0 .29-.06.47l-.31 2.2h-1.2l.68-4.85h1.67l1.62 3.84 2.78-3.84h1.65l-.68 4.85z"/><path class="cls-4" d="M153.89 17.59l.47-3.32h-1.77l.12-.82h4.55l-.12.82h-1.76l-.46 3.32zm9.73 0l.26-1.89c.09-.63.14-1 .2-1.32-.2.29-.45.62-.81 1.12l-1.54 2.09h-1l-.9-2.07c-.2-.48-.32-.75-.47-1.14-.05.44-.09.73-.17 1.33l-.26 1.88h-1l.58-4.14H160l1.39 3.28 2.38-3.28h1.4l-.57 4.14z"/><path class="cls-4" d="M73.32 36.25L74.63 26.73 57.14 26.73 55.83 36.25 50.17 36.25 53.33 13.68 58.98 13.68 57.76 22.36 75.25 22.36 76.47 13.68 82.12 13.68 78.97 36.25 73.32 36.25z"/><path class="cls-4" d="M84.8 36.25L87.95 13.68 112.05 13.68 111.4 18.32 92.59 18.32 92.06 22.27 110.53 22.27 109.91 26.53 91.44 26.53 90.72 31.7 109.64 31.7 109.02 36.25 84.8 36.25z"/><path class="cls-4" d="M139.25 36.25L131.49 27.51 121.37 36.25 114.06 36.25 128.47 24.4 117.78 13.53 125.02 13.53 132.24 21.43 142.03 13.53 149.04 13.53 135.5 24.49 146.34 36.25 139.25 36.25z"/><path class="cls-2" d="M25.69 25.19A4.29 4.29 0 0 1 24 26.55c-.28.13-1.09.08-.86-.59a13.18 13.18 0 0 1 2-2.67c1-1.15 1.2-1.68.89-2.46a7.43 7.43 0 0 0-1.59-2.29 10.36 10.36 0 0 1-.86 3c-.65 1.14-1.31 2.14-2 2.14-.42 0-.82-.93-.82-.93a7 7 0 0 1-1.23 3c-1.08 1.44-3 2.25-2.51 3.37.3.67.63.92 2.1.94 1.28 0 2 .07 2.46 1.13.41.9-.52 1.94-.52 1.94a3.22 3.22 0 0 1-.77 2.59c-1.52 1.7-3.1 1.23-3.28 1s-.31-.64-.31-.64l.81-.36.47.18.32-.84-.84-.32-.19.48-.5.22-2.24-5-1.43-3.2a6.42 6.42 0 0 1-.63-3.88 3.71 3.71 0 0 0-.89 4.45l3.71 8.29-.51.23-.48-.19-.3.86.84.32.17-.46.85-.38.29.65s.08.47-.06.53a1.81 1.81 0 0 0-.68.68s.68.31 1 .15a1.64 1.64 0 0 0-.74.88 1.5 1.5 0 0 0 1.15 0 1.57 1.57 0 0 0-.52.72 1.61 1.61 0 0 0 .88 0h.41l.35.46-.08 1 1.51 1.2.1-1.92-.78-.58s-.09-.54-.08-.54c.67-.74.47-1.28 1.33-1.65a4.2 4.2 0 0 1 2.43-.17s-.48-.32-.54-.53a1 1 0 0 1 .74-.19 4 4 0 0 0 1.18.21 2.63 2.63 0 0 0 1.25-.4s-1.61-.36-1.71-.7a.4.4 0 0 1 .38-.54 4.21 4.21 0 0 0 2.1 0 2.18 2.18 0 0 0 1.45-1.16 5.4 5.4 0 0 1-1.65.19c-.9 0-1-.24-1-.57s.35-.3.58-.34a6.53 6.53 0 0 0 2.43-.62c.51-.34.84-1.87.84-1.87a23.41 23.41 0 0 1-2.28.61c-.75.16-1.15.16-1.23-.14s.24-.66.71-.8c1.08-.32 2.7-.45 2.79-1.49a15.08 15.08 0 0 0-.18-2.11 8.9 8.9 0 0 1-2.4 1.8c-.55.18-1.41.23-1.47-.28 0-.3.95-.77 1.66-1.34 1.14-.91 1.9-1.55 1.71-2.49-.08-.45-.72-2.27-.72-2.27a12 12 0 0 1-1.32 2.33z"/></g></svg>