<svg xmlns="http://www.w3.org/2000/svg" viewBox="0 0 170 60"><defs><style>.cls-1{fill:#191818}.cls-2{fill:#002884}.cls-3{fill:#e00017}.cls-4{fill:#ffd100}.cls-5{fill:#fff}.cls-6{fill:#1c63b7}.cls-7{fill:#fccb06}.cls-8{fill:#da251d}.cls-9{fill:#c2c1c1}.cls-10{fill:#f8c300}.cls-11{fill:#aaa9a9}</style></defs><g id="Layer_1_copy" data-name="Layer 1 copy"><path d="M53.1 45.57a6.29 6.29 0 0 0 1-.06 1.59 1.59 0 0 0 .55-.15.67.67 0 0 0 .28-.27 1.9 1.9 0 0 0 .12-.4h1.15c0 .21-.08.41-.13.58a1.73 1.73 0 0 1-.2.46 1.26 1.26 0 0 1-.35.34 1.9 1.9 0 0 1-.55.23 5.23 5.23 0 0 1-.82.13H53a10.75 10.75 0 0 1-1.39-.07 2.77 2.77 0 0 1-.87-.24.93.93 0 0 1-.44-.46 1.69 1.69 0 0 1-.13-.72v-.46c0-.17 0-.34.07-.54s.1-.63.16-.88a2.83 2.83 0 0 1 .24-.66A1.73 1.73 0 0 1 51 42a1.81 1.81 0 0 1 .59-.29 4.62 4.62 0 0 1 .86-.15h1.21a10.45 10.45 0 0 1 1.39.07 2.56 2.56 0 0 1 .84.21.81.81 0 0 1 .4.37 1.27 1.27 0 0 1 .11.54v.49h-1.15a1.3 1.3 0 0 0 0-.35.37.37 0 0 0-.2-.23 1.62 1.62 0 0 0-.52-.13 8.06 8.06 0 0 0-1 0 7.51 7.51 0 0 0-1.08.06 1.24 1.24 0 0 0-.59.23.89.89 0 0 0-.28.47 7.56 7.56 0 0 0-.14.8c0 .17 0 .31-.06.44s0 .24 0 .34a.9.9 0 0 0 .07.4.54.54 0 0 0 .27.24 1.6 1.6 0 0 0 .52.12c.23-.08.51-.06.86-.06zm10.14-.15H60l-.69 1h-1.25l3.35-4.85h1.53l1.94 4.85h-1.24zm-.33-.88q-.21-.54-.36-.9c-.09-.25-.17-.45-.23-.61s-.1-.3-.14-.41a2.43 2.43 0 0 1-.09-.3c-.06.1-.13.2-.19.31l-.27.4c-.11.17-.24.37-.41.61l-.61.9zm10.17-2.16a1.67 1.67 0 0 1 0 .32 1.87 1.87 0 0 1-.08.3h-1.14v-.12a.81.81 0 0 0 0-.16.2.2 0 0 0-.05-.15.34.34 0 0 0-.2-.11 3.39 3.39 0 0 0-.44 0H69.2a1.65 1.65 0 0 0-.32.08.59.59 0 0 0-.17.13.49.49 0 0 0-.08.18 1.49 1.49 0 0 0 0 .21.26.26 0 0 0 0 .14.15.15 0 0 0 .09.1.54.54 0 0 0 .17.08h.28c.16 0 .36.05.61.07h.8a9.72 9.72 0 0 1 1.07.07 2.56 2.56 0 0 1 .7.17.82.82 0 0 1 .37.31 1 1 0 0 1 .11.49 3.64 3.64 0 0 1 0 .56 1.52 1.52 0 0 1-.19.54 1.26 1.26 0 0 1-.34.39 1.69 1.69 0 0 1-.54.24 4.23 4.23 0 0 1-.8.12h-2.45a3.61 3.61 0 0 1-.85-.17.88.88 0 0 1-.44-.3.9.9 0 0 1-.12-.48 2.15 2.15 0 0 1 .09-.61h1.16v.14a.81.81 0 0 0 0 .16.32.32 0 0 0 .06.2.44.44 0 0 0 .25.13 2.61 2.61 0 0 0 .5.06h2.02a.9.9 0 0 0 .29-.09.29.29 0 0 0 .15-.14.43.43 0 0 0 .07-.2.75.75 0 0 0 0-.21.31.31 0 0 0 0-.17.27.27 0 0 0-.14-.11 1.45 1.45 0 0 0-.29-.06 4.24 4.24 0 0 0-.47 0H69.2c-.23 0-.45 0-.67-.09a1.53 1.53 0 0 1-.74-.32 1 1 0 0 1-.27-.74 2.62 2.62 0 0 1 .06-.54 1.37 1.37 0 0 1 .2-.52 1 1 0 0 1 .33-.34 1.9 1.9 0 0 1 .55-.22 5.27 5.27 0 0 1 .82-.11h2.37a3.81 3.81 0 0 1 .78.14.78.78 0 0 1 .37.25.71.71 0 0 1 .08.38zM75 46.42l.67-4.85h1.21l-.68 4.85zm8.56 0l-2.18-2.58-.59-.7-.46-.58v.76c0 .14 0 .28-.06.44s0 .35-.08.56l-.29 2.1h-1.2l.68-4.85H81L83 44l.37.45.29.34.22.28.19.24A2.65 2.65 0 0 1 84 45a3 3 0 0 0 0-.33q0-.18.06-.42c0-.16 0-.36.08-.58l.3-2.12h1.15L85 46.42zm7.01.06c-.6 0-1.09 0-1.48-.06a3.06 3.06 0 0 1-.91-.21.86.86 0 0 1-.47-.42 1.64 1.64 0 0 1-.13-.71 4.42 4.42 0 0 1 0-.49c0-.18 0-.37.07-.59s.1-.65.16-.9a2.4 2.4 0 0 1 .23-.67 1.45 1.45 0 0 1 .39-.46 2 2 0 0 1 .61-.28 5 5 0 0 1 .92-.15h1.28c.5 0 1.08 0 1.47.06a3 3 0 0 1 .91.22.92.92 0 0 1 .47.44 1.7 1.7 0 0 1 .13.73 4.1 4.1 0 0 1 0 .48c0 .17 0 .36-.07.57s-.11.65-.16.9a2.76 2.76 0 0 1-.24.67 1.46 1.46 0 0 1-.4.45 1.82 1.82 0 0 1-.61.28 4.26 4.26 0 0 1-.91.14c-.34-.01-.77 0-1.26 0zm.12-.9a7.74 7.74 0 0 0 1.07-.06 1.67 1.67 0 0 0 .64-.2.86.86 0 0 0 .34-.37 2.19 2.19 0 0 0 .15-.6c0-.21.06-.38.07-.51s0-.24 0-.31a.66.66 0 0 0 0-.17.38.38 0 0 0 0-.1.83.83 0 0 0-.09-.41.6.6 0 0 0-.3-.26 1.82 1.82 0 0 0-.58-.14h-.92a7.88 7.88 0 0 0-1.07 0 1.93 1.93 0 0 0-.65.19.76.76 0 0 0-.33.38 2.19 2.19 0 0 0-.15.6c0 .22-.06.39-.07.52s0 .23 0 .31a1.49 1.49 0 0 0 0 .17.31.31 0 0 0 0 .09.83.83 0 0 0 .09.41.54.54 0 0 0 .29.26 2.35 2.35 0 0 0 .58.14c.24.04.56.06.93.06zm10.69.84l.29-2h-3.76l-.28 2h-1.22l.68-4.85h1.21l-.3 1.87h3.76l.26-1.87h1.22l-.68 4.85zm3.68 0l.68-4.85h5.17l-.14 1h-4l-.11.85h4l-.14.91h-4l-.15 1.11h4.06l-.13 1zm12.65 0l-1.65-1.86-2.16 1.86h-1.56l3.07-2.53-2.28-2.32h1.55l1.54 1.69 2.08-1.69h1.5l-2.89 2.34 2.31 2.51zm4.88 0l.13-1h1l-.14 1zm8.1 0a1 1 0 0 1 0-.27v-.49c0-.19 0-.27.05-.36a1.78 1.78 0 0 1 0-.2v-.16a.37.37 0 0 0-.08-.25.59.59 0 0 0-.36-.08h-2.82l-.25 1.81h-1.2l.67-4.85h4.06a6.15 6.15 0 0 1 .66 0 1.37 1.37 0 0 1 .47.15.73.73 0 0 1 .28.3 1.14 1.14 0 0 1 .09.48v.51a2.22 2.22 0 0 1-.11.46 1.22 1.22 0 0 1-.18.32 1 1 0 0 1-.28.2 1.24 1.24 0 0 1-.37.11l.27.07a.55.55 0 0 1 .2.11.52.52 0 0 1 .14.19.85.85 0 0 1 .05.3v1.56zm.34-3.21c0-.13 0-.22.05-.27s0-.09 0-.12a.32.32 0 0 0-.09-.24.59.59 0 0 0-.36-.08h-2.81l-.18 1.26h2.82a.83.83 0 0 0 .26 0 .42.42 0 0 0 .17-.11.51.51 0 0 0 .09-.18 1.09 1.09 0 0 0 .02-.26zm6.3 3.27q-.89 0-1.47-.06a3.06 3.06 0 0 1-.91-.21.86.86 0 0 1-.47-.42 1.63 1.63 0 0 1-.14-.71 4.42 4.42 0 0 1 0-.49c0-.18 0-.37.08-.59s.1-.65.15-.9a2.76 2.76 0 0 1 .24-.67 1.45 1.45 0 0 1 .39-.46 1.93 1.93 0 0 1 .61-.28 5.07 5.07 0 0 1 .91-.15h1.29a14.49 14.49 0 0 1 1.46.06 3 3 0 0 1 .92.22 1 1 0 0 1 .47.44 1.7 1.7 0 0 1 .14.74v.48c0 .17 0 .36-.07.57s-.11.65-.17.9a2.12 2.12 0 0 1-.24.67 1.31 1.31 0 0 1-.39.45 1.82 1.82 0 0 1-.61.28 4.26 4.26 0 0 1-.91.14c-.36-.02-.78-.01-1.28-.01zm.13-.9a7.49 7.49 0 0 0 1.06-.06 1.66 1.66 0 0 0 .65-.2.84.84 0 0 0 .33-.37 2.17 2.17 0 0 0 .16-.6c0-.21.05-.38.07-.51s0-.24 0-.31v-.27a.83.83 0 0 0-.08-.41.6.6 0 0 0-.3-.26 1.89 1.89 0 0 0-.58-.14h-.92a7.88 7.88 0 0 0-1.07 0 1.86 1.86 0 0 0-.65.19.72.72 0 0 0-.33.38 2.19 2.19 0 0 0-.15.6c0 .22-.06.39-.07.52s0 .23 0 .31v.26a1 1 0 0 0 .08.41.6.6 0 0 0 .3.26 2.24 2.24 0 0 0 .58.14c.23.04.54.06.92.06z"/><path class="cls-1" d="M155.49 17.59l.46-3.32h-1.76l.11-.82h4.56l-.12.82H157l-.46 3.32zm9.73 0l.26-1.89c.09-.63.14-1 .2-1.32-.2.29-.45.62-.82 1.12l-1.54 2.09h-1l-.9-2.07c-.21-.48-.33-.75-.47-1.14-.05.44-.09.73-.17 1.33l-.27 1.88h-1l.58-4.14h1.42l1.49 3.28 2.38-3.28h1.4l-.58 4.14z"/><path class="cls-2" d="M3.67 16.2a7.16 7.16 0 0 0-3.56 6.17v15.26a7.16 7.16 0 0 0 3.56 6.17L11 48.05V12z"/><path class="cls-3" d="M37.24 16.2l-7.6-4.39v36.38l7.6-4.39a7.15 7.15 0 0 0 3.55-6.17V22.37a7.15 7.15 0 0 0-3.55-6.17z"/><path class="cls-4" d="M24 8.57a7.06 7.06 0 0 0-7.11 0L11 12v36.1l5.86 3.38a7.06 7.06 0 0 0 7.11 0l5.63-3.24V11.81z"/><path class="cls-4" d="M20.45 7.73a7 7 0 0 1 3.55.94l13.18 7.63a7 7 0 0 1 3.5 6.07v15.26a7 7 0 0 1-3.5 6.07L24 51.33a7 7 0 0 1-7 0L3.73 43.7a7 7 0 0 1-3.5-6.07V22.37a7 7 0 0 1 3.5-6.07L17 8.67a7 7 0 0 1 3.5-.94m0-.23a7.19 7.19 0 0 0-3.61 1L3.61 16.1A7.26 7.26 0 0 0 0 22.37v15.26a7.26 7.26 0 0 0 3.61 6.27l13.23 7.63a7.22 7.22 0 0 0 7.23 0l13.22-7.63a7.24 7.24 0 0 0 3.62-6.27V22.37a7.24 7.24 0 0 0-3.62-6.27L24.07 8.47a7.2 7.2 0 0 0-3.62-1z"/><path class="cls-5" d="M13.7 11.74l-.53-.89-7.07 4.09.53.9a1.09 1.09 0 0 0 1.48.39l5.19-3a1.08 1.08 0 0 0 .4-1.49z"/><path class="cls-4" d="M7.57 16.49a1.21 1.21 0 0 1-1-.59l-.59-1 7.27-4.2.58 1a1.2 1.2 0 0 1-.43 1.65l-5.19 3a1.2 1.2 0 0 1-.64.14zM6.25 15l.48.8a1 1 0 0 0 1.32.35l5.2-3a1 1 0 0 0 .45-.59 1 1 0 0 0-.1-.75l-.47-.81z"/><path class="cls-5" d="M33.31 15.28l.53-.9-7.07-4.09-.53.89a1.08 1.08 0 0 0 .4 1.49l5.19 3a1.09 1.09 0 0 0 1.48-.39z"/><path class="cls-4" d="M32.37 15.93a1.2 1.2 0 0 1-.6-.16l-5.19-3a1.2 1.2 0 0 1-.43-1.65l.58-1L34 14.34l-.59 1-.1-.06.1.06a1.21 1.21 0 0 1-1.04.59zm-5.56-5.48l-.47.78a1 1 0 0 0-.1.75 1 1 0 0 0 .45.59l5.2 3a1 1 0 0 0 1.32-.35l.48-.8z"/><path class="cls-5" d="M6.67 44.3l-.49.81 7.08 4.09.47-.8a1.08 1.08 0 0 0-.39-1.49l-5.19-3a1.08 1.08 0 0 0-1.48.39z"/><path class="cls-4" d="M13.3 49.35L6 45.15l.54-.91a1.19 1.19 0 0 1 1.63-.43l5.2 3a1.18 1.18 0 0 1 .56.73 1.23 1.23 0 0 1-.13.92zm-7-4.28l6.88 4 .41-.7a1 1 0 0 0 .11-.74 1 1 0 0 0-.46-.59L8.09 44a1 1 0 0 0-1.33.34z"/><path class="cls-5" d="M26.21 49l.47.8 7.08-4.09-.49-.81a1.08 1.08 0 0 0-1.48-.39l-5.19 3a1.08 1.08 0 0 0-.39 1.49z"/><path class="cls-4" d="M26.64 49.91l-.53-.91a1.24 1.24 0 0 1-.11-.9 1.18 1.18 0 0 1 .56-.73l5.2-3a1.19 1.19 0 0 1 1.63.43l.54.91zm-.33-1l.41.7 6.88-4-.43-.72a1 1 0 0 0-1.32-.34l-5.19 3a1 1 0 0 0-.46.6 1 1 0 0 0 .11.75zm3.76-6.47a.11.11 0 0 1-.1-.06.11.11 0 0 1 0-.15l1-.57a.11.11 0 0 1 .11.19l-1 .57s.01.02-.01.02zm-19.28 0h-.06l-1-.57a.11.11 0 0 1 0-.15.11.11 0 0 1 .16 0l1 .57a.11.11 0 0 1 .05.15.12.12 0 0 1-.15-.03zM32 41.3a.12.12 0 0 1-.1-.06.11.11 0 0 1 0-.15l1-.57a.11.11 0 0 1 .16 0 .11.11 0 0 1 0 .15l-1 .57zm-23.23 0h-.06l-1-.57-.11-.06a.1.1 0 0 1 0-.15.1.1 0 0 1 .15 0h.1l1 .57a.13.13 0 0 1 0 .16.11.11 0 0 1-.04.02zM34 40.07a.11.11 0 0 1-.08-.2 5.36 5.36 0 0 0 .76-.82.12.12 0 0 1 .16 0 .11.11 0 0 1 0 .16A5.32 5.32 0 0 1 34 40a.13.13 0 0 1 0 .07zM6.82 40a.11.11 0 0 1-.08 0A5.79 5.79 0 0 1 6 39a.12.12 0 0 1 0-.16.11.11 0 0 1 .16 0 5.3 5.3 0 0 0 .73.84.12.12 0 0 1 0 .16.09.09 0 0 1-.07.16zm28.49-1.7h-.05a.11.11 0 0 1 0-.15 5.72 5.72 0 0 0 .3-1.15.11.11 0 1 1 .22 0 5.27 5.27 0 0 1-.37 1.1.12.12 0 0 1-.1.15zm-29.78-.21a.12.12 0 0 1-.11-.09 5.53 5.53 0 0 1-.33-1.12.11.11 0 0 1 .09-.13.13.13 0 0 1 .14.09 4.87 4.87 0 0 0 .31 1.07.11.11 0 0 1-.06.15zM35.8 36a.12.12 0 0 1-.12-.12v-1.1a.11.11 0 0 1 .12-.11.11.11 0 0 1 .11.11v1.15a.11.11 0 0 1-.11.07zm-30.69-.14a.11.11 0 0 1-.11-.11v-1.14a.11.11 0 1 1 .22 0v1.14a.11.11 0 0 1-.11.11zm30.69-2.1a.12.12 0 0 1-.12-.12V32.5a.11.11 0 0 1 .12-.11.11.11 0 0 1 .11.11v1.14a.12.12 0 0 1-.11.12zm-30.69-.18a.11.11 0 0 1-.11-.12v-1.14a.11.11 0 0 1 .22 0v1.14a.11.11 0 0 1-.11.12zm30.69-2.11a.11.11 0 0 1-.12-.11v-1.14a.12.12 0 0 1 .12-.12.12.12 0 0 1 .11.12v1.14a.11.11 0 0 1-.11.11zM5.11 31.3a.11.11 0 0 1-.11-.12V30a.11.11 0 0 1 .22 0v1.14a.11.11 0 0 1-.11.16zm30.69-2.11a.11.11 0 0 1-.12-.11v-1.14a.12.12 0 0 1 .12-.12.11.11 0 0 1 .11.12v1.14a.11.11 0 0 1-.11.11zM5.11 29a.11.11 0 0 1-.11-.1v-1.14a.11.11 0 1 1 .22 0v1.14a.11.11 0 0 1-.11.1zm30.69-2.1a.11.11 0 0 1-.12-.11v-1.14a.11.11 0 0 1 .12-.11.11.11 0 0 1 .11.11v1.15a.11.11 0 0 1-.11.11zm-30.69-.17a.11.11 0 0 1-.11-.11v-1.14a.11.11 0 1 1 .22 0v1.14a.11.11 0 0 1-.11.11zm30.69-2.1a.12.12 0 0 1-.12-.12v-.08a5.14 5.14 0 0 0-.1-1 .11.11 0 0 1 .09-.13.13.13 0 0 1 .14.09 5.46 5.46 0 0 1 .1 1.07v.08a.11.11 0 0 1-.11.09zm-30.69-.18a.11.11 0 0 1-.11-.12 5 5 0 0 1 .14-1.15.12.12 0 0 1 .14-.09.11.11 0 0 1 .08.14 5.18 5.18 0 0 0-.13 1.11.13.13 0 0 1-.12.11zm30.25-2a.12.12 0 0 1-.11-.07 5.19 5.19 0 0 0-.54-1 .1.1 0 0 1 0-.15.11.11 0 0 1 .16 0 5.11 5.11 0 0 1 .57 1 .11.11 0 0 1-.06.15zm-29.74-.21a.11.11 0 0 1-.05-.15 5.56 5.56 0 0 1 .6-1 .12.12 0 0 1 .16 0 .11.11 0 0 1 0 .16 5.17 5.17 0 0 0-.57 1 .11.11 0 0 1-.14-.01zm28.43-1.68a.11.11 0 0 1-.08 0 4.83 4.83 0 0 0-.89-.67.11.11 0 0 1 .11-.19 5.29 5.29 0 0 1 .94.69.11.11 0 0 1 0 .16.12.12 0 0 1-.08.01zM7 20.44a.09.09 0 0 1-.08 0 .1.1 0 0 1 0-.16 4.65 4.65 0 0 1 .85-.6l.1-.06a.11.11 0 0 1 .16 0 .11.11 0 0 1 0 .15l-.1.06a5.19 5.19 0 0 0-.81.58.13.13 0 0 1-.12.03zm25.16-1.13h-.06l-1-.57a.11.11 0 0 1 0-.15.12.12 0 0 1 .16-.05l1 .57a.12.12 0 0 1-.05.22zm-23.25-.09a.11.11 0 0 1-.09-.06.1.1 0 0 1 0-.15l1-.58a.11.11 0 0 1 .15.05.11.11 0 0 1 0 .15L9 19.2zm21.26-1h-.06l-1-.57a.12.12 0 0 1-.05-.16.13.13 0 0 1 .16 0l1 .57a.12.12 0 0 1 0 .16.11.11 0 0 1-.05-.05z"/><path class="cls-5" d="M8.88 39.6L18 44.84a5 5 0 0 0 5 0l9-5.24a5 5 0 0 0 2.48-4.31V24.8A5 5 0 0 0 32 20.49l-9.09-5.25a5 5 0 0 0-5 0l-9.03 5.25a5 5 0 0 0-2.49 4.31v10.49a5 5 0 0 0 2.49 4.31z" id="_Group_" data-name="&lt;Group&gt;"/><path class="cls-6" d="M10 19.85v20.48s1.26.62 2.63 1.38c1.93 1.07 4.38 2.49 6.07 3.44a5.17 5.17 0 0 0 3.86-.15c1.64-.88 3.79-2.12 5.89-3.32 1-.67 2.67-1.58 2.63-1.61V19.88l-7.45-4.36a5.8 5.8 0 0 0-3.06-.95 6 6 0 0 0-3.19.95L13.15 18z" id="path12"/><path d="M15.8 36.32s.07 0 .08-.07l.39-.11c.05.06.12 0 .19 0-.15.26-.39.26-.66.18zm-1.62.12h.24a.09.09 0 0 1 .14 0s0-.07.12 0a.12.12 0 0 1 .1-.11v-.22c-.22.02-.38.26-.6.33zm1.07-1.16l.18.72h.1a.08.08 0 0 1 .13 0 .07.07 0 0 1 .14 0l.44-.12c.05-.07.09-.07.15 0a.26.26 0 0 1 .21 0l.24-.36a.83.83 0 0 1-1-.09 2.59 2.59 0 0 0 1.14-1c-.16 0-.72-.26-.77-.62a2.2 2.2 0 0 1-1 1.48zM25 33.67a1.28 1.28 0 0 1-.86.75 2.74 2.74 0 0 0 1.13 1 .76.76 0 0 1-1 .1c.15.22.28.46.42.64a.32.32 0 0 0 .32.15.75.75 0 0 1 .57 0l.33-1a1.85 1.85 0 0 1-.91-1.64zm-6.61-12.46a5.4 5.4 0 0 0 .27 2.15s0 .05 0 0l-.2-.08a3.41 3.41 0 0 1-.15.76h-.09a2.13 2.13 0 0 1-.17-.8 1.39 1.39 0 0 1-.19.11s-.06 0 0-.07.19-.47.19-2.51a.24.24 0 0 0-.08.09.61.61 0 0 0 0 .41.8.8 0 0 1-.23-.41.61.61 0 0 1 .26-.66v-.67a5.52 5.52 0 0 0-.65.11v-.65a3.2 3.2 0 0 0 .69.11 2.21 2.21 0 0 0-.13-.64h.72a2.15 2.15 0 0 0-.13.64 1.7 1.7 0 0 0 .61-.11v.65a3.53 3.53 0 0 0-.61-.1v.54a2.23 2.23 0 0 1 .45-.08.38.38 0 0 1 .28-.25l.95-.19a1.77 1.77 0 0 1 1.81.75c.27.43.42.75.68.83v.05a.54.54 0 0 1-.48 0 1 1 0 0 1 .2.58s.06.12.08.19a.75.75 0 0 1 0 .49 2 2 0 0 0-.26-.23 1.57 1.57 0 0 1 .21 1.2l-.24-.32a9.61 9.61 0 0 0 .43 1.28v.05a.36.36 0 0 1-.14 0 1 1 0 0 0 1 .3 1.55 1.55 0 0 0 1-1 1.91 1.91 0 0 1 0-1.39 2.38 2.38 0 0 1 .95-1 2.41 2.41 0 0 1 2.42 0 2.74 2.74 0 0 1 1.12 1.12 5.24 5.24 0 0 1 .49 2c0 .42.05.85.09 1.24 0 0 0 .08-.08.06h-.07a.71.71 0 0 1-.15-.08v2.5a3.25 3.25 0 0 0 .17.81v.08a1 1 0 0 1-.27-.12v7.48a3.53 3.53 0 0 0 .29 1.48 1.44 1.44 0 0 1-1-.51 1.39 1.39 0 0 1-1.29-.94c-.19.17-.58-.19-.84-.51l-.21.66c.19.15.37.28.24.57.2.18.17.39 0 .49a.2.2 0 0 1 0 .37.35.35 0 0 1-.26.35.94.94 0 0 0-.16 0c-.08.08-.11.07-.2.06a.25.25 0 0 0-.2.06c0 .06 0 .16-.06.22a.12.12 0 0 1 0 .19c.07 0 .08.28-.16.24a.21.21 0 0 1-.25.11c-.11 0-.15-.09-.15-.22s-.15-.09-.15-.15a.15.15 0 0 1 .14-.14c-.06 0 0-.15.08-.15a1.41 1.41 0 0 1 0-.21.36.36 0 0 1-.05-.09.35.35 0 0 1-.24-.27c-.11-.07-.28-.23-.31-.7a1.1 1.1 0 0 0-.25-.59c-.18-.27-.37-.53-.53-.76.06.38 0 .73-.42.84a4.14 4.14 0 0 0-.87-1.65l-.29.1a7.35 7.35 0 0 0 2.67 3.84l-.91.76.24.32-1.23.74.31.41-2.43 1.32L18 41.36l.35-.42-1.32-.78.31-.31-.94-.7a8.08 8.08 0 0 0 2.69-3.92l-.31-.13A3.89 3.89 0 0 0 18 37a.82.82 0 0 1-.5-1c-.28.42-.76.94-.77 1.43a.73.73 0 0 1-.3.63.31.31 0 0 1-.3.27c0 .08 0 .15-.1.16s0 .11 0 .19a.32.32 0 1 1-.39.49.36.36 0 0 1 0-.39c0-.1-.08-.18-.11-.27a.22.22 0 0 0-.15 0 .27.27 0 0 1-.21-.07.43.43 0 0 0-.19-.08c-.14 0-.21-.12-.22-.3-.2-.09-.24-.27-.06-.39-.21-.23-.06-.38.09-.47-.13-.12-.12-.37.18-.55a.75.75 0 0 1-.37 0 .08.08 0 0 1-.15 0l-.35.07c0 .13-.13.15-.19.07-.12.08 0 0-.14.15a1.36 1.36 0 0 1-1.17.57c-.06.08-.62.53-1 .49a5.23 5.23 0 0 0 .28-1.74v-7.38a1 1 0 0 1-.28.1 6.3 6.3 0 0 0 .2-1v-2.34a.88.88 0 0 1-.21.12h-.07c0-.4 0-.88.08-1.29a5 5 0 0 1 .5-2 2.75 2.75 0 0 1 1.12-1.1 2.61 2.61 0 0 1 2.53 0 2.52 2.52 0 0 1 .94 1 1.8 1.8 0 0 1 0 1.37 1.51 1.51 0 0 0 1.06 1 1 1 0 0 0 .94-.33h-.21a.51.51 0 0 0 .15-.14 9.71 9.71 0 0 0 .38-1.11 1.85 1.85 0 0 1 .23-.38.61.61 0 0 1-.27 0 1.08 1.08 0 0 0 .42-1.11.64.64 0 0 0-.68-.49h-.37zm0-.24c.82 0 .82-.15 0-.22z" id="path14"/><path class="cls-7" d="M18.7 19.16h-.35a3.84 3.84 0 0 1 .11-.65H18a3.11 3.11 0 0 1 .1.65 3.2 3.2 0 0 1-.53 0h-.15v.42l.33-.05h.32v.72l.31-.07v-.65a4.48 4.48 0 0 1 .64.09 3.08 3.08 0 0 1 0-.43 1.36 1.36 0 0 1-.32-.03zM18.23 24a4.8 4.8 0 0 0 .12-.8l.19.11a4.25 4.25 0 0 1-.15-.56 13.82 13.82 0 0 1-.07-1.94.42.42 0 0 0-.27 0A20.21 20.21 0 0 1 18 23v.25c.06 0 .13-.08.18-.1a3.05 3.05 0 0 0 .14.8zm4.22 1.72a2.84 2.84 0 0 1-.91-.86 1.21 1.21 0 0 1-.2.41 1.45 1.45 0 0 1-.34-.41 2.44 2.44 0 0 1-.41.84 3.32 3.32 0 0 1-.45-.82 2.89 2.89 0 0 1-.36.42 1.58 1.58 0 0 1-.19-.58 2.55 2.55 0 0 1-.92 1zm-3.31-5.5c.05.15.13.31.23.35s.52.13.57.16.18.08.18.19-.12.08-.28.08a3.46 3.46 0 0 0-.6.07l-.24.06c.09 0 .08 0 .16.05a.75.75 0 0 1 .41.7 1.28 1.28 0 0 1-.4.84.82.82 0 0 0 .23 0h.06l.11-.05A.78.78 0 0 0 20 22v-.09c0-.1.06-.08.06.18v.06a1.33 1.33 0 0 1 0 .32.92.92 0 0 1-.1.32.94.94 0 0 0 .66-.58 4.35 4.35 0 0 1 0-.51c0-.07.05 0 .05 0v.09a1.18 1.18 0 0 0 0 .42 2.5 2.5 0 0 0 .21.5 6.8 6.8 0 0 0 .64.78v.06c.22-.53-.13-1.09-.37-1.53v-.06s.07 0 .12.06a1 1 0 0 0 .08.14c0 .06.07.11.09.16a1.53 1.53 0 0 0 .18.18c.14.16.3.31.44.47s.15.17.26.33a1.45 1.45 0 0 0-.4-1.21h.05c.13.12.32.18.39.3 0-.44-.29-.69-.61-.88s-.39-.26-.39-.38c.09.24.71.52.81.64a1.47 1.47 0 0 0-.24-.57l-.29-.3s.3.22.36.26a.54.54 0 0 0 .42.07 4.63 4.63 0 0 1-.48-.61 1.93 1.93 0 0 0-1-.88 3.81 3.81 0 0 0-1.77.14c-.13 0-.23.08-.24.16s.05.06.1.09a1.08 1.08 0 0 0 .59 0h.16a1 1 0 0 1 .75.15 1.16 1.16 0 0 0 .44.23 1.13 1.13 0 0 0 .26 0 1 1 0 0 1-.34 0 2.81 2.81 0 0 1-.54-.29.33.33 0 0 0-.12-.05c0 .23 0 .36-.2.45h-.07c-.07 0-.07 0 0 0h.05a.39.39 0 0 0 .17-.43.51.51 0 0 0-.24 0 .25.25 0 0 1 .06.21.27.27 0 0 1-.25.22.28.28 0 0 1-.1-.4h-.08a1.1 1.1 0 0 1-.45.05zM21 22.93a2.21 2.21 0 0 1-.33-.65 1 1 0 0 1-.69.59h-.14a1.25 1.25 0 0 0 .19-.53.71.71 0 0 1-.26.29l-.25.13a2.2 2.2 0 0 0 .17.83v.05a1.61 1.61 0 0 0 .5-.86h.06l.06.21a2.44 2.44 0 0 0 .37.67 2.8 2.8 0 0 0 .33-.74zm-1.37.84a2.26 2.26 0 0 1-.2-.91c-.33.34-.33 1.18-.6 1.44a1.39 1.39 0 0 0 .44-.17 1.27 1.27 0 0 0 .42-.41zm2.37.33a1.09 1.09 0 0 0 .41.26 1.24 1.24 0 0 1-.12-.28c-.08-.25-.11-.48-.18-.71L22 23c-.12-.14-.28-.29-.41-.44s0 0-.07 0a1.44 1.44 0 0 1 .19.8v.13l-.06.2a2.18 2.18 0 0 0 .38.44zm.26.35c-.08-.1-.22-.2-.31-.29a1.19 1.19 0 0 1-.32-.35 6.34 6.34 0 0 1 0 .74v.16a3.47 3.47 0 0 0 .89.9 2.77 2.77 0 0 0-.19-1.16zm-.71-.75c-.18-.25-.37-.45-.57-.7a2.39 2.39 0 0 1-.32.73 3.27 3.27 0 0 0 .64 1.37 2.6 2.6 0 0 0 .27-1.4zm-1.35 1.05a2.84 2.84 0 0 0 .37-.84v-.05c.05.17.09.31.13.43s.14.32.19.45a4 4 0 0 1-.35.81 3.42 3.42 0 0 1-.39-.76zm-.4.37a2.66 2.66 0 0 1-.16-.66 3.05 3.05 0 0 1 0-.43v-.21s0-.06.05-.09a1.58 1.58 0 0 0 .47-.79 2.2 2.2 0 0 0 .39.78 3.22 3.22 0 0 1-.76 1.4zM19.56 24a1.75 1.75 0 0 1 0 .23v.35a3.35 3.35 0 0 1-.87 1 6 6 0 0 1 .05-.95l.07-.23a1.6 1.6 0 0 0 .73-.44zm6.75 11.8l.69-2.5v3c-.15.09-.51-.25-.69-.54zM14 27.16l.16-.11A2 2 0 0 0 15 25.8a2.75 2.75 0 0 1-.05.34c0 .12-.07.25-.11.35s.11 0 .19 0v8l-1-3.44v-3.89zm-.15-3.39v.1a4.56 4.56 0 0 1-.49.82 2 2 0 0 1-.55.46 1.94 1.94 0 0 1 0-.83c.09-.26.16-.53.26-.77a1 1 0 0 1 .07-.18c0-.09 0-.14-.07-.06a8.5 8.5 0 0 0-.35 1 2.73 2.73 0 0 1-.36.7 3.65 3.65 0 0 1-.35.43.81.81 0 0 1-.2.17 2.83 2.83 0 0 0 .37-1.15 7.07 7.07 0 0 1 .33-1.22 2.89 2.89 0 0 1 .9-1.15 2.13 2.13 0 0 1 1.79-.29 1.43 1.43 0 0 1 .89 1.47c0 .11 0 .23-.07.34a1.66 1.66 0 0 1-.32.52c-.05 0-.21.19-.28.19a1.58 1.58 0 0 1-.16-.35 2.22 2.22 0 0 1-.12-.58 1.46 1.46 0 0 0 .05-.2 2.33 2.33 0 0 0 .06-.35v-.05h-.06a2.19 2.19 0 0 1-.2.81 2.31 2.31 0 0 1-1.05 1.17 2.93 2.93 0 0 1 0-.84 3.81 3.81 0 0 1 .44-1l.08-.11c0-.1 0-.07-.06-.05a2.82 2.82 0 0 0-.49 1zm4.82.83v.27a1.19 1.19 0 0 1-.62.41 1.55 1.55 0 0 1-1.47-.56 1.66 1.66 0 0 1-.49-1 4.3 4.3 0 0 0 .08-.45 1.6 1.6 0 0 0-.51-1.3 1.51 1.51 0 0 0-.26-.18 2.16 2.16 0 0 0-2.21.33 3.52 3.52 0 0 0-.74 1 10 10 0 0 0-.5 1.91 1.33 1.33 0 0 1-.27.56 14.75 14.75 0 0 1 .28-2.3 2.86 2.86 0 0 1 1.29-1.77 3.06 3.06 0 0 1 1.55-.37 2.41 2.41 0 0 1 1.18.45 2.58 2.58 0 0 1 .65.78 2 2 0 0 1 .18.92 3.65 3.65 0 0 1-.13.5 2.73 2.73 0 0 0 .14.31 1.66 1.66 0 0 0 .67.67 1.08 1.08 0 0 0 1.22-.11zm-3.63.68v-1.51.06a2.31 2.31 0 0 0 .24.56 1.21 1.21 0 0 0 .63-.57 4.85 4.85 0 0 1 0 .66 3.08 3.08 0 0 1-.19.9 1.84 1.84 0 0 1-.89 1l.05-.16v-.12a2.91 2.91 0 0 0 .08-.66v-.22zm-1.06 1a2.76 2.76 0 0 1-.11.85 2.22 2.22 0 0 0 1-1.67v-1.72a2.42 2.42 0 0 1-.49.72 3.65 3.65 0 0 1-.48.38v.89c0 .28.1.33.1.52zM13 27a2.62 2.62 0 0 1-.07.79 1.88 1.88 0 0 0 .41-.32 2.92 2.92 0 0 0 .59-1.47v-1.12l-.1.07a1.82 1.82 0 0 1 0-.74 3.33 3.33 0 0 1-.46.67 1.7 1.7 0 0 1-.31.29v1.55L13 27zm-1-1.42v-.08a3.82 3.82 0 0 0 .65-.9 1 1 0 0 0 0 .15 2.44 2.44 0 0 0 .09.54l.12-.07h.08v.45a6.58 6.58 0 0 1-.09 1.54 3.12 3.12 0 0 1-.76 1.46l-.06.06a2.1 2.1 0 0 1-.22.15 3.83 3.83 0 0 0 .15-.75v-2.51zm3.13 9.11l.14.49a2.14 2.14 0 0 0 .93-1.73 2.09 2.09 0 0 1 0-.25v-7.53h2.49a3.79 3.79 0 0 1 0-.67 1.21 1.21 0 0 1-1 .4 2 2 0 0 1-1.57-1.22 2.77 2.77 0 0 1-.51 1.82 2.13 2.13 0 0 1-.53.47v8.22zm-1.14 1.75a.16.16 0 0 1 .12 0 1.89 1.89 0 0 0 .65-.58c-.22-.88-.46-1.77-.69-2.66l-.08 3.17zm-.08.1v-.12l.09-3.48c-.29-1.17-.61-2.31-.91-3.46v6.55a4.66 4.66 0 0 1-.14.91l-.05.15a2.45 2.45 0 0 1-.12.31 1.08 1.08 0 0 0 .5-.08 1.57 1.57 0 0 0 .61-.53.21.21 0 0 1-.14-.07.21.21 0 0 1 .11-.19zm.1-9.35v3.65l-.56-2c0-.1-.09-.31-.13-.38a2.28 2.28 0 0 0-.39-.48 1.14 1.14 0 0 0 0 .81c0 .14.07.27.1.41v.1c0 2.19 0 4.52-.05 6.75v.4a3.06 3.06 0 0 1-.22.77l-.05.12a1.31 1.31 0 0 1-.83.58 4.45 4.45 0 0 0 .12-1.71v-7.38a3 3 0 0 0 .47-.55 4.62 4.62 0 0 0 .39-.92c0 .11-.08.43-.1.52a1.14 1.14 0 0 0 .3-.13 2.6 2.6 0 0 0 .31-.25 2.43 2.43 0 0 0 .52-1.07 2.44 2.44 0 0 1-.12.68c0 .08.09.07.15.07zm8.46-2.59v.12a1.28 1.28 0 0 0 .65.58 1.58 1.58 0 0 0 1.48-.56 1.8 1.8 0 0 0 .49-1 4.47 4.47 0 0 1-.09-.45 1.62 1.62 0 0 1 .51-1.3 2 2 0 0 1 .26-.18 2 2 0 0 1 2.11.33 3 3 0 0 1 .74 1 8.7 8.7 0 0 1 .5 1.93 1.48 1.48 0 0 0 .27.55 14.86 14.86 0 0 0-.27-2.31 2.9 2.9 0 0 0-1.29-1.77 2.87 2.87 0 0 0-1.49-.37 2.25 2.25 0 0 0-1.14.45 2.32 2.32 0 0 0-.65.78 1.92 1.92 0 0 0-.18.92 2 2 0 0 0 .13.5c0 .11-.1.21-.15.32a1.53 1.53 0 0 1-.67.66 1 1 0 0 1-1.25-.12zm4.74-.82l.06.11a4 4 0 0 0 .49.82 2.21 2.21 0 0 0 .55.46 1.94 1.94 0 0 0 0-.83c-.08-.27-.16-.53-.25-.78 0-.06-.05-.13-.08-.18s0-.14.07-.06a7 7 0 0 1 .35 1 3 3 0 0 0 .37.7 2.79 2.79 0 0 0 .34.43 1.58 1.58 0 0 0 .2.16 2.74 2.74 0 0 1-.37-1.14 6.37 6.37 0 0 0-.33-1.23 2.89 2.89 0 0 0-.9-1.15 1.93 1.93 0 0 0-1.71-.33 1.43 1.43 0 0 0-.88 1.47 2.21 2.21 0 0 0 .06.34 1.44 1.44 0 0 0 .33.52c0 .05.21.2.27.2a1.28 1.28 0 0 0 .16-.36 2.3 2.3 0 0 0 .12-.58l-.05-.2c0-.12-.06-.24-.06-.35v-.05c0 .01.07 0 .07 0a2.57 2.57 0 0 0 .15.81 2.67 2.67 0 0 0 1 1.19 2.66 2.66 0 0 0 0-.85 3.4 3.4 0 0 0-.36-1l-.09-.11c0-.1 0-.08.06-.05a2.56 2.56 0 0 1 .42 1zm1.93 1.8L29 25.5a3.52 3.52 0 0 1-.64-.9.86.86 0 0 1 0 .15 2 2 0 0 1-.09.54l-.11-.07h-.08v.45a6.58 6.58 0 0 0 .09 1.54 3.31 3.31 0 0 0 .83 1.41l.07.06a1 1 0 0 0 .22.15 3.24 3.24 0 0 1-.16-.75zm-1 1.42v.27c0 .18.05.35.09.52l-.2-.14a2 2 0 0 1-.23-.18 3 3 0 0 1-.7-1.47v-1.12l.11.07a2 2 0 0 0 0-.74 4.36 4.36 0 0 0 .45.67 2.8 2.8 0 0 0 .32.29v1.87zm-1-.74a2.5 2.5 0 0 0 .12.85h-.06a2.38 2.38 0 0 1-.95-1.67v-1.71a2.47 2.47 0 0 0 .48.71c.15.14.29.26.4.38v.89c0 .28 0 .39.05.58zm-1-1v-1.51.06a1.24 1.24 0 0 1-.26.57 1.25 1.25 0 0 1-.62-.58 4.85 4.85 0 0 0 0 .66 3.08 3.08 0 0 0 .19.9 1.86 1.86 0 0 0 .86 1 2 2 0 0 1-.11-1.16zm2 2.56v1c.06.08.07.16 0 .21a.35.35 0 0 1 .05.08.28.28 0 0 1 .1.36l.24 1.1c-.11.14-.22.3-.33.45v5.13c0 .67.34 1.47 1.11 1.59a4.3 4.3 0 0 1-.31-1.57v-7.38a2.83 2.83 0 0 1-.81-1.41 2.73 2.73 0 0 0 .06.34c0 .08 0 .09-.06.15h-.12zm-.91 8.36V33.1l.19-.64c.12 0 .13-.12.1-.18a.16.16 0 0 0 .13-.2c.11-.06.14-.15.05-.35l.36-.48.11-.13v4.81a3.53 3.53 0 0 0 .15.84v.15c0 .08.09.23.13.31a1.07 1.07 0 0 1-.5-.13 1.42 1.42 0 0 1-.72-.92zM27 27.13a2.12 2.12 0 0 1-.86-1.32 2.18 2.18 0 0 0 .19.74.36.36 0 0 1-.21 0v8c.22-.74.43-1.41.64-2.15a.13.13 0 0 1 0-.23.13.13 0 0 1 0-.24c-.05-.13-.05-.23.12-.28-.06-.45-.12-1-.17-1.42.11-.13.2-.2.3-.34V27.2zm-.93 7.62l-.15.41a1.93 1.93 0 0 1-.92-1.74v-7.76h-2.45a3.39 3.39 0 0 0 0-.7 1.12 1.12 0 0 0 1 .44 2 2 0 0 0 1.58-1.22 2.49 2.49 0 0 0 1 2.27v.06l.07 8v.25zm-2.07-.3a2.68 2.68 0 0 0 1.08 1 .83.83 0 0 1-.94 0h-.07a1.9 1.9 0 0 1 .09.7 1.8 1.8 0 0 1-.59-.29.07.07 0 0 0-.11.06c.05.52 0 .68-.28.8a3.85 3.85 0 0 0-.84-1.6l1.66-.67zm-6.95 0a2.08 2.08 0 0 1-1.09 1 .86.86 0 0 0 .91 0h.08a2 2 0 0 0 0 .71 1.88 1.88 0 0 0 .61-.32c.05 0 .07 0 .07.06a.83.83 0 0 0 .31 1 4.19 4.19 0 0 1 .83-1.78c-.59-.27-1.15-.47-1.72-.67zm4.37 1l.44-.17a7.51 7.51 0 0 0 2.64 3.86c-.27.21-.56.43-.82.65a8.09 8.09 0 0 1-2.26-4.34zm-.48.16l.41-.13a8.65 8.65 0 0 0 2.5 4.68l-1.17.72c-1.31-1.75-1.47-3.26-1.74-5.27zm-1.75-.36a7.49 7.49 0 0 1-2.62 3.91c.25.21.55.42.84.63a7.3 7.3 0 0 0 2.19-4.39zm.48.18l.46.16a9.21 9.21 0 0 1-1.72 5.3c-.4-.22-.82-.47-1.22-.72a7.9 7.9 0 0 0 2.48-4.77zm.52.18a9.41 9.41 0 0 1-2 5.75l2.44 1.2 2.29-1.24c-1.26-1.76-1.64-2.45-2-5.66l-.29.09-.37-.14zM28 27.79h-.05a2.48 2.48 0 0 1-.3-.25 2.26 2.26 0 0 1-.51-1 2.77 2.77 0 0 0 .14.72c0 .05-.11 0-.17 0v2.57l.41-.46c0-.2.14-.26.24-.26s.09-.05.1 0 0-.13.12-.17v-1zm-8.14-7.72h.06a.16.16 0 0 1 .06.16.31.31 0 0 1 0 .13.29.29 0 0 0-.09-.29zm-.06 0c-.08 0-.1 0-.11.09a.23.23 0 0 0 .1.28c.15.03.14-.36-.01-.35zm0 .05s-.06 0 0 .06.07 0 .07 0a.08.08 0 0 1 0 .07s-.05.06-.08.06a.1.1 0 0 1-.03-.17z" id="path16"/><path class="cls-8" d="M18.87 21.11h-.48a.49.49 0 0 0 0-.12A2.81 2.81 0 0 0 19 21l.24-.07a2.7 2.7 0 0 1 .71 0h-.66c-.25 0-.52-.1-.78-.12a2.82 2.82 0 0 0-.41 0 .37.37 0 0 0-.35.46.61.61 0 0 1 .17-.86 2 2 0 0 1 .64-.16h.28c.11 0 .23.11.25.23s.38.34.56.37.33.05.38.13 0 .15-.18.16a3.67 3.67 0 0 0-1 .11zM14.84 38a.43.43 0 0 1 .2.09.3.3 0 0 0 .23.06 1.07 1.07 0 0 1 .31 0 .37.37 0 0 0 .47-.1h.05c-.16.08-.12.23 0 .25-.09.13-.25.15-.44.08s-.11-.09-.25-.08a.2.2 0 0 1-.18 0 .31.31 0 0 0-.16-.07c-.14 0-.2-.09-.22-.23zm0-.37a.48.48 0 0 1 .17.11.24.24 0 0 0 .24.08.61.61 0 0 1 .22 0 .35.35 0 0 0 .42-.13h.12c-.14.1-.07.23 0 .23 0 .18-.15.25-.35.23a.71.71 0 0 0-.38 0 .3.3 0 0 1-.25-.05.5.5 0 0 0-.23-.13c-.22-.06-.15-.31 0-.28zm.05-.44a.18.18 0 0 0-.08.35.9.9 0 0 1 .22.14.22.22 0 0 0 .25.07.75.75 0 0 1 .26 0 .24.24 0 0 0 .29-.17.14.14 0 0 1-.09-.21.4.4 0 0 0-.41 0 1.56 1.56 0 0 0-.12-.17.08.08 0 0 1-.08 0c-.06.13 0 .22.05.33a.4.4 0 0 1-.29-.37zm1.95-1.58a4.54 4.54 0 0 1-.3.53.52.52 0 0 1-.59.24.32.32 0 0 0-.37 0 2.56 2.56 0 0 0-.62.27c-.16.15-.21.27 0 .41a.14.14 0 0 1 .23 0 .3.3 0 0 0 .2-.23.5.5 0 0 0 .47-.09c.09 0 .1 0 0 .05a.63.63 0 0 1-.15.11c0 .12.09.24.12.39a.47.47 0 0 0 .28-.27.72.72 0 0 1-.17.51h.14s.17-.1.23-.23a.51.51 0 0 1-.18.52.11.11 0 0 1 0 .11s.08 0 .08.05.18-.1.25-.22v.09a.77.77 0 0 0 .24-.5 1 1 0 0 1 .16-.59c.18-.28.37-.59.58-.9a1.07 1.07 0 0 1-.58.26 1.63 1.63 0 0 1 0-.59zM26.23 38a.35.35 0 0 0-.2.09.25.25 0 0 1-.24.06 1 1 0 0 0-.3 0 .36.36 0 0 1-.47-.1h-.05c.16.08.12.24 0 .26a.38.38 0 0 0 .44.07.43.43 0 0 1 .25-.07.31.31 0 0 0 .18 0 .25.25 0 0 1 .17-.08.24.24 0 0 0 .22-.23zm0-.37a.34.34 0 0 0-.18.11.24.24 0 0 1-.24.08.63.63 0 0 0-.22 0 .32.32 0 0 1-.41-.13h-.12c.13.11.05.22 0 .23 0 .18.15.26.36.23a.77.77 0 0 1 .37 0 .3.3 0 0 0 .25-.05.5.5 0 0 1 .24-.12c.22-.07.13-.31 0-.29zm-.06-.44a.19.19 0 0 1 .09.35 1.28 1.28 0 0 0-.23.14.25.25 0 0 1-.26.08.53.53 0 0 0-.25 0 .23.23 0 0 1-.28-.17c.1 0 .12-.11.08-.21a.38.38 0 0 1 .41 0 1.11 1.11 0 0 1 .12-.18.08.08 0 0 0 .08 0c.06.13 0 .22-.06.33a.41.41 0 0 0 .3-.37zm-2-1.64c.11.19.27.44.4.62a.36.36 0 0 0 .49.15.65.65 0 0 1 .45 0c.14.24.32.24.58.3s.22.3.05.45a.14.14 0 0 0-.23 0 .3.3 0 0 1-.2-.24.46.46 0 0 1-.46-.09c-.09 0-.11 0 0 .05a.83.83 0 0 0 .16.12 2.39 2.39 0 0 0-.13.38.44.44 0 0 1-.28-.27.69.69 0 0 0 .17.51h-.13c.01 0-.17-.12-.24-.23a.55.55 0 0 0 .17.52.11.11 0 0 0 .03.18h-.08s-.18-.1-.25-.23a.22.22 0 0 0 0 .1.86.86 0 0 1-.23-.52 1.16 1.16 0 0 0-.15-.57c-.18-.28-.4-.58-.62-.88a1.59 1.59 0 0 0 .58.25 1.66 1.66 0 0 0 0-.66z" id="path18"/><path class="cls-9" d="M24.89 39a1.72 1.72 0 0 0 .28.08.12.12 0 0 1-.16.08c-.09 0-.14-.07-.12-.16zm0-.24c.12 0 .26.08.43.11a.09.09 0 1 1-.06.17l-.45-.04c-.08-.07-.05-.24.06-.21zm.08-.17l.38.1c.08 0 0 .13 0 .11l-.38-.1a.06.06 0 1 1 0-.11zm0-.17a.64.64 0 0 0 .44.06v.15c-.1-.06-.3-.07-.4-.12v-.09zm.85-1.21a.33.33 0 0 1-.15-.21h-.23a.79.79 0 0 0-.08.3.35.35 0 0 1 .38 0 .25.25 0 0 1 .07-.06zm1-4.87l.37.11-.11.41zm.77-3c-.29.3-.54.55-.81.86.06.44.08 1 .14 1.45a.28.28 0 0 1-.15.24l.12.05c0-.1 0-.2.09-.29 0-.45 0-.95-.06-1.43.21-.3.44-.6.68-.9zm.08 0c-.25.32-.46.6-.68.9v1.43c-.11.08-.15.28-.05.3s.14 0 .14-.14v-1.57c.18-.28.35-.59.54-.92zm0 .09c-.18.28-.34.58-.5.86v1.18c.06-.34.13-.71.2-1.05s.21-.67.31-1zm-.34 2.07c.12-.34.26-.68.38-1s.14-.71.2-1.05v1.06l-.61 1zm-.09.27c.23-.42.5-.84.77-1.27v-1.05c.05.36.11.74.17 1.1l-.79 1.19c0 .17 0 .31-.11.29s-.1-.09 0-.26zm.17 0c0 .16 0 .3-.1.33h.12a.38.38 0 0 1 .05-.33c.29-.39.6-.8.87-1.18-.09-.4-.21-.76-.29-1.14 0 .36.1.76.16 1.12-.22.43-.49.77-.78 1.15zm.1.06a.41.41 0 0 1 0 .16.17.17 0 0 1-.08.13.72.72 0 0 1 0-.17.55.55 0 0 1 .11-.17zm-.23.06v.13h-.06s0-.08.06-.08zm0 0h-.08v-.06zm-.28-.14s.06.05.06.09 0 .08-.06.08a.08.08 0 0 1-.07-.08l.07-.09zm0 0a.06.06 0 0 1 .06.07.05.05 0 0 1 0 .05.07.07 0 0 1-.05 0c-.01-.07-.01-.1-.01-.1zm-.12-.16a.35.35 0 0 1 0 .13.38.38 0 0 1-.08.09.24.24 0 0 1 0-.15l.11-.07zm.86-2.18c0 .12 0 .13.13.05 0 .08 0 .19-.06.25a.08.08 0 0 1-.15-.05 2.5 2.5 0 0 0 .08-.25zm-.11.33a.11.11 0 0 0 .16 0 .78.78 0 0 1 0 .16c0 .09-.22.12-.2 0a1 1 0 0 0 .06-.14zm-.09.26c.05.1.12.1.21.06v.11a.11.11 0 0 1-.22 0zm-.07.24a.14.14 0 0 0 .23 0 1 1 0 0 1 0 .16.12.12 0 0 1-.23 0 1.42 1.42 0 0 1 .02-.14zm-.08.24a.13.13 0 0 0 .23.07.88.88 0 0 1-.05.15.11.11 0 0 1-.2 0c.02-.09.04-.15.04-.2zm-.05.27a.13.13 0 0 0 .19.05c0 .05 0 .09-.05.13s-.18.08-.16-.06a.71.71 0 0 1 0-.12zm0 .24a.09.09 0 0 0 .15 0 .51.51 0 0 1 0 .1c0 .08-.14.07-.13 0s-.05-.04-.04-.09zm0 .21a.08.08 0 0 0 .11 0 .35.35 0 0 1-.05.13h-.08a.69.69 0 0 1 0-.13zm-.05.21a.11.11 0 0 0 .11 0 1.09 1.09 0 0 0-.05.14h-.08a1.25 1.25 0 0 0 0-.15zm-.16.55l.15.05s-.09-.18.05-.36h-.1c0 .21 0 .33-.1.33zm.83-3A.24.24 0 0 1 28 29a.1.1 0 0 0 0-.13.1.1 0 0 0-.1.13zm0 .23s-.06-.1-.13-.14a.24.24 0 0 1 .31.1.24.24 0 0 0-.24.07zm-.36.06c.14 0 .22 0 .27.15.15-.07.27-.09.35 0 0-.18-.06-.24-.28-.13-.1-.19-.24-.23-.34 0zm-.71 2.66l.58.18c.07 0 0 .13-.06.13l-.53-.17c-.08 0-.05-.15 0-.14zm0 .2l.45.14a.07.07 0 0 1 0 .14l-.44-.13a.08.08 0 0 1-.05-.12zm-1.18 3.91l.29.53a.71.71 0 0 1-.37-.24zm0-.09l.3.54zm.15-.5l.29.55-.13.42-.3-.52.14-.45zm0-.1l.29.55v.02zm.18-.47l.27.51-.14.45-.29-.53.16-.43zm0-.09v.05l.28.5-.29-.51zm.18-.6l.26.52-.26-.53zm.33-1.08l.27.49-.14.45-.27-.52.14-.42zm.22-.71v.06l.25.52v-.06l-.25-.52zm-.58 1.88l.27.54-.12.44-.29-.52zm.18-.61l.26.54-.13.47-.27-.52zm.36-1.18L27 33l-.13.45-.23-.45.14-.49zm-.16.53l.28.49-.23-.49zm-.17.56l.26.53v-.06zm-13.51-5.51a1.28 1.28 0 0 0 0 .7l2 7.39.48-.13-2.08-7.34a1.45 1.45 0 0 0-.4-.62zm1.84 8.25v.22c0 .06.08.07.16 0s.37-.09.59-.16c.06 0 .05-.07 0-.1s0-.12 0-.18-.1-.07-.17-.05a5 5 0 0 0-.5.13c-.01.07-.08.09-.08.14zm.87 2.23a.7.7 0 0 0 .38 0 1.21 1.21 0 0 0 0 .14.29.29 0 0 0-.31.07 1.47 1.47 0 0 1-.07-.21zm.27.26a.23.23 0 0 1 .26.23c0 .13-.1.22-.26.22a.22.22 0 0 1-.22-.22.22.22 0 0 1 .22-.23zm0 .12a.11.11 0 1 1-.11.11.11.11 0 0 1 .11-.11zm0 0a.15.15 0 1 1 0 .3.14.14 0 0 1-.15-.14.15.15 0 0 1 .15-.21zm-2-2.26a.28.28 0 0 0 0 .09c0 .06-.09 0-.17 0s.1-.17.16-.14zm.06 0c0-.07.05-.09.08 0a.17.17 0 0 1 0 .1v.08s-.05 0-.07-.07a.11.11 0 0 1 0-.08zm.16-.07a.27.27 0 0 1 0 .12l.34-.06a1.3 1.3 0 0 1 0-.13l-.34.07zm.39-.08c0-.09.07-.1.09 0a.64.64 0 0 1 0 .07c0 .08 0 .13-.08 0s0-.1-.02-.14zm.13 0c0-.07.06-.08.08 0a.59.59 0 0 1 0 .13c0 .07 0 .12-.07 0s0-.19-.02-.25zm1.82-.32a.36.36 0 0 0 0-.14.13.13 0 0 1 .18 0c0 .07-.1.13-.16.11zm-.05 0c0 .07-.05.08-.07 0a.28.28 0 0 1 0-.12c0-.06.07-.08.09 0a.19.19 0 0 1 0 .07zm-.13 0a.28.28 0 0 1 0-.13l-.38.12a1 1 0 0 0 0 .12zm-.43.12c0 .06 0 .08-.06 0a.55.55 0 0 1-.05-.17s0-.1.07 0a.66.66 0 0 0 0 .15zm-.11 0c0 .08-.06.09-.09 0s0-.13 0-.16h.08a.84.84 0 0 0 0 .17zM13 28.58l2 7.38zm2.27 8.64a.25.25 0 0 0 .12-.2.58.58 0 0 0 .19 0 2.67 2.67 0 0 1 .11.34.37.37 0 0 0-.34 0 .68.68 0 0 1-.08-.15z" id="path20"/><g id="Olteniei"><path class="cls-8" d="M16.64 32h.05v-.05a.06.06 0 0 0-.05.05zm0-.17v-.03a.06.06 0 0 0-.08 0s.06.02.07.05zm.17-.13a.11.11 0 0 1-.01.02zm.16.05v-.07a.1.1 0 0 1 .03.09zM18.3 34v-.62l.18-.16.24-.09.26.1.16.15v.27l-.26.39a.21.21 0 0 1-.17 0 .29.29 0 0 1-.41-.04zm-.84 0v-.61l-.14-.17-.32-.13-.25.08-.15.17v.6a.27.27 0 0 0 .38 0 .33.33 0 0 0 .48.06zm2-1.69a.56.56 0 0 0 0-.33c0-.1 0-.13.06 0 .15-.07 0-.27-.09-.13 0-.13.07-.2.1-.09a.11.11 0 1 0-.17-.11v-.08c.12-.07 0-.25-.11-.15-.15-.35 0-.54.05-.59.27-.21.55.08.26.24a.18.18 0 0 0 .1 0c0 .16.13.2.1.38a.22.22 0 0 0 .07-.17s.06-.06 0-.11.05-.07 0-.12a.11.11 0 0 0 .09-.11c-.06 0-.18-.29-.39-.31a.41.41 0 0 0-.46.39c-.07.36.38 1 .17 1.29h-.2v.19h-.17a5.49 5.49 0 0 1-.52-.65.12.12 0 0 0 .12 0 .12.12 0 0 1 0-.09.15.15 0 0 0 .21 0c-.14 0-.13-.12-.1-.2s.05.09.07.13a.29.29 0 0 0 .08-.3.11.11 0 0 0 .08 0 .17.17 0 0 0 0-.14c.1 0 0-.13 0-.19s.06 0 .07-.1-.09-.2-.2-.24-.07-.13-.15-.08h-.05c0-.07-.09-.08-.14 0s-.09 0-.12.06 0 0 0 .05a1 1 0 0 1-.17 0 .05.05 0 1 0 0 .1v.09c0 .09 0 0 .07 0s.13-.1.09.06-.28 0-.31-.06-.07-.07-.07 0 .26.1.36.11-.08.06-.08.07v-.06a1 1 0 0 0 0 .1s-.05 0-.05.07a1.33 1.33 0 0 0-.36 0c-.13-.18-.42-.19-.56-.34s0-.07 0 0 .12 0 .08 0a.34.34 0 0 0-.06-.06 1.26 1.26 0 0 1 .79-.16.84.84 0 0 1 .33-.19 1.55 1.55 0 0 0-1.15.26v-.1c0-.05-.12 0-.08.07s0 0-.08 0-.1 0-.12.06-.07.14-.07.19 0 .15.07.1 0 0 .05 0 0 .06 0 .08.06 0 .06 0a.21.21 0 0 0 0 .2h.06a.53.53 0 0 0 0 .17l.05-.06a.21.21 0 0 0 .06.17.22.22 0 0 0 .16.1.15.15 0 0 1-.13.06.18.18 0 0 0 .19.09l-.07.06c-.07.06 0 0 .06 0a.87.87 0 0 0-.33.14s0-.05-.05-.06 0-.08-.09-.09 0 0 0 .07a.06.06 0 0 0-.07 0 .1.1 0 0 0-.13 0v.06c0 .06-.08 0-.08 0s-.11 0-.11.1 0-.05.08 0 0 .05 0 .06v.16c0 .06 0 0 .06 0a.42.42 0 0 0 .15-.06.07.07 0 0 1 0 .07.47.47 0 0 0 .25-.09s0 .06-.08.09a.72.72 0 0 0 .21 0s-.05 0-.06.06a.37.37 0 0 0 .22-.08.14.14 0 0 1 0 .06.24.24 0 0 0 .17-.09.3.3 0 0 1 0 .1.26.26 0 0 0 .13-.1.38.38 0 0 1 0 .1.31.31 0 0 0 .14-.09.16.16 0 0 1 0 .09h.09c.02 0 .13.1.23.15a.5.5 0 0 1 .24.18v.1h-.37v-.2h-.44v.2h-.37v-.2h-.46v.2h-.4V30.1h4.29a16 16 0 0 1-.8 2.36h-.16v-.2z" id="path23"/><path class="cls-10" d="M18.09 31.15h.05c.16-.09.06-.37-.05-.22s0 0 0-.07-.05-.06 0 0H18.26c-.02 0 0 .08.06.13s-.1.16-.23.16zm-.5 0h-.15s0 .07.08.11a.34.34 0 0 1-.24 0 .15.15 0 0 0 0 .09.31.31 0 0 1-.15-.11.09.09 0 0 0 0 .06.74.74 0 0 1-.05-.19v.05a1.57 1.57 0 0 1 0-.16s-.05 0-.07.06a.27.27 0 0 1 0-.2h-.08c-.02 0 0-.05 0-.08s.07 0 .07 0h.07c.07 0 .31.22.52.4zm.77 0a.55.55 0 0 1-.32.05v-.05s.35-.1.22-.3v-.08c0-.03.09 0 .07-.08s-.12 0 0-.07a.32.32 0 0 1 .19 0V30.64a.07.07 0 0 1 .13.07.13.13 0 0 1 0 .07.18.18 0 0 0 .08-.09c.05 0 0 .22.16.25h-.08l.08.14c0 .06 0 .05 0 0s0 0-.06 0a.24.24 0 0 1 .08.19.23.23 0 0 1-.12-.08c.08.22 0 .27 0 .33s-.05-.1-.09-.11 0 .21.06.24-.13 0-.19 0a.3.3 0 0 0 0 .13.13.13 0 0 1-.13-.12c0 .07-.05.12-.1.13a.39.39 0 0 0 0-.14.25.25 0 0 1-.16.16c.1-.12 0-.19 0-.31a.19.19 0 0 0-.13.17s-.05-.05-.07-.09-.06.13-.11.12a.2.2 0 0 0 0-.17.32.32 0 0 1-.13.13v-.14c0-.05-.09.17-.27.13l.06-.08a.23.23 0 0 1-.18 0 .25.25 0 0 0 .12-.09.28.28 0 0 1-.05-.09.57.57 0 0 0 .29 0s-.07 0-.11-.1a1.46 1.46 0 0 1 .55 0 .44.44 0 0 0 .21-.11zm-1.63.85s.12 0 .13-.08a.08.08 0 0 1 0 .09.48.48 0 0 0 .23-.1v.1a.41.41 0 0 0 .17-.05v.07a.58.58 0 0 0 .18-.08v.06c0 .01.1-.06.14-.11a.14.14 0 0 1 0 .11s.09-.07.12-.12 0 .11 0 .12a.74.74 0 0 0 .12-.09.1.1 0 0 1 0 .09s.08-.09.07-.13 0 .05.05.07-.05 0-.05.05.35.13.48.32v-.07h.42v.18h.16a7.33 7.33 0 0 1-.54-.68.17.17 0 0 1-.13.07v-.11a.42.42 0 0 1-.23.14c.16-.16 0-.2 0-.31a.28.28 0 0 0-.07.16.2.2 0 0 1-.09 0c0 .05-.08.08-.17.06a.19.19 0 0 0 0-.12.39.39 0 0 1-.14.1v-.09c0-.09-.08.07-.2.08a1 1 0 0 0-.41.18v-.09a.08.08 0 0 1-.1 0 .16.16 0 0 1-.05.1.2.2 0 0 0 0-.13s0 .05-.09 0 0 .05 0 .08a.07.07 0 0 0-.07-.06.06.06 0 0 1 0 .09.11.11 0 0 0 .09 0h-.06a.13.13 0 0 1 .04.1zm2.7.24a.57.57 0 0 0 0-.32c0-.12 0-.17.09-.11s0-.17-.11 0c-.05-.12 0-.29.11-.18 0-.1-.14-.17-.16 0-.09-.08-.07-.34 0-.16.07-.12-.07-.16-.13-.06a.57.57 0 0 1 0-.63c.24-.28.65 0 .35.22a.13.13 0 0 0 .12 0c-.12.11.06.21.06.33v-.13c0-.04 0 0 .05 0s0-.06-.05-.11h.07v-.1s.09 0 .1-.08-.25-.49-.65-.23.28 1.12 0 1.58zm-.95-1.68h-.1s.08-.01.1.02zm-.18.16zm-1.29 0v-.12a.09.09 0 0 0-.11 0s-.08 0-.09.06-.08.06-.07.17c0-.05 0-.06.07 0a.31.31 0 0 0 0-.09.3.3 0 0 0 0 .08c0-.07 0-.07.07-.05a.09.09 0 0 1 0-.07l.07.06s.05-.09.05-.04zm0 .05H17zm-.13 0zm-.05.06v-.03zm-.14 0h.05v-.05zm0 1.16h.05v-.05a.06.06 0 0 0-.1.06zm0-.17v-.02a.06.06 0 0 0-.08 0s.01.02.02.05zm.17-.13a.11.11 0 0 1-.06.03zm.16.05v-.07a.1.1 0 0 1-.02.1zm.15-1s.05 0 0 0a.51.51 0 0 1-.12-.22v-.05a.42.42 0 0 0 .06.3zm0-.11a1.65 1.65 0 0 1 1.09-.29.74.74 0 0 0-.28.16 1.35 1.35 0 0 0-.91.16zm0 2v-.33h-.37v.2h-.44v.18zm.82 0v-.33h-.36v.2h-.53v.18zm.82 0v-.37h-.35v.19h-.44v.18zm.83 0v-.33h-.37v.19h-.42v.2zm0 0v-.13h.14c0 .06 0 .1-.07.17zm0 .2h-.45v-.17h.54a.91.91 0 0 1-.2.22zm-.49 0h-.85v-.17h.7zm-.77 0h-.88v-.17h.77zm-.81 0h-.87v-.17h.76zm-1.22 0h.42v-.17h-.42zm2 .23h-.33v-.18h.67l-.22.06zm-.36 0h-.3l-.1-.13h-.2.6zm-1.34 0h-.28v-.18h.6l-.2.06zm-.28 0h.25l-.15.17h-.1zm3 0h.21l.09-.18H19l.27.09zm.19 0l-.05.09-.1-.09zm-.24.41v-.2h.11a1 1 0 0 1-.26.28zm0-.24h.15v-.05L19.1 33l-.08.14zm-.25-.23l-.08.12-.25-.1v-.13zm-.36 0v-.13l-.32.1.1.12zm-.42.26l.15-.16-.1-.12-.26.28zm-1.69.83V34h-.2a.59.59 0 0 0 .2.14zm0-.38h-.31a.58.58 0 0 0 .08.18h.23zm0-.21h-.35a1.55 1.55 0 0 1 0 .17h.32zm0 0h-.35v-.17h.36zm.14-.36l-.14.16h-.22l.28-.29zm.28-.1v-.14l-.32.1.08.11zm.31.07l.08-.11-.35-.1v.15zm.17.19l-.14-.16.09-.12.21.28zm.53 0h-.32l-.13-.17h.62zm.24.2h-.37v-.17h.37zm-.41 0h-.36v-.17h.36zm.41.21h-.77v-.17h.77zm0 .2h-.37v-.17h.37zm-.41 0h-.36v-.17h.36zm.41.21h-.77V34h.77z" id="path25"/><path class="cls-6" d="M16.6 34.14V34h-.2a.59.59 0 0 0 .2.14zm1.73.56l.14-.16a.25.25 0 0 1-.19-.07.35.35 0 0 1-.44 0 .36.36 0 0 1-.42 0h-.05l.57.18a.31.31 0 0 0 .13-.05.52.52 0 0 0 .26.1zm.18-.18a2.07 2.07 0 0 0 .15-.2.31.31 0 0 1-.19-.09.34.34 0 0 1-.44 0 .3.3 0 0 1-.44 0 .29.29 0 0 1-.4 0 .32.32 0 0 1-.4 0 4.92 4.92 0 0 0 .6.23h.06a.39.39 0 0 0 .43 0 .41.41 0 0 0 .45 0 .42.42 0 0 0 .18.06zm.35-.47l-.17.24a.3.3 0 0 1-.22-.1.36.36 0 0 1-.44 0 .32.32 0 0 1-.44 0 .32.32 0 0 1-.41 0 .34.34 0 0 1-.4 0 .1.1 0 0 1-.07 0h-.07a1.21 1.21 0 0 0 0-.19.3.3 0 0 0 .36 0 .4.4 0 0 0 .43 0v.17h.84V34a.34.34 0 0 0 .41 0s.11.06.18.05zm-.57.68v.05l-.29-.1a.17.17 0 0 0 .11 0 .42.42 0 0 0 .18.05z" id="path27"/><path class="cls-5" d="M17.11 30.77s.05 0 0 0a.51.51 0 0 1-.12-.22v-.05a.42.42 0 0 0 .12.27zm0-.11a1.65 1.65 0 0 1 1.09-.29.74.74 0 0 0-.28.16 1.35 1.35 0 0 0-.85.13z" id="path29"/></g><g id="Dobrogea"><path class="cls-6" d="M20.8 34.83a.65.65 0 0 0 .89.05c.1.1.24.17.54.08l-.08-.06a.51.51 0 0 1 .16-.13.29.29 0 0 0-.2 0 .24.24 0 0 0 0-.13.42.42 0 0 1-.33.12c.37-.84-.72-1.28-.87-1.68a.44.44 0 0 1 0-.28c.06-.12.17-.05.17.09s.09.17.17.17c-.1-.15.13-.57-.22-.56.22-.21-.27-.36-.25-.51-.15.19.06.39.06.57s-.09.37-.11.55.34.6.45.89a.17.17 0 0 1 .11.08.17.17 0 0 0 0-.12.28.28 0 0 1 .15.41c.07 0 .1 0 .1-.09a.19.19 0 0 1-.21.31.19.19 0 0 0 .22-.25.16.16 0 0 1-.15 0 .28.28 0 0 0-.08-.4.16.16 0 0 1 0 .14c-.05-.06-.08-.09-.13-.09s-.12 0-.13.09c.16 0 .18.14.05.26s-.31.4.06.39a.47.47 0 0 1-.2 0s-.1.09-.17.1zm-.46 0a.61.61 0 0 1-.86 0 .53.53 0 0 1-.56.07l.08-.07a1.11 1.11 0 0 0-.15-.12.43.43 0 0 1 .19 0 .28.28 0 0 1 0-.11c0 .08.22.12.32.12-.36-.83.73-1.27.88-1.67a.44.44 0 0 0 0-.28c-.07-.13-.18 0-.17.08a.17.17 0 0 1-.17.18c.09-.16-.13-.56.22-.56-.22-.21.28-.36.25-.51.14.19-.06.38-.06.56s.09.38.1.55-.33.6-.44.89a.21.21 0 0 0-.11.09.2.2 0 0 1 0-.13.27.27 0 0 0-.14.41.09.09 0 0 1-.11-.09c-.14.17.08.39.22.31-.16 0-.28-.11-.23-.24a.16.16 0 0 0 .16 0 .26.26 0 0 1 .07-.39.19.19 0 0 0 0 .13c0-.05.06-.1.12-.11s.14 0 .14.1c-.16 0-.19.14-.05.26s.31.43-.06.4a.28.28 0 0 0 .2 0 .16.16 0 0 0 .16.13zm1.11-1.22c-.11-.08-.13-.3 0-.3a.5.5 0 0 0 0 .3zm-.09-.09s-.06-.05-.08-.07 0-.1.07-.08a.19.19 0 0 0 .01.15zm-.3 1.5v.08A.05.05 0 0 1 21 35h.06zM21 35c-.17.06-.41-.09-.34-.18s.21.18.34.18zm-.83 0c.16 0 .39-.12.32-.17s-.22.17-.33.17zm-.07 0s0 .08.05.06 0 0 0-.06-.04 0-.06 0zm-.3-1.5l.07-.06a.06.06 0 0 0-.07-.07.15.15 0 0 1 0 .13zm-.11.1c.12-.08.14-.3 0-.3a.6.6 0 0 1 0 .3zm.14 1.22a.08.08 0 0 0 0-.16.08.08 0 0 0 0 .16zm0 0v-.1.07zm1.49 0a.08.08 0 0 1-.09-.08.09.09 0 0 1 .09-.08.09.09 0 0 1 .08.08.08.08 0 0 1-.08.08zm0 0a.06.06 0 0 1-.06 0 .06.06 0 0 1 .06-.06.06.06 0 0 1 .05.06.05.05 0 0 1-.05-.02zm0 0l-.01-.05zm-1.47 0h-.08l.07-.05zm2.91.08l-2.19.78-2.24-.8a10.44 10.44 0 0 0 2.28-4.54 10.15 10.15 0 0 0 2.14 4.51zM20 35a.83.83 0 0 1-.57-.15.53.53 0 0 1-.6 0 .6.6 0 0 0 .08-.08.5.5 0 0 0-.13-.11s.08-.07.19 0a.23.23 0 0 1 0-.14.37.37 0 0 0 .28.15c-.14-.48 0-.7.33-1.05a.82.82 0 0 0 0-.38.14.14 0 0 1 .16.07c.07 0 .08 0 .1.06.23-.17.36-.34.35-.54s-.1-.16-.12 0-.14.19-.25.17c.16-.14-.11-.5.21-.62-.13-.28.42-.35.26-.54.13 0 .19.2.09.42s.08.56 0 .85-.36.52-.45.79c.09 0 .16 0 .14.15s-.16.11-.05.21.21.3.14.41 0 .07.1.08.17.06.11.11a.47.47 0 0 1-.29.09c.14.18-.02.2-.08.05zm1.07 0a.83.83 0 0 0 .58-.13c.12.11.29.15.6 0a.36.36 0 0 1-.09-.08.37.37 0 0 1 .15-.11c0-.05-.11-.07-.21-.06a.19.19 0 0 0 0-.15.35.35 0 0 1-.28.14.93.93 0 0 0-.34-1.05.66.66 0 0 1 0-.37.14.14 0 0 0-.15.06c-.09 0-.1 0-.11.08a.85.85 0 0 1-.36-.55c0-.17.12-.18.13 0a.18.18 0 0 0 .23.16c-.13-.13.12-.53-.2-.6.14-.27-.42-.35-.25-.55-.14 0-.2.2-.1.42s-.08.57 0 .85.36.55.44.81a.15.15 0 0 0-.14.16c.13 0 .2.07.07.19s-.22.31-.16.41a.1.1 0 0 1-.09.07c-.18-.12-.2.07-.12.12A.42.42 0 0 0 21 35c-.07.14.09.16.11.06z" id="path32"/><path class="cls-7" d="M20.8 34.83a.65.65 0 0 0 .89.05c.1.1.24.17.54.08l-.08-.06a.51.51 0 0 1 .16-.13.29.29 0 0 0-.2 0 .24.24 0 0 0 0-.13.42.42 0 0 1-.33.12c.37-.84-.72-1.28-.87-1.68a.44.44 0 0 1 0-.28c.06-.12.17-.05.17.09s.09.17.17.17c-.1-.15.13-.57-.22-.56.22-.21-.27-.36-.25-.51-.15.19.06.39.06.57s-.09.37-.11.55.34.6.45.89c0 0 .06 0 .11.08a.17.17 0 0 0 0-.12.28.28 0 0 1 .15.41c.07 0 .1 0 .1-.09a.19.19 0 0 1-.21.31.19.19 0 0 0 .22-.25.16.16 0 0 1-.15 0 .28.28 0 0 0-.08-.4.16.16 0 0 1 0 .14c-.05-.06-.08-.09-.13-.09s-.12 0-.13.09c.16 0 .18.14.05.26s-.31.4.06.39a.47.47 0 0 1-.2 0s-.1.09-.17.1zm-.46 0a.61.61 0 0 1-.86 0 .53.53 0 0 1-.56.07l.08-.07a1.11 1.11 0 0 0-.15-.12.43.43 0 0 1 .19 0 .28.28 0 0 1 0-.11c0 .08.22.12.32.12-.36-.83.73-1.27.88-1.67a.44.44 0 0 0 0-.28c-.07-.13-.18 0-.17.08a.17.17 0 0 1-.17.18c.09-.16-.13-.56.22-.56-.22-.21.28-.36.25-.51.14.19-.06.38-.06.56s.09.38.1.55-.33.6-.44.89a.21.21 0 0 0-.11.09.2.2 0 0 1 0-.13.27.27 0 0 0-.14.41.09.09 0 0 1-.11-.09c-.14.17.08.39.22.31-.16 0-.28-.11-.23-.24a.16.16 0 0 0 .16 0 .26.26 0 0 1 .07-.39.19.19 0 0 0 0 .13c0-.05.06-.1.12-.11s.14 0 .14.1c-.16 0-.19.14-.05.26s.31.43-.06.4a.28.28 0 0 0 .2 0 .16.16 0 0 0 .16.13zm1.11-1.22c-.11-.08-.13-.3 0-.3a.5.5 0 0 0 0 .3zm-.09-.09s-.06-.05-.08-.07 0-.1.07-.08a.19.19 0 0 0 .01.15zm-.3 1.5v.08A.05.05 0 0 1 21 35h.06zM21 35c-.17.06-.41-.09-.34-.18s.21.18.34.18zm-.83 0c.16 0 .39-.12.32-.17s-.22.17-.33.17zm-.07 0s0 .08.05.06 0 0 0-.06-.04 0-.06 0zm-.3-1.5l.07-.06a.06.06 0 0 0-.07-.07.15.15 0 0 1 0 .13zm-.11.1c.12-.08.14-.3 0-.3a.6.6 0 0 1 0 .3zm.14 1.22a.08.08 0 0 0 0-.16.08.08 0 0 0 0 .16zm0 0v-.1.07zm1.49 0a.08.08 0 0 1-.09-.08.09.09 0 0 1 .09-.08.09.09 0 0 1 .08.08.08.08 0 0 1-.08.08zm0 0a.06.06 0 0 1-.06 0 .06.06 0 0 1 .06-.06.06.06 0 0 1 .05.06.05.05 0 0 1-.05-.02zm0 0l-.01-.05zm-1.47 0h-.08l.07-.05z" id="path34"/></g><g id="Transilvania"><path class="cls-6" d="M21.28 32.23h1.39a1.28 1.28 0 0 1 0-.21q-.12.07-.21-.06c-.1.09-.16.06-.22 0a.17.17 0 0 1-.21 0 .27.27 0 0 1-.33.14.21.21 0 0 1-.21 0 .33.33 0 0 1-.17 0 6.29 6.29 0 0 1 .26-.65.75.75 0 0 1 .1-.2.23.23 0 0 1 .07-.19c.15-.43.74-.28.57.14a1 1 0 0 0 .39.13.57.57 0 0 0 .13-.19h-.08l.13-.18a.33.33 0 0 1-.22 0 .42.42 0 0 0 .15-.07h-.18c-.1 0-.11 0 0-.05 0-.12.06-.19.26-.14h.14c.32-.06.3.24.34.31a.18.18 0 0 1-.1 0c0 .06.06.12.09.24h-.08a.41.41 0 0 0 .08.19.61.61 0 0 0 .31-.14c-.17-.32.28-.54.5-.18a1 1 0 0 1 .15.26c.15.28.29.57.46.83a.31.31 0 0 1-.23 0 .27.27 0 0 1-.25 0A.29.29 0 0 1 24 32c0 .1-.12.11-.2.05-.05.1-.13.09-.21 0a.16.16 0 0 1-.21 0 .85.85 0 0 1 0 .16h1.59V30.1h-4.31a15.55 15.55 0 0 0 .62 2.13zm1-1.57l-.06.05v-.09h-.09v-.08h-.09l.06-.07h-.09.08l-.09-.11h.1v-.09h.08v-.07l.07.06v-.09.08l.07-.06v.09h.08v.08h.08l-.06.06h.09-.08l.06.06h-.09v.1h-.08v.09l-.08-.06v.08zm1.36-.38a.24.24 0 0 0-.27.24.24.24 0 0 0 .23.25.25.25 0 0 0 .27-.22s-.08.07-.15.07a.12.12 0 0 1-.13-.1c0-.12.16-.15.23-.1s-.07-.13-.19-.14zm-.83.59h-.14z" id="path37"/><path class="cls-11" d="M22.89 30.93l-.12.06s.06.01.12-.06zm0-.06v-.12c0-.04-.2 0-.22.08a.17.17 0 0 1 .19.04zm.18 0s-.02-.03-.07-.03zm1.33.64c0 .07 0 .13-.13.1.13.27.3.56.49.55a4.52 4.52 0 0 1-.39-.68zm.15.6a1.59 1.59 0 0 1-.31-.49.16.16 0 0 1-.14.05c.14.42.29.46.42.41zm-.23 0a.94.94 0 0 1-.25-.43.14.14 0 0 1-.16 0c.09.32.18.44.38.39zm-.43-.39c0 .05-.08.07-.15.05a1.72 1.72 0 0 0 .07.21c0 .1.16.08.16 0a1.64 1.64 0 0 0-.11-.3zm-.18.05s-.07.06-.14 0v.2a.09.09 0 1 0 .17 0zm-.18 0c0 .05-.09.07-.18 0v.19a.14.14 0 0 0 0 .06s.17 0 .16-.08 0-.09-.01-.17zm-.18.46a3.25 3.25 0 0 0 0-.44.15.15 0 0 1-.18 0 2.94 2.94 0 0 0 0 .44zm-.22 0a1.59 1.59 0 0 1 0-.43.15.15 0 0 1-.18 0 2.27 2.27 0 0 0 0 .45zm-.22 0v-.45h-.16a2.34 2.34 0 0 0 0 .46zm-.21-.48a.15.15 0 0 1-.17 0 1.11 1.11 0 0 0 0 .19.09.09 0 0 0 .18 0 1.15 1.15 0 0 0-.04-.19zm-.2 0a.11.11 0 0 1-.15 0 .53.53 0 0 0 0 .2.09.09 0 0 0 .17 0 1 1 0 0 0-.05-.23zm-.19 0a.12.12 0 0 1-.15 0 1 1 0 0 0-.07.21c0 .1.14.14.16 0s.01-.21.03-.27zm-.19-.05a.11.11 0 0 1-.15 0 4.48 4.48 0 0 1-.21.46c.16-.07.24-.25.33-.52zm-.19-.05a.09.09 0 0 1-.13 0c-.07.17-.16.35-.24.53.14-.08.19-.18.34-.59zm-.17 0c-.06 0-.1 0-.13-.05-.09.21-.18.41-.26.61.15-.13.16-.16.36-.66zm2.55-.22a.19.19 0 0 1 .06.1c0 .15-.08.14-.15.08a.09.09 0 0 1-.16 0c0 .11-.11.12-.18.05 0 .09-.1.14-.18.05a.09.09 0 0 1-.18 0c0 .17-.19.08-.19 0a.1.1 0 0 1-.2 0c0 .13-.21.09-.19 0-.06.14-.22.09-.21 0 0 .11-.22.11-.19 0a.09.09 0 1 1-.18 0c-.08.16-.22.05-.17 0-.07.11-.24.09-.2-.06 0 .14-.22.09-.17 0-.05.12-.22.09-.15 0s0-.08.05-.1a.09.09 0 0 0 .15 0c0 .09.09.1.18.05s.07.11.15.06a.13.13 0 0 0 .19.06.16.16 0 0 0 .19 0 .1.1 0 0 0 .16 0c.07.06.14.07.2 0a.13.13 0 0 0 .2 0 .12.12 0 0 0 .18 0q.11.07.15 0c.09.05.14 0 .18 0s.14 0 .18-.05a.12.12 0 0 0 .17-.05c.07 0 .11 0 .16-.05a.12.12 0 0 0 .12-.24zm-.13-.25c0 .08 0 .13-.14.07a.09.09 0 0 1-.15.05c0 .12-.15.06-.17 0-.13-.39.28-.5.43-.22zm0 .06a.44.44 0 0 1 .06.1c0 .14-.08.13-.13.09 0 .13-.12.1-.17.05a.08.08 0 0 1-.15.05c0 .14-.14.09-.18 0 0 .15-.16.1-.18 0 0 .19-.14.07-.15 0 0 .16-.17.12-.16 0-.05.13-.18.11-.2 0-.06.18-.21.08-.2 0 0 .18-.19.08-.17 0 0 .15-.19.09-.17 0-.07.16-.22.06-.17-.05-.1.13-.18.05-.18-.05-.09.13-.18.05-.16-.06-.09.14-.19 0-.16-.05a.17.17 0 0 1 0-.07.14.14 0 0 0 .18 0 .12.12 0 0 0 .17 0 .13.13 0 0 0 .19 0c.2.1.4.21.62.09a.17.17 0 0 0 .26 0 .44.44 0 0 0 .53-.07 1.33 1.33 0 0 0 .34-.07.11.11 0 0 0 .18-.06zm-1.89 0c0 .15-.19 0-.18 0a.08.08 0 0 1-.15 0c-.08.07-.21 0-.17-.06a.3.3 0 0 1 .39-.17.24.24 0 0 1 .11.17zm1.05.2a.34.34 0 0 1-.07-.22h.06c0-.05-.09-.14-.07-.23h.08c0-.06 0-.3-.3-.25h-.11v.05c0 .05.12 0 .19 0 0 .06-.1 0-.09 0h-.08a.19.19 0 0 1 0 .07H23a1 1 0 0 1-.14.23.11.11 0 0 0 .08 0 .54.54 0 0 1-.15.21.29.29 0 0 0 .19-.07.15.15 0 0 0 .25 0c.01.13.07.16.11.15z" id="path39"/><path class="cls-7" d="M22.31 30.68v-.06h-.05v-.07h-.07v-.06h-.09v-.05h-.07.06v-.05h.06v-.08h.06v-.08l.05.05v-.07.05h.05v.08h.09v.08h.07-.05l.07.05h-.06l.05.06h-.08v.07h-.08v.07-.05z" id="path41"/><path class="cls-9" d="M23.83 30.6a.19.19 0 0 1-.14.06.14.14 0 0 1-.15-.15.15.15 0 0 1 .15-.14h.08a.17.17 0 0 0-.16-.07.22.22 0 1 0 0 .43.25.25 0 0 0 .22-.13z" id="path43"/><path class="cls-8" d="M25 32.52h-3.59l-.09-.22H25z" id="path45"/><path class="cls-10" d="M21.44 32.6h3.5v.71a1.16 1.16 0 0 1-.83 1l-1.29.51a9 9 0 0 1-1.38-2.22zm2.18.39v.1h-.11v.26H24v-.26h-.11V33h.13v-.22h-.13v.08h-.08v-.08h-.11v.08h-.08v-.08h-.13V33zm.68 0v.1h-.1v.26h.52v-.26h-.11V33h.13v-.22h-.13v.08h-.09v-.08h-.13v.08h-.09v-.08h-.13V33zm-1.37 0v.1h-.1v.25h.51v-.25h-.11V33h.14v-.22h-.14v.08h-.08v-.08H23v.08h-.08v-.08h-.12V33zm-.69 0v.1h-.1v.25h.51v-.25h-.11V33h.14v-.22h-.14v.08h-.08v-.08h-.13v.08h-.09v-.08h-.12V33zm.36.77v.11h-.11v.25H23v-.25h-.1v-.11h.1v-.21h-.1v.07h-.09v-.07h-.13v.07h-.08v-.07h-.13v.22zm.68 0v.11h-.11v.25h.53v-.25h-.12v-.11h.14v-.21h-.14v.07h-.07v-.07h-.14v.07h-.09v-.07h-.13v.22zm.69 0v.11h-.11v.25h.52v-.25h-.11v-.11h.14v-.21h-.14v.07h-.08v-.07h-.13v.07H24v-.07h-.12v.22z" id="path47"/><path class="cls-8" d="M24.19 34.1h.18v-.22h-.11v-.11H24v.11h-.1v.22h.17V34h.13zm.21-.35v-.18h-.1v.07h-.12v-.07h-.1v.07H24v-.07h-.09v.18zm-1.58.35H23v-.22h-.11v-.11h-.27v.11h-.11v.22h.18V34h.13zm.2-.35v-.18h-.1v.07h-.12v-.07h-.1v.07h-.12v-.07h-.09v.18zm.49.35h.17v-.22h-.11v-.11h-.27v.11h-.1v.22h.17V34h.14zm.2-.35v-.18h-.1v.07h-.11v-.07h-.12v.07h-.11v-.07h-.1v.18zm-1.24-.42h.17v-.22h-.11V33h-.27v.12h-.11v.22h.18v-.16h.14zm.68 0h.18v-.22h-.11V33H23v.12h-.11v.22H23v-.16h.14zm.69 0H24v-.22h-.11V33h-.27v.12h-.11v.22h.18v-.16h.13zm.68 0h.18v-.22h-.11V33h-.27v.12h-.1v.22h.18v-.16h.12zm.21-.36v-.18h-.1v.06h-.12v-.05h-.1v.06h-.11v-.06h-.11v.2zM24 33v-.18h-.1v.06h-.12v-.08h-.1v.06h-.11v-.06h-.1v.2zm-.69 0v-.18h-.1v.06h-.11v-.08H23v.06h-.11v-.06h-.1v.2zm-.68 0v-.18h-.11v.06h-.11v-.08h-.11v.06h-.11v-.06h-.09v.2z" id="path49"/></g><g id="Tara_Romaneasca" data-name="Tara Romaneasca"><path class="cls-6" d="M16.25 25.77h4.3V30h-4.3zm.91.71l-.09.06v-.11h-.12v-.12h-.12l.08-.09-.12-.06h.11l-.08-.09H17v-.12h.11v-.11l.09.08.06-.12.05.11.09-.08V26h.13v.11h.12l-.08.09.11.05-.11.05.08.08h-.12v.12h-.12v.1l-.09-.07-.05.11zm1.89-.35a.33.33 0 0 1 .31-.19.33.33 0 0 1 .33.33.31.31 0 0 1-.29.33c-.25 0-.31-.11-.35-.17.34.14.48-.37 0-.3zm-1.59.94c.16-.51-.82-.76-.91 0-.05.22-.06 2.05-.11 2.39.2 0 .25-.1.32-.25a.42.42 0 0 0 .31-.43c.28-.12.28-.44.29-.68a.34.34 0 0 0 .12.19.36.36 0 0 0 .16-.22.34.34 0 0 0 .13.14l-.29.42h.15c-.08.15-.16.28-.25.43s-.16 0-.23 0-.11 0-.12.08-.06.06 0 .13 0-.05.05-.05h.13c.03 0-.14.1-.09.16s0 .1.06.13a.07.07 0 0 1 0-.07c.12 0 .11-.06.14-.14 0 .1 0 .2.15.18a.08.08 0 0 1 0 .07.11.11 0 0 0 0-.11c.08-.06 0-.11 0-.19a.13.13 0 0 0 .18 0v.05a.11.11 0 0 0 0-.13c0-.1-.13-.09-.22-.08l.35-.38a.25.25 0 0 0 .09.13c.1-.13.16-.24.25-.37a.21.21 0 0 0 .06.08 4.33 4.33 0 0 1-.47.75 1.06 1.06 0 0 0 .28.15.76.76 0 0 1 0 .11 1.74 1.74 0 0 0 .41.25 1.68 1.68 0 0 0 .38-.22l-.06-.13a2.1 2.1 0 0 0 .28-.06 3.84 3.84 0 0 1-.42-.77l.05-.07a2.66 2.66 0 0 0 .28.38.17.17 0 0 0 .09-.14 3.33 3.33 0 0 0 .36.39c-.1 0-.25 0-.26.16V29.39c0-.01.15 0 .21 0-.1.08-.1.17 0 .23s0 .1.08.1a.1.1 0 0 1 0-.09c.1 0 .09-.09.09-.18 0 .07.07.16.18.13a.08.08 0 0 1 0 .09c.08 0 .07-.09.05-.14a.15.15 0 0 0-.11-.16h.2s0-.11-.05-.13-.25 0-.28-.06-.21-.29-.33-.46a.27.27 0 0 0 .15 0 2.44 2.44 0 0 1-.28-.43.33.33 0 0 0 .15-.16.48.48 0 0 0 .16.23.32.32 0 0 0 .12-.17c0 .3.05.56.29.67a.45.45 0 0 0 .31.44.34.34 0 0 0 .33.26c-.06-.39-.06-1.56-.09-2.35s-1.09-.59-.94-.07a1.34 1.34 0 0 1-.52.26 1.17 1.17 0 0 0-.07-.25h.11a.6.6 0 0 1-.13-.22h.08a.62.62 0 0 1-.1-.2.37.37 0 0 0 .15 0c-.14-.13-.12-.32-.32-.34s-.21 0-.32 0-.14.05-.13.08h-.06v-.12h.14v-.15h-.14V26h-.16v.16h-.15v.15h.14v.16a.2.2 0 0 0 0 .32.42.42 0 0 1 0-.06v.17h.15v-.1a.18.18 0 0 0 .1 0l-.15.29a.11.11 0 0 0 .08 0 1 1 0 0 0-.12.25 1.12 1.12 0 0 1-.46-.27z" id="path52"/><path class="cls-7" d="M19.14 26.09a.21.21 0 1 1 0 .4c.32.17.5 0 .51-.22a.29.29 0 0 0-.51-.18zm1.16 1.62c0 .59 0 1.62.06 1.76-.19 0-.29-.28-.29-.56v-1.17a1.06 1.06 0 0 0 .11.09zm-.27 0v1.5a.48.48 0 0 1-.26-.47v-1l.11.09s.12-.06.12-.11zm-.28 0v1c-.16-.06-.25-.27-.24-.61v-.38a.41.41 0 0 0 .1.09.37.37 0 0 0 .14-.05zm-.26 0a.59.59 0 0 1-.13.47.51.51 0 0 1-.14-.44.49.49 0 0 0 .15.09.67.67 0 0 0 .12-.03zm-.31 0c0 .23 0 .31-.15.39a.68.68 0 0 1-.13-.4.38.38 0 0 0 .1.3.65.65 0 0 0 .18-.16zm1.09-.46c0 .13 0 .33-.1.4a.46.46 0 0 1-.14-.14 1 1 0 0 1-.14.15.46.46 0 0 1-.13-.12.37.37 0 0 1-.14.17l-.11-.12a.56.56 0 0 1-.15.16.61.61 0 0 1-.16-.12.41.41 0 0 1-.16.13c-.1 0-.14-.17-.18-.34a.26.26 0 0 0 .15.12.75.75 0 0 0 .17-.14.42.42 0 0 0 .14.09.42.42 0 0 0 .16-.13.48.48 0 0 0 .14.09.93.93 0 0 0 .14-.14.31.31 0 0 0 .13.08.28.28 0 0 0 .11.01.58.58 0 0 0 .15.11c.06-.01.1-.1.12-.13zm0-.35a.47.47 0 0 1-.08.44.29.29 0 0 1-.16-.15.31.31 0 0 1-.11.16c-.05 0-.09-.07-.13-.09a.62.62 0 0 1-.14.14.28.28 0 0 1-.14-.1.46.46 0 0 1-.16.15.48.48 0 0 1-.14-.09.79.79 0 0 1-.18.14.29.29 0 0 1-.14-.12.33.33 0 0 0 0-.1 1.21 1.21 0 0 0 .53-.27.57.57 0 0 0 .14.13.26.26 0 0 0 .14-.18.39.39 0 0 0 .15.16c.05 0 .09-.08.14-.19a.23.23 0 0 0 .16.16.27.27 0 0 0 .09-.09zm-.12.16a.24.24 0 0 0 .05-.06.4.4 0 0 0-.38-.29.38.38 0 0 0-.42.3.26.26 0 0 0 .13.27.35.35 0 0 0 .13-.21.54.54 0 0 0 .15.19A.56.56 0 0 0 20 27c0 .08 0 .17.12.19zm-1.93-.7a.19.19 0 0 0 .15.17.21.21 0 0 1-.13.11c-.06.14-.1.2-.14.28h.08a.76.76 0 0 0-.14.39c.07 0 .14-.11.2-.2a1 1 0 0 0 .08.32c.07-.06.09-.13.15-.28a.87.87 0 0 0 .14.29.71.71 0 0 0 .09-.31c.07.11.1.14.14.16a.74.74 0 0 0-.07-.32.12.12 0 0 0 .08 0 .7.7 0 0 1-.1-.23h.07a.34.34 0 0 1-.08-.2.3.3 0 0 0 .12 0 .55.55 0 0 1-.1-.17c0-.09-.15-.13-.35-.11h-.19.23a.2.2 0 0 1 .15 0 .19.19 0 0 0-.1 0v.1c0 .01 0 0 0 0a.06.06 0 0 0 0-.07c0 .09-.09.09-.08 0a.22.22 0 0 1-.23.2zm-.24.19v.19H18v-.22a.08.08 0 0 0 0 .16zm0-.63v.15h-.14v.09H18v.17h.08v-.15h.15v.02H18v-.15zM18 28a.66.66 0 0 0 .09.29.38.38 0 0 0 .06.16 3.37 3.37 0 0 1-.24.37.33.33 0 0 1-.06-.19.43.43 0 0 1-.19.16.37.37 0 0 1 .07-.23h-.18A4.79 4.79 0 0 0 18 28zm.51.82a.5.5 0 0 0 .08-.14 2.82 2.82 0 0 0 .4.72 1.13 1.13 0 0 1-.22.11c-.12-.26-.22-.51-.3-.72zm-.09 0c.09.29.2.56.3.83a1.32 1.32 0 0 1-.33.2 3 3 0 0 1-.35-.22 8 8 0 0 0 .34-.82zm-.1-.16a5.23 5.23 0 0 1-.44.71.62.62 0 0 0 .23.11c.1-.23.19-.47.29-.69a.46.46 0 0 1-.12-.14zm.12-.26a.49.49 0 0 0 .1.19 1.11 1.11 0 0 1-.11.2.4.4 0 0 1-.11-.19c.02-.08.06-.15.08-.21zm.32-.51a.61.61 0 0 1-.08.25c0 .07 0 .13.08.16a2.17 2.17 0 0 0 .07-.28.26.26 0 0 1-.11-.14zm-.14.27a.55.55 0 0 1-.11.2.42.42 0 0 0 .11.22.57.57 0 0 0 .09-.26 1.14 1.14 0 0 1-.13-.17zm-.16-.25a.72.72 0 0 1-.14.2.43.43 0 0 0 .14.23.42.42 0 0 0 .11-.2 1.63 1.63 0 0 1-.15-.24zm-.29-.08L18 28a.74.74 0 0 0 .07.27.44.44 0 0 0 .1-.19.61.61 0 0 1-.04-.26zm.11.3a1.07 1.07 0 0 1-.09.19.52.52 0 0 0 .11.26 1.12 1.12 0 0 0 .11-.22.63.63 0 0 1-.17-.24zm.34-.46a.46.46 0 0 1-.11.22.45.45 0 0 0 .11.23c.05 0 .08-.12.12-.25a.82.82 0 0 1-.16-.21zm.24-.07a.67.67 0 0 1-.08.25.37.37 0 0 0 .08.14.86.86 0 0 0-.04-.4zm-.13-.22a.4.4 0 0 1-.08.23.54.54 0 0 0 .11.23c0-.09.06-.23.1-.34a.79.79 0 0 1-.17-.13zm-.26 0a.33.33 0 0 1-.11.2.47.47 0 0 0 .11.27.68.68 0 0 0 .12-.24 1 1 0 0 1-.16-.22zm-.15.24a.45.45 0 0 1-.11.17.43.43 0 0 0 .09.26.52.52 0 0 0 .12-.19.64.64 0 0 1-.14-.23zm-.09-.3a.47.47 0 0 1-.15.13.52.52 0 0 0 .11.29.44.44 0 0 0 .11-.16.56.56 0 0 1-.11-.25zm-.18.21A.81.81 0 0 0 18 28a1 1 0 0 0 .1-.17.79.79 0 0 1-.1-.29zm-.35.26c0 .23 0 .3.13.38a.5.5 0 0 0 .15-.39.21.21 0 0 1-.12.11.32.32 0 0 1-.2-.09zm-.31 0a.58.58 0 0 0 .14.48.5.5 0 0 0 .12-.45.31.31 0 0 1-.12.08.25.25 0 0 1-.18-.14zm-.26 0v1c.17-.07.24-.28.24-.62v-.38a.31.31 0 0 1-.11.09.45.45 0 0 1-.17-.16zm-.28 0v1.5a.49.49 0 0 0 .25-.47v-1a.42.42 0 0 1-.12.08zm-.26 0a16.52 16.52 0 0 1-.08 1.76c.2 0 .3-.28.3-.56v-1.17a.73.73 0 0 1-.13.09.65.65 0 0 1-.13-.24zm0-.33a.46.46 0 0 0 .11.4.62.62 0 0 0 .14-.14.4.4 0 0 0 .14.15.33.33 0 0 0 .12-.12.79.79 0 0 0 .14.17.63.63 0 0 0 .12-.11.46.46 0 0 0 .16.15.49.49 0 0 0 .15-.12.53.53 0 0 0 .17.14c.1 0 .14-.18.16-.34a.21.21 0 0 1-.15.11.67.67 0 0 1-.16-.14.42.42 0 0 1-.14.09.42.42 0 0 1-.16-.13.32.32 0 0 1-.14.08.61.61 0 0 1-.15-.13.23.23 0 0 1-.12.09.5.5 0 0 1-.12-.13.33.33 0 0 1-.15.11c-.08-.13-.13-.22-.15-.25zm0-.35a.44.44 0 0 0 .08.44.38.38 0 0 0 .16-.15.28.28 0 0 0 .12.17.36.36 0 0 0 .11-.1l.15.15a.5.5 0 0 0 .14-.1.36.36 0 0 0 .16.14.38.38 0 0 0 .15-.09.7.7 0 0 0 .16.14.24.24 0 0 0 .14-.11.4.4 0 0 1 0-.11 1 1 0 0 1-.52-.27.35.35 0 0 1-.14.13.26.26 0 0 1-.14-.18.36.36 0 0 1-.14.16.39.39 0 0 1-.15-.19.23.23 0 0 1-.16.17.31.31 0 0 1-.11-.31zm.13.16a.24.24 0 0 1-.09-.24.39.39 0 0 1 .37-.28c.32 0 .42.18.42.28a.25.25 0 0 1-.12.28.41.41 0 0 1-.14-.21.44.44 0 0 1-.14.19c-.06 0-.1-.11-.15-.22-.03-.02-.06.06-.14.08zm.44-.74l-.06.05v-.08h-.09v-.09h-.09l.07-.07-.09-.05h.06l-.05-.06H17V26h.09v-.09l.08.07.05-.1v.09l.06-.07v.1l.1-.05v.1h.1l-.08.07.1.05h-.1l.07.07h-.09v.08h-.08v.08l-.07-.05v.08zM18.87 28a2.66 2.66 0 0 0 .39.66.24.24 0 0 1-.21-.06.43.43 0 0 1 .08.23.25.25 0 0 1-.21-.15v.19a1.56 1.56 0 0 1-.25-.36 1 1 0 0 0 .06-.16s.07-.17.1-.29a.22.22 0 0 0 .04-.06z" id="path54"/><path class="cls-8" d="M17.65 28.69l-.24.39a.18.18 0 0 1-.19.05h-.16c-.02 0 .05.05 0 .08a.17.17 0 0 0 .13 0s.06 0 0 .05-.16.12-.11.15a.06.06 0 0 1 .08 0 .23.23 0 0 0 .1-.14s.06-.05.08 0 0 .18 0 .18h.08a.28.28 0 0 0-.08-.15c0-.06 0-.06.07-.06s.09.06.09 0a.12.12 0 0 1 0-.07.15.15 0 0 0-.13 0c-.06 0-.07 0 0-.06a3 3 0 0 0 .3-.33.23.23 0 0 1-.12.06.38.38 0 0 1 .1-.15zm1.42.16a4.11 4.11 0 0 0 .29.31v.08a.5.5 0 0 0-.19 0 .07.07 0 0 1 0 .09.52.52 0 0 0 .19-.08c.06 0 .09 0 .07.06s-.15.17-.12.21.06-.05.08 0 .05-.12.05-.2a.06.06 0 0 1 .08 0 .28.28 0 0 0 .12.18s0-.07.07-.05-.09-.1-.15-.15 0-.08 0-.08a.11.11 0 0 0 .15 0v-.07c0-.07-.1 0-.13 0a.13.13 0 0 1-.18-.06l-.27-.38c.05.11.08.19-.06.14zm-.93-2.37a.51.51 0 0 0-.21 0 .15.15 0 0 0-.05.22c0-.14.17-.11.33-.06a.19.19 0 0 1-.15.06.32.32 0 0 0 .22-.09.22.22 0 0 1-.14-.13zm-.05 0v.04z" id="path56"/></g><g id="Moldova"><path class="cls-8" d="M20.65 25.77h4.28V30h-4.28zm1.6.3a.77.77 0 0 0-.39 1.37.3.3 0 0 0-.16 0c-.21.06-.28.21-.67.22A.78.78 0 0 0 22 28a.17.17 0 0 0 0 .16.42.42 0 0 0 .05.2.15.15 0 0 0 .09.19 4.32 4.32 0 0 0 .21.55.27.27 0 0 0 .14.51.29.29 0 0 0 .52 0 .28.28 0 0 0 .2-.53c0-.18.08-.36.13-.54a.24.24 0 0 0 .1-.22.18.18 0 0 0 .05-.2l.06-.1a.9.9 0 0 0 .94-.38c-.27 0-.57-.17-.9-.18.67-.27.33-1.36-.36-1.39a.67.67 0 0 1 .16 1.05s-.1.11-.08.18a.24.24 0 0 0-.36 0 .47.47 0 0 0-.43 0 .4.4 0 0 0-.37 0c0-.07-.22-.13-.28-.33a.88.88 0 0 1 .38-.9zm0 .23h.39l.14-.36.12.36h.39l-.3.23.11.35-.32-.2-.32.2.1-.35zm-.87 3.22v.07a.21.21 0 0 1-.24-.08c-.05 0-.07 0-.11-.06s0-.08 0-.13h-.07.06a.23.23 0 0 1-.07-.11c0-.1.05-.09.06-.14s0-.1 0-.15a.16.16 0 0 1 .16 0v-.05a.18.18 0 0 0 0 .07.07.07 0 0 1 0-.09.15.15 0 0 1 .16 0 .34.34 0 0 1 .15 0c.07 0 .13.06.1.12v-.06a.08.08 0 0 0 0 .05h.1c.03 0 .05.08 0 .2s.06 0 .07.11 0 .13-.1.15h.07l-.06-.06a.2.2 0 0 1-.09.17c-.05.05-.11.11-.16.09zm3-.12c-.24.1-.43 0-.46-.13s.24-.31.46-.21c-.31-.32-.76-.2-.78.15s.66.54.86.19z" id="Curve"/><path class="cls-9" d="M21.42 29.24a.11.11 0 0 1-.11-.09.11.11 0 0 1 .09-.15.12.12 0 0 1 .13.11.1.1 0 0 1-.11.13zm0 .05c-.06 0-.08 0-.12-.08s-.21 0-.22.1.07.06.13.11.19.11.22 0-.05-.08-.05-.13zm.18.24l.12-.09c.06-.06.06-.07.06-.12s-.06-.07-.18-.09-.09 0-.13.06a1.07 1.07 0 0 1 0 .18.18.18 0 0 0 .09.06zm.23-.48a.37.37 0 0 1 0-.15c0-.06-.08-.06-.11 0s-.1.12-.14.15a.23.23 0 0 1 0 .16c.09 0 .13.06.2.07s.1-.06.09-.1a.17.17 0 0 0-.08-.13zm-.47-.05h.11s.08-.08.14-.11 0-.08 0-.1-.14-.05-.19 0-.1 0-.14 0 .02.12.08.21zm0 0c0-.07-.14-.26-.28-.14S21 29 21 29v.2a.51.51 0 0 1 .2-.05.17.17 0 0 1 .12-.15z" id="path60"/><path class="cls-9" d="M22.63 29.56h-.06a.25.25 0 0 0 .45 0H23a.2.2 0 0 1-.37 0zm.29 0a.17.17 0 0 1-.25 0 .21.21 0 0 1 .25 0zm.29-.53c.05-.15.09-.33.13-.51a.43.43 0 0 1-.16 0c0 .15-.06.33-.08.49zm.3-1s.06-.12 0-.14c-.48 0-.5.45-.46 1 .09-.36.15-.89.46-.82zm0 0c-.16 0-.26.15-.27.28s.29-.06.26-.21zm-1 .92a4.13 4.13 0 0 0-.08-.47.46.46 0 0 1-.2 0 5.27 5.27 0 0 0 .19.51zm-.08-.51v-.06a.42.42 0 0 1-.29-.09c-.03.14.08.25.29.22zm.08.21c-.06-.4-.12-.63-.45-.64a.14.14 0 0 1 0-.14c.43.09.54.37.5.78v.2zm-.1-.31a.28.28 0 0 1-.33-.29.34.34 0 0 1 .33.36zm.15.64c-.38 0-.38.46 0 .49a.5.5 0 0 0 .21-.05h.15l.18.05c.4 0 .4-.4.18-.46a.65.65 0 0 0-.19 0v-.25-.42c0-.48.51-.61.56-.43a1 1 0 0 0 .86-.29.8.8 0 0 1-.34 0 2.74 2.74 0 0 0-.36-.08c-.07 0-.13.05-.1.13s.15.08.27.06a.27.27 0 0 1-.26 0 .14.14 0 0 1 .1-.25c.1 0 .42.16.69.06h-.21c-.44-.11-.86-.29-.83.19 0 0-.2 0-.24-.1a.13.13 0 0 0 0 .19c-.12 0-.12 0-.22-.07a.17.17 0 0 0-.06.26q-.27 0-.27-.21a.33.33 0 0 1-.17 0 .3.3 0 0 0 0-.19.27.27 0 0 1-.29.1c.1-.23-.07-.33-.31-.32s-.38.23-.68.24a.76.76 0 0 0 .53-.06c.38-.18.47.32 0 .22.47 0 .25-.32 0-.2a.76.76 0 0 1-.51.1.72.72 0 0 0 .89.13c.62.18.43.91.42 1.23zm-.37-2.95a.78.78 0 0 0-.29.89c.06.18.25.19.27.31s-.15.17-.24.14a.67.67 0 0 1-.32-.73.79.79 0 0 1 .58-.54zm1.19 1.14a.16.16 0 0 0 .16.19c.38-.12.48-.4.36-.82a.71.71 0 0 0-.22-.34 1.64 1.64 0 0 0-.29-.19c.52.61.14.99-.01 1.23zm.11.23a.16.16 0 0 1-.15-.13c-.12-.16-.2-.15-.34 0a.36.36 0 0 0-.43 0c-.18-.09-.32-.07-.35 0s0 .16-.17.18a.23.23 0 0 1 .11.29c.06 0 .16 0 .26-.13a1.07 1.07 0 0 1 0 .23c.06 0 .11 0 .17-.11 0 .13 0 .25.16.28a.27.27 0 0 1 .13-.27c.08.07.13.1.15.07a.25.25 0 0 1 .11-.21.17.17 0 0 0 .2.15c.02-.15.06-.23.15-.28zm-.3 1a.19.19 0 0 1 0-.08.51.51 0 0 0 .24-.09c0 .22-.09.28-.24.27zm0 .89q-.09 0-.09-.06a.07.07 0 0 1 .09-.06.08.08 0 0 0-.13.06c.04.18.12.19.17.16zm-.85 0c0 .07.14 0 .14-.05s-.09-.09-.14 0 .09 0 .09 0-.01.14-.05.13z" id="path62"/><path class="cls-7" d="M22.64 26.51l-.25-.19h.32l.1-.29.1.3h.32l-.25.19.1.27-.27-.16-.26.17z" id="path64"/><path class="cls-9" d="M24.37 29.47c-.14.06-.4 0-.42-.19a.27.27 0 0 1 .37-.29.38.38 0 0 0-.61.3c.02.26.41.38.66.18z" id="path66"/></g><path class="cls-4" d="M20.45 45.62a5 5 0 0 1-2.54-.68L8.82 39.7a5.11 5.11 0 0 1-2.54-4.41V24.8a5.11 5.11 0 0 1 2.54-4.41l9.09-5.24a5.09 5.09 0 0 1 5.09 0l9.09 5.24a5.13 5.13 0 0 1 2.54 4.41v10.49a5.13 5.13 0 0 1-2.54 4.41L23 44.94a5.05 5.05 0 0 1-2.55.68zm0-30.93a4.85 4.85 0 0 0-2.42.65l-9.09 5.25a4.88 4.88 0 0 0-2.43 4.21v10.49a4.88 4.88 0 0 0 2.43 4.21L18 44.75a4.88 4.88 0 0 0 4.85 0L32 39.5a4.88 4.88 0 0 0 2.43-4.21V24.8A4.88 4.88 0 0 0 32 20.59l-9.09-5.25a4.89 4.89 0 0 0-2.46-.65z" id="_Group_2" data-name="&lt;Group&gt;"/><path class="cls-2" d="M10.89 18.08a.11.11 0 0 1-.1-.06.13.13 0 0 1 0-.16l1-.57a.12.12 0 0 1 .16.05.11.11 0 0 1 0 .15l-1 .57zM28.19 17h-.05l-1-.57a.11.11 0 0 1 .11-.2l1 .57a.11.11 0 0 1 0 .16.12.12 0 0 1-.06.04zm-15.32-.06a.11.11 0 0 1-.1-.06.12.12 0 0 1 0-.16l1-.57a.11.11 0 0 1 .15 0 .11.11 0 0 1 0 .16l-1 .57zm13.35-1.06h-.06l-1-.57a.12.12 0 1 1 .12-.2l1 .57a.11.11 0 0 1-.06.21zm-11.38-.09a.14.14 0 0 1-.1 0 .12.12 0 0 1 0-.16l1-.57a.12.12 0 0 1 .12.2l-1 .57zm9.4-1.05h-.06l-1-.57a.12.12 0 0 1-.05-.16.13.13 0 0 1 .16 0l1 .57a.11.11 0 0 1-.06.21zm-7.42-.09a.11.11 0 0 1-.06-.21l.93-.53h.06a.12.12 0 0 1 .16 0 .12.12 0 0 1-.05.16h-.06l-.92.53zm5.4-.96a5.65 5.65 0 0 0-1.08-.25.11.11 0 0 1-.1-.12.11.11 0 0 1 .13-.1 5 5 0 0 1 1.13.26.11.11 0 0 1 .07.14.12.12 0 0 1-.15.07zm-3.36-.05a.12.12 0 0 1-.11-.08.11.11 0 0 1 .07-.15 5.6 5.6 0 0 1 1.18-.22.11.11 0 0 1 .13.1.13.13 0 0 1-.11.13 5 5 0 0 0-1.09.21zm1.59 33.51h-.61a.12.12 0 0 1-.1-.13.11.11 0 0 1 .13-.1 5.87 5.87 0 0 0 1.11 0 .12.12 0 0 1 .13.1.11.11 0 0 1-.11.12 4.93 4.93 0 0 1-.55.01zm1.66-.26a.11.11 0 0 1 0-.22 4.65 4.65 0 0 0 1-.45.12.12 0 1 1 .12.2 6 6 0 0 1-1.07.47zm-3.37-.02a5.21 5.21 0 0 1-1-.46.11.11 0 0 1 0-.16.11.11 0 0 1 .15 0 5.07 5.07 0 0 0 1 .44.12.12 0 0 1 .07.15.12.12 0 0 1-.22.03zm5.4-1.01a.11.11 0 0 1-.06-.21l1-.57a.11.11 0 0 1 .15 0 .11.11 0 0 1 0 .16l-1 .57zm-7.42-.03h-.06l-1-.57a.13.13 0 0 1 0-.16.11.11 0 0 1 .15 0l1 .57a.1.1 0 0 1 0 .15.1.1 0 0 1-.09.01zm9.39-1.11a.1.1 0 0 1-.09-.06.1.1 0 0 1 0-.15l1-.57a.11.11 0 0 1 .15 0 .13.13 0 0 1 0 .16l-1 .57zm-11.37-.03h-.06l-1-.58a.11.11 0 1 1 .12-.19l1 .57a.11.11 0 0 1 0 .15.11.11 0 0 1-.06.05zm13.35-1.11a.11.11 0 0 1-.1-.06.11.11 0 0 1 0-.15l1-.57a.11.11 0 0 1 .16 0 .13.13 0 0 1 0 .16l-1 .57zm-15.33-.03l-1-.57a.11.11 0 0 1 .11-.19l1 .57a.11.11 0 0 1 0 .15.11.11 0 0 1-.11.04z"/><path class="cls-1" d="M73.32 36.25L74.63 26.73 57.14 26.73 55.83 36.25 50.17 36.25 53.33 13.68 58.98 13.68 57.76 22.36 75.25 22.36 76.47 13.68 82.12 13.68 78.97 36.25 73.32 36.25z"/><path class="cls-1" d="M86.4 36.25L89.55 13.68 113.65 13.68 112.99 18.32 94.19 18.32 93.66 22.27 112.13 22.27 111.51 26.53 93.03 26.53 92.32 31.7 111.24 31.7 110.61 36.25 86.4 36.25z"/><path class="cls-1" d="M140.84 36.25L133.09 27.51 122.97 36.25 115.66 36.25 130.06 24.4 119.38 13.53 126.62 13.53 133.84 21.43 143.63 13.53 150.64 13.53 137.1 24.49 147.94 36.25 140.84 36.25z"/><path class="cls-5" d="M1.22 26h-1v8.17h1a1.08 1.08 0 0 0 1.09-1.08v-6A1.09 1.09 0 0 0 1.22 26z"/><path class="cls-4" d="M1.22 34.26H.12v-8.4h1.1a1.2 1.2 0 0 1 1.2 1.2v6a1.2 1.2 0 0 1-1.2 1.2zM.34 34h.88a1 1 0 0 0 1-1v-6a1 1 0 0 0-1-1H.34z"/><path class="cls-5" d="M38.6 27.06v6a1.08 1.08 0 0 0 1.09 1.08h1V26h-1a1.09 1.09 0 0 0-1.09 1.06z"/><path class="cls-4" d="M40.79 34.26h-1.1a1.2 1.2 0 0 1-1.2-1.2v-6a1.2 1.2 0 0 1 1.2-1.2h1.1zm-1.1-8.17a1 1 0 0 0-1 1v6a1 1 0 0 0 1 1h.87v-8z"/></g></svg>