<svg xmlns="http://www.w3.org/2000/svg" viewBox="0 0 170 60"><defs><style>.cls-1{fill:#fff}.cls-2{fill:#ffd100}.cls-3{fill:#191818}.cls-4{fill:#006aac}.cls-5{fill:#fc0}.cls-6{fill:#08557c}.cls-7{fill:#ffcd50}.cls-8{fill:#c6a401}.cls-9{fill:#fea}.cls-10{fill:#fff9dd}.cls-11{fill:#003d8f}.cls-12{fill:#004d9e}.cls-13{fill:#00287c}.cls-14{fill:#fee418}.cls-15{fill:#1570ce}.cls-16{fill:#025}.cls-17{fill:#be004b}.cls-18{fill:#7a1444}.cls-19{fill:#5b0f2f}.cls-20{fill:#dc2850}.cls-21{fill:#eacb17}.cls-22{fill:#a39000}.cls-23{fill:#eac102}.cls-24{fill:#e20031}.cls-25{fill:#ff8c78}.cls-26{fill:#9e102a}.cls-27{fill:#5cabff}.cls-28{fill:#006fde}.cls-29{fill:#1a171b}</style></defs><g id="Layer_1_copy" data-name="Layer 1 copy"><path class="cls-1" d="M1.22 26h-1v8.17h1a1.08 1.08 0 0 0 1.09-1.08v-6A1.09 1.09 0 0 0 1.22 26z"/><path class="cls-2" d="M1.22 34.26H.12v-8.4h1.1a1.2 1.2 0 0 1 1.2 1.2v6a1.2 1.2 0 0 1-1.2 1.2zM.34 34h.88a1 1 0 0 0 1-1v-6a1 1 0 0 0-1-1H.34z"/><path d="M53.1 45.45a8.18 8.18 0 0 0 1-.05 1.57 1.57 0 0 0 .55-.16.67.67 0 0 0 .28-.27 1.8 1.8 0 0 0 .12-.39h1.15c0 .21-.08.4-.13.57a1.49 1.49 0 0 1-.2.46 1.14 1.14 0 0 1-.35.34 1.65 1.65 0 0 1-.55.24 5.23 5.23 0 0 1-.82.13H53a10.53 10.53 0 0 1-1.39-.08 2.54 2.54 0 0 1-.87-.23 1 1 0 0 1-.44-.46 1.69 1.69 0 0 1-.13-.72v-.46c0-.16 0-.35.07-.54 0-.34.1-.63.16-.89a2.59 2.59 0 0 1 .24-.65 1.59 1.59 0 0 1 .39-.46 1.81 1.81 0 0 1 .59-.29 3.88 3.88 0 0 1 .86-.16h1.21a12.88 12.88 0 0 1 1.39.06 2.8 2.8 0 0 1 .84.22.73.73 0 0 1 .4.37 1.27 1.27 0 0 1 .11.54v.49h-1.18a1.27 1.27 0 0 0 0-.35.35.35 0 0 0-.2-.23 1.39 1.39 0 0 0-.52-.13 7.69 7.69 0 0 0-1 0 7.51 7.51 0 0 0-1.08.06 1.35 1.35 0 0 0-.59.23 1 1 0 0 0-.28.48 7.12 7.12 0 0 0-.14.8c0 .16 0 .31-.06.43s0 .25 0 .35a1 1 0 0 0 .07.4.54.54 0 0 0 .27.24 1.6 1.6 0 0 0 .52.12c.23-.02.51-.01.86-.01zm10.14-.15H60l-.69 1h-1.25l3.35-4.85h1.53l1.94 4.85h-1.24zm-.33-.87c-.14-.36-.26-.67-.36-.91s-.17-.44-.23-.61-.1-.29-.14-.4a2.43 2.43 0 0 1-.09-.3l-.19.3-.27.41-.41.6c-.16.25-.37.55-.61.91zm10.17-2.16a1.72 1.72 0 0 1 0 .32 1.57 1.57 0 0 1-.08.31h-1.14v-.12a.66.66 0 0 0 0-.15.22.22 0 0 0-.05-.16.41.41 0 0 0-.2-.1l-.44-.06H69.2a1.12 1.12 0 0 0-.32.09.45.45 0 0 0-.17.13.49.49 0 0 0-.08.18 1.49 1.49 0 0 0 0 .21.32.32 0 0 0 0 .14.17.17 0 0 0 .09.1.54.54 0 0 0 .17.07l.28.06a4.32 4.32 0 0 0 .61.06h.8c.43 0 .78 0 1.07.08a2.24 2.24 0 0 1 .7.17.75.75 0 0 1 .37.3 1.06 1.06 0 0 1 .11.5 3.75 3.75 0 0 1 0 .56 1.4 1.4 0 0 1-.19.53 1.07 1.07 0 0 1-.34.39 1.69 1.69 0 0 1-.54.25 4.23 4.23 0 0 1-.8.12h-1.1a12.58 12.58 0 0 1-1.35-.06 3.68 3.68 0 0 1-.85-.16.89.89 0 0 1-.44-.31.86.86 0 0 1-.12-.47 2.21 2.21 0 0 1 .09-.62h1.16v.15a.76.76 0 0 0 0 .16.32.32 0 0 0 .06.2.44.44 0 0 0 .25.12 1.92 1.92 0 0 0 .5.07h2.02a.9.9 0 0 0 .29-.09.34.34 0 0 0 .15-.14.48.48 0 0 0 .07-.2.82.82 0 0 0 0-.22.27.27 0 0 0 0-.16.23.23 0 0 0-.14-.11 1.37 1.37 0 0 0-.29-.07H69.2l-.67-.08a1.54 1.54 0 0 1-.74-.33.92.92 0 0 1-.27-.73 2.64 2.64 0 0 1 .06-.55 1.33 1.33 0 0 1 .2-.51 1 1 0 0 1 .33-.34 1.66 1.66 0 0 1 .55-.22 4.22 4.22 0 0 1 .82-.12h2.37a2.8 2.8 0 0 1 .78.14.83.83 0 0 1 .4.27.74.74 0 0 1 .05.4zM75 46.31l.67-4.85h1.21l-.68 4.85zm8.56 0l-2.18-2.58-.59-.73-.46-.57v.75c0 .13 0 .29-.06.45s0 .35-.08.56l-.29 2.1h-1.2l.68-4.85H81l2 2.41c.14.17.26.32.37.44l.29.35.22.28.19.24a2.45 2.45 0 0 1 0-.27 3 3 0 0 0 0-.33c0-.12 0-.26.06-.43s0-.35.08-.57l.3-2.12h1.15L85 46.31zm7.01.06c-.6 0-1.09 0-1.48-.06a3.06 3.06 0 0 1-.91-.21.91.91 0 0 1-.47-.43 1.56 1.56 0 0 1-.13-.7 4.29 4.29 0 0 1 0-.49c0-.18 0-.38.07-.59s.1-.65.16-.91a2.22 2.22 0 0 1 .23-.66 1.35 1.35 0 0 1 .39-.46 1.82 1.82 0 0 1 .61-.28 5 5 0 0 1 .92-.15h1.28c.5 0 1.08 0 1.47.06a2.75 2.75 0 0 1 .91.22.89.89 0 0 1 .47.44 1.69 1.69 0 0 1 .13.72 4 4 0 0 1 0 .48c0 .18 0 .37-.07.58s-.11.64-.16.9a2.53 2.53 0 0 1-.24.66 1.5 1.5 0 0 1-.4.46 1.82 1.82 0 0 1-.61.28 6.06 6.06 0 0 1-.91.14c-.34-.02-.77 0-1.26 0zm.12-.91a10.1 10.1 0 0 0 1.07-.05 1.86 1.86 0 0 0 .64-.2.89.89 0 0 0 .34-.38 2.19 2.19 0 0 0 .15-.6c0-.21.06-.38.07-.51s0-.23 0-.31a.59.59 0 0 0 0-.17.34.34 0 0 0 0-.1.86.86 0 0 0-.09-.41.65.65 0 0 0-.3-.26 2.18 2.18 0 0 0-.58-.13 7.86 7.86 0 0 0-.92 0 7.64 7.64 0 0 0-1.07.06 1.73 1.73 0 0 0-.65.19.74.74 0 0 0-.33.37 2.27 2.27 0 0 0-.15.61c0 .21-.06.38-.07.51s0 .24 0 .31v.17a.38.38 0 0 0 0 .1.86.86 0 0 0 .09.41.58.58 0 0 0 .29.26 2.39 2.39 0 0 0 .58.13 8 8 0 0 0 .93 0z"/><path class="cls-3" d="M155.49 17.48l.46-3.32h-1.76l.11-.83h4.56l-.12.83H157l-.46 3.32zm9.73 0l.26-1.89c.09-.63.14-1 .2-1.32-.2.29-.45.62-.82 1.12l-1.54 2.09h-1l-.9-2.07c-.21-.48-.33-.75-.47-1.14-.05.43-.09.73-.17 1.32l-.27 1.89h-1l.58-4.15h1.42l1.49 3.28 2.38-3.28h1.4l-.58 4.15z"/><path class="cls-3" d="M73.32 36.14L74.63 26.62 57.14 26.62 55.83 36.14 50.17 36.14 53.33 13.56 58.98 13.56 57.76 22.25 75.25 22.25 76.47 13.56 82.12 13.56 78.97 36.14 73.32 36.14z"/><path class="cls-3" d="M86.4 36.14L89.55 13.56 113.65 13.56 112.99 18.2 94.19 18.2 93.66 22.16 112.13 22.16 111.51 26.41 93.03 26.41 92.32 31.59 111.24 31.59 110.61 36.14 86.4 36.14z"/><path class="cls-3" d="M140.84 36.14L133.09 27.4 122.97 36.14 115.66 36.14 130.06 24.28 119.38 13.41 126.62 13.41 133.84 21.32 143.63 13.41 150.64 13.41 137.1 24.37 147.94 36.14 140.84 36.14z"/><path d="M53.1 45.45a8.18 8.18 0 0 0 1-.05 1.57 1.57 0 0 0 .55-.16.67.67 0 0 0 .28-.27 1.8 1.8 0 0 0 .12-.39h1.15c0 .21-.08.4-.13.57a1.49 1.49 0 0 1-.2.46 1.14 1.14 0 0 1-.35.34 1.65 1.65 0 0 1-.55.24 5.23 5.23 0 0 1-.82.13H53a10.53 10.53 0 0 1-1.39-.08 2.54 2.54 0 0 1-.87-.23 1 1 0 0 1-.44-.46 1.69 1.69 0 0 1-.13-.72v-.46c0-.16 0-.35.07-.54 0-.34.1-.63.16-.89a2.59 2.59 0 0 1 .24-.65 1.59 1.59 0 0 1 .39-.46 1.81 1.81 0 0 1 .59-.29 3.88 3.88 0 0 1 .86-.16h1.21a12.88 12.88 0 0 1 1.39.06 2.8 2.8 0 0 1 .84.22.73.73 0 0 1 .4.37 1.27 1.27 0 0 1 .11.54v.49h-1.18a1.27 1.27 0 0 0 0-.35.35.35 0 0 0-.2-.23 1.39 1.39 0 0 0-.52-.13 7.69 7.69 0 0 0-1 0 7.51 7.51 0 0 0-1.08.06 1.35 1.35 0 0 0-.59.23 1 1 0 0 0-.28.48 7.12 7.12 0 0 0-.14.8c0 .16 0 .31-.06.43s0 .25 0 .35a1 1 0 0 0 .07.4.54.54 0 0 0 .27.24 1.6 1.6 0 0 0 .52.12c.23-.02.51-.01.86-.01zm10.14-.15H60l-.69 1h-1.25l3.35-4.85h1.53l1.94 4.85h-1.24zm-.33-.87c-.14-.36-.26-.67-.36-.91s-.17-.44-.23-.61-.1-.29-.14-.4a2.43 2.43 0 0 1-.09-.3l-.19.3-.27.41-.41.6c-.16.25-.37.55-.61.91zm10.17-2.16a1.72 1.72 0 0 1 0 .32 1.57 1.57 0 0 1-.08.31h-1.14v-.12a.66.66 0 0 0 0-.15.22.22 0 0 0-.05-.16.41.41 0 0 0-.2-.1l-.44-.06H69.2a1.12 1.12 0 0 0-.32.09.45.45 0 0 0-.17.13.49.49 0 0 0-.08.18 1.49 1.49 0 0 0 0 .21.32.32 0 0 0 0 .14.17.17 0 0 0 .09.1.54.54 0 0 0 .17.07l.28.06a4.32 4.32 0 0 0 .61.06h.8c.43 0 .78 0 1.07.08a2.24 2.24 0 0 1 .7.17.75.75 0 0 1 .37.3 1.06 1.06 0 0 1 .11.5 3.75 3.75 0 0 1 0 .56 1.4 1.4 0 0 1-.19.53 1.07 1.07 0 0 1-.34.39 1.69 1.69 0 0 1-.54.25 4.23 4.23 0 0 1-.8.12h-1.1a12.58 12.58 0 0 1-1.35-.06 3.68 3.68 0 0 1-.85-.16.89.89 0 0 1-.44-.31.86.86 0 0 1-.12-.47 2.21 2.21 0 0 1 .09-.62h1.16v.15a.76.76 0 0 0 0 .16.32.32 0 0 0 .06.2.44.44 0 0 0 .25.12 1.92 1.92 0 0 0 .5.07h2.02a.9.9 0 0 0 .29-.09.34.34 0 0 0 .15-.14.48.48 0 0 0 .07-.2.82.82 0 0 0 0-.22.27.27 0 0 0 0-.16.23.23 0 0 0-.14-.11 1.37 1.37 0 0 0-.29-.07H69.2l-.67-.08a1.54 1.54 0 0 1-.74-.33.92.92 0 0 1-.27-.73 2.64 2.64 0 0 1 .06-.55 1.33 1.33 0 0 1 .2-.51 1 1 0 0 1 .33-.34 1.66 1.66 0 0 1 .55-.22 4.22 4.22 0 0 1 .82-.12h2.37a2.8 2.8 0 0 1 .78.14.83.83 0 0 1 .4.27.74.74 0 0 1 .05.4zM75 46.31l.67-4.85h1.21l-.68 4.85zm8.56 0l-2.18-2.58-.59-.73-.46-.57v.75c0 .13 0 .29-.06.45s0 .35-.08.56l-.29 2.1h-1.2l.68-4.85H81l2 2.41c.14.17.26.32.37.44l.29.35.22.28.19.24a2.45 2.45 0 0 1 0-.27 3 3 0 0 0 0-.33c0-.12 0-.26.06-.43s0-.35.08-.57l.3-2.12h1.15L85 46.31zm7.01.06c-.6 0-1.09 0-1.48-.06a3.06 3.06 0 0 1-.91-.21.91.91 0 0 1-.47-.43 1.56 1.56 0 0 1-.13-.7 4.29 4.29 0 0 1 0-.49c0-.18 0-.38.07-.59s.1-.65.16-.91a2.22 2.22 0 0 1 .23-.66 1.35 1.35 0 0 1 .39-.46 1.82 1.82 0 0 1 .61-.28 5 5 0 0 1 .92-.15h1.28c.5 0 1.08 0 1.47.06a2.75 2.75 0 0 1 .91.22.89.89 0 0 1 .47.44 1.69 1.69 0 0 1 .13.72 4 4 0 0 1 0 .48c0 .18 0 .37-.07.58s-.11.64-.16.9a2.53 2.53 0 0 1-.24.66 1.5 1.5 0 0 1-.4.46 1.82 1.82 0 0 1-.61.28 6.06 6.06 0 0 1-.91.14c-.34-.02-.77 0-1.26 0zm.12-.91a10.1 10.1 0 0 0 1.07-.05 1.86 1.86 0 0 0 .64-.2.89.89 0 0 0 .34-.38 2.19 2.19 0 0 0 .15-.6c0-.21.06-.38.07-.51s0-.23 0-.31a.59.59 0 0 0 0-.17.34.34 0 0 0 0-.1.86.86 0 0 0-.09-.41.65.65 0 0 0-.3-.26 2.18 2.18 0 0 0-.58-.13 7.86 7.86 0 0 0-.92 0 7.64 7.64 0 0 0-1.07.06 1.73 1.73 0 0 0-.65.19.74.74 0 0 0-.33.37 2.27 2.27 0 0 0-.15.61c0 .21-.06.38-.07.51s0 .24 0 .31v.17a.38.38 0 0 0 0 .1.86.86 0 0 0 .09.41.58.58 0 0 0 .29.26 2.39 2.39 0 0 0 .58.13 8 8 0 0 0 .93 0zm10.69.85l.29-2.05h-3.76l-.28 2.05h-1.22l.68-4.85h1.21l-.3 1.86h3.76l.26-1.86h1.22l-.68 4.85zm3.68 0l.68-4.85h5.17l-.14 1h-4l-.11.85h4l-.14.92h-4l-.15 1.11h4.06l-.13 1zm12.65 0l-1.65-1.87-2.16 1.87h-1.56l3.07-2.53-2.28-2.32h1.55l1.54 1.68 2.08-1.68h1.5l-2.89 2.34 2.31 2.51zm4.88 0l.13-1h1l-.14 1zm9.51-4.04a1.73 1.73 0 0 1 0 .32 1.57 1.57 0 0 1-.08.31h-1.12v-.12a.66.66 0 0 0 0-.15.22.22 0 0 0 0-.16.41.41 0 0 0-.2-.1l-.44-.06h-1.97a1 1 0 0 0-.31.09.42.42 0 0 0-.18.13.49.49 0 0 0-.08.18 1.49 1.49 0 0 0 0 .21.32.32 0 0 0 0 .14.17.17 0 0 0 .09.1.54.54 0 0 0 .17.07l.28.06a4.32 4.32 0 0 0 .61.06h.8c.43 0 .79 0 1.08.08a2.24 2.24 0 0 1 .69.17.75.75 0 0 1 .37.3 1.06 1.06 0 0 1 .11.5 3.75 3.75 0 0 1 0 .56 1.4 1.4 0 0 1-.19.53 1 1 0 0 1-.34.39 1.69 1.69 0 0 1-.54.25 4.23 4.23 0 0 1-.8.12h-1.1a12.58 12.58 0 0 1-1.35-.06 3.68 3.68 0 0 1-.85-.16.89.89 0 0 1-.44-.31.86.86 0 0 1-.12-.47 2.21 2.21 0 0 1 .09-.62h1.16v.15a.76.76 0 0 0 0 .16.32.32 0 0 0 .06.2.44.44 0 0 0 .25.12 2 2 0 0 0 .5.07h2.02a.9.9 0 0 0 .29-.09.34.34 0 0 0 .15-.14.48.48 0 0 0 .07-.2.82.82 0 0 0 0-.22.27.27 0 0 0 0-.16.23.23 0 0 0-.14-.11 1.37 1.37 0 0 0-.29-.07h-2.06l-.67-.08a1.54 1.54 0 0 1-.74-.33.92.92 0 0 1-.27-.73 2.64 2.64 0 0 1 .06-.55 1.33 1.33 0 0 1 .2-.51 1 1 0 0 1 .33-.34 1.66 1.66 0 0 1 .55-.22 4.34 4.34 0 0 1 .82-.12h2.37a2.8 2.8 0 0 1 .78.14.83.83 0 0 1 .4.27.74.74 0 0 1-.02.4zm1.9 4.04l.68-4.85h5.18l-.14 1h-4l-.12.85h4l-.13.92h-4l-.16 1.11h4.07l-.14 1z"/><path d="M101.38 46.31l.29-2.05h-3.76l-.28 2.05h-1.22l.68-4.85h1.21l-.3 1.86h3.76l.26-1.86h1.22l-.68 4.85zm3.68 0l.68-4.85h5.17l-.14 1h-4l-.11.85h4l-.14.92h-4l-.15 1.11h4.06l-.13 1zm12.65 0l-1.65-1.87-2.16 1.87h-1.56l3.07-2.53-2.28-2.32h1.55l1.54 1.68 2.08-1.68h1.5l-2.89 2.34 2.31 2.51zm4.88 0l.13-1h1l-.14 1zm9.51-4.04a1.73 1.73 0 0 1 0 .32 1.57 1.57 0 0 1-.08.31h-1.12v-.12a.66.66 0 0 0 0-.15.22.22 0 0 0 0-.16.41.41 0 0 0-.2-.1l-.44-.06h-1.97a1 1 0 0 0-.31.09.42.42 0 0 0-.18.13.49.49 0 0 0-.08.18 1.49 1.49 0 0 0 0 .21.32.32 0 0 0 0 .14.17.17 0 0 0 .09.1.54.54 0 0 0 .17.07l.28.06a4.32 4.32 0 0 0 .61.06h.8c.43 0 .79 0 1.08.08a2.24 2.24 0 0 1 .69.17.75.75 0 0 1 .37.3 1.06 1.06 0 0 1 .11.5 3.75 3.75 0 0 1 0 .56 1.4 1.4 0 0 1-.19.53 1 1 0 0 1-.34.39 1.69 1.69 0 0 1-.54.25 4.23 4.23 0 0 1-.8.12h-1.1a12.58 12.58 0 0 1-1.35-.06 3.68 3.68 0 0 1-.85-.16.89.89 0 0 1-.44-.31.86.86 0 0 1-.12-.47 2.21 2.21 0 0 1 .09-.62h1.16v.15a.76.76 0 0 0 0 .16.32.32 0 0 0 .06.2.44.44 0 0 0 .25.12 2 2 0 0 0 .5.07h2.02a.9.9 0 0 0 .29-.09.34.34 0 0 0 .15-.14.48.48 0 0 0 .07-.2.82.82 0 0 0 0-.22.27.27 0 0 0 0-.16.23.23 0 0 0-.14-.11 1.37 1.37 0 0 0-.29-.07h-2.06l-.67-.08a1.54 1.54 0 0 1-.74-.33.92.92 0 0 1-.27-.73 2.64 2.64 0 0 1 .06-.55 1.33 1.33 0 0 1 .2-.51 1 1 0 0 1 .33-.34 1.66 1.66 0 0 1 .55-.22 4.34 4.34 0 0 1 .82-.12h2.37a2.8 2.8 0 0 1 .78.14.83.83 0 0 1 .4.27.74.74 0 0 1-.02.4zm1.9 4.04l.68-4.85h5.18l-.14 1h-4l-.12.85h4l-.13.92h-4l-.16 1.11h4.07l-.14 1z"/><path class="cls-3" d="M155.49 17.48l.46-3.32h-1.76l.11-.83h4.56l-.12.83H157l-.46 3.32zm9.73 0l.26-1.89c.09-.63.14-1 .2-1.32-.2.29-.45.62-.82 1.12l-1.54 2.09h-1l-.9-2.07c-.21-.48-.33-.75-.47-1.14-.05.43-.09.73-.17 1.32l-.27 1.89h-1l.58-4.15h1.42l1.49 3.28 2.38-3.28h1.4l-.58 4.15z"/><path class="cls-3" d="M73.32 36.14L74.63 26.62 57.14 26.62 55.83 36.14 50.17 36.14 53.33 13.56 58.98 13.56 57.76 22.25 75.25 22.25 76.47 13.56 82.12 13.56 78.97 36.14 73.32 36.14z"/><path class="cls-3" d="M86.4 36.14L89.55 13.56 113.65 13.56 112.99 18.2 94.19 18.2 93.66 22.16 112.13 22.16 111.51 26.41 93.03 26.41 92.32 31.59 111.24 31.59 110.61 36.14 86.4 36.14z"/><path class="cls-3" d="M140.84 36.14L133.09 27.4 122.97 36.14 115.66 36.14 130.06 24.28 119.38 13.41 126.62 13.41 133.84 21.32 143.63 13.41 150.64 13.41 137.1 24.37 147.94 36.14 140.84 36.14z"/><path class="cls-4" d="M37.24 16.2l-7.6-4.39L24 8.57a7.06 7.06 0 0 0-7.11 0L11 12l-7.33 4.2a7.16 7.16 0 0 0-3.56 6.17v15.26a7.16 7.16 0 0 0 3.56 6.17L11 48.05l5.86 3.38a7.06 7.06 0 0 0 7.11 0l5.63-3.24 7.6-4.39a7.15 7.15 0 0 0 3.55-6.17V22.37a7.15 7.15 0 0 0-3.51-6.17z"/><path class="cls-5" d="M18.91 52.23L17.2 51.54 8.98 46.98 8.98 13.21 17.09 8.53 18.91 7.73 18.91 52.23z"/><path class="cls-5" transform="rotate(-90 20.425 30.205)" d="M15.46 9.87H25.39V50.55H15.46z"/><path class="cls-6" d="M20.45 7.73a7 7 0 0 1 3.55.94l13.18 7.63a7 7 0 0 1 3.5 6.07v15.26a7 7 0 0 1-3.5 6.07L24 51.33a7 7 0 0 1-7 0L3.73 43.7a7 7 0 0 1-3.5-6.07V22.37a7 7 0 0 1 3.5-6.07L17 8.67a7 7 0 0 1 3.5-.94m0-.23a7.19 7.19 0 0 0-3.61 1L3.61 16.1A7.26 7.26 0 0 0 0 22.37v15.26a7.26 7.26 0 0 0 3.61 6.27l13.23 7.63a7.22 7.22 0 0 0 7.23 0l13.22-7.63a7.24 7.24 0 0 0 3.62-6.27V22.37a7.24 7.24 0 0 0-3.62-6.27L24.07 8.47a7.2 7.2 0 0 0-3.62-1z"/><path class="cls-1" d="M1.1 26.09h-1v8.17h1a1.09 1.09 0 0 0 1.09-1.09v-6a1.08 1.08 0 0 0-1.09-1.08z"/><path class="cls-6" d="M1.1 34.31h-1V26h1a1.14 1.14 0 0 1 1.15 1.14v6a1.14 1.14 0 0 1-1.15 1.17zm-.93-.11h.93a1 1 0 0 0 1-1v-6a1 1 0 0 0-1-1H.17z"/><path class="cls-1" d="M13.58 11.85l-.52-.85L6 15.05l.54.9a1.07 1.07 0 0 0 1.46.39l5.2-3a1.08 1.08 0 0 0 .38-1.49z"/><path class="cls-6" d="M7.45 16.54a1.13 1.13 0 0 1-1-.56L5.9 15l7.18-4.14.55.93a1.11 1.11 0 0 1 .12.87 1.14 1.14 0 0 1-.53.7l-5.2 3a1.06 1.06 0 0 1-.57.18zm-1.39-1.47l.5.86a1 1 0 0 0 1.44.36l5.19-3a1 1 0 0 0 .48-.63 1 1 0 0 0-.11-.78L13 11z"/><path class="cls-1" d="M33.31 15.28l.53-.9-7.07-4.09-.53.89a1.08 1.08 0 0 0 .4 1.49l5.19 3a1.09 1.09 0 0 0 1.48-.39z"/><path class="cls-6" d="M32.37 15.87a1.18 1.18 0 0 1-.57-.15l-5.19-3a1.12 1.12 0 0 1-.54-.7 1.15 1.15 0 0 1 .13-.87l.55-.93 7.17 4.14-.56 1a1.15 1.15 0 0 1-.99.51zm-5.58-5.5l-.5.84a1 1 0 0 0-.11.78 1 1 0 0 0 .49.63l5.19 3a1 1 0 0 0 1.4-.37l.51-.85z"/><path class="cls-1" d="M38.6 27.17v6a1.09 1.09 0 0 0 1.09 1.09h1v-8.17h-1a1.08 1.08 0 0 0-1.09 1.08z"/><path class="cls-6" d="M40.73 34.31h-1a1.14 1.14 0 0 1-1.14-1.14v-6a1.14 1.14 0 0 1 1.1-1.17h1zm-1-8.17a1 1 0 0 0-1 1v6a1 1 0 0 0 1 1h.93v-8z"/><path class="cls-1" d="M6.55 44.41l-.48.82 7.08 4.08.47-.79a1.09 1.09 0 0 0-.39-1.5L8 44a1.09 1.09 0 0 0-1.45.41z"/><path class="cls-6" d="M13.17 49.39L6 45.25l.51-.87A1.15 1.15 0 0 1 8.06 44l5.19 3a1.14 1.14 0 0 1 .42 1.57zm-7-4.18l7 4 .44-.75a1 1 0 0 0 .11-.79 1 1 0 0 0-.48-.63l-5.2-3a1 1 0 0 0-1.4.37z"/><path class="cls-1" d="M26.09 49.07l.48.8 7.07-4.08-.48-.79a1.09 1.09 0 0 0-1.48-.39l-5.19 3a1.08 1.08 0 0 0-.4 1.46z"/><path class="cls-6" d="M26.55 50l-.55-.9a1.15 1.15 0 0 1-.12-.87 1.12 1.12 0 0 1 .54-.7l5.19-3a1.15 1.15 0 0 1 1.56.41l.51.87zm-.41-.9l.45.74 7-4-.48-.84a1 1 0 0 0-1.4-.37l-5.2 3a1 1 0 0 0-.48.63 1 1 0 0 0 .11.79zm3.93-6.66a.11.11 0 0 1-.1-.06.11.11 0 0 1 0-.15l1-.57a.11.11 0 0 1 .11.19l-1 .57s.01.02-.01.02zm-19.28 0h-.06l-1-.57a.11.11 0 0 1 0-.15.11.11 0 0 1 .16 0l1 .57a.11.11 0 0 1 .05.15.12.12 0 0 1-.15-.03zM32 41.3a.12.12 0 0 1-.1-.06.11.11 0 0 1 0-.15l1-.57a.11.11 0 0 1 .16 0 .11.11 0 0 1 0 .15l-1 .57zm-23.23 0h-.06l-1-.57-.11-.06a.1.1 0 0 1 0-.15.1.1 0 0 1 .15 0h.1l1 .57a.13.13 0 0 1 0 .16.11.11 0 0 1-.04.02zM34 40.07a.11.11 0 0 1-.08-.2 5.36 5.36 0 0 0 .76-.82.12.12 0 0 1 .16 0 .11.11 0 0 1 0 .16A5.32 5.32 0 0 1 34 40a.13.13 0 0 1 0 .07zM6.82 40a.11.11 0 0 1-.08 0A5.79 5.79 0 0 1 6 39a.12.12 0 0 1 0-.16.11.11 0 0 1 .16 0 5.3 5.3 0 0 0 .73.84.12.12 0 0 1 0 .16.09.09 0 0 1-.07.16zm28.49-1.7h-.05a.11.11 0 0 1 0-.15 5.72 5.72 0 0 0 .3-1.15.11.11 0 1 1 .22 0 5.27 5.27 0 0 1-.37 1.1.12.12 0 0 1-.1.15zm-29.78-.21a.12.12 0 0 1-.11-.09 5.53 5.53 0 0 1-.33-1.12.11.11 0 0 1 .09-.13.13.13 0 0 1 .14.09 4.87 4.87 0 0 0 .31 1.07.11.11 0 0 1-.06.15zM35.8 36a.12.12 0 0 1-.12-.12v-1.1a.11.11 0 0 1 .12-.11.11.11 0 0 1 .11.11v1.15a.11.11 0 0 1-.11.07zm-30.69-.14a.11.11 0 0 1-.11-.11v-1.14a.11.11 0 1 1 .22 0v1.14a.11.11 0 0 1-.11.11zm30.69-2.1a.12.12 0 0 1-.12-.12V32.5a.11.11 0 0 1 .12-.11.11.11 0 0 1 .11.11v1.14a.12.12 0 0 1-.11.12zm-30.69-.18a.11.11 0 0 1-.11-.12v-1.14a.11.11 0 0 1 .22 0v1.14a.11.11 0 0 1-.11.12zm30.69-2.11a.11.11 0 0 1-.12-.11v-1.14a.12.12 0 0 1 .12-.12.12.12 0 0 1 .11.12v1.14a.11.11 0 0 1-.11.11zM5.11 31.3a.11.11 0 0 1-.11-.12V30a.11.11 0 0 1 .22 0v1.14a.11.11 0 0 1-.11.16zm30.69-2.11a.11.11 0 0 1-.12-.11v-1.14a.12.12 0 0 1 .12-.12.11.11 0 0 1 .11.12v1.14a.11.11 0 0 1-.11.11zM5.11 29a.11.11 0 0 1-.11-.1v-1.14a.11.11 0 1 1 .22 0v1.14a.11.11 0 0 1-.11.1zm30.69-2.1a.11.11 0 0 1-.12-.11v-1.14a.11.11 0 0 1 .12-.11.11.11 0 0 1 .11.11v1.15a.11.11 0 0 1-.11.11zm-30.69-.17a.11.11 0 0 1-.11-.11v-1.14a.11.11 0 1 1 .22 0v1.14a.11.11 0 0 1-.11.11zm30.69-2.1a.12.12 0 0 1-.12-.12v-.08a5.14 5.14 0 0 0-.1-1 .11.11 0 0 1 .09-.13.13.13 0 0 1 .14.09 5.46 5.46 0 0 1 .1 1.07v.08a.11.11 0 0 1-.11.09zm-30.69-.18a.11.11 0 0 1-.11-.12 5 5 0 0 1 .14-1.15.12.12 0 0 1 .14-.09.11.11 0 0 1 .08.14 5.18 5.18 0 0 0-.13 1.11.13.13 0 0 1-.12.11zm30.25-2a.12.12 0 0 1-.11-.07 5.19 5.19 0 0 0-.54-1 .1.1 0 0 1 0-.15.11.11 0 0 1 .16 0 5.11 5.11 0 0 1 .57 1 .11.11 0 0 1-.06.15zm-29.74-.21a.11.11 0 0 1-.05-.15 5.56 5.56 0 0 1 .6-1 .12.12 0 0 1 .16 0 .11.11 0 0 1 0 .16 5.17 5.17 0 0 0-.57 1 .11.11 0 0 1-.14-.01zm28.43-1.68a.11.11 0 0 1-.08 0 4.83 4.83 0 0 0-.89-.67.11.11 0 0 1 .11-.19 5.29 5.29 0 0 1 .94.69.11.11 0 0 1 0 .16.12.12 0 0 1-.08.01zM7 20.44a.09.09 0 0 1-.08 0 .1.1 0 0 1 0-.16 4.65 4.65 0 0 1 .85-.6l.1-.06a.11.11 0 0 1 .16 0 .11.11 0 0 1 0 .15l-.1.06a5.19 5.19 0 0 0-.81.58.13.13 0 0 1-.12.03zm25.16-1.13h-.06l-1-.57a.11.11 0 0 1 0-.15.12.12 0 0 1 .16-.05l1 .57a.12.12 0 0 1-.05.22zm-23.25-.09a.11.11 0 0 1-.09-.06.1.1 0 0 1 0-.15l1-.58a.11.11 0 0 1 .15.05.11.11 0 0 1 0 .15L9 19.2zm21.26-1h-.06l-1-.57a.12.12 0 0 1-.05-.16.13.13 0 0 1 .16 0l1 .57a.12.12 0 0 1 0 .16.11.11 0 0 1-.05-.05z"/><path class="cls-1" d="M8.88 39.6L18 44.84a5 5 0 0 0 5 0l9-5.24a5 5 0 0 0 2.48-4.31V24.8A5 5 0 0 0 32 20.49l-9.09-5.25a5 5 0 0 0-5 0l-9.03 5.25a5 5 0 0 0-2.49 4.31v10.49a5 5 0 0 0 2.49 4.31z"/><path class="cls-6" d="M20.45 45.62a5 5 0 0 1-2.54-.68L8.82 39.7a5.11 5.11 0 0 1-2.54-4.41V24.8a5.11 5.11 0 0 1 2.54-4.41l9.09-5.24a5.09 5.09 0 0 1 5.09 0l9.09 5.24a5.13 5.13 0 0 1 2.54 4.41v10.49a5.13 5.13 0 0 1-2.54 4.41L23 44.94a5.05 5.05 0 0 1-2.55.68zm0-30.93a4.85 4.85 0 0 0-2.42.65l-9.09 5.25a4.88 4.88 0 0 0-2.43 4.21v10.49a4.88 4.88 0 0 0 2.43 4.21L18 44.75a4.88 4.88 0 0 0 4.85 0L32 39.5a4.88 4.88 0 0 0 2.43-4.21V24.8A4.88 4.88 0 0 0 32 20.59l-9.09-5.25a4.89 4.89 0 0 0-2.46-.65zm-9.56 3.39a.11.11 0 0 1-.1-.06.13.13 0 0 1 0-.16l1-.57a.12.12 0 0 1 .16.05.11.11 0 0 1 0 .15l-1 .57zM28.19 17h-.05l-1-.57a.11.11 0 0 1 .11-.2l1 .57a.11.11 0 0 1 0 .16.12.12 0 0 1-.06.04zm-15.32-.06a.11.11 0 0 1-.1-.06.12.12 0 0 1 0-.16l1-.57a.11.11 0 0 1 .15 0 .11.11 0 0 1 0 .16l-1 .57zm13.35-1.06h-.06l-1-.57a.12.12 0 1 1 .12-.2l1 .57a.11.11 0 0 1-.06.21zm-11.38-.09a.14.14 0 0 1-.1 0 .12.12 0 0 1 0-.16l1-.57a.12.12 0 0 1 .12.2l-1 .57zm9.4-1.05h-.06l-1-.57a.12.12 0 0 1-.05-.16.13.13 0 0 1 .16 0l1 .57a.11.11 0 0 1-.06.21zm-7.42-.09a.11.11 0 0 1-.06-.21l.93-.53h.06a.12.12 0 0 1 .16 0 .12.12 0 0 1-.05.16h-.06l-.92.53zm5.4-.96a5.65 5.65 0 0 0-1.08-.25.11.11 0 0 1-.1-.12.11.11 0 0 1 .13-.1 5 5 0 0 1 1.13.26.11.11 0 0 1 .07.14.12.12 0 0 1-.15.07zm-3.36-.05a.12.12 0 0 1-.11-.08.11.11 0 0 1 .07-.15 5.6 5.6 0 0 1 1.18-.22.11.11 0 0 1 .13.1.13.13 0 0 1-.11.13 5 5 0 0 0-1.09.21zm1.59 33.51h-.61a.12.12 0 0 1-.1-.13.11.11 0 0 1 .13-.1 5.87 5.87 0 0 0 1.11 0 .12.12 0 0 1 .13.1.11.11 0 0 1-.11.12 4.93 4.93 0 0 1-.55.01zm1.66-.26a.11.11 0 0 1 0-.22 4.65 4.65 0 0 0 1-.45.12.12 0 1 1 .12.2 6 6 0 0 1-1.07.47zm-3.37-.02a5.21 5.21 0 0 1-1-.46.11.11 0 0 1 0-.16.11.11 0 0 1 .15 0 5.07 5.07 0 0 0 1 .44.12.12 0 0 1 .07.15.12.12 0 0 1-.22.03zm5.4-1.01a.11.11 0 0 1-.06-.21l1-.57a.11.11 0 0 1 .15 0 .11.11 0 0 1 0 .16l-1 .57zm-7.42-.03h-.06l-1-.57a.13.13 0 0 1 0-.16.11.11 0 0 1 .15 0l1 .57a.1.1 0 0 1 0 .15.1.1 0 0 1-.09.01zm9.39-1.11a.1.1 0 0 1-.09-.06.1.1 0 0 1 0-.15l1-.57a.11.11 0 0 1 .15 0 .13.13 0 0 1 0 .16l-1 .57zm-11.37-.03h-.06l-1-.58a.11.11 0 1 1 .12-.19l1 .57a.11.11 0 0 1 0 .15.11.11 0 0 1-.06.05zm13.35-1.11a.11.11 0 0 1-.1-.06.11.11 0 0 1 0-.15l1-.57a.11.11 0 0 1 .16 0 .13.13 0 0 1 0 .16l-1 .57zm-15.33-.03l-1-.57a.11.11 0 0 1 .11-.19l1 .57a.11.11 0 0 1 0 .15.11.11 0 0 1-.11.04z"/><path class="cls-7" d="M20.22 16.42v.42h-.33v.33h.33v.57h.35v-.57h.33v-.33h-.33v-.42z"/><path d="M20.2 17.76v-.57h-.33v-.37h.33v-.42h.39v.42h.33v.37h-.33v.57zm0-.61v.57h.31v-.57h.33v-.29h-.33v-.42h-.31v.42h-.33v.29z"/><path class="cls-8" d="M19.91 17.15h.38-.38zm.64.58v-.59h-.05v.58z"/><path class="cls-9" d="M20.24 17.73v-.58h.05v.61z"/><path class="cls-1" d="M20 18.12a.07.07 0 0 1-.08 0v-.07a.06.06 0 0 1 .07 0v.07z"/><path class="cls-8" d="M20.5 17.15h.38-.38zm.05-.29v-.42h-.05v.46h.05z"/><path class="cls-9" d="M20.29 16.9v-.42h-.05v.42h.05z"/><path class="cls-8" d="M20.88 17.15v-.29.29z"/><path class="cls-10" d="M20.55 16.44h-.31.31z"/><path class="cls-9" d="M20 17.11v-.25.29z"/><path class="cls-10" d="M20.24 16.86h-.33v.05h.34l-.05-.05zm.64 0h-.34.38z"/><path class="cls-11" d="M13.61 28.31v10.1a2.79 2.79 0 0 0 2.3 2.64c2.38.67 3.77 1.43 4.49 2.62.73-1.19 2.12-2 4.5-2.62a2.79 2.79 0 0 0 2.3-2.64v-10.1z"/><path class="cls-7" d="M22.74 34.78a.53.53 0 0 0-.53.27.58.58 0 0 0 0 .37.71.71 0 0 0-.41.12.41.41 0 0 0-.1.57.42.42 0 0 0 .64.08c-.07.37-.25.54-.44.53a.46.46 0 0 1-.44-.28.56.56 0 0 1-.5.28.52.52 0 0 1-.46-.56.85.85 0 0 0 .44.14.45.45 0 0 0 .43-.48c0-.41-.5-.44-.57-.39a.44.44 0 0 0-.38-.67.46.46 0 0 0-.42.31.43.43 0 0 0 .05.36c-.1 0-.58 0-.59.39a.43.43 0 0 0 .42.48 1 1 0 0 0 .44-.14.54.54 0 0 1-.49.56.5.5 0 0 1-.44-.28.44.44 0 0 1-.43.28c-.2 0-.43-.22-.52-.53a.49.49 0 0 0 .65 0 .42.42 0 0 0-.11-.68.64.64 0 0 0-.39-.07.52.52 0 0 0 0-.37.5.5 0 0 0-.53-.27c.1.76.23 1.51.36 2.26h3.94l.36-2.26zm-4.28 2.36l.15.94h3.59c.06-.31.12-.62.16-.94zm6.6-6.26a.45.45 0 0 0-.46.23.46.46 0 0 0 0 .31.62.62 0 0 0-.34.1.38.38 0 0 0-.11.43c.08.21.28.24.48.23a.3.3 0 0 1-.29.34.41.41 0 0 1-.38-.24.46.46 0 0 1-.42.24.44.44 0 0 1-.38-.47.81.81 0 0 0 .37.11.37.37 0 0 0 .36-.4c0-.35-.42-.37-.48-.33a.37.37 0 0 0-.32-.57.38.38 0 0 0-.35.27.31.31 0 0 0 0 .3c-.09 0-.49 0-.5.33a.36.36 0 0 0 .35.4.9.9 0 0 0 .38-.11.46.46 0 0 1-.42.47.41.41 0 0 1-.37-.24.38.38 0 0 1-.36.24c-.19 0-.31-.19-.35-.34a.55.55 0 0 0 .46-.13.35.35 0 0 0-.1-.57.5.5 0 0 0-.32-.06.47.47 0 0 0 0-.31.4.4 0 0 0-.44-.23c.08.64.2 1.27.3 1.91h3.33l.3-1.91zm-3.62 2l.13.79h3c0-.27.09-.53.13-.79zm-1.69-2a.44.44 0 0 0-.45.23.47.47 0 0 0 0 .31.67.67 0 0 0-.34.1.38.38 0 0 0-.11.43c.08.21.29.24.48.23a.29.29 0 0 1-.29.34.39.39 0 0 1-.37-.24.47.47 0 0 1-.42.24.44.44 0 0 1-.39-.47.85.85 0 0 0 .37.11.37.37 0 0 0 .36-.4c0-.35-.42-.37-.48-.33a.37.37 0 0 0 .05-.3.41.41 0 0 0-.37-.27.38.38 0 0 0-.35.27.33.33 0 0 0 0 .3c-.08 0-.49 0-.5.33a.36.36 0 0 0 .36.4.9.9 0 0 0 .37-.11.46.46 0 0 1-.41.47.42.42 0 0 1-.38-.24.37.37 0 0 1-.36.24c-.19 0-.3-.19-.34-.34a.52.52 0 0 0 .45-.13.35.35 0 0 0-.09-.57.54.54 0 0 0-.33-.06.47.47 0 0 0 0-.31.42.42 0 0 0-.45-.23c.09.64.2 1.27.31 1.91h3.32l.31-1.91zm-3.62 2l.13.79h3c.05-.27.1-.53.14-.79z"/><path class="cls-12" d="M20.17 17.77a.82.82 0 0 1 1 .74.83.83 0 1 1-1.65 0 .81.81 0 0 1 .6-.74z"/><path class="cls-13" d="M21.09 18.15a.76.76 0 0 1-.46.86.79.79 0 0 1-1-.11s0 .05.05.08a.79.79 0 0 0 1.06.3.81.81 0 0 0 .39-1.05l-.06-.08z"/><path class="cls-14" d="M20.4 17.74h-.18v.6h-.61V18.68h1.59a.28.28 0 0 1 0-.09v-.14a.36.36 0 0 0 0-.1h-.61a5.43 5.43 0 0 1 0-.59h-.17z"/><path class="cls-15" d="M20.11 18.2a.22.22 0 0 1-.24.08.15.15 0 0 1 0-.22.24.24 0 0 1 .23-.06c.07 0 .07.14 0 .22z"/><path class="cls-16" d="M21.2 18.71h-1.61z"/><path d="M20.32 19.42a.76.76 0 0 1-.51-.22.89.89 0 0 1-.26-.7.84.84 0 0 1 .61-.75.78.78 0 0 1 .72.12.82.82 0 0 1 .36.64.84.84 0 0 1-.22.62.85.85 0 0 1-.61.28zm-.15-1.64a.8.8 0 0 0-.57.72.84.84 0 0 0 .24.66.72.72 0 0 0 .57.2.77.77 0 0 0 .59-.26.71.71 0 0 0 .21-.59.75.75 0 0 0-.33-.61.76.76 0 0 0-.68-.11z"/><path class="cls-1" d="M13.05 22.68a.6.6 0 1 0 1.19 0 .6.6 0 0 0-1.19 0z"/><path d="M13.64 23.29a.61.61 0 0 1-.61-.61.61.61 0 0 1 .61-.61.6.6 0 0 1 .44.18.62.62 0 0 1 .18.43.65.65 0 0 1-.18.44.64.64 0 0 1-.44.17zm-.57-.61a.58.58 0 0 0 .57.58.58.58 0 0 0 .58-.58.54.54 0 0 0-.17-.4.57.57 0 0 0-.41-.17.58.58 0 0 0-.57.57z"/><path class="cls-1" d="M26.55 22.68a.6.6 0 0 0 .59.6.59.59 0 0 0 .59-.6.59.59 0 0 0-1.18 0z"/><path d="M27.14 23.29a.6.6 0 0 1-.61-.6.61.61 0 0 1 .61-.61.61.61 0 0 1 .61.61.6.6 0 0 1-.18.44.61.61 0 0 1-.43.16zm-.57-.61a.57.57 0 0 0 .57.58.54.54 0 0 0 .4-.17.57.57 0 0 0 .17-.41.58.58 0 0 0-.57-.57.56.56 0 0 0-.57.57z"/><path class="cls-17" d="M22.71 21.41c-.39 0-.55.39-.9.43s-.86-.29-1.43-.26a12.79 12.79 0 0 1-1.57.17c-.45 0-1.06-.42-1.46-.1l-.84.59c-.25.19-.66-.25-1.05 0a2.31 2.31 0 0 0-1.32 1.46 4.14 4.14 0 0 0 .09 1.66 4.16 4.16 0 0 0 .63 1.07h10.88l.94-1.29v-1.78c0-.63-1-1-1.46-1.25s-.81 0-1.18-.09-.87-.59-1.29-.61z"/><path d="M25.75 26.4H14.84l-.24-.4a2.11 2.11 0 0 1-.39-.71 4.47 4.47 0 0 1-.1-1.62c.07-.63.76-1.19 1.33-1.48a.8.8 0 0 1 .61 0c.18.06.33.11.44 0l.84-.59c.28-.22.65-.11 1 0a3.35 3.35 0 0 0 .46.11 3.77 3.77 0 0 0 1-.09 4.25 4.25 0 0 1 .61-.08 2.3 2.3 0 0 1 .85.15 1.67 1.67 0 0 0 .57.11.77.77 0 0 0 .41-.21.84.84 0 0 1 .43-.22h.11a1.74 1.74 0 0 1 .78.35 2.29 2.29 0 0 0 .52.26 1.08 1.08 0 0 0 .44 0 1.21 1.21 0 0 1 .73.09l.17.07c.52.24 1.31.61 1.31 1.19v1.77zm-10.88 0h10.86l.93-1.27v-1.77c0-.56-.78-.91-1.29-1.15l-.16-.08a1.25 1.25 0 0 0-.72-.08A1.14 1.14 0 0 1 24 22a2 2 0 0 1-.53-.27 1.76 1.76 0 0 0-.76-.34.76.76 0 0 0-.47.21.89.89 0 0 1-.43.22 2 2 0 0 1-.59-.11 2.28 2.28 0 0 0-.84-.15 4.11 4.11 0 0 0-.6.08 3.44 3.44 0 0 1-1 .08 2.2 2.2 0 0 1-.47-.1c-.35-.1-.71-.21-1 0l-.85.58c-.13.1-.29.05-.47 0a.69.69 0 0 0-.58 0c-.56.28-1.24.83-1.31 1.44a4.41 4.41 0 0 0 .1 1.61 2 2 0 0 0 .38.7z"/><path class="cls-18" d="M21.43 21.86c-.26-.11-.1.35-.14.93.21.31-.15.64-.14 1a6.72 6.72 0 0 0 .33.93 6.26 6.26 0 0 0 .13-1.11.94.94 0 0 0 .08-.33c0-.08-.09-.18-.09-.26v-.36-.4a3.88 3.88 0 0 1 .45-.08 3.33 3.33 0 0 1 1-.26 3.74 3.74 0 0 1-1.69 0zm2.44 1.05a5.15 5.15 0 0 1-.24 2.27s.13-.8-.25-.87c-.08 0 0 .05-.34-1.07.23 1.89 0 2 0 2l-.54.64c-.07 0-.25-.07-.25-.07h-.07s-.13.13-.17.1.07-.23 0-.28a1.16 1.16 0 0 0-.24-.07l-.45.2-.68.41-.64-1.52v1s-.27.24-.44.08 0-.28-.18-.35-.32.2-.37.15 0-.11-.06-.15c-.1-.2-.36-.63-.36-.63a7.73 7.73 0 0 1 .12.79 2.54 2.54 0 0 1 0 .39c0 .09-.08-.09-.08-.09s-.09.06-.14-.07a5.5 5.5 0 0 0-.49-1.23c-.15-.18-.25-2.9-.85-2.12a17.9 17.9 0 0 1-.09 2.79v.49s-.12.09-.24-.09-.19.14-.26 0-.07-.19-.14-.22-.24 0-.24 0a3.43 3.43 0 0 1-.11-2.52c-.7.85-.15 2.19-.5 2.75 0 .09-.28-.43-.54-.54-.6-.25 0-1.21 0-1.73a2.65 2.65 0 0 0-.64 1.88 2.34 2.34 0 0 0 .38 1.15h11a.94.94 0 0 0 .08-.32 8.91 8.91 0 0 0 .27-2.3s-.23 1-.79 1.14c-.26.05.28-.58 0-1.86l-.58 1.43s-.37 1.31-.47 1.16a22.09 22.09 0 0 0-.48-2.73zm-1.58 2.86h.28a1.73 1.73 0 0 1 .17-.21c.07-.35-.12-.43-.17-.77-.06-.07.08-.33 0-.61a.72.72 0 0 0-.24.75v.31l-.09.48h.05zm-.6-2v.75c0 .17-.06.3-.05.37a2.52 2.52 0 0 0 .26.59s.24-.22.22-.36-.14-.25-.17-.31 0-.16-.06-.19a1 1 0 0 1-.08-.3c0-.15-.1-.55-.1-.55z"/><path class="cls-19" d="M17.84 21.55c.55.15.17.39.17.39s-.74.22-.67.47-.7 1.08-.36 1.77a14.65 14.65 0 0 1 .31 2.17h.8v-.07h.35c.06 0 0-.55-.07-.7a1.55 1.55 0 0 0-.14-.49 3.86 3.86 0 0 0-.48-.52c.18-.21.63-.38.53-.63l-.38-1a.5.5 0 0 1 .3-.57 1.38 1.38 0 0 1 1 .26 1.66 1.66 0 0 0-1-.47 3.21 3.21 0 0 1 1-.24l.83.17c.09 0 .24 0 .27.06a1.67 1.67 0 0 1 .13.92 12.86 12.86 0 0 0 0 3.3h1.42l.06-.8a2.14 2.14 0 0 0-.1-.69 1.37 1.37 0 0 0-.35-.31 2 2 0 0 0 0-.64c-.05-.1-.24-.12-.24-.12s.15-.5.2-.76 0-.72 0-.72a4.8 4.8 0 0 1 .69 0 .88.88 0 0 1 .75.47 1.06 1.06 0 0 0-.83-.58 3.72 3.72 0 0 1-.62-.14 3.1 3.1 0 0 1 .41 0 1.18 1.18 0 0 0 .48-.11 2.15 2.15 0 0 1-.56-.07c-.23-.06-.28-.13-.42-.15a2.2 2.2 0 0 0-.92-.19c-.51 0-1.07.2-1.63.16s-.39-.19-1-.2zM24 22c.43.56.27 1.52-.06 1.31a6 6 0 0 1-.73 3h1.37c.14 0 .19-.47.22-.58a3.56 3.56 0 0 0 0-.65v-.5s.44-.11.54-.26c.27-.46 0-1.9 0-1.9a4.34 4.34 0 0 1 .76.85 2.07 2.07 0 0 1 0 1.41c0 .07-.14.11-.17.18a5.57 5.57 0 0 0-.31 1.45h.52a5.61 5.61 0 0 0 .62-1.26 6.37 6.37 0 0 0 0-1.73c-.15-.52-1.16-.94-1.74-1.11-.37-.11-.62-.15-.91-.21zm-8.12.29c-.1 0-.36.31-.49.31s-.27.56-.39.48c-.51.49-.48.28-.84.76v.35s.19.8.3 1.23a6.37 6.37 0 0 0 .28.89h.51a4.23 4.23 0 0 1-.68-1.54c0-.17-.05-.45.09-.61a10 10 0 0 0 .68-1.15c.11-.16.08-.21.18-.38s.22-.28.37-.34zm-.08 1.85a10.2 10.2 0 0 1 .1 2.17h.5l-.6-2.17zm2.92 1v1.13h1a.91.91 0 0 1-.29-.38c0-.08.07-.39-.06-.4s-.31.07-.5-.12l-.14-.23zm3.71-.55a12.76 12.76 0 0 1-.35 1.68h1.1a3 3 0 0 0 .15-1.06s-.35.42-.7.41a8.86 8.86 0 0 1-.2-1zm2.68.62c-.11.29-.43 1.06-.43 1.06h.75s-.08-.84-.32-1.06z"/><path class="cls-20" d="M17.35 21.69c.34-.27.61-.09.53 0a2.5 2.5 0 0 1-.7.48.5.5 0 0 1-.38 0c-.16-.05-.5.21-.5.21a10.86 10.86 0 0 1 1.05-.75zm5.14-.22c.27-.17.66.1.66.1a1 1 0 0 1-.43.29 1.87 1.87 0 0 1-1 0c.3 0 .46-.2.78-.39zm-7.92 1.4c.28-.32 1.22-.88 1.09-.66-.67 1-1.05.89-1.14 1.15-.12 0-.37.42-.37.42a1.42 1.42 0 0 1 .42-.91zm11.13 0c.08.09.22.29.22.29.07.19 0 .21-.1.27s-.19 0-.25-.1a1.86 1.86 0 0 1-.22-.76 3.62 3.62 0 0 1 .35.3zm-5.7-.75c.16-.06.22 0 .28.14s-.12.35-.36.53a3 3 0 0 0-.52 1.05 2.06 2.06 0 0 1 .18-1.39c.07-.14.21-.13.42-.33zm-1.71.26c.13-.09.73.09.61.12a1.76 1.76 0 0 0-.71.3c-.16.12-.37.18-.23-.14a1.92 1.92 0 0 1 .32-.28zm-2.52.16c.1-.09.58.08.37.22s-.37.53-.63.65a1.6 1.6 0 0 0-.49.53 3.07 3.07 0 0 1 .75-1.4z"/><path class="cls-20" d="M16.45 22.41c.27-.13.76.33.51.33s-.54.45-.68.79c-.07.19-.46.47-.28-.09 0 0 .19-.91.45-1zm2.61-.48c.16 0 .66.07.54.1a7.42 7.42 0 0 0-.73.16c-.17.08-.31 0-.46-.09.08-.09.5-.13.65-.17zm3.87.07c.14-.09.5.08.57.22s-.14-.14-.37 0-.51.25-.38-.07c0 0-.05 0 .18-.19zm1.84 0a1.84 1.84 0 0 1 .79.27 5.11 5.11 0 0 1-1.2-.23 1.46 1.46 0 0 1 .41 0zm-2.77.33c.17 0 .37.22.24.26-.32.11-.28 0-.47.18s0-.24-.06-.36.14-.09.29-.08zm.69-.33c.17 0 .16 0 0 .08-.32.1-.19.24-.33.23l-.36-.1a3.07 3.07 0 0 1 .67-.21z"/><path class="cls-21" d="M22.88 19.68a6 6 0 0 1 4.17 4.74h-.25a5.63 5.63 0 0 0-3.66-4.37c0-.1-.5-.46-.26-.37z"/><path d="M27.07 24.44h-.29a5.6 5.6 0 0 0-3.64-4.35s-.1-.13-.18-.21-.16-.16-.14-.18 0 0 .09 0a5.72 5.72 0 0 1 3.48 2.78 6 6 0 0 1 .7 2zm-.25 0H27a6.14 6.14 0 0 0-.69-1.94 5.68 5.68 0 0 0-3.47-2.76l.13.14a1 1 0 0 1 .19.22 5.64 5.64 0 0 1 3.66 4.3z"/><path class="cls-1" d="M26 21.63a.53.53 0 0 0 .53.53.54.54 0 1 0-.53-.53z"/><path d="M26.49 22.18a.55.55 0 0 1-.55-.55.55.55 0 0 1 .55-.56.52.52 0 0 1 .39.17.56.56 0 0 1 0 .78.55.55 0 0 1-.39.16zm-.49-.56a.51.51 0 0 0 .51.51.51.51 0 0 0 .51-.51.51.51 0 0 0-.51-.52.53.53 0 0 0-.51.52z"/><path class="cls-1" d="M23.91 19.54a.24.24 0 0 0-.3.21.23.23 0 0 0 .23.24.21.21 0 0 0 .23-.24.22.22 0 0 0-.16-.21z"/><path d="M23.86 20a.19.19 0 0 1-.17-.08.26.26 0 0 1-.07-.18.24.24 0 0 1 .11-.19.23.23 0 0 1 .21 0 .25.25 0 0 1 .18.23.23.23 0 0 1-.12.22.21.21 0 0 1-.14 0zm0 0a.24.24 0 0 0 .15-.06.21.21 0 0 0 .06-.17.2.2 0 0 0-.15-.19.2.2 0 0 0-.18 0 .22.22 0 0 0-.09.16.25.25 0 0 0 .06.16.21.21 0 0 0 .13.1z"/><path class="cls-1" d="M24.1 20a.3.3 0 1 0 .59 0 .3.3 0 1 0-.59 0z"/><path d="M24.4 20.29a.32.32 0 0 1-.32-.32.32.32 0 0 1 .32-.32.32.32 0 0 1 .31.32.31.31 0 0 1-.31.32zm0-.6a.28.28 0 0 0-.28.28.28.28 0 0 0 .28.28.28.28 0 0 0 0-.56zm-.3.28z"/><path class="cls-1" d="M24.67 20.32a.37.37 0 0 0 .74 0 .37.37 0 0 0-.74 0z"/><path d="M25 20.71a.39.39 0 0 1-.27-.11.38.38 0 0 1-.12-.28.36.36 0 0 1 .12-.27.39.39 0 0 1 .27-.11.39.39 0 0 1 .27.11.36.36 0 0 1 .12.27.38.38 0 0 1-.12.28.39.39 0 0 1-.27.11zm0-.71a.34.34 0 0 0-.35.34.37.37 0 0 0 .1.25.39.39 0 0 0 .25.1.35.35 0 0 0 .24-.1.34.34 0 0 0 .11-.25A.34.34 0 0 0 25 20zm-.37.34z"/><path class="cls-1" d="M25.3 20.87a.44.44 0 0 0 .87 0 .44.44 0 0 0-.44-.44.43.43 0 0 0-.43.44z"/><path d="M25.73 21.32a.44.44 0 0 1-.45-.45.44.44 0 0 1 .13-.33.48.48 0 0 1 .32-.13.46.46 0 1 1 0 .91zm0-.87a.4.4 0 0 0-.29.12.41.41 0 0 0-.12.3.4.4 0 0 0 .12.29.41.41 0 0 0 .29.13.42.42 0 0 0 0-.84zm-.43.42z"/><path class="cls-21" d="M17.91 19.68a6 6 0 0 0-4.17 4.74H14a5.64 5.64 0 0 1 3.65-4.37c0-.1.51-.46.27-.37z"/><path d="M14 24.44h-.29a6.13 6.13 0 0 1 .69-2 5.78 5.78 0 0 1 3.49-2.78h.09c.01 0 0 .06-.14.18a1.39 1.39 0 0 0-.19.21A5.6 5.6 0 0 0 14 24.42zm-.24 0H14A5.62 5.62 0 0 1 17.63 20c0-.05.09-.12.19-.22l.13-.14a5.71 5.71 0 0 0-3.46 2.76 6.23 6.23 0 0 0-.73 2z"/><path class="cls-1" d="M14.83 21.63a.54.54 0 1 1-.53-.54.53.53 0 0 1 .53.54z"/><path d="M14.3 22.18a.56.56 0 0 1 0-1.11.56.56 0 0 1 .55.56.55.55 0 0 1-.55.55zm0-1.07a.53.53 0 0 0-.52.52.52.52 0 0 0 .52.51.51.51 0 0 0 .51-.51.51.51 0 0 0-.51-.52z"/><path class="cls-1" d="M16.88 19.54a.23.23 0 0 1 .29.21.23.23 0 1 1-.29-.21z"/><path d="M16.93 20a.26.26 0 0 1-.16-.07.25.25 0 0 1-.07-.2.25.25 0 0 1 .18-.23.24.24 0 0 1 .21 0 .23.23 0 0 1 .1.19.21.21 0 0 1-.06.18.19.19 0 0 1-.13.13zm0-.47a.2.2 0 0 0-.15.19.18.18 0 0 0 .06.17.22.22 0 0 0 .16.11.21.21 0 0 0 .15-.07.25.25 0 0 0 .06-.16.26.26 0 0 0-.09-.16.2.2 0 0 0-.18 0z"/><path class="cls-1" d="M16.69 20a.29.29 0 0 1-.3.3.3.3 0 0 1-.3-.3.31.31 0 0 1 .3-.3.3.3 0 0 1 .3.3z"/><path d="M16.39 20.29a.31.31 0 0 1-.22-.09.33.33 0 0 1-.1-.23.33.33 0 0 1 .32-.32.33.33 0 0 1 .23.1.31.31 0 0 1 .09.22.31.31 0 0 1-.32.32zm0-.6a.29.29 0 0 0-.28.28.28.28 0 0 0 .08.2.32.32 0 0 0 .2.08.27.27 0 0 0 .28-.28.32.32 0 0 0-.08-.2.28.28 0 0 0-.2-.08z"/><path class="cls-1" d="M16.12 20.32a.37.37 0 1 1-.74 0 .37.37 0 0 1 .74 0z"/><path d="M15.75 20.71a.39.39 0 0 1-.27-.11.38.38 0 0 1-.12-.28.36.36 0 0 1 .12-.27.39.39 0 0 1 .27-.11.39.39 0 0 1 .27.11.4.4 0 0 1 .12.27.41.41 0 0 1-.11.28.39.39 0 0 1-.27.11zm0-.73a.34.34 0 0 0-.35.34.37.37 0 0 0 .1.25.39.39 0 0 0 .25.1.35.35 0 0 0 .24-.1.34.34 0 0 0 .11-.25.32.32 0 0 0-.11-.24.31.31 0 0 0-.24-.08zm.37.34z"/><path class="cls-1" d="M15.49 20.87a.44.44 0 0 1-.87 0 .44.44 0 1 1 .87 0z"/><path d="M15.05 21.32a.46.46 0 0 1 0-.91.45.45 0 0 1 .46.46.45.45 0 0 1-.46.45zm0-.87a.42.42 0 0 0 0 .84.42.42 0 0 0 .42-.42.42.42 0 0 0-.42-.42z"/><path class="cls-7" d="M19.68 19.14A5 5 0 0 0 16 23l-.16.86.45-.17.68-.24.28-.2s.45-3.63 2.69-3.77c.53-.47.52-.14-.21-.34z"/><path d="M15.77 23.89l.16-.89a5.63 5.63 0 0 1 .69-1.69 4.58 4.58 0 0 1 3.06-2.19 1.57 1.57 0 0 0 .55.07 1.68 1.68 0 0 0-.35.25c-.63 0-1.52.41-2.17 1.93a7.49 7.49 0 0 0-.5 1.82l-.3.21-.67.24zm3.91-4.73a4.57 4.57 0 0 0-3 2.16A5.54 5.54 0 0 0 16 23l-.15.82.42-.16.67-.23.27-.2a7.81 7.81 0 0 1 .51-1.83 2.72 2.72 0 0 1 2.19-1.95 3.06 3.06 0 0 1 .3-.23 1.41 1.41 0 0 1-.53-.06z"/><path class="cls-1" d="M18.45 19.27a.22.22 0 0 1 .29.2.24.24 0 0 1-.22.25.23.23 0 0 1-.24-.25.22.22 0 0 1 .17-.2z"/><path d="M18.49 19.74a.22.22 0 0 1-.15-.06.25.25 0 0 1 .1-.43.26.26 0 0 1 .21 0 .24.24 0 0 1 .11.19.26.26 0 0 1-.24.27zm0-.46a.22.22 0 0 0-.15.19.2.2 0 0 0 .07.17.17.17 0 0 0 .15.05.16.16 0 0 0 .14-.07.16.16 0 0 0 .06-.15.17.17 0 0 0-.09-.16.19.19 0 0 0-.18 0z"/><path class="cls-21" d="M19.91 19.3c-2.24.15-2.78 3.95-2.78 3.95l-.8.41h-.18l.31.11.8-.33c.15-.1.54-3.71 2.63-3.94v-.17z"/><path d="M16.46 23.76l-.32-.12h.18l.78-.4a8.63 8.63 0 0 1 .55-1.91c.55-1.28 1.32-2 2.25-2v.18c-1.68.18-2.25 2.51-2.49 3.51-.07.29-.1.4-.13.42zm-.12-.08h.12l.79-.33a1.61 1.61 0 0 0 .12-.4c.25-1 .82-3.34 2.51-3.53v-.14c-1.14.09-1.82 1.15-2.19 2a8.58 8.58 0 0 0-.55 1.92z"/><path class="cls-1" d="M18.44 19.76a.3.3 0 1 1-.59 0 .3.3 0 1 1 .59 0z"/><path d="M18.14 20.08a.32.32 0 0 1-.31-.32.31.31 0 0 1 .31-.32.33.33 0 0 1 .23.1.28.28 0 0 1 .09.22.31.31 0 0 1-.09.22.33.33 0 0 1-.23.1zm0-.6a.28.28 0 0 0 0 .56.28.28 0 0 0 .2-.08.32.32 0 0 0 .08-.2.32.32 0 0 0-.08-.2.28.28 0 0 0-.2-.08z"/><path class="cls-1" d="M18.12 20.16a.37.37 0 1 1-.73 0 .37.37 0 0 1 .36-.37.38.38 0 0 1 .37.37z"/><path d="M17.75 20.54a.38.38 0 0 1-.27-.65.36.36 0 0 1 .27-.12.38.38 0 0 1 .39.39.39.39 0 0 1-.11.27.41.41 0 0 1-.28.11zm0-.73a.34.34 0 0 0-.34.35.31.31 0 0 0 .1.24.32.32 0 0 0 .24.11.34.34 0 0 0 .25-.11.35.35 0 0 0 .1-.24.39.39 0 0 0-.1-.25.37.37 0 0 0-.25-.1z"/><path class="cls-1" d="M17.73 20.65a.43.43 0 0 1-.86 0 .43.43 0 0 1 .86 0z"/><path d="M17.3 21.1a.45.45 0 0 1-.45-.45.45.45 0 0 1 .45-.45.44.44 0 0 1 .45.45.46.46 0 0 1-.13.32.48.48 0 0 1-.32.13zm0-.86a.41.41 0 0 0-.41.41.41.41 0 0 0 .41.41.41.41 0 0 0 .41-.41.4.4 0 0 0-.12-.29.45.45 0 0 0-.29-.12z"/><path class="cls-1" d="M17.41 21.37a.54.54 0 1 1-1.07 0 .54.54 0 0 1 1.07 0z"/><path d="M16.88 21.93a.55.55 0 0 1-.39-.95.55.55 0 0 1 .39-.16.57.57 0 0 1 .39.16.55.55 0 0 1 .16.39.56.56 0 0 1-.55.56zm0-1.07a.51.51 0 0 0-.52.51.51.51 0 0 0 .52.52.52.52 0 0 0 .51-.52.48.48 0 0 0-.15-.36.49.49 0 0 0-.36-.15z"/><path class="cls-1" d="M17.07 22.24a.63.63 0 1 1-.62-.62.62.62 0 0 1 .62.62z"/><path d="M16.45 22.88a.62.62 0 0 1-.46-.19.64.64 0 0 1-.19-.45.68.68 0 0 1 .19-.46.63.63 0 0 1 .46-.18.64.64 0 0 1 .64.64.64.64 0 0 1-.64.64zm0-1.24a.61.61 0 0 0-.43.17.6.6 0 0 0 0 .86.61.61 0 0 0 .43.17.6.6 0 0 0 .6-.6.6.6 0 0 0-.6-.6z"/><path class="cls-22" d="M17.28 23.38l-.76.34h-.16c-.02 0 .55-.29.79-.41a.5.5 0 0 0 .13.12z"/><path class="cls-7" d="M21.08 19.14A5 5 0 0 1 24.81 23l.16.86-.45-.17-.67-.24-.28-.2s-.45-3.63-2.69-3.77c-.53-.47-.52-.14.2-.34z"/><path d="M25 23.89l-.48-.18-.68-.24-.29-.21a7.8 7.8 0 0 0-.55-1.83 2.75 2.75 0 0 0-2.16-1.93 1.75 1.75 0 0 0-.34-.25 1.52 1.52 0 0 0 .54-.07 4.58 4.58 0 0 1 3.06 2.19 5.44 5.44 0 0 1 .73 1.63zm-1.14-.45l.67.23.42.16-.16-.83a5.35 5.35 0 0 0-.67-1.69 4.57 4.57 0 0 0-3-2.16 1.41 1.41 0 0 1-.5.07 3.06 3.06 0 0 1 .3.23 2.72 2.72 0 0 1 2.19 1.95 8.4 8.4 0 0 1 .51 1.83z"/><path class="cls-1" d="M22.32 19.27a.23.23 0 1 0-.07.45.23.23 0 0 0 .07-.45z"/><path d="M22.27 19.74a.27.27 0 0 1-.18-.08.22.22 0 0 1-.06-.19.26.26 0 0 1 .1-.19.29.29 0 0 1 .22 0 .26.26 0 0 1 .18.22.32.32 0 0 1-.08.21.25.25 0 0 1-.18.03zm0 0a.17.17 0 0 0 .15-.05.23.23 0 0 0 .07-.17.22.22 0 0 0-.15-.19.18.18 0 0 0-.17 0 .16.16 0 0 0-.09.15.18.18 0 0 0 .05.16.19.19 0 0 0 .12.06z"/><path class="cls-21" d="M20.86 19.3c2.24.15 2.77 3.95 2.77 3.95l.81.41h.18l-.32.12-.8-.33c-.14-.1-.53-3.71-2.63-3.94v-.21z"/><path d="M24.3 23.76l-.81-.34s-.06-.13-.13-.42c-.25-1-.82-3.33-2.49-3.51v-.21c.92.07 1.7.77 2.24 2a8.06 8.06 0 0 1 .55 1.91l.79.4h.18zm-.79-.37l.8.33h.11l-.8-.41a9.25 9.25 0 0 0-.55-1.92c-.38-.87-1.06-1.93-2.19-2v.13c1.69.19 2.26 2.53 2.51 3.53a2.73 2.73 0 0 0 .12.34z"/><path class="cls-1" d="M22.33 19.76a.3.3 0 1 0 .59 0 .3.3 0 1 0-.59 0z"/><path d="M22.62 20.08a.32.32 0 0 1-.31-.32.31.31 0 0 1 .31-.32.32.32 0 0 1 .32.32.32.32 0 0 1-.32.32zm0-.6a.28.28 0 0 0-.27.28.28.28 0 0 0 .27.28.28.28 0 1 0 0-.56zm-.29.28z"/><path class="cls-1" d="M22.65 20.16a.37.37 0 1 0 .73 0 .37.37 0 1 0-.73 0z"/><path d="M23 20.54a.38.38 0 0 1-.38-.38.41.41 0 0 1 .11-.28.39.39 0 0 1 .27-.11.38.38 0 0 1 .28.12.39.39 0 0 1 0 .54.41.41 0 0 1-.28.11zm-.34-.38a.31.31 0 0 0 .1.24.32.32 0 0 0 .24.11.34.34 0 0 0 .25-.11.31.31 0 0 0 .1-.24.35.35 0 0 0-.1-.25.37.37 0 0 0-.25-.1.35.35 0 0 0-.24.1.33.33 0 0 0-.1.24z"/><path class="cls-1" d="M23 20.65a.43.43 0 0 0 .43.43.43.43 0 0 0 .43-.43.44.44 0 0 0-.43-.43.43.43 0 0 0-.43.43z"/><path d="M23.47 21.1a.46.46 0 0 1-.32-.13.46.46 0 0 1-.13-.31.48.48 0 0 1 .13-.32.46.46 0 0 1 .32-.13.46.46 0 0 1 .45.45.45.45 0 0 1-.45.44zm-.41-.45a.4.4 0 0 0 .12.29.38.38 0 0 0 .29.12.41.41 0 0 0 .41-.41.42.42 0 0 0-.41-.41.43.43 0 0 0-.29.12.4.4 0 0 0-.12.29z"/><path class="cls-1" d="M23.36 21.37a.53.53 0 0 0 .53.54.54.54 0 0 0 .53-.54.53.53 0 0 0-.53-.53.53.53 0 0 0-.53.53z"/><path d="M23.89 21.93a.55.55 0 0 1-.55-.56.51.51 0 0 1 .16-.37.55.55 0 0 1 .39-.16.55.55 0 0 1 .39.16.56.56 0 0 1 0 .78.52.52 0 0 1-.39.15zm0-1.07a.48.48 0 0 0-.36.15.48.48 0 0 0-.16.36.53.53 0 0 0 .52.52.51.51 0 0 0 .51-.52.51.51 0 0 0-.51-.51zm-.53.51z"/><path class="cls-1" d="M23.7 22.24a.62.62 0 0 0 1.24 0 .62.62 0 1 0-1.24 0z"/><path d="M24.32 22.88a.64.64 0 0 1-.64-.64.62.62 0 0 1 .19-.46.63.63 0 0 1 .45-.18.63.63 0 0 1 .45.18.63.63 0 0 1 .19.46.65.65 0 0 1-.64.64zm-.6-.64a.6.6 0 0 0 .6.6.6.6 0 1 0 0-1.2.58.58 0 0 0-.6.6z"/><path class="cls-22" d="M23.49 23.38l.76.34h.16c.03 0-.55-.29-.79-.41a.74.74 0 0 1-.13.12z"/><path class="cls-7" d="M18 25.31s.4.73.86.9h-1.37c.39-.11.48-.64.52-.91zm-3.06.9a1.39 1.39 0 0 0-.06-.66 4.17 4.17 0 0 0 .58.65zm.92.01c.16-.08.24-.53.2-.88a4.28 4.28 0 0 0 .85.87zm5.28-.01a1.59 1.59 0 0 1-.74-.93s-.24.74-.76.93zm1.67-.9s-.49.75-.86.89h1.38c-.36-.06-.44-.56-.52-.9zm2.19.9c-.21-.06-.32-.46-.28-.81a2.52 2.52 0 0 1-.77.8zm.87-.01c-.09 0 0-.3.05-.54a2.13 2.13 0 0 1-.42.54z"/><path class="cls-7" d="M20.41 24.58a.07.07 0 0 0-.08.07c-.23.54-.48 1.16-1 1.26-.74.16-1.06-.81-1.39-1.24 0-.06-.05-.08-.1-.08s-.11 0-.1.09c-.06.66-.09 1.19-.53 1.29s-.75-.61-1.4-1.34c0-.13-.24-.08-.2 0 .24.81.17 1.2 0 1.32s-.71-.75-1.23-1.36c0-.08-.25 0-.21.07a3.39 3.39 0 0 1 .49 1.37l-.46-.56-.08.22c.2.29.52.75.71.56s.1-.29 0-.72c.24.32.67.89.94.71s.28-.53.26-.92c.32.4.81 1.05 1.25.95s.64-.48.7-1c.24.46.76 1.06 1.38 1a1.44 1.44 0 0 0 1-1c.07.22.41.9 1 1s1.07-.52 1.4-.95c.12.53.23.84.68.95s.92-.44 1.21-.86c0 .39.07.77.38.83.47.09.61-.23.83-.57-.14.44-.09.52 0 .6s.57-.42.71-.64l-.12-.1c-.1.09-.43.47-.45.5a3.44 3.44 0 0 1 .49-1.37c.05-.1-.16-.15-.21-.07-.4.53-.91 1.5-1.18 1.42s-.33-.62 0-1.38c0-.1-.17-.16-.21 0-.47.68-1.1 1.42-1.39 1.36s-.49-.72-.51-1.35c0-.1-.23-.1-.23 0-.28.43-.89 1.4-1.37 1.29s-.79-.79-1-1.31a.07.07 0 0 0-.08-.07z"/><path d="M26 26.33a.14.14 0 0 1-.09 0c-.11-.08-.16-.17-.06-.51-.19.3-.35.56-.78.48-.27-.05-.41-.35-.4-.8-.59.85-1 .86-1.19.82-.46-.11-.57-.44-.69-.92l-.07.09c-.3.4-.68.91-1.32.83s-.92-.7-1-.93a1.42 1.42 0 0 1-1 .93 1.08 1.08 0 0 1-.85-.29 2.59 2.59 0 0 1-.54-.65c-.07.55-.29.85-.69.94s-.89-.47-1.22-.89c0 .36 0 .72-.28.89a.15.15 0 0 1-.11 0c-.26 0-.58-.4-.79-.68.11.36.11.55 0 .65a.17.17 0 0 1-.13 0c-.18 0-.4-.33-.6-.61l.09-.25.1.13c.11.12.27.32.33.4a3.41 3.41 0 0 0-.48-1.32.08.08 0 0 1 0-.11.17.17 0 0 1 .2 0l.46.59c.31.41.59.79.74.76s.26-.33 0-1.3a.08.08 0 0 1 0-.08.11.11 0 0 1 .12 0 .11.11 0 0 1 .09.09c.19.2.35.41.5.59.37.46.64.8.89.74.41-.1.45-.58.51-1.18v-.1a.07.07 0 0 1 0-.06.16.16 0 0 1 .1-.05.11.11 0 0 1 .08 0 .09.09 0 0 1 0 .06 4 4 0 0 1 .24.37c.27.46.58 1 1.14.87s.71-.7.93-1.23a.12.12 0 0 1 .1-.09.09.09 0 0 1 .07 0 .07.07 0 0 1 0 .06c.29.86.7 1.23 1 1.29.44.11 1-.75 1.31-1.21v-.07a.1.1 0 0 1 .06-.09.2.2 0 0 1 .17 0 .06.06 0 0 1 0 .07c0 .59.22 1.27.5 1.33s.75-.46 1.38-1.35a.11.11 0 0 1 .09-.09.15.15 0 0 1 .13 0 .1.1 0 0 1 0 .09 2.17 2.17 0 0 0-.2.92c0 .22.09.38.2.43s.5-.41.8-.87a6.08 6.08 0 0 1 .37-.53.15.15 0 0 1 .19 0 .07.07 0 0 1 0 .1 4 4 0 0 0-.32 1.41l.12-.13.31-.34.15.11c-.12.18-.41.64-.63.68zm-.11-.65c-.14.43-.09.5 0 .58a.09.09 0 0 0 .09 0c.2 0 .48-.47.59-.65l-.1-.08-.3.33-.14.16a3.77 3.77 0 0 1 .5-1.38v-.07a.15.15 0 0 0-.16 0c-.12.16-.24.35-.37.54-.32.48-.62.94-.83.88s-.33-.64 0-1.39v-.06a.11.11 0 0 0-.1 0 .09.09 0 0 0-.06.07C24.05 26 23.67 26 23.55 26c-.3-.06-.5-.74-.52-1.36a.15.15 0 0 0-.13 0 .08.08 0 0 0-.05.07l-.05.08c-.3.4-.8 1.21-1.27 1.21h-.08c-.43-.1-.79-.77-1-1.31h-.05a.07.07 0 0 0-.07.06c-.22.53-.47 1.14-1 1.24s-.9-.44-1.17-.88a3 3 0 0 0-.24-.37v-.05h-.06a.12.12 0 0 0-.08 0v.11c-.05.61-.1 1.09-.53 1.2-.26.06-.54-.28-.92-.75-.14-.18-.31-.39-.49-.6a.09.09 0 0 0-.06-.07.11.11 0 0 0-.1 0v.06c.3 1 .12 1.26 0 1.33-.16 0-.43-.32-.77-.77-.15-.2-.31-.41-.47-.6a.15.15 0 0 0-.16 0v.07a3.36 3.36 0 0 1 .48 1.38l-.36-.44-.08-.1-.07.18c.15.22.39.58.57.6a.15.15 0 0 0 .11 0c.1-.1.09-.3 0-.71.22.29.66.88.92.71s.28-.54.25-.91v-.05l.08.1c.31.39.78 1 1.19.88s.61-.4.68-1c.43.78 1 1 1.37 1a1.41 1.41 0 0 0 1-.95v-.05.05a1.39 1.39 0 0 0 1 .95c.63.07 1-.4 1.29-.82l.09-.12c.12.51.23.83.67.93s1-.56 1.2-.85v.05c0 .17 0 .75.38.82s.56-.17.74-.46z"/><path class="cls-8" d="M14.55 26.15l.07-.21c-.1-.12-.16-.22-.2-.27s-.24 0-.19.06a3.07 3.07 0 0 0 .32.42z"/><path class="cls-7" d="M19.82 19.16l-.46 4.08 1.05.67 1-.67-.41-4.1h-1.13z"/><path d="M20.41 23.94l-1.07-.69.45-4.08h1.13l.48 4.13zm-1-.71l1 .66 1-.66-.47-4.07h-1.1z"/><path class="cls-1" d="M20.32 19.18a.23.23 0 0 1 .3.21.22.22 0 0 1-.21.26.25.25 0 0 1-.27-.26.25.25 0 0 1 .18-.21z"/><path d="M20.39 19.68a.29.29 0 0 1-.19-.08.26.26 0 0 1 .11-.44.26.26 0 0 1 .33.23.26.26 0 0 1-.07.21.2.2 0 0 1-.16.07zm0-.49h-.06a.22.22 0 0 0-.16.2.22.22 0 0 0 .25.23.2.2 0 0 0 .14-.06.21.21 0 0 0 .05-.17.2.2 0 0 0-.09-.17.2.2 0 0 0-.14-.03z"/><path class="cls-1" d="M20.69 19.68a.31.31 0 0 1-.62 0 .31.31 0 0 1 .31-.31.28.28 0 0 1 .31.31z"/><path d="M20.38 20a.33.33 0 0 1-.33-.33.34.34 0 0 1 .33-.33.31.31 0 0 1 .26.1.32.32 0 0 1 .07.23.31.31 0 0 1-.33.33zm0-.62a.27.27 0 0 0-.29.29.29.29 0 0 0 .29.29.27.27 0 0 0 .29-.29.33.33 0 0 0-.06-.21.32.32 0 0 0-.23-.07z"/><path class="cls-1" d="M20.77 20.08a.39.39 0 0 1-.39.38.38.38 0 0 1-.38-.38.41.41 0 0 1 .4-.39.37.37 0 0 1 .37.39z"/><path d="M20.38 20.48a.4.4 0 0 1-.4-.4.42.42 0 0 1 .42-.41.4.4 0 0 1 .39.41.41.41 0 0 1-.41.4zm0-.77a.39.39 0 0 0-.38.37.37.37 0 0 0 .36.37.38.38 0 0 0 .37-.37.35.35 0 0 0-.33-.37z"/><path class="cls-1" d="M20.83 20.57a.45.45 0 1 1-.9 0 .47.47 0 0 1 .47-.45.43.43 0 0 1 .43.45z"/><path d="M20.38 21a.46.46 0 0 1-.33-.13.48.48 0 0 1-.14-.34.49.49 0 0 1 .49-.47.45.45 0 0 1 .45.47.47.47 0 0 1-.14.33.43.43 0 0 1-.33.13zm0-.9a.45.45 0 0 0-.45.43.44.44 0 0 0 .13.31.43.43 0 0 0 .3.13.51.51 0 0 0 .31-.13.43.43 0 0 0 .12-.31.41.41 0 0 0-.39-.39z"/><path class="cls-1" d="M20.94 21.29a.56.56 0 1 1-1.12 0 .58.58 0 0 1 .58-.56.54.54 0 0 1 .54.56z"/><path d="M20.38 21.87a.58.58 0 0 1-.38-.17.57.57 0 0 1-.17-.41.6.6 0 0 1 .6-.58.56.56 0 0 1 .56.58.58.58 0 0 1-.58.58zm0-1.12a.56.56 0 0 0-.56.54.57.57 0 0 0 .16.39.54.54 0 0 0 .38.15.52.52 0 0 0 .38-.15.53.53 0 0 0 .16-.39.53.53 0 0 0-.5-.54z"/><path class="cls-8" d="M26.26 26.15l-.07-.21.19-.27c.05-.09.24 0 .2.06a1.94 1.94 0 0 1-.32.42z"/><path class="cls-23" d="M28.52 22.92l-.16-.11a.73.73 0 0 0-.84.44c-.11-.09-.22-.06-.34-.06.07.2 0 .34.08.55-.1 0-.18.07-.2.14l-.06-.06h-.12c0 .54.17.42.13.62l-.21-.23h-.23c-.12 0-.15.14-.27.16a3.14 3.14 0 0 1 .22.41.26.26 0 0 0 .27 0c-.27.09-.34.3-.45.41h.26a2.93 2.93 0 0 1-.43.51h.09l.51-.22.42-.39.53-.72v-1.08c.27-.12.23-.4.84-.37z"/><path d="M26.21 25.77h-.09a1.43 1.43 0 0 0 .3-.34l.11-.15h-.23l.08-.1a.74.74 0 0 1 .25-.25.44.44 0 0 1-.15-.05 1 1 0 0 1-.1-.18 1.24 1.24 0 0 0-.12-.23.27.27 0 0 0 .13-.07.26.26 0 0 1 .13-.08h.24l.19.21v-.11c0-.04-.11-.15-.1-.48H27l.09.05a.29.29 0 0 1 .2-.13.73.73 0 0 1 0-.28 1.18 1.18 0 0 0 0-.25h.07a.44.44 0 0 1 .27 0 .47.47 0 0 1 .18-.25.77.77 0 0 1 .67-.17l.15.11a.64.64 0 0 0-.62.22.74.74 0 0 1-.19.15v1.12l-.52.72-.43.39-.51.23zm-.06 0h.06l.5-.22.43-.39.51-.71v-1.13a1 1 0 0 0 .19-.15.64.64 0 0 1 .6-.23l-.12-.08a.77.77 0 0 0-.64.17.42.42 0 0 0-.18.26.33.33 0 0 0-.27-.06.74.74 0 0 1 0 .25 1 1 0 0 0 .05.28c-.12 0-.18.07-.2.13l-.1-.06h-.11c0 .31.05.39.1.45a.16.16 0 0 1 0 .16l-.21-.22h-.22a.29.29 0 0 0-.12.07.41.41 0 0 1-.13.08.83.83 0 0 1 .12.21l.09.18a.24.24 0 0 0 .2 0h.05a.72.72 0 0 0-.31.28l-.06.09h.23l-.13.17a1.74 1.74 0 0 1-.33.43z"/><path class="cls-1" d="M27.24 25.06a.36.36 0 0 0 .45-.13.27.27 0 0 0-.05-.41l-.39.54z"/><path d="M27.38 25.12a.42.42 0 0 1-.15 0l.4-.55a.3.3 0 0 1 .12.17.34.34 0 0 1-.07.27.4.4 0 0 1-.3.11zm-.12-.06a.35.35 0 0 0 .42-.13.3.3 0 0 0 .06-.24.21.21 0 0 0-.1-.15z"/><path class="cls-7" d="M28.53 22.93c-.73.06-.72 1-.87 1.51l-.46.7c-.29.26-.48.57-.67.61s-.16 0-.34 0c.35-.14.19-.46.92-.65-.24-.11-.24.2-.71.11.13-.28.41-.3.53-.4-.19-.06-.21.05-.35 0s-.12-.27-.24-.41c.16-.07.29-.25.49-.16s.17.22.28.26c.05-.23-.11-.25-.14-.36s0-.16 0-.32c.53.17.33.48.57.62 0-.33-.1-.19-.3-.55.08-.1.13-.08.19-.11-.1-.19 0-.3-.11-.55a.25.25 0 0 1 .31.09.66.66 0 0 1 .92-.39z"/><path d="M26.44 25.77h-.08a.54.54 0 0 0-.17 0 .47.47 0 0 0 .25-.23 1 1 0 0 1 .63-.41.19.19 0 0 0-.19 0 .58.58 0 0 1-.48.09.66.66 0 0 1 .38-.33.4.4 0 0 0 .13-.07.26.26 0 0 0-.16 0 .18.18 0 0 1-.16 0c-.1 0-.13-.12-.16-.21a.52.52 0 0 0-.09-.2.39.39 0 0 0 .14-.08c.11-.07.22-.14.36-.07l.1.09a.64.64 0 0 0 .17.16.23.23 0 0 0-.08-.24.23.23 0 0 1-.07-.1.35.35 0 0 1 0-.14.36.36 0 0 0 0-.18.68.68 0 0 1 .31.18l-.06-.1a.26.26 0 0 1 .14-.1.55.55 0 0 1-.05-.24.79.79 0 0 0-.06-.3.26.26 0 0 1 .31.08.81.81 0 0 1 .37-.4.61.61 0 0 1 .57 0c-.57 0-.68.64-.78 1.16 0 .12-.05.24-.07.35l-.46.7a3 3 0 0 0-.31.31c-.14.15-.25.28-.36.3zm-.15 0h.08a.48.48 0 0 0 .16 0c.11 0 .22-.14.35-.29a3 3 0 0 1 .31-.31l.46-.69a3.09 3.09 0 0 0 .07-.35c.1-.51.21-1.09.77-1.17a.54.54 0 0 0-.5 0 .71.71 0 0 0-.37.4.24.24 0 0 0-.28-.09.79.79 0 0 1 .06.3.43.43 0 0 0 .05.24h-.05a.19.19 0 0 0-.12.08 1 1 0 0 0 .19.25c.07.07.11.1.1.3a.35.35 0 0 1-.15-.23.54.54 0 0 0-.39-.38.42.42 0 0 1-.03.17.3.3 0 0 0 0 .13.2.2 0 0 0 .06.09.27.27 0 0 1 .09.28.48.48 0 0 1-.21-.17l-.08-.09c-.13-.06-.23 0-.33.08l-.13.07a.59.59 0 0 1 .09.2c0 .09.05.17.14.2a.17.17 0 0 0 .14 0 .36.36 0 0 1 .21 0 .6.6 0 0 1-.16.08.68.68 0 0 0-.36.3.5.5 0 0 0 .44-.08.22.22 0 0 1 .26 0 1 1 0 0 0-.64.42 1.19 1.19 0 0 1-.19.2zm1-1.66a.53.53 0 0 1 .06.14.34.34 0 0 0 .13.2.29.29 0 0 0-.1-.25z"/><path d="M26.65 25.54a.49.49 0 0 1 .2-.17 1.29 1.29 0 0 0 .38-.3 1.29 1.29 0 0 1-.38.3.56.56 0 0 0-.2.17zm.15-.54a1.32 1.32 0 0 1 .53-.17 1.23 1.23 0 0 0-.53.17zm.61-.26a1.06 1.06 0 0 1-.42-.14.76.76 0 0 0-.29-.09.5.5 0 0 1 .29.09 1.15 1.15 0 0 0 .42.13zm.09-.14a.55.55 0 0 1-.26-.32.55.55 0 0 0 .26.32zm.13-.16a1.77 1.77 0 0 0-.13-.9 1.81 1.81 0 0 1 .13.91z"/><path class="cls-7" d="M27.64 24.46h.08l-.47.63h-.08a2.93 2.93 0 0 1 .47-.63z"/><path d="M27.25 25.15l-.1-.06a2.83 2.83 0 0 1 .47-.63h.1zm-.06-.07l.45-.61h-.05a3.21 3.21 0 0 0-.4.61z"/><path class="cls-23" d="M12.29 22.94l.16-.11a.74.74 0 0 1 .84.44.42.42 0 0 1 .34-.05c-.07.19 0 .33-.08.54a.3.3 0 0 1 .21.14l.1-.06H14c0 .54-.18.42-.14.62l.22-.23h.23c.11 0 .14.14.27.15a4 4 0 0 0-.22.41.29.29 0 0 1-.27 0c.27.09.34.29.44.4h-.25a2.6 2.6 0 0 0 .43.51h-.1l-.5-.22-.43-.39-.52-.72v-1.14c-.27-.12-.23-.4-.84-.37z"/><path d="M14.6 25.79l-.51-.22-.43-.39-.52-.72v-1.13a.58.58 0 0 1-.19-.15.66.66 0 0 0-.65-.18l.15-.11a.8.8 0 0 1 .67.17.51.51 0 0 1 .18.25.37.37 0 0 1 .27 0h.07a.74.74 0 0 0 0 .25 1.45 1.45 0 0 1 0 .28.29.29 0 0 1 .19.13l.09-.05H14c0 .33-.05.41-.1.48a.18.18 0 0 0 0 .11l.2-.21h.23a.23.23 0 0 1 .13.07.25.25 0 0 0 .14.08 1.16 1.16 0 0 0-.13.22 1.11 1.11 0 0 1-.09.19.26.26 0 0 1-.15.05.85.85 0 0 1 .25.25.86.86 0 0 0 .07.1h-.23l.11.15a1.21 1.21 0 0 0 .3.33h-.13zm-.49-.24l.5.21h.06a1.26 1.26 0 0 1-.28-.32l-.13-.17h.23a.27.27 0 0 1-.07-.08.74.74 0 0 0-.3-.28h-.06.05a.26.26 0 0 0 .21 0l.09-.18a1.39 1.39 0 0 1 .11-.21.26.26 0 0 1-.13-.08.21.21 0 0 0-.11-.07h-.23l-.21.23a.16.16 0 0 1 0-.16.58.58 0 0 0 .09-.45h-.11l-.1.06c0-.06-.08-.1-.19-.13a.78.78 0 0 0 0-.29.72.72 0 0 1 0-.24.33.33 0 0 0-.27.05.42.42 0 0 0-.16-.44.77.77 0 0 0-.64-.16l-.12.08a.66.66 0 0 1 .6.22.7.7 0 0 0 .19.15v1.13l.52.72z"/><path class="cls-7" d="M12.28 23c.73.07.73 1 .87 1.52l.47.7c.29.25.48.56.66.6s.17 0 .35 0c-.35-.14-.19-.46-.92-.65.23-.12.23.2.71.11-.13-.29-.41-.3-.54-.41.19 0 .22.06.36 0s.11-.27.24-.42c-.16-.06-.3-.25-.49-.16s-.17.23-.29.27c0-.23.11-.25.15-.37s0-.15 0-.31c-.52.17-.33.48-.57.61 0-.33.11-.19.3-.55-.07-.09-.12-.08-.19-.11.1-.18 0-.29.11-.55a.26.26 0 0 0-.31.09.67.67 0 0 0-.92-.39z"/><path d="M14.38 25.8h-.1a1.09 1.09 0 0 1-.37-.3 2.16 2.16 0 0 0-.3-.31l-.47-.7c0-.1-.05-.22-.08-.35-.1-.51-.21-1.1-.78-1.15a.61.61 0 0 1 .57 0 .81.81 0 0 1 .37.4.25.25 0 0 1 .31-.08.75.75 0 0 0-.06.3.43.43 0 0 1-.05.24.21.21 0 0 1 .14.09v.09a.74.74 0 0 1 .3-.18.47.47 0 0 0 0 .17.34.34 0 0 1 0 .14.21.21 0 0 1-.07.11.24.24 0 0 0-.08.24.55.55 0 0 0 .18-.16.45.45 0 0 1 .09-.1c.14-.07.25 0 .36.08l.14.08a.54.54 0 0 0-.1.2c0 .1-.05.19-.15.22a.29.29 0 0 1-.16 0 .23.23 0 0 0-.17 0l.14.06a.66.66 0 0 1 .38.33.58.58 0 0 1-.48-.08.22.22 0 0 0-.19-.05 1 1 0 0 1 .63.42.56.56 0 0 0 .25.23.28.28 0 0 0-.16 0zm-.75-.64a3 3 0 0 1 .31.31c.13.14.24.27.35.29a.28.28 0 0 0 .16 0h.09a.57.57 0 0 1-.19-.19 1 1 0 0 0-.65-.42.24.24 0 0 1 .26 0 .55.55 0 0 0 .44.08.66.66 0 0 0-.37-.3.61.61 0 0 1-.16-.09.36.36 0 0 1 .21 0 .22.22 0 0 0 .14 0c.08 0 .11-.1.14-.2a.77.77 0 0 1 .08-.19l-.12-.08c-.11-.07-.21-.13-.34-.07a.59.59 0 0 0-.08.08.67.67 0 0 1-.2.18.26.26 0 0 1 .08-.28l.07-.09a.28.28 0 0 0 0-.13.85.85 0 0 1 0-.16.5.5 0 0 0-.38.38.36.36 0 0 1-.16.23c0-.19 0-.23.1-.29a1 1 0 0 0 .19-.26.19.19 0 0 0-.12-.07.43.43 0 0 0 0-.24 1 1 0 0 1 .06-.3.26.26 0 0 0-.28.08.72.72 0 0 0-.37-.41.57.57 0 0 0-.5 0c.56.08.67.66.77 1.18a2.84 2.84 0 0 0 .08.34zm-.14-1.07l-.09.1c-.06.06-.09.09-.09.25a.37.37 0 0 0 .12-.2.94.94 0 0 1 .06-.15z"/><path d="M14.16 25.57c0-.07-.1-.11-.19-.16a1.75 1.75 0 0 1-.38-.3 1.57 1.57 0 0 0 .37.29.54.54 0 0 1 .21.17zm-.16-.52a1.45 1.45 0 0 0-.52-.16A1.38 1.38 0 0 1 14 25zm-.6-.26a1.06 1.06 0 0 0 .41-.14.76.76 0 0 1 .29-.09.58.58 0 0 0-.28.1 1.09 1.09 0 0 1-.41.13zm-.09-.13a.49.49 0 0 0 .25-.31.57.57 0 0 1-.24.31zm-.13-.17a1.67 1.67 0 0 1 .12-.9 1.78 1.78 0 0 0-.13.9z"/><path class="cls-1" d="M13.58 25.09a.36.36 0 0 1-.45-.12.29.29 0 0 1 0-.42l.4.54z"/><path d="M13.44 25.14a.4.4 0 0 1-.32-.17.29.29 0 0 1-.07-.26.2.2 0 0 1 .12-.17l.41.55a.23.23 0 0 1-.14.05zm-.26-.57a.18.18 0 0 0-.1.14.3.3 0 0 0 .06.25.34.34 0 0 0 .42.12z"/><path class="cls-7" d="M13.17 24.48h-.07l.47.64.07-.05a2.86 2.86 0 0 0-.47-.63z"/><path d="M13.57 25.18l-.49-.66.11-.07a3.41 3.41 0 0 1 .47.63zm-.45-.65l.45.61a3.21 3.21 0 0 0-.45-.61z"/><path class="cls-1" d="M26.8 24.7a.35.35 0 0 1-.44.18.32.32 0 0 1-.19-.42.34.34 0 0 1 .43-.18.32.32 0 0 1 .2.41z"/><path d="M26.49 24.92h-.13a.39.39 0 0 1-.21-.19.39.39 0 0 1 0-.26.36.36 0 0 1 .46-.19.33.33 0 0 1 .21.43.36.36 0 0 1-.33.21zm0-.64a.3.3 0 0 0-.29.19.28.28 0 0 0 0 .22.3.3 0 0 0 .18.17.32.32 0 0 0 .41-.17.29.29 0 0 0-.18-.38z"/><path class="cls-23" d="M26.18 24.71a.79.79 0 0 0 .35.19c0 .07-.1 0-.11.08s-.31-.06-.26-.12 0-.08 0-.15z"/><path d="M26.38 25a.34.34 0 0 1-.23-.12v-.05a.09.09 0 0 1 0-.09 1 1 0 0 0 .36.19.15.15 0 0 1-.08.05zm-.2-.28a.06.06 0 0 1 0 .09.3.3 0 0 0 .22.11.06.06 0 0 1 .06-.05h.05a1 1 0 0 1-.33-.13z"/><path class="cls-8" d="M15.81 25.39a.16.16 0 0 1 .24-.05.2.2 0 0 1 .28-.1c-.12-.16-.18-.28-.41-.25s-.16.15-.11.4z"/><path class="cls-23" d="M14.92 22h.14c.39-.06.59.37.62.61a1 1 0 0 1 .59-.05c-.06.23 0 .26-.1.57a.45.45 0 0 1 .29.15c-.27.22-.68.28-.7.56l.44-.08c.22-.16.21-.49.64-.5.05.48-.24.34-.35.68.34 0 1 0 1 .08a3.88 3.88 0 0 0-.46.36H17c-.11 0-.17-.21-.33-.11a2.1 2.1 0 0 0 .34.16.32.32 0 0 1 .19.35.89.89 0 0 1-.65-.12c.42.29.3.47.54.7H17a2.28 2.28 0 0 1-1-.36c0 .13-.17.33-.23.46l-.27-.6c0 .08-.08.07-.13.08l-.37-.71c-.19-.06-.16-.19-.17-.31A.36.36 0 0 1 15 24l-.13-.31v-.21s.14 0 .13.12a2.34 2.34 0 0 0 .13.35l.15-.48-.28-.88.16-.06c-.06-.19.24-.4-.19-.56z"/><path d="M15.73 25.48h-.06l-.26-.57a.14.14 0 0 1-.09.05h-.05l-.27-.72a.23.23 0 0 1-.16-.26.13.13 0 0 1 0-.06h.13l-.12-.28v-.24c.05 0 .1 0 .09.12a1.18 1.18 0 0 0 .1.25v.05l.14-.43-.29-.83.16-.07a.32.32 0 0 1 0-.19c0-.12.08-.24-.19-.34l.13-.05a.5.5 0 0 1 .47.2 1 1 0 0 1 .18.41 1 1 0 0 1 .57-.05.73.73 0 0 0 0 .22 2.15 2.15 0 0 1-.06.33.42.42 0 0 1 .24.12 1.5 1.5 0 0 1-.32.19c-.19.1-.35.18-.37.34l.42-.07a.78.78 0 0 0 .16-.2.51.51 0 0 1 .48-.3c0 .29-.06.36-.16.44a.44.44 0 0 0-.18.23h.4c.35 0 .56 0 .6.05a1.33 1.33 0 0 0-.3.24 1 1 0 0 1-.15.12h-.12l-.09-.06c-.06-.06-.12-.1-.2-.06a1.21 1.21 0 0 0 .31.15.34.34 0 0 1 .21.36.83.83 0 0 1-.53 0 .88.88 0 0 1 .25.35.77.77 0 0 0 .17.26H17a1.58 1.58 0 0 1-.78-.17A1.09 1.09 0 0 0 16 25c0 .08-.07.19-.14.3a.91.91 0 0 0-.1.13zm0 0s.06-.08.09-.13.17-.23.14-.3l.25.1a1.54 1.54 0 0 0 .77.17 1.05 1.05 0 0 1-.15-.24.81.81 0 0 0-.36-.43.87.87 0 0 0 .61.11.29.29 0 0 0-.19-.32 1.13 1.13 0 0 1-.34-.17c.12-.07.19 0 .26 0a.27.27 0 0 0 .08.07h.1a.77.77 0 0 0 .13-.12 1.85 1.85 0 0 1 .31-.24 1.94 1.94 0 0 0-.58 0h-.44a.42.42 0 0 1 .19-.26.37.37 0 0 0 .16-.4.48.48 0 0 0-.45.29.83.83 0 0 1-.17.21l-.47.08c0-.19.19-.28.39-.38a1.83 1.83 0 0 0 .3-.18.44.44 0 0 0-.25-.11 1.83 1.83 0 0 0 .07-.34v-.21a1 1 0 0 0-.56.05.91.91 0 0 0-.18-.41.46.46 0 0 0-.43-.19L15 22c.26.11.22.25.18.37a.32.32 0 0 0 0 .19l-.18.04.28.82-.17.52v-.08c0-.08-.07-.16-.1-.26 0-.07 0-.08-.07-.09v.19l.06.3h-.1c0 .1 0 .19.16.23l.28.71a.11.11 0 0 0 .09-.06z"/><path class="cls-7" d="M14.9 22a.54.54 0 0 1 .69.54 1 1 0 0 1 .6 0c-.13.26 0 .41-.15.6.25 0 .19.08.33.12-.38.32-.72.25-.74.59.61-.18.36-.32.65-.48a1.14 1.14 0 0 1 .5-.13c0 .51-.29.35-.38.68.31 0 .35-.21.54-.24s.36.17.56.29c-.36.13-.4.41-.58.38s-.18-.14-.38-.05c.18.14.48.12.56.44-.43.14-.73-.18-1.16-.2 1 .28.67.58 1 .8a1.91 1.91 0 0 1-1.05-.24c0 .14-.17.24-.26.42-.06-.28-.35-.41-.29-.84-.11 0 .06.31-.12.32a.48.48 0 0 1-.16-.4c-.09-.1 0 .18-.34-.27a.64.64 0 0 1 .06-.36c0 .08.06.15.13.15a.58.58 0 0 0-.12-.29v-.35c.13.16 0 .39.25.43 0-.38-.36-.27-.16-.63 0-.2 0-.83.11-.59 0-.33.14-.56-.12-.66z"/><path d="M15.67 25.48a.75.75 0 0 0-.13-.27 1.06 1.06 0 0 1-.16-.37.11.11 0 0 1 0 .1.1.1 0 0 1-.08 0 .53.53 0 0 1-.17-.41s-.08 0-.28-.27a.79.79 0 0 1 0-.26q0-.11.06-.12c0 .06.05.11.09.12a.5.5 0 0 0-.11-.26c-.05 0 0-.29 0-.36a.34.34 0 0 1 .05-.21c0-.13 0-.61.06-.64h.05a1.66 1.66 0 0 1 0-.24c0-.18.05-.3-.12-.37a.47.47 0 0 1 .43.05.71.71 0 0 1 .27.49 1.08 1.08 0 0 1 .59 0 .84.84 0 0 0-.07.32.39.39 0 0 1-.07.27.38.38 0 0 1 .22.07l.09.05a1.89 1.89 0 0 1-.42.24c-.18.08-.3.13-.32.31.36-.1.41-.2.46-.28a.41.41 0 0 1 .17-.19 1.07 1.07 0 0 1 .51-.13c0 .31-.08.38-.19.45a.42.42 0 0 0-.18.21.69.69 0 0 0 .31-.14.46.46 0 0 1 .2-.09.61.61 0 0 1 .41.17l.17.12a.78.78 0 0 0-.35.26c-.08.08-.13.14-.23.13a.46.46 0 0 1-.14-.05.21.21 0 0 0-.21 0 .66.66 0 0 0 .19.09c.14.07.3.13.35.35a.94.94 0 0 1-.68-.07 1.31 1.31 0 0 0-.28-.09c.51.16.58.33.65.48a.44.44 0 0 0 .2.26h-.21a1.62 1.62 0 0 1-.84-.23.46.46 0 0 1-.13.22.85.85 0 0 0-.14.19zm-.29-.87a.8.8 0 0 0 .16.56.77.77 0 0 1 .12.24 1 1 0 0 1 .13-.16c.07-.08.13-.14.12-.22a1.65 1.65 0 0 0 .85.23h.14a.51.51 0 0 1-.17-.23c-.07-.17-.15-.36-.82-.53a1.31 1.31 0 0 1 .49.12 1 1 0 0 0 .65.08.5.5 0 0 0-.34-.31.78.78 0 0 1-.2-.11.26.26 0 0 1 .25 0 .46.46 0 0 0 .14.05c.07 0 .12-.05.19-.12a.93.93 0 0 1 .35-.25l-.15-.11a.59.59 0 0 0-.38-.16.34.34 0 0 0-.19.09.72.72 0 0 1-.35.14.38.38 0 0 1 .2-.24c.11-.07.21-.13.19-.41a1 1 0 0 0-.48.13.34.34 0 0 0-.17.17c-.05.1-.1.19-.49.31 0-.21.15-.27.34-.36a1.77 1.77 0 0 0 .39-.22h-.08a.37.37 0 0 0-.22-.06.52.52 0 0 0 .08-.28.63.63 0 0 1 .06-.31 1 1 0 0 0-.58 0 .63.63 0 0 0-.26-.49.43.43 0 0 0-.37-.05c.15.08.14.21.11.38a2.46 2.46 0 0 0 0 .28c-.06 0-.06.42 0 .62-.1.2-.05.24 0 .32a.41.41 0 0 1 .15.31c-.14 0-.16-.12-.18-.23a.58.58 0 0 0-.06-.17.62.62 0 0 0 0 .3.64.64 0 0 1 .13.29c-.07 0-.1-.06-.13-.13a.41.41 0 0 0 0 .1v.22c.17.21.23.26.26.26a.53.53 0 0 0 .16.39h.05a.24.24 0 0 0 0-.15c0-.07 0-.14.05-.15zm0 .05v.08zm-.47-1.13v.11c0 .1 0 .18.14.2a.35.35 0 0 0-.14-.27z"/><path d="M15.64 25.09a.76.76 0 0 0 0-.11.92.92 0 0 1-.06-.49.86.86 0 0 0 .07.48v.12zm.77-.11a1.58 1.58 0 0 0-.23-.11 1.19 1.19 0 0 1-.57-.38 1.26 1.26 0 0 0 .56.38 1.28 1.28 0 0 1 .24.11zm-1.21-.36a.41.41 0 0 1 .08-.19.36.36 0 0 0-.07.18zm1.31-.19a1.55 1.55 0 0 0-.75-.2 1.56 1.56 0 0 1 .76.2zm-1.46-.15H15a.24.24 0 0 0-.15 0 .36.36 0 0 1 .15 0 .2.2 0 0 0 .15 0 .2.2 0 0 1-.1 0zm.77-.14h-.09a1.65 1.65 0 0 0 .65-.09 1.94 1.94 0 0 1 .59-.11 2.3 2.3 0 0 0-.59.11 1.87 1.87 0 0 1-.56.09zm-.67-.1c-.06 0-.12 0-.19-.14a.26.26 0 0 0 .18.14zm.54 0a.74.74 0 0 0 .58-.37l.05-.06v.06a.77.77 0 0 1-.59.38zm-.47-.15A5.27 5.27 0 0 0 15 23a4.71 4.71 0 0 1 .24.9zm.13 0a1.27 1.27 0 0 1 .51-1 1.3 1.3 0 0 0-.51 1zm-.08 0a3.09 3.09 0 0 1 0-1.08 1.19 1.19 0 0 0-.06-.65 1.14 1.14 0 0 1 .05.66 3.36 3.36 0 0 0 0 1.08z"/><path class="cls-23" d="M15.18 24.32a.33.33 0 0 0 .45.15.39.39 0 0 0 .08-.5.35.35 0 0 0-.46-.15.38.38 0 0 0-.07.5z"/><path d="M15.48 24.52h-.07a.35.35 0 0 1-.24-.19.38.38 0 0 1 .08-.51.28.28 0 0 1 .22 0 .35.35 0 0 1 .24.19.38.38 0 0 1-.08.51.26.26 0 0 1-.15 0zm-.3-.21a.4.4 0 0 0 .23.18.25.25 0 0 0 .21 0 .36.36 0 0 0 .08-.49.4.4 0 0 0-.23-.18.25.25 0 0 0-.21 0 .36.36 0 0 0-.08.48z"/><path class="cls-23" d="M15.15 24.33a.33.33 0 0 0 .45.16.38.38 0 0 0 .07-.49.32.32 0 0 0-.44-.16.36.36 0 0 0-.08.49z"/><path d="M15.46 24.53h-.07a.35.35 0 0 1-.24-.19.36.36 0 0 1 .07-.49.34.34 0 0 1 .22 0 .43.43 0 0 1 .23.19.38.38 0 0 1-.08.5.23.23 0 0 1-.13-.01zm-.3-.2a.37.37 0 0 0 .23.18.26.26 0 0 0 .21 0 .36.36 0 0 0 .07-.48.41.41 0 0 0-.24-.19.28.28 0 0 0-.2 0 .36.36 0 0 0-.07.48z"/><path class="cls-1" d="M15.18 24.32a.29.29 0 0 0 .39.13.34.34 0 0 0 .07-.43.29.29 0 0 0-.39-.13.31.31 0 0 0-.07.42z"/><path d="M15.44 24.49h-.06a.36.36 0 0 1-.21-.16.33.33 0 0 1 .07-.44.33.33 0 0 1 .33.57.2.2 0 0 1-.13.03zm-.26-.18a.35.35 0 0 0 .2.16.19.19 0 0 0 .18 0 .31.31 0 0 0 .07-.42.35.35 0 0 0-.2-.16.28.28 0 0 0-.18 0 .31.31 0 0 0-.07.42z"/><path class="cls-23" d="M25.87 22h-.13c-.4-.06-.59.37-.63.61a1 1 0 0 0-.59-.05c.06.23 0 .26.11.57a.49.49 0 0 0-.3.15c.28.22.69.28.71.56l-.45-.08c-.21-.16-.21-.49-.63-.5-.05.48.24.34.35.68-.34 0-1 0-1 .08a3.88 3.88 0 0 1 .46.36h.1c.11 0 .17-.21.33-.11a1.65 1.65 0 0 1-.33.16.32.32 0 0 0-.2.35.87.87 0 0 0 .65-.12c-.42.29-.3.47-.54.7h.06a2.25 2.25 0 0 0 1-.28c0 .13.17.33.23.46h.05l.26-.6c0 .08.09.07.13.08l.29-.72c.18-.06.15-.19.16-.31a.36.36 0 0 0-.14 0l.13-.31v-.21c-.05 0-.14 0-.13.12a2.34 2.34 0 0 1-.13.35l-.15-.48.28-.83-.16-.06c.06-.19-.25-.4.18-.56z"/><path d="M25.14 25.48h-.07a.77.77 0 0 0-.09-.13c-.07-.11-.16-.22-.15-.3a.85.85 0 0 0-.22.09 1.62 1.62 0 0 1-.79.17h-.09a.65.65 0 0 0 .17-.26.88.88 0 0 1 .25-.35.81.81 0 0 1-.52 0 .34.34 0 0 1 .21-.36 1.21 1.21 0 0 0 .31-.15c-.08 0-.14 0-.2.06l-.09.06h-.12a.58.58 0 0 1-.14-.12 1.85 1.85 0 0 0-.31-.24c0-.05.25-.05.6-.05h.4a.5.5 0 0 0-.18-.23c-.1-.08-.19-.15-.17-.44a.51.51 0 0 1 .48.3.78.78 0 0 0 .16.2l.42.07c0-.16-.18-.24-.37-.34a1.57 1.57 0 0 1-.33-.19h.05s.08-.08.24-.12a1.36 1.36 0 0 1-.06-.33v-.22a1 1 0 0 1 .58.05 1 1 0 0 1 .18-.41.48.48 0 0 1 .46-.2l.13.05c-.27.1-.23.22-.19.34a.44.44 0 0 1 0 .19l.16.07-.29.83.14.43v-.05a.81.81 0 0 0 .09-.25c0-.09.05-.1.1-.12v.25l-.11.27H26a.13.13 0 0 1 0-.05.22.22 0 0 1-.16.26l-.29.73h-.05a.14.14 0 0 1-.09-.05zm-.05 0l.27-.61c0 .05.05.05.08.06l.28-.71c.15 0 .15-.13.16-.23h-.1l.14-.33v-.19s-.07 0-.07.09a1.58 1.58 0 0 1-.09.26.59.59 0 0 0 0 .08l-.17-.52.28-.82-.16-.06a.32.32 0 0 0 0-.19c0-.12-.08-.26.18-.37h-.1a.46.46 0 0 0-.43.19.88.88 0 0 0-.17.41 1.08 1.08 0 0 0-.57-.05v.21a1.14 1.14 0 0 0 .06.34.43.43 0 0 0-.24.11 1.83 1.83 0 0 0 .3.18c.2.1.38.19.39.38l-.47-.08a.66.66 0 0 1-.17-.21.49.49 0 0 0-.49-.22.37.37 0 0 0 .16.4.46.46 0 0 1 .19.26h-.44a1.94 1.94 0 0 0-.58 0 1.85 1.85 0 0 1 .31.24.77.77 0 0 0 .13.12h.1a.27.27 0 0 0 .08-.07c.07-.05.14-.11.26 0a1.13 1.13 0 0 1-.34.17.31.31 0 0 0-.19.32.87.87 0 0 0 .61-.11.86.86 0 0 0-.29.47.79.79 0 0 1-.15.24 1.54 1.54 0 0 0 .77-.17l.25-.1c0 .07.07.19.14.3a.77.77 0 0 1 .08.18z"/><path class="cls-8" d="M24.94 25.42s-.07-.18-.22-.07c-.1-.13-.16-.11-.24-.06.08-.13.13-.29.36-.27s.15.15.1.4z"/><path class="cls-7" d="M25.89 22c-.41-.14-.66.23-.68.54a1 1 0 0 0-.6 0c.12.26 0 .41.15.6-.25 0-.19.08-.33.12.38.32.72.25.74.59-.61-.18-.37-.32-.65-.48a1.23 1.23 0 0 0-.5-.13c-.05.51.29.35.38.68-.31 0-.35-.21-.54-.24s-.36.17-.56.29c.36.13.4.41.58.38s.18-.14.38-.05c-.18.14-.47.12-.56.44.43.14.73-.18 1.16-.2-1.05.28-.67.58-1 .8a1.89 1.89 0 0 0 1.05-.24c0 .14.18.24.27.42.06-.28.34-.41.28-.84.11 0-.06.31.12.32a.48.48 0 0 0 .16-.4c.09-.1 0 .18.34-.27a.64.64 0 0 0-.06-.36c0 .08-.06.15-.13.15a.58.58 0 0 1 .12-.29v-.35c-.13.16 0 .39-.25.43 0-.38.36-.27.16-.63 0-.2 0-.83-.11-.59 0-.33-.15-.56.11-.66z"/><path d="M25.14 25.48a1.33 1.33 0 0 0-.14-.19.34.34 0 0 1-.13-.22 1.65 1.65 0 0 1-.85.23h-.2A.46.46 0 0 0 24 25c.06-.15.14-.32.65-.48a1.4 1.4 0 0 0-.29.09.93.93 0 0 1-.68.07c.06-.22.21-.28.36-.35l.18-.09a.21.21 0 0 0-.21 0 .38.38 0 0 1-.14.05c-.09 0-.15-.05-.22-.13a1 1 0 0 0-.36-.26l.17-.12a.61.61 0 0 1 .4-.17.45.45 0 0 1 .21.09.69.69 0 0 0 .31.14.42.42 0 0 0-.18-.21c-.11-.07-.22-.14-.2-.45a1 1 0 0 1 .5.13.39.39 0 0 1 .18.19c.05.08.1.18.46.28 0-.18-.14-.23-.32-.31a1.69 1.69 0 0 1-.42-.24l.09-.05a.37.37 0 0 1 .21-.07.54.54 0 0 1-.07-.27.69.69 0 0 0-.07-.32 1.08 1.08 0 0 1 .59 0 .68.68 0 0 1 .28-.49.47.47 0 0 1 .42-.05c-.16.07-.15.19-.12.37a1.66 1.66 0 0 1 0 .24h.06c.06 0 .06 0 .07.28s0 .28 0 .36a.34.34 0 0 1 .05.21v.36a.5.5 0 0 0-.11.26s.06-.06.09-.12.11.06.11.06a.47.47 0 0 1 0 .26c-.19.24-.25.27-.28.27a.5.5 0 0 1-.17.41.08.08 0 0 1-.07 0v-.1a.79.79 0 0 1-.16.37 1 1 0 0 0-.13.27zm-.27-.48c0 .08.05.14.12.22a1 1 0 0 1 .12.16 1.12 1.12 0 0 1 .13-.24.8.8 0 0 0 .15-.56c.06 0 .05.08 0 .15s0 .12 0 .15 0 0 .05 0a.51.51 0 0 0 .15-.39s.08-.05.26-.26a.47.47 0 0 0 0-.22.41.41 0 0 0 0-.1c0 .07-.06.14-.13.13a.64.64 0 0 1 .13-.29.62.62 0 0 0 0-.3.58.58 0 0 0-.06.17c0 .11 0 .21-.18.23a.38.38 0 0 1 .15-.31c.07-.08.12-.12 0-.32a1.53 1.53 0 0 0 0-.62h-.05a1.27 1.27 0 0 0 0-.28c0-.17 0-.3.11-.38a.44.44 0 0 0-.37.05.7.7 0 0 0-.26.49.94.94 0 0 0-.57 0 .77.77 0 0 1 .06.31.52.52 0 0 0 .08.28.46.46 0 0 0-.23.06h-.07a1.77 1.77 0 0 0 .39.22c.19.09.32.15.34.36-.39-.12-.44-.21-.49-.31a.34.34 0 0 0-.17-.17 1 1 0 0 0-.48-.13c0 .28.08.34.19.41a.38.38 0 0 1 .2.24.72.72 0 0 1-.35-.14.34.34 0 0 0-.19-.09.57.57 0 0 0-.38.16l-.15.11a.93.93 0 0 1 .35.25c.07.07.12.13.2.12l.13-.05a.26.26 0 0 1 .25 0 .84.84 0 0 1-.21.11.5.5 0 0 0-.34.31 1 1 0 0 0 .65-.08 1.31 1.31 0 0 1 .49-.12c-.67.17-.75.36-.82.53a.42.42 0 0 1-.16.23H24a1.63 1.63 0 0 0 .85-.23zm.57-.37a.25.25 0 0 1 0 .08s.01-.04 0-.05zm.47-1.13a.35.35 0 0 0-.14.27c.1 0 .12-.1.14-.2z"/><path d="M25.17 25.09v-.12a.86.86 0 0 0 .07-.48.92.92 0 0 1-.06.49.76.76 0 0 0 0 .11zM24.4 25l.24-.11a1.33 1.33 0 0 0 .57-.38 1.24 1.24 0 0 1-.57.38 1.28 1.28 0 0 0-.24.11zm1.2-.36a.37.37 0 0 0-.08-.18.54.54 0 0 1 .07.19zm-1.31-.19a1.56 1.56 0 0 1 .76-.2 1.55 1.55 0 0 0-.75.2zm1.46-.15a.2.2 0 0 1-.1 0 .2.2 0 0 0 .15 0 .71.71 0 0 1 .15 0 .24.24 0 0 0-.15 0zm-.75-.16a1.87 1.87 0 0 1-.56-.1 2.3 2.3 0 0 0-.59-.11 1.94 1.94 0 0 1 .59.11 1.65 1.65 0 0 0 .65.09zm.67-.1a.26.26 0 0 0 .18-.14c-.07.11-.13.14-.19.14zm-.54 0a.81.81 0 0 1-.6-.38v-.06l.05.06a.74.74 0 0 0 .58.37zm.47-.15a5.4 5.4 0 0 1 .23-.9 5.27 5.27 0 0 0-.24.89zm-.13 0a1.3 1.3 0 0 0-.51-1 1.27 1.27 0 0 1 .51 1zm.08 0a3.36 3.36 0 0 0 0-1.08 1.14 1.14 0 0 1 .05-.66 1.1 1.1 0 0 0-.05.65 3.09 3.09 0 0 1 0 1.08z"/><path class="cls-23" d="M25.63 24.32a.34.34 0 0 1-.45.15.38.38 0 0 1-.09-.5.35.35 0 0 1 .46-.15.39.39 0 0 1 .08.5z"/><path d="M25.32 24.52a.28.28 0 0 1-.15 0 .38.38 0 0 1-.08-.51.35.35 0 0 1 .24-.19.28.28 0 0 1 .22 0 .39.39 0 0 1 .09.51.35.35 0 0 1-.24.19zm.08-.73h-.07a.4.4 0 0 0-.23.18.36.36 0 0 0 .08.48.26.26 0 0 0 .21 0 .4.4 0 0 0 .23-.18.36.36 0 0 0-.08-.48.23.23 0 0 0-.14 0z"/><path class="cls-23" d="M25.65 24.33a.33.33 0 0 1-.45.16.38.38 0 0 1-.07-.49.32.32 0 0 1 .44-.16.36.36 0 0 1 .08.49z"/><path d="M25.34 24.53a.23.23 0 0 1-.14 0 .39.39 0 0 1-.08-.5.49.49 0 0 1 .24-.19.34.34 0 0 1 .22 0 .36.36 0 0 1 .07.49.35.35 0 0 1-.24.19zm.09-.72h-.06a.41.41 0 0 0-.24.19.36.36 0 0 0 .08.48.24.24 0 0 0 .2 0 .37.37 0 0 0 .23-.18.36.36 0 0 0-.07-.48.23.23 0 0 0-.14-.01z"/><path class="cls-1" d="M25.62 24.32a.28.28 0 0 1-.38.13.33.33 0 0 1-.08-.43.28.28 0 0 1 .38-.13.31.31 0 0 1 .07.42z"/><path d="M25.36 24.49a.22.22 0 0 1-.13 0 .33.33 0 0 1 .33-.57.33.33 0 0 1 .07.44.34.34 0 0 1-.21.16zm.07-.63h-.06a.35.35 0 0 0-.2.16.31.31 0 0 0 .07.42.19.19 0 0 0 .18 0 .35.35 0 0 0 .2-.16.31.31 0 0 0-.07-.42.27.27 0 0 0-.12 0z"/><path class="cls-1" d="M23.31 24.31a.33.33 0 0 1-.34.32.33.33 0 0 1-.34-.32.34.34 0 0 1 .68 0z"/><path d="M23 24.65a.35.35 0 0 1-.36-.34.31.31 0 0 1 .1-.24A.36.36 0 0 1 23 24a.35.35 0 0 1 .36.34.34.34 0 0 1-.1.23.36.36 0 0 1-.26.11zm0-.65a.29.29 0 0 0-.23.1.27.27 0 0 0-.09.21.31.31 0 0 0 .32.3.32.32 0 0 0 .23-.09.29.29 0 0 0 .09-.21A.32.32 0 0 0 23 24z"/><path class="cls-23" d="M22.73 24.54a.93.93 0 0 0 .41.05c0 .08-.09.05-.08.12s-.31.05-.28 0-.06-.05-.05-.14z"/><path d="M23 24.77a.35.35 0 0 1-.17 0 .06.06 0 0 1 0-.05v-.05a.08.08 0 0 1 0-.09 1 1 0 0 0 .4 0 .08.08 0 0 1 0 .08zm-.2-.21a.07.07 0 0 1 0 .09.33.33 0 0 0 .24 0 .05.05 0 0 1 0-.07.88.88 0 0 1-.29-.02zm3.62.44a.78.78 0 0 1-.24-.13.6.6 0 0 0 .24.12z"/><path class="cls-8" d="M20.78 25.35c-.08-.13-.23-.26-.38-.07-.16-.19-.28-.06-.37.06.16-.32.26-.65.38-.66s.21.32.37.67z"/><path class="cls-23" d="M21.82 23a.58.58 0 0 0-.54.21c-.18.28-.64.25-.64.25l.2.61 1.23-.46a.22.22 0 0 0-.23-.1c-.16 0-.25.21-.49.11l.47-.62z"/><path d="M20.83 24l-.21-.65s.45 0 .63-.23a.6.6 0 0 1 .54-.23l-.46.61a.33.33 0 0 0 .3-.06.44.44 0 0 1 .17-.07.27.27 0 0 1 .24.11zm-.17-.62l.19.58 1.2-.45a.28.28 0 0 0-.21-.08.28.28 0 0 0-.16.07.34.34 0 0 1-.34.05l.47-.62a.53.53 0 0 0-.49.21.75.75 0 0 1-.66.28z"/><path class="cls-23" d="M19 23a.58.58 0 0 1 .54.21.79.79 0 0 0 .64.25L20 24l-1.23-.46a.22.22 0 0 1 .23-.1c.16 0 .25.21.49.11L19 23z"/><path d="M20 24l-1.25-.47a.27.27 0 0 1 .24-.11.61.61 0 0 1 .17.07.33.33 0 0 0 .3.06l-.49-.64a.62.62 0 0 1 .56.23c.18.26.62.23.62.23zm-1.22-.49L20 24l.18-.58a.74.74 0 0 1-.63-.25A.54.54 0 0 0 19 23l.47.62a.37.37 0 0 1-.35-.05.25.25 0 0 0-.36 0z"/><path class="cls-7" d="M20.39 21.34a1.29 1.29 0 0 0-.46.81c-.18-.17-.36 0-.54 0 .09.11 0 .42.12.63-.13 0-.19.12-.26.18s.66.21.76.55c-.61-.06-.41-.5-1.12-.54-.1.51.43.41.47.69-.21 0-.37-.16-.54-.15s-.36.26-.51.35c.24.06.33.27.57.32s.24-.19.44-.09c-.19.26-.34.16-.34.55.76.06.59-.44.95-.35-.76.44-.34.61-.53.95.39-.15.53 0 1-.36.47.31.61.21 1 .36-.2-.34.22-.51-.54-.95.42-.06.19.41.95.35 0-.39-.13-.28-.33-.54.2-.09.3.11.43.08s.33-.26.57-.32c-.15-.09-.26-.34-.51-.35s-.31.18-.51.15c0-.28.54-.18.43-.69-.7 0-.48.48-1.12.54.11-.34.72-.36.77-.55s-.14-.17-.27-.18c.12-.21 0-.52.12-.63-.18 0-.36-.15-.54 0a1.29 1.29 0 0 0-.46-.81z"/><path d="M21.44 25.25a2.1 2.1 0 0 0-.36-.09 1.6 1.6 0 0 1-.64-.26 1.6 1.6 0 0 1-.64.26 2.67 2.67 0 0 0-.36.09.49.49 0 0 0 .06-.3c0-.18 0-.35.45-.63-.11 0-.16 0-.23.12a.7.7 0 0 1-.68.24c0-.26.07-.31.17-.39a.73.73 0 0 0 .17-.15.25.25 0 0 0-.25.05.28.28 0 0 1-.17.05.68.68 0 0 1-.3-.17.76.76 0 0 0-.28-.16.87.87 0 0 0 .15-.13.41.41 0 0 1 .61-.14.55.55 0 0 0 .28.07c0-.09-.11-.14-.2-.19s-.33-.17-.26-.48a.75.75 0 0 1 .61.29.69.69 0 0 0 .48.25c-.07-.17-.28-.25-.46-.33s-.27-.11-.3-.19l.06-.06a.31.31 0 0 1 .19-.12.92.92 0 0 1-.07-.36.44.44 0 0 0 0-.25h.12a.43.43 0 0 1 .41 0 1.32 1.32 0 0 1 .46-.79v.05a1.33 1.33 0 0 1 .47.78.41.41 0 0 1 .4 0h.12a.42.42 0 0 0 0 .24.93.93 0 0 1-.06.37.35.35 0 0 1 .19.12l.06.06c0 .08-.15.13-.29.19s-.4.16-.46.33a.62.62 0 0 0 .48-.26.75.75 0 0 1 .61-.28.38.38 0 0 1-.25.48c-.09.05-.17.1-.19.19a.5.5 0 0 0 .27-.07.49.49 0 0 1 .23-.08.52.52 0 0 1 .36.22 1.53 1.53 0 0 0 .16.13.76.76 0 0 0-.28.16.68.68 0 0 1-.3.17.24.24 0 0 1-.16-.05.27.27 0 0 0-.25 0 .55.55 0 0 0 .17.15c.1.07.16.12.16.38a.65.65 0 0 1-.65-.22.27.27 0 0 0-.25-.14c.47.28.46.45.45.63a.48.48 0 0 0 .05.3zm-1.59-1H20c-.49.28-.48.45-.47.62a.56.56 0 0 1 0 .28 1.73 1.73 0 0 1 .33-.08 1.57 1.57 0 0 0 .63-.26 1.55 1.55 0 0 0 .64.26 1.49 1.49 0 0 1 .32.08.55.55 0 0 1 0-.28c0-.17 0-.34-.48-.62a.31.31 0 0 1 .34.14c.09.11.2.24.61.21 0-.24 0-.27-.15-.34a1 1 0 0 1-.19-.18.29.29 0 0 1 .29 0 .23.23 0 0 0 .15 0 .64.64 0 0 0 .18-.08.89.89 0 0 1 .25-.16l-.13-.12a.51.51 0 0 0-.32-.22.45.45 0 0 0-.22.08.5.5 0 0 1-.3.07c0-.12.11-.17.21-.22a.36.36 0 0 0 .23-.44.69.69 0 0 0-.57.26.73.73 0 0 1-.54.28c.06-.2.3-.3.49-.38a.54.54 0 0 0 .27-.16l-.05-.06c-.06-.05-.11-.11-.2-.11a.87.87 0 0 0 .07-.37.58.58 0 0 1 0-.24h-.1a.37.37 0 0 0-.4.05 1.27 1.27 0 0 0-.46-.79 1.24 1.24 0 0 0-.44.79.37.37 0 0 0-.4-.05h-.1a.8.8 0 0 1 0 .24.65.65 0 0 0 .07.37.29.29 0 0 0-.19.11l-.06.06c0 .06.15.11.28.16s.43.18.49.38a.7.7 0 0 1-.52-.27.72.72 0 0 0-.58-.27c-.06.28.1.36.24.44s.21.1.22.22a.53.53 0 0 1-.31-.07.58.58 0 0 0-.23-.08.51.51 0 0 0-.34.21.75.75 0 0 1-.14.12 1 1 0 0 1 .26.16.64.64 0 0 0 .28.16.23.23 0 0 0 .15 0 .28.28 0 0 1 .3 0 1 1 0 0 1-.19.18c-.1.07-.15.11-.16.35a.66.66 0 0 0 .65-.23.25.25 0 0 1 .14-.2z"/><path d="M21 24.89a.86.86 0 0 1-.31-.32 1.39 1.39 0 0 1-.17-.38 1.24 1.24 0 0 0 .47.69zm-1.16 0a1.2 1.2 0 0 0 .47-.69 1.39 1.39 0 0 1-.17.38 1 1 0 0 1-.3.32zm1.57-.61a1.8 1.8 0 0 0-.64-.28 1.94 1.94 0 0 1 .65.29zm-2 0a1.94 1.94 0 0 1 .65-.28 1.8 1.8 0 0 0-.64.28zm1.59-.36h-.22a2 2 0 0 0 .77-.07.64.64 0 0 1 .33 0h-.32a2.33 2.33 0 0 1-.56.07zm-1.16 0a2.41 2.41 0 0 1-.56-.07.45.45 0 0 0-.32 0 .6.6 0 0 1 .32 0 2.24 2.24 0 0 0 .77.07h-.21zm.92-.2a1.61 1.61 0 0 0 .34-.06 1.49 1.49 0 0 0 .43-.31 1.54 1.54 0 0 1-.43.31 1.19 1.19 0 0 1-.34.06zm-.69 0a1.09 1.09 0 0 1-.33-.06 1.24 1.24 0 0 1-.39-.29 1.51 1.51 0 0 0 .38.29 1.65 1.65 0 0 0 .33.06zm.35-.18v-1.87 1.86zm.08 0a1.92 1.92 0 0 1 .15-.46 1.73 1.73 0 0 1 .32-.51 1.63 1.63 0 0 0-.31.5 1.92 1.92 0 0 0-.15.46zm-.16 0a1.92 1.92 0 0 0-.15-.46 1.76 1.76 0 0 0-.32-.5 1.73 1.73 0 0 1 .32.51 1.92 1.92 0 0 1 .15.46z"/><path class="cls-23" d="M20.83 23.85a.42.42 0 1 1-.42-.39.41.41 0 0 1 .42.39z"/><path d="M20.41 24.26a.42.42 0 0 1-.43-.41.39.39 0 0 1 .12-.28.44.44 0 0 1 .74.28.45.45 0 0 1-.12.29.43.43 0 0 1-.31.12zm0-.79a.42.42 0 0 0-.3.12.36.36 0 0 0-.11.26.4.4 0 0 0 .41.39.38.38 0 0 0 .29-.12.34.34 0 0 0 .12-.26.4.4 0 0 0-.41-.39z"/><path class="cls-1" d="M20.74 23.85a.33.33 0 1 1-.33-.31.32.32 0 0 1 .33.31z"/><path d="M20.41 24.18a.34.34 0 0 1-.34-.33.32.32 0 0 1 .1-.22.34.34 0 0 1 .58.22.33.33 0 0 1-.1.23.35.35 0 0 1-.24.1zm0-.64a.37.37 0 0 0-.24.1.29.29 0 0 0-.09.21.32.32 0 0 0 .33.32.37.37 0 0 0 .24-.1.33.33 0 0 0 .09-.21.32.32 0 0 0-.33-.32z"/><path class="cls-7" d="M14 26.53h12.84V28H14v-1.47z"/><path d="M14 28v-1.47h12.9V28zm0-1.47V28h12.82v-1.46z"/><path class="cls-7" d="M14 28a.15.15 0 0 0-.14.16.15.15 0 0 0 .14.15h12.84a.15.15 0 0 0 .14-.15.15.15 0 0 0-.14-.16z"/><path d="M14 28.33a.16.16 0 0 1-.11 0 .18.18 0 0 1 0-.12A.17.17 0 0 1 14 28h12.84a.16.16 0 0 1 .16 0 .21.21 0 0 1 .05.13.17.17 0 0 1-.16.17zm0-.33a.13.13 0 0 0-.11.14.11.11 0 0 0 0 .09.09.09 0 0 0 .08 0h12.87a.12.12 0 0 0 .12-.13.12.12 0 0 0 0-.1.09.09 0 0 0-.08 0H14z"/><path class="cls-7" d="M14 26.22a.15.15 0 0 0-.14.15.15.15 0 0 0 .14.16h12.84a.15.15 0 0 0 .14-.16.14.14 0 0 0-.14-.15z"/><path d="M14 26.55a.17.17 0 0 1-.16-.18.18.18 0 0 1 0-.12.16.16 0 0 1 .16-.05h12.84a.16.16 0 0 1 .11.05.17.17 0 0 1 .05.12.16.16 0 0 1-.16.17zm0-.31a.08.08 0 0 0-.07 0 .11.11 0 0 0 0 .09.13.13 0 0 0 .12.14h12.79a.14.14 0 0 0 .08-.24.12.12 0 0 0-.08 0H14z"/><path class="cls-7" d="M26.83 26.66l.24.6-.24.61-1-.61 1-.6z"/><path d="M26.84 27.88l-1-.62 1-.61.25.61zm-1-.62l1 .6.23-.6-.23-.59z"/><path class="cls-24" d="M26.9 26.84l.17.42-.17.43-.71-.43.71-.42z"/><path d="M26.9 27.7l-.73-.44.73-.44.17.43zm-.69-.44l.68.42.17-.42-.17-.41z"/><path class="cls-7" d="M14 26.66l-.25.61.25.6 1-.61-1-.6z"/><path d="M14 27.89l-.25-.62.24-.61 1 .61zm-.22-.62l.23.59 1-.6-1-.59z"/><path class="cls-24" d="M13.91 26.84l-.17.43.17.42.71-.42-.71-.43z"/><path d="M13.91 27.71l-.18-.44.17-.43.72.44zm-.16-.44l.17.41.68-.41-.68-.42z"/><path class="cls-7" d="M20.41 27.87l1.05-.61-1.05-.6-1 .6 1 .61z"/><path d="M20.41 27.88l-1-.61 1.06-.61 1.07.61-1.06.62zm-1-.62l1 .6 1-.6-1-.59z"/><path class="cls-24" d="M20.41 27.63l.68-.37-.68-.36-.67.36.67.37z"/><path d="M20.41 27.65l-.69-.38.69-.38.7.38zm-.65-.39l.65.36.66-.36-.66-.35z"/><path class="cls-1" d="M15.71 26.93a.18.18 0 0 1-.19.19.19.19 0 0 1-.19-.19.2.2 0 0 1 .19-.19.19.19 0 0 1 .19.19z"/><path d="M15.52 27.13a.2.2 0 0 1-.14-.06.17.17 0 0 1-.06-.14.2.2 0 0 1 .2-.2.17.17 0 0 1 .14.06.2.2 0 0 1 .06.14.2.2 0 0 1-.05.14.2.2 0 0 1-.15.06zm0-.38a.18.18 0 0 0-.18.18.19.19 0 0 0 .05.13.17.17 0 0 0 .13.05.19.19 0 0 0 .13-.05.15.15 0 0 0 0-.13.17.17 0 0 0 0-.13.19.19 0 0 0-.13-.05z"/><path class="cls-1" d="M15.71 27.5a.18.18 0 0 1-.19.19.19.19 0 0 1-.19-.19.19.19 0 0 1 .19-.19.18.18 0 0 1 .19.19z"/><path d="M15.52 27.7a.2.2 0 0 1-.14-.06.18.18 0 0 1-.06-.14.2.2 0 0 1 .2-.2.2.2 0 0 1 .2.2.2.2 0 0 1-.2.2zm0-.38a.18.18 0 0 0-.18.18.17.17 0 0 0 .18.18.18.18 0 0 0 .18-.18.18.18 0 0 0-.18-.18z"/><path class="cls-1" d="M18.93 26.93a.19.19 0 0 1-.19.19.19.19 0 0 1-.2-.19.2.2 0 0 1 .19-.19.2.2 0 0 1 .2.19z"/><path d="M18.73 27.13a.2.2 0 0 1-.14-.06.17.17 0 0 1-.06-.14.2.2 0 0 1 .2-.2.2.2 0 0 1 .21.2.2.2 0 0 1-.2.2zm0-.38a.18.18 0 0 0-.18.18.16.16 0 0 0 .06.13.18.18 0 0 0 .12.05.18.18 0 0 0 .18-.18.19.19 0 0 0-.18-.18z"/><path class="cls-1" d="M18.93 27.5a.19.19 0 0 1-.19.19.19.19 0 0 1-.2-.19.19.19 0 0 1 .19-.19.19.19 0 0 1 .2.19z"/><path d="M18.73 27.7a.2.2 0 0 1 0-.4.21.21 0 0 1 .21.2.2.2 0 0 1-.2.2zm0-.38a.18.18 0 0 0 0 .36.18.18 0 0 0 .18-.18.18.18 0 0 0-.06-.13.19.19 0 0 0-.12-.05z"/><path class="cls-1" d="M22.21 26.93a.18.18 0 0 1-.19.19.19.19 0 0 1-.19-.19.19.19 0 0 1 .19-.19.18.18 0 0 1 .19.19z"/><path d="M22 27.13a.2.2 0 0 1-.14-.06.17.17 0 0 1-.06-.14.21.21 0 0 1 .2-.2.18.18 0 0 1 .14.06.2.2 0 0 1 .06.14.21.21 0 0 1-.2.2zm0-.38a.17.17 0 0 0-.18.18.19.19 0 0 0 .05.13.21.21 0 0 0 .13.05.17.17 0 0 0 .18-.18.17.17 0 0 0-.18-.18z"/><path class="cls-1" d="M22.21 27.5a.18.18 0 0 1-.19.19.19.19 0 0 1-.19-.19.19.19 0 0 1 .19-.19.18.18 0 0 1 .19.19z"/><path d="M22 27.7a.2.2 0 0 1-.2-.2.18.18 0 0 1 .06-.14.2.2 0 0 1 .14-.06.21.21 0 0 1 .2.2.2.2 0 0 1-.06.14.18.18 0 0 1-.14.06zm0-.38a.17.17 0 0 0-.18.18.18.18 0 0 0 .18.18.19.19 0 0 0 .13-.05.21.21 0 0 0 .05-.13.19.19 0 0 0-.05-.13.21.21 0 0 0-.13-.05z"/><path class="cls-1" d="M25.44 26.93a.19.19 0 0 1-.19.19.19.19 0 0 1-.2-.19.19.19 0 0 1 .19-.19.19.19 0 0 1 .2.19z"/><path d="M25.25 27.13a.2.2 0 0 1-.15-.06.18.18 0 0 1-.06-.14.2.2 0 0 1 .2-.2.2.2 0 0 1 .2.2.21.21 0 0 1-.2.2zm0-.38a.18.18 0 0 0-.18.18.16.16 0 0 0 .06.13.19.19 0 0 0 .13.05.18.18 0 0 0 .12-.05.18.18 0 0 0 .06-.13.18.18 0 0 0-.19-.18z"/><path class="cls-1" d="M25.44 27.5a.2.2 0 0 1-.19.19.2.2 0 0 1-.2-.19.19.19 0 0 1 .19-.19.19.19 0 0 1 .2.19z"/><path d="M25.25 27.7a.2.2 0 0 1-.21-.2.2.2 0 0 1 .2-.2.2.2 0 0 1 .2.2.2.2 0 0 1-.2.2zm0-.38a.18.18 0 0 0-.18.18.19.19 0 0 0 .19.18.18.18 0 0 0 .18-.18.18.18 0 0 0-.19-.18z"/><path class="cls-25" d="M13.75 27.26h.18v-.42l-.17.42zm6.01 0h.66v-.36l-.65.35z"/><path class="cls-26" d="M20.42 27.27v.35l.65-.36z"/><path class="cls-25" d="M26.2 27.26h.69v-.42l-.69.41z"/><path class="cls-26" d="M27.06 27.26h-.17v.41l.17-.42zm-12.46.01h-.67v.41l.68-.41z"/><path class="cls-8" d="M14 28.29h12.85a.11.11 0 0 0 .07 0 .08.08 0 0 0 0-.06H13.86a.11.11 0 0 0 .12.1zm0-1.78h12.85a.09.09 0 0 0 .07 0 .09.09 0 0 0 0-.06H13.86a.11.11 0 0 0 .12.1z"/><path class="cls-7" d="M24.45 27.69c.16 0 .29-.19.29-.44s-.13-.44-.29-.44h-1.71c-.16 0-.28.2-.28.44s.12.44.28.44z"/><path d="M22.74 27.7c-.16 0-.29-.2-.29-.45s.13-.45.29-.45h1.71c.16 0 .29.2.29.45s-.13.45-.29.45h-1.71zm1.71-.88h-1.71c-.15 0-.27.19-.27.43s.12.43.27.43h1.72c.14 0 .27-.19.27-.43s-.13-.43-.28-.43z"/><path class="cls-12" d="M24.3 27.52a.25.25 0 0 0 .23-.27.25.25 0 0 0-.23-.25h-1.41a.25.25 0 0 0-.23.26.25.25 0 0 0 .23.27z"/><path d="M24.3 27.54h-1.41a.27.27 0 0 1-.25-.29.29.29 0 0 1 .07-.2.25.25 0 0 1 .18-.08h1.41a.25.25 0 0 1 .18.08.29.29 0 0 1 .07.2.27.27 0 0 1-.25.29zm0-.53h-1.41a.18.18 0 0 0-.15.07.27.27 0 0 0-.06.17.23.23 0 0 0 .21.25h1.41a.23.23 0 0 0 .21-.25.27.27 0 0 0-.06-.17.18.18 0 0 0-.15-.08z"/><path class="cls-27" d="M23 27.08a.18.18 0 0 0-.2.17.12.12 0 0 0 .07.12c0-.31.13-.29 1.41-.29z"/><path class="cls-28" d="M22.84 27.39a.17.17 0 0 1-.08-.14.2.2 0 0 1 .22-.19h1.28H24c-.7 0-1 0-1.09.09a.28.28 0 0 0 0 .18zm.16-.29a.16.16 0 0 0-.18.15v.09a.26.26 0 0 1 .05-.17.27.27 0 0 1 .13-.07z"/><path class="cls-7" d="M18 27.69c.16 0 .28-.19.28-.44s-.12-.44-.28-.44h-1.73c-.16 0-.29.2-.29.44s.13.44.29.44z"/><path d="M16.27 27.7c-.16 0-.29-.2-.29-.45s.13-.45.29-.45H18c.16 0 .29.2.29.45s-.13.45-.29.45h-1.73zm1.73-.88h-1.73c-.15 0-.28.19-.28.43s.13.43.28.43H18c.15 0 .27-.19.27-.43s-.14-.43-.27-.43z"/><path class="cls-12" d="M17.83 27.52a.25.25 0 0 0 .23-.27.25.25 0 0 0-.23-.26h-1.41a.25.25 0 0 0-.23.26.25.25 0 0 0 .23.27z"/><path d="M17.83 27.54h-1.41a.28.28 0 0 1-.26-.29.3.3 0 0 1 .08-.2.25.25 0 0 1 .18-.08h1.41a.25.25 0 0 1 .18.08.29.29 0 0 1 .07.2.27.27 0 0 1-.25.29zm0-.53h-1.41a.18.18 0 0 0-.15.07.27.27 0 0 0-.06.17.23.23 0 0 0 .21.25h1.41a.23.23 0 0 0 .21-.25.27.27 0 0 0-.06-.17.18.18 0 0 0-.15-.08z"/><path class="cls-27" d="M16.5 27.08a.18.18 0 0 0-.2.17.12.12 0 0 0 .07.12c0-.31.13-.29 1.41-.29z"/><path class="cls-28" d="M16.37 27.39a.15.15 0 0 1-.08-.14.2.2 0 0 1 .22-.19h1.28-.27c-.71 0-1 0-1.09.09a.28.28 0 0 0 0 .18zm.13-.29c-.09 0-.19 0-.19.15a.12.12 0 0 0 0 .09.22.22 0 0 1 0-.17.27.27 0 0 1 .16-.07z"/><path class="cls-1" d="M16.36 27.19zM14 24.69a.31.31 0 0 1 .19-.4.33.33 0 0 1 .44.18.32.32 0 0 1-.19.42.35.35 0 0 1-.44-.18"/><path d="M14.34 24.93a.36.36 0 0 1-.33-.22.32.32 0 0 1 .21-.43.36.36 0 0 1 .46.19.39.39 0 0 1 0 .26.35.35 0 0 1-.21.18.28.28 0 0 1-.13.02zm-.29-.23a.33.33 0 0 0 .41.17.3.3 0 0 0 .18-.17.28.28 0 0 0 0-.22.31.31 0 0 0-.41-.17.3.3 0 0 0-.19.38z"/><path class="cls-23" d="M14.67 24.87c.05.06-.24.19-.26.12s-.08 0-.12-.08a.78.78 0 0 0 .36-.19v.15z"/><path d="M14.45 25h-.08a.83.83 0 0 0 .35-.18.09.09 0 0 1 0 .09v.1a.37.37 0 0 1-.27-.01zm-.13-.11h.07a.36.36 0 0 0 .22-.11.07.07 0 0 1 0-.09 1 1 0 0 1-.29.23z"/><path d="M14.4 25a.51.51 0 0 0 .24-.13.58.58 0 0 1-.24.13zm8.6-.32a.64.64 0 0 1-.2 0 .61.61 0 0 0 .27 0z"/><path class="cls-1" d="M18.15 24.29a.34.34 0 0 0-.36-.3.33.33 0 0 0-.32.35.33.33 0 0 0 .36.3.34.34 0 0 0 .32-.35z"/><path class="cls-29" d="M17.81 24.66a.34.34 0 0 1-.24-.09.35.35 0 0 1-.12-.23.36.36 0 0 1 .33-.37.37.37 0 0 1 .27.09.35.35 0 0 1 .12.23.36.36 0 0 1-.34.37zm0-.65a.31.31 0 0 0-.3.33.3.3 0 0 0 .1.2.31.31 0 0 0 .24.08.31.31 0 0 0 .3-.33.31.31 0 0 0-.32-.28zm.32.28z"/><path class="cls-23" d="M18 24.68c0 .07-.29.12-.28.05s-.08 0-.09-.12a.87.87 0 0 0 .4-.08c0 .09-.07.07 0 .15z"/><path d="M17.83 24.78h-.07a.08.08 0 0 1-.06-.08.93.93 0 0 0 .39-.08.08.08 0 0 1 0 .09v.05a.36.36 0 0 1-.26.02zm-.15-.15s.05 0 0 .07a.34.34 0 0 0 .24 0v-.08a.06.06 0 0 0 0-.05 1.06 1.06 0 0 1-.24.06z"/><path d="M17.76 24.69a.72.72 0 0 0 .27-.05.49.49 0 0 1-.27.05z"/></g></svg>