<svg id="Layer_1" data-name="Layer 1" xmlns="http://www.w3.org/2000/svg" xmlns:xlink="http://www.w3.org/1999/xlink" viewBox="0 0 170 60"><defs><style>.cls-1{fill:none;}.cls-2{fill:#191818;}.cls-3{clip-path:url(#clip-path);}.cls-4{clip-path:url(#clip-path-2);}.cls-5{fill:#df3729;}.cls-6{fill:#2a3588;}.cls-7{clip-path:url(#clip-path-3);}.cls-8{fill:#fff;}.cls-9{fill:#007c4c;}.cls-10{clip-path:url(#clip-path-4);}.cls-11{fill:#fcb614;}.cls-12{fill:#efefef;}.cls-13{fill:#00743c;}.cls-14{fill:#935624;}.cls-15{fill:#d7b657;}.cls-16{fill:#f39e1e;}.cls-17{fill:#ea7724;}.cls-18{fill:#c09f5b;}.cls-19{fill:#672212;}.cls-20{clip-path:url(#clip-path-5);}.cls-21{fill:#212221;}.cls-22{fill:#b67f2b;}.cls-23{fill:#8f6b36;}.cls-24{fill:#005a2f;}.cls-25{fill:#de2b26;}</style><clipPath id="clip-path"><path class="cls-1" d="M3.6,43.75l13.17,7.56a7.25,7.25,0,0,0,7.21,0l13.17-7.56a7.15,7.15,0,0,0,3.6-6.2V22.43a7.16,7.16,0,0,0-3.6-6.2L24,8.68a7.25,7.25,0,0,0-7.21,0L3.6,16.23A7.16,7.16,0,0,0,0,22.43V37.55A7.15,7.15,0,0,0,3.6,43.75Z"/></clipPath><clipPath id="clip-path-2"><rect class="cls-1" x="-12.07" y="7.58" width="67.78" height="46.41"/></clipPath><clipPath id="clip-path-3"><rect class="cls-1" x="-8.99" y="7.11" width="59.8" height="46.37"/></clipPath><clipPath id="clip-path-4"><polyline class="cls-1" points="-8.99 7.11 20.91 30.3 -8.99 53.48"/></clipPath><clipPath id="clip-path-5"><path class="cls-1" d="M17.73,34.36a4.8,4.8,0,0,1,.36-1.82s2.44-.45,2.44-.46l2.53.47a4.74,4.74,0,0,1,.35,1.81,5.07,5.07,0,0,1-2.12,4.06,4.28,4.28,0,0,1-.36.27,2.66,2.66,0,0,1-.36.19,4.22,4.22,0,0,1-.41-.23,2,2,0,0,1-.31-.23,5.07,5.07,0,0,1-2.12-4.06"/></clipPath></defs><title>COZA_170x60px</title><path d="M114.19,46.36l.13-1h1l-.14,1Z"/><path d="M120.15,45.5a8.18,8.18,0,0,0,1,0,1.82,1.82,0,0,0,.55-.16A.59.59,0,0,0,122,45a1.71,1.71,0,0,0,.13-.4h1.14a3.93,3.93,0,0,1-.12.58,1.5,1.5,0,0,1-.21.46,1.1,1.1,0,0,1-.34.34,1.75,1.75,0,0,1-.55.23,5.14,5.14,0,0,1-.82.14c-.32,0-.71,0-1.16,0a10.69,10.69,0,0,1-1.38-.07,2.32,2.32,0,0,1-.87-.24.91.91,0,0,1-.44-.45,1.75,1.75,0,0,1-.13-.72c0-.15,0-.3,0-.46s0-.35.07-.54.1-.63.16-.89a2.59,2.59,0,0,1,.24-.65,1.59,1.59,0,0,1,.39-.46,1.81,1.81,0,0,1,.59-.29,3.88,3.88,0,0,1,.86-.16c.34,0,.74,0,1.2,0a10.62,10.62,0,0,1,1.4.07,2.56,2.56,0,0,1,.84.21.81.81,0,0,1,.4.37,1.27,1.27,0,0,1,.1.54,1.85,1.85,0,0,1,0,.23,2.46,2.46,0,0,1,0,.26H122.3a1.27,1.27,0,0,0,0-.35.35.35,0,0,0-.2-.23,1.45,1.45,0,0,0-.52-.13,7.69,7.69,0,0,0-1,0,6.11,6.11,0,0,0-1.08.07,1.11,1.11,0,0,0-.59.23.89.89,0,0,0-.28.47,7.12,7.12,0,0,0-.14.8c0,.16,0,.31-.06.43s0,.25,0,.35a.88.88,0,0,0,.07.39.51.51,0,0,0,.27.25,1.53,1.53,0,0,0,.52.12C119.52,45.49,119.8,45.5,120.15,45.5Z"/><path d="M127.88,46.41c-.6,0-1.09,0-1.47,0a2.82,2.82,0,0,1-.92-.22.89.89,0,0,1-.47-.42,1.61,1.61,0,0,1-.13-.71,4.26,4.26,0,0,1,0-.48c0-.18,0-.38.07-.59s.1-.65.16-.91a2.53,2.53,0,0,1,.24-.66,1.32,1.32,0,0,1,.38-.46,1.82,1.82,0,0,1,.61-.28,5.19,5.19,0,0,1,.92-.15c.36,0,.78,0,1.28,0s1.08,0,1.47.06a2.75,2.75,0,0,1,.91.22.92.92,0,0,1,.47.44,1.69,1.69,0,0,1,.13.72c0,.15,0,.31,0,.48s0,.37-.07.58-.11.64-.17.9a2,2,0,0,1-.24.66,1.35,1.35,0,0,1-.39.46,1.81,1.81,0,0,1-.61.27,4.26,4.26,0,0,1-.91.14C128.8,46.4,128.37,46.41,127.88,46.41Zm.13-.9a7.69,7.69,0,0,0,1.06-.06,1.67,1.67,0,0,0,.64-.19.89.89,0,0,0,.34-.38,2.19,2.19,0,0,0,.15-.6c0-.21.06-.38.07-.51s0-.23,0-.31a.59.59,0,0,0,0-.17.34.34,0,0,0,0-.1.86.86,0,0,0-.09-.41.65.65,0,0,0-.3-.26,2.18,2.18,0,0,0-.58-.13,7.86,7.86,0,0,0-.92,0,7.64,7.64,0,0,0-1.07.06,1.62,1.62,0,0,0-.64.19.76.76,0,0,0-.34.37,2.27,2.27,0,0,0-.15.61c0,.21,0,.38-.07.51s0,.23,0,.31,0,.13,0,.17v.1a.86.86,0,0,0,.08.41.55.55,0,0,0,.3.25,1.82,1.82,0,0,0,.57.14A8.23,8.23,0,0,0,128,45.51Z"/><path d="M132.87,46.36l.13-1h1l-.13,1Z"/><path d="M135.52,46.36l.14-1,1.55-1,1.1-.75.75-.49.47-.31.3-.2.23-.14-.24,0h-3.55l.13-1h5.41l-.13.92-1.56,1.07-1.11.76-.75.51-.48.33-.32.2-.23.14h4.1l-.13,1Z"/><path d="M147.73,45.35h-3.22l-.69,1h-1.27l3.35-4.85h1.53l1.93,4.85h-1.23Zm-.34-.87-.35-.91c-.09-.24-.17-.44-.23-.61s-.11-.29-.14-.4l-.1-.3c-.06.09-.12.2-.19.3l-.26.41-.41.6c-.16.25-.37.55-.62.91Z"/><path d="M51.63,45.5a8,8,0,0,0,1,0,1.9,1.9,0,0,0,.56-.16.59.59,0,0,0,.27-.27,2.35,2.35,0,0,0,.13-.4H54.7a5.68,5.68,0,0,1-.13.58,1.29,1.29,0,0,1-.2.46A1.22,1.22,0,0,1,54,46a1.82,1.82,0,0,1-.56.23,4.94,4.94,0,0,1-.82.14c-.32,0-.7,0-1.15,0a10.49,10.49,0,0,1-1.38-.07,2.26,2.26,0,0,1-.87-.24,1,1,0,0,1-.45-.45,1.94,1.94,0,0,1-.12-.72c0-.15,0-.3,0-.46s0-.35.07-.54a8,8,0,0,1,.16-.89,2.59,2.59,0,0,1,.24-.65,1.45,1.45,0,0,1,.39-.46,1.71,1.71,0,0,1,.59-.29,3.67,3.67,0,0,1,.86-.16c.33,0,.73,0,1.2,0a10.72,10.72,0,0,1,1.4.07,2.56,2.56,0,0,1,.83.21.77.77,0,0,1,.4.37,1.27,1.27,0,0,1,.11.54c0,.07,0,.15,0,.23a2.11,2.11,0,0,0,0,.26H53.77a1,1,0,0,0,0-.35.32.32,0,0,0-.2-.23,1.34,1.34,0,0,0-.52-.13,7.69,7.69,0,0,0-1,0,6.11,6.11,0,0,0-1.08.07,1.11,1.11,0,0,0-.58.23.83.83,0,0,0-.28.47c-.05.21-.1.47-.15.8,0,.16,0,.31,0,.43a2.36,2.36,0,0,0,0,.35.87.87,0,0,0,.08.39.49.49,0,0,0,.26.25,1.66,1.66,0,0,0,.53.12C51,45.49,51.28,45.5,51.63,45.5Z"/><path d="M61.12,45.35H57.9l-.69,1H55.94l3.35-4.85h1.53l1.94,4.85H61.52Zm-.34-.87c-.14-.36-.25-.67-.35-.91s-.17-.44-.23-.61-.1-.29-.14-.4a2.43,2.43,0,0,1-.09-.3l-.19.3-.27.41-.41.6c-.16.25-.37.55-.61.91Z"/><path d="M70.32,42.32a1.73,1.73,0,0,1,0,.32,2.82,2.82,0,0,1-.07.31H69.1s0-.08,0-.12a.61.61,0,0,0,0-.15.23.23,0,0,0-.06-.16.41.41,0,0,0-.2-.1l-.44-.06H67l-.5,0a1,1,0,0,0-.31.09.48.48,0,0,0-.17.13.37.37,0,0,0-.08.18.75.75,0,0,0,0,.21.32.32,0,0,0,0,.14.28.28,0,0,0,.09.1.52.52,0,0,0,.18.07l.27.06a4.65,4.65,0,0,0,.61.06l.81,0a9.62,9.62,0,0,1,1.07.08,2.51,2.51,0,0,1,.69.16A.77.77,0,0,1,70,44a.93.93,0,0,1,.11.5,3.48,3.48,0,0,1,0,.55,1.92,1.92,0,0,1-.19.54,1.1,1.1,0,0,1-.35.39,1.69,1.69,0,0,1-.54.24,5,5,0,0,1-.8.13c-.3,0-.67,0-1.09,0a12.69,12.69,0,0,1-1.35,0,3.57,3.57,0,0,1-.85-.16.85.85,0,0,1-.44-.31.89.89,0,0,1-.13-.47,2.21,2.21,0,0,1,.09-.62h1.17a1,1,0,0,0,0,.14c0,.05,0,.1,0,.16a.33.33,0,0,0,.06.21.53.53,0,0,0,.25.12,2.6,2.6,0,0,0,.51.07H67.9a2.7,2.7,0,0,0,.47,0,1.3,1.3,0,0,0,.29-.08.56.56,0,0,0,.16-.14,1.18,1.18,0,0,0,.07-.2,1.8,1.8,0,0,0,0-.22.38.38,0,0,0,0-.16.3.3,0,0,0-.15-.11,1.26,1.26,0,0,0-.28-.07l-.47,0-.46,0-.51,0-.63,0c-.22,0-.45-.05-.66-.09a1.41,1.41,0,0,1-.74-.32.92.92,0,0,1-.27-.73,3.51,3.51,0,0,1,0-.55,1.75,1.75,0,0,1,.2-.51,1,1,0,0,1,.34-.34,1.69,1.69,0,0,1,.54-.22,5.3,5.3,0,0,1,.83-.12c.32,0,.7,0,1.15,0s.89,0,1.22,0a3.23,3.23,0,0,1,.77.14.78.78,0,0,1,.4.27A.76.76,0,0,1,70.32,42.32Z"/><path d="M71.62,46.36l.68-4.85h1.2l-.68,4.85Z"/><path d="M79.51,46.36l-2.18-2.58-.59-.71-.46-.57c0,.13,0,.25,0,.37s0,.25,0,.38,0,.29-.06.45,0,.35-.08.55l-.29,2.11H74.65l.68-4.85h1.58l2,2.41c.14.17.26.32.37.44l.28.35.23.28.19.24c0-.09,0-.18,0-.28s0-.2,0-.32,0-.26.06-.43,0-.35.08-.57l.29-2.12h1.15l-.67,4.85Z"/><path d="M85.87,46.41c-.59,0-1.08,0-1.47,0a2.82,2.82,0,0,1-.92-.22.93.93,0,0,1-.47-.42,1.77,1.77,0,0,1-.13-.71,4.26,4.26,0,0,1,0-.48c0-.18,0-.38.08-.59a8.22,8.22,0,0,1,.15-.91,2.53,2.53,0,0,1,.24-.66,1.44,1.44,0,0,1,.38-.46,1.87,1.87,0,0,1,.62-.28,4.92,4.92,0,0,1,.91-.15c.36,0,.79,0,1.28,0A14.71,14.71,0,0,1,88,41.5a2.89,2.89,0,0,1,.92.22,1,1,0,0,1,.47.44,1.85,1.85,0,0,1,.13.72,4.12,4.12,0,0,1,0,.48c0,.18,0,.37-.07.58s-.11.64-.16.9a2.53,2.53,0,0,1-.24.66,1.47,1.47,0,0,1-.39.46,1.87,1.87,0,0,1-.62.27,4.26,4.26,0,0,1-.9.14C86.79,46.4,86.37,46.41,85.87,46.41Zm.13-.9a7.59,7.59,0,0,0,1.06-.06,1.62,1.62,0,0,0,.64-.19.83.83,0,0,0,.34-.38,2.58,2.58,0,0,0,.16-.6c0-.21,0-.38.07-.51s0-.23,0-.31,0-.13,0-.17v-.1a.86.86,0,0,0-.09-.41.56.56,0,0,0-.3-.26,2.19,2.19,0,0,0-.57-.13,8,8,0,0,0-.92,0,7.8,7.8,0,0,0-1.08.06,1.67,1.67,0,0,0-.64.19.76.76,0,0,0-.34.37,3.4,3.4,0,0,0-.15.61c0,.21,0,.38-.07.51s0,.23,0,.31,0,.13,0,.17v.1a1,1,0,0,0,.08.41.63.63,0,0,0,.3.25,1.82,1.82,0,0,0,.58.14A7.93,7.93,0,0,0,86,45.51Z"/><path d="M95.83,46.36l.28-2H92.35l-.28,2H90.86l.68-4.85h1.21l-.26,1.86h3.75l.26-1.86h1.22L97,46.36Z"/><path d="M98.86,46.36l.68-4.85h5.17l-.14,1h-4l-.11.85h4l-.13.92h-4l-.15,1.11h4.06l-.13,1Z"/><path d="M110.86,46.36l-1.65-1.87-2.16,1.87h-1.56l3.07-2.53-2.27-2.32h1.54l1.54,1.68,2.09-1.68H113l-2.88,2.34,2.31,2.51Z"/><path class="cls-2" d="M153.79,17.54l.46-3.31h-1.76l.11-.83h4.55l-.11.83h-1.76l-.47,3.31Zm9.72,0,.26-1.88c.09-.63.14-1,.2-1.32-.2.29-.45.62-.81,1.12l-1.54,2.08h-1l-.89-2.06c-.21-.48-.33-.75-.48-1.14,0,.43-.09.73-.17,1.32l-.26,1.88h-.95l.57-4.14h1.43l1.38,3.28,2.38-3.28H165l-.58,4.14Z"/><polygon class="cls-2" points="73.27 36.2 74.58 26.68 57.1 26.68 55.79 36.2 50.14 36.2 53.3 13.63 58.94 13.63 57.73 22.31 75.2 22.31 76.42 13.63 82.07 13.63 78.92 36.2 73.27 36.2"/><polygon class="cls-2" points="84.75 36.2 87.9 13.63 111.98 13.63 111.32 18.27 92.53 18.27 92 22.22 110.46 22.22 109.84 26.47 91.38 26.47 90.66 31.65 109.57 31.65 108.94 36.2 84.75 36.2"/><polygon class="cls-2" points="139.15 36.2 131.4 27.46 121.29 36.2 113.99 36.2 128.38 24.34 117.7 13.48 124.94 13.48 132.15 21.38 141.94 13.48 148.94 13.48 135.41 24.43 146.25 36.2 139.15 36.2"/><g class="cls-3"><g class="cls-4"><rect class="cls-5" x="-8.99" y="7.11" width="59.8" height="23.18"/><rect class="cls-6" x="-8.99" y="30.3" width="59.8" height="23.18"/><g id="X"><path d="M-9,7.11,20.91,30.3-9,53.48"/></g><g class="cls-7"><g id="W"><polygon class="cls-8" points="-7.4 55.53 -10.59 51.43 16.67 30.3 -10.59 9.16 -7.4 5.06 21.8 27.7 50.81 27.7 50.81 32.89 21.8 32.89 -7.4 55.53"/></g><g id="W-2" data-name="W"><polygon class="cls-9" points="-8.09 54.65 -9.9 52.31 18.48 30.3 -9.9 8.29 -8.09 5.94 21.41 28.81 50.81 28.81 50.81 31.78 21.41 31.78 -8.09 54.65"/></g><g class="cls-10"><g id="X-2" data-name="X"><polygon class="cls-11" points="-6.72 56.41 -11.27 50.55 14.85 30.3 -11.27 10.04 -6.72 4.18 26.96 30.3 -6.72 56.41"/></g><g id="X-3" data-name="X"><polygon class="cls-9" points="-7.63 55.24 -10.36 51.72 17.27 30.3 -10.36 8.87 -7.63 5.36 24.54 30.3 -7.63 55.24"/></g></g></g></g></g><path class="cls-8" d="M.17,34.2V25.92H1.22a1.14,1.14,0,0,1,1.14,1.14v6A1.14,1.14,0,0,1,1.22,34.2Z"/><path class="cls-2" d="M1.22,26a1.09,1.09,0,0,1,1.09,1.09v6a1.08,1.08,0,0,1-1.09,1.08h-1V26h1m0-.11H.12v8.4h1.1a1.2,1.2,0,0,0,1.2-1.2v-6a1.2,1.2,0,0,0-1.2-1.2Z"/><path class="cls-8" d="M7.57,16.43a1.15,1.15,0,0,1-1-.56L6,14.92l7.17-4.15.55.94a1.15,1.15,0,0,1,.13.87,1.12,1.12,0,0,1-.54.7l-5.19,3a1.16,1.16,0,0,1-.57.15Z"/><path class="cls-2" d="M13.17,10.85l.53.89a1.08,1.08,0,0,1-.4,1.49l-5.19,3a1.06,1.06,0,0,1-.54.14,1.08,1.08,0,0,1-.94-.53l-.53-.9,7.07-4.09m0-.15-.09.05L6,14.84l-.1.06L6,15l.53.9a1.22,1.22,0,0,0,1,.59,1.28,1.28,0,0,0,.6-.16l5.19-3a1.2,1.2,0,0,0,.43-1.65l-.52-.89-.06-.09Z"/><path class="cls-8" d="M32.37,15.87a1.16,1.16,0,0,1-.57-.15l-5.19-3a1.12,1.12,0,0,1-.54-.7,1.15,1.15,0,0,1,.13-.87l.55-.93,7.17,4.14-.56,1a1.15,1.15,0,0,1-1,.56Z"/><path class="cls-2" d="M26.77,10.29l7.07,4.09-.53.9a1.09,1.09,0,0,1-.94.54,1.08,1.08,0,0,1-.54-.15l-5.19-3a1.08,1.08,0,0,1-.4-1.49l.53-.89m0-.15-.06.09-.52.89a1.2,1.2,0,0,0,.43,1.65l5.19,3a1.28,1.28,0,0,0,.6.16,1.22,1.22,0,0,0,1-.59l.53-.9.06-.1-.1-.06-7.08-4.09-.09,0Z"/><path class="cls-8" d="M39.69,34.2a1.14,1.14,0,0,1-1.14-1.14v-6a1.14,1.14,0,0,1,1.14-1.14h1V34.2Z"/><path class="cls-2" d="M40.68,26v8.17h-1a1.08,1.08,0,0,1-1.09-1.08v-6A1.09,1.09,0,0,1,39.69,26h1m.11-.11h-1.1a1.2,1.2,0,0,0-1.2,1.2v6a1.2,1.2,0,0,0,1.2,1.2h1.1v-8.4Z"/><path class="cls-8" d="M6.11,45.13l.51-.86a1.14,1.14,0,0,1,1.55-.41l5.2,3a1.14,1.14,0,0,1,.53.7,1.1,1.1,0,0,1-.12.87l-.5.85Z"/><path class="cls-2" d="M7.6,43.76a1.11,1.11,0,0,1,.55.15l5.19,3a1.08,1.08,0,0,1,.39,1.49l-.47.8L6.18,45.11l.49-.81a1.07,1.07,0,0,1,.93-.54m0-.11a1.18,1.18,0,0,0-1,.59l-.48.82L6,45.15l.1.06L13.2,49.3l.1.05.06-.09.47-.8a1.23,1.23,0,0,0,.13-.92,1.18,1.18,0,0,0-.56-.73l-5.2-3a1.15,1.15,0,0,0-.6-.16Z"/><path class="cls-8" d="M26.16,49a1.11,1.11,0,0,1-.12-.87,1.14,1.14,0,0,1,.53-.7l5.2-3a1.12,1.12,0,0,1,1.55.41l.51.86-7.17,4.15Z"/><path class="cls-2" d="M32.34,44.32a1.07,1.07,0,0,1,.93.54l.49.81-7.08,4.09-.47-.8a1.08,1.08,0,0,1,.39-1.49l5.19-3a1.11,1.11,0,0,1,.55-.15m0-.11a1.15,1.15,0,0,0-.6.16l-5.2,3a1.18,1.18,0,0,0-.56.73,1.24,1.24,0,0,0,.13.92l.47.8.06.09.1,0,7.07-4.09.1-.06-.06-.1-.48-.81a1.18,1.18,0,0,0-1-.59Z"/><g id="_Group_" data-name="&lt;Group&gt;"><path class="cls-2" d="M20.45,7.73A7,7,0,0,1,24,8.67L37.18,16.3a7,7,0,0,1,3.5,6.06V37.64a7,7,0,0,1-3.5,6.06L24,51.33a7,7,0,0,1-7,0L3.73,43.7a7,7,0,0,1-3.5-6.06V22.36a7,7,0,0,1,3.5-6.06L17,8.67a7,7,0,0,1,3.5-.94m0-.23a7.19,7.19,0,0,0-3.61,1L3.61,16.1A7.25,7.25,0,0,0,0,22.36V37.64A7.25,7.25,0,0,0,3.61,43.9l13.23,7.63a7.22,7.22,0,0,0,7.23,0L37.29,43.9a7.24,7.24,0,0,0,3.62-6.26V22.36a7.24,7.24,0,0,0-3.62-6.26L24.07,8.47a7.2,7.2,0,0,0-3.62-1Z"/></g><g id="_Group_2" data-name="&lt;Group&gt;"><path class="cls-2" d="M20.45,47.15l-.62,0a.12.12,0,0,1-.1-.13.11.11,0,0,1,.13-.1,5.87,5.87,0,0,0,1.11,0,.12.12,0,0,1,.13.1.11.11,0,0,1-.11.12A4.89,4.89,0,0,1,20.45,47.15Zm1.65-.25a.11.11,0,0,1-.11-.08.12.12,0,0,1,.07-.15,5.15,5.15,0,0,0,1-.44.11.11,0,1,1,.12.19,5.35,5.35,0,0,1-1.07.47Zm-3.37,0h0a5.37,5.37,0,0,1-1-.45l-.05,0a.11.11,0,0,1,0-.15.1.1,0,0,1,.15,0l.05,0a5,5,0,0,0,1,.44.11.11,0,0,1,.07.14A.12.12,0,0,1,18.73,46.87Zm5.4-1a.11.11,0,0,1-.1-.06.11.11,0,0,1,0-.15l1-.57a.11.11,0,0,1,.11.19l-1,.57Zm-7.42,0-.06,0-1-.57a.11.11,0,0,1-.05-.15.12.12,0,0,1,.16-.05l1,.58a.11.11,0,0,1,0,.15A.11.11,0,0,1,16.71,45.83Zm9.39-1.1a.11.11,0,0,1-.1-.06.11.11,0,0,1,0-.15L27,44a.11.11,0,0,1,.16,0,.11.11,0,0,1,0,.15l-1,.57Zm-11.37,0-.05,0-1-.57a.11.11,0,0,1,0-.15.11.11,0,0,1,.15-.05l1,.57a.12.12,0,0,1-.06.22Zm13.35-1.1a.11.11,0,0,1-.1-.06.11.11,0,0,1,0-.15l1-.57a.1.1,0,0,1,.15,0,.1.1,0,0,1,0,.15l-1,.57Zm-15.32,0-.06,0-1-.57a.11.11,0,0,1-.05-.15.12.12,0,0,1,.16-.05l1,.57a.13.13,0,0,1,0,.16A.11.11,0,0,1,12.76,43.55Zm17.29-1.1a.11.11,0,0,1-.1-.06.11.11,0,0,1,0-.15l1-.57a.11.11,0,0,1,.16,0,.11.11,0,0,1,0,.15l-1,.57Zm-19.27,0,0,0-1-.57a.11.11,0,0,1,0-.15.11.11,0,0,1,.15-.05l1,.57a.12.12,0,0,1-.06.22ZM32,41.31a.11.11,0,0,1-.1-.06.1.1,0,0,1,0-.15l1-.57a.1.1,0,0,1,.15,0,.1.1,0,0,1,0,.15l-1,.57Zm-23.22,0-.06,0-1-.57-.17-.1a.1.1,0,0,1,0-.15.1.1,0,0,1,.15,0l.16.09,1,.57a.13.13,0,0,1,0,.16A.11.11,0,0,1,8.81,41.27Zm25.13-1.19a.09.09,0,0,1-.08,0,.11.11,0,0,1,0-.16,5.83,5.83,0,0,0,.76-.81.11.11,0,1,1,.18.13,5.31,5.31,0,0,1-.79.85A.11.11,0,0,1,33.94,40.08ZM6.77,39.9a.11.11,0,0,1-.08,0A5.8,5.8,0,0,1,5.94,39a.12.12,0,0,1,0-.16.11.11,0,0,1,.16,0,5.34,5.34,0,0,0,.71.85.12.12,0,0,1,0,.17A.11.11,0,0,1,6.77,39.9ZM35.3,38.27h0a.11.11,0,0,1,0-.15,5.49,5.49,0,0,0,.35-1.06.12.12,0,0,1,.23.05,5.3,5.3,0,0,1-.38,1.1A.1.1,0,0,1,35.3,38.27ZM5.5,38A.1.1,0,0,1,5.4,38a4.79,4.79,0,0,1-.32-1.12.11.11,0,0,1,.22,0,5.79,5.79,0,0,0,.31,1.08.11.11,0,0,1-.07.14Zm30.3-2h0a.11.11,0,0,1-.12-.11V34.81a.12.12,0,0,1,.12-.12.11.11,0,0,1,.11.12V36A.11.11,0,0,1,35.8,36.06ZM5.11,35.79A.11.11,0,0,1,5,35.68V34.54a.11.11,0,1,1,.22,0v1.14A.11.11,0,0,1,5.11,35.79Zm30.69-2a.11.11,0,0,1-.12-.11V32.53a.12.12,0,0,1,.12-.12.11.11,0,0,1,.11.12v1.14A.11.11,0,0,1,35.8,33.78ZM5.11,33.51A.11.11,0,0,1,5,33.4V32.26a.11.11,0,1,1,.22,0V33.4A.11.11,0,0,1,5.11,33.51Zm30.69-2a.11.11,0,0,1-.12-.11V30.25a.12.12,0,0,1,.12-.12.11.11,0,0,1,.11.12v1.14A.11.11,0,0,1,35.8,31.5ZM5.11,31.23A.11.11,0,0,1,5,31.12V30a.11.11,0,1,1,.22,0v1.14A.11.11,0,0,1,5.11,31.23Zm30.69-2a.11.11,0,0,1-.12-.11V28a.12.12,0,0,1,.12-.12.11.11,0,0,1,.11.12v1.14A.11.11,0,0,1,35.8,29.22ZM5.11,29A.11.11,0,0,1,5,28.84V27.7a.11.11,0,1,1,.22,0v1.14A.11.11,0,0,1,5.11,29Zm30.69-2a.11.11,0,0,1-.12-.11V25.69a.12.12,0,0,1,.12-.12.11.11,0,0,1,.11.12v1.14A.11.11,0,0,1,35.8,26.94ZM5.11,26.67A.11.11,0,0,1,5,26.56V25.42a.11.11,0,1,1,.22,0v1.14A.11.11,0,0,1,5.11,26.67Zm30.69-2a.11.11,0,0,1-.12-.11v-.12a5.63,5.63,0,0,0-.09-1,.11.11,0,0,1,.22,0,5.16,5.16,0,0,1,.1,1v.12A.11.11,0,0,1,35.8,24.66ZM5.11,24.39h0A.11.11,0,0,1,5,24.27a5.58,5.58,0,0,1,.15-1.15A.11.11,0,0,1,5.29,23a.12.12,0,0,1,.09.14,5.11,5.11,0,0,0-.15,1.1A.12.12,0,0,1,5.11,24.39Zm30.26-1.95a.11.11,0,0,1-.1-.07,5.82,5.82,0,0,0-.54-1,.11.11,0,0,1,0-.16.11.11,0,0,1,.15,0,5.11,5.11,0,0,1,.57,1,.13.13,0,0,1-.06.15ZM5.65,22.19H5.6a.11.11,0,0,1,0-.15,5.08,5.08,0,0,1,.61-1,.11.11,0,0,1,.18.14,4.87,4.87,0,0,0-.59.95A.11.11,0,0,1,5.65,22.19Zm28.43-1.61a.11.11,0,0,1-.08,0,5.32,5.32,0,0,0-.89-.67.11.11,0,0,1,0-.16.12.12,0,0,1,.16,0,5.72,5.72,0,0,1,.92.7.11.11,0,0,1,0,.16A.09.09,0,0,1,34.08,20.58ZM7,20.4a.1.1,0,0,1-.09,0,.11.11,0,0,1,0-.16,5.07,5.07,0,0,1,.81-.56l.15-.09a.1.1,0,0,1,.15,0,.11.11,0,0,1,0,.16l-.15.08a5.91,5.91,0,0,0-.77.54A.11.11,0,0,1,7,20.4Zm25.14-1.07-.06,0-1-.57a.12.12,0,0,1,.12-.2l1,.57a.12.12,0,0,1,0,.16A.13.13,0,0,1,32.18,19.33ZM9,19.19a.12.12,0,0,1-.1-.06A.11.11,0,0,1,8.91,19l1-.57a.11.11,0,1,1,.12.19l-1,.57A.07.07,0,0,1,9,19.19Zm21.24-1h-.05l-1-.57a.12.12,0,0,1,0-.16.11.11,0,0,1,.15,0l1,.57a.11.11,0,0,1,0,.16A.12.12,0,0,1,30.2,18.18Zm-19.26-.13a.11.11,0,0,1-.1-.06.11.11,0,0,1,0-.15l1-.57a.1.1,0,0,1,.15,0,.1.1,0,0,1,0,.15L11,18S11,18.05,10.94,18.05Zm17.29-1h-.06l-1-.57a.12.12,0,0,1,.12-.2l1,.57a.11.11,0,0,1-.06.21Zm-15.32-.13a.12.12,0,0,1-.1-.06.11.11,0,0,1,0-.15l1-.57a.11.11,0,1,1,.12.19l-1,.57Zm13.34-1H26.2l-1-.57a.12.12,0,0,1,0-.16.11.11,0,0,1,.15,0l1,.57a.11.11,0,0,1,0,.16A.12.12,0,0,1,26.25,15.9Zm-11.36-.13a.11.11,0,0,1-.1-.06.11.11,0,0,1,0-.15l1-.57A.1.1,0,0,1,16,15a.1.1,0,0,1,0,.15l-1,.57Zm9.39-1h-.06l-1-.57a.12.12,0,0,1,0-.16.12.12,0,0,1,.16,0l1,.57a.11.11,0,0,1-.06.21Zm-7.42-.13a.12.12,0,0,1-.1-.06.11.11,0,0,1,0-.15l.88-.51.11-.06a.11.11,0,0,1,.15,0,.12.12,0,0,1,0,.16l-.11.06-.88.5Zm5.4-.92h0a5.09,5.09,0,0,0-1.09-.26.12.12,0,0,1,0-.23,5.32,5.32,0,0,1,1.13.27.12.12,0,0,1,.07.15A.12.12,0,0,1,22.26,13.71Zm-3.36-.09a.12.12,0,0,1-.11-.08.11.11,0,0,1,.08-.14A6.21,6.21,0,0,1,20,13.18a.12.12,0,0,1,.12.11.11.11,0,0,1-.1.12,5.21,5.21,0,0,0-1.1.21Z"/></g><g id="_Group_3" data-name="&lt;Group&gt;"><path class="cls-12" d="M8.88,39.71,18,45a5,5,0,0,0,5,0L32,39.71a5,5,0,0,0,2.48-4.3V24.91A5,5,0,0,0,32,20.61l-9.09-5.25a5,5,0,0,0-5,0L8.88,20.61a5,5,0,0,0-2.49,4.3v10.5A5,5,0,0,0,8.88,39.71Z"/><path class="cls-2" d="M20.45,45.74a5.15,5.15,0,0,1-2.54-.68L8.82,39.81a5.09,5.09,0,0,1-2.54-4.4V24.91a5.08,5.08,0,0,1,2.54-4.4l9.09-5.25a5.09,5.09,0,0,1,5.09,0l9.09,5.25a5.1,5.1,0,0,1,2.54,4.4v10.5a5.11,5.11,0,0,1-2.54,4.4L23,45.06A5.15,5.15,0,0,1,20.45,45.74Zm0-30.93a4.75,4.75,0,0,0-2.42.65L8.94,20.71a4.85,4.85,0,0,0-2.43,4.2v10.5a4.85,4.85,0,0,0,2.43,4.2L18,44.86a4.88,4.88,0,0,0,4.85,0L32,39.61a4.85,4.85,0,0,0,2.43-4.2V24.91A4.85,4.85,0,0,0,32,20.71l-9.09-5.25A4.79,4.79,0,0,0,20.45,14.81Z"/></g><g id="path2580"><path class="cls-8" d="M21.53,33.64h0c-.11,0-.24,0-.25,0s.07.1.18.13l.09,0h0s0-.11,0-.14Zm.75,0,.07,0c.09,0,.17-.11.15-.15s-.2,0-.23.16h0"/></g><g id="path2582"><path class="cls-8" d="M19.61,33.64h0c.11,0,.24,0,.25,0s-.07.1-.18.13l-.09,0h0s0-.11,0-.14Zm-.75,0-.07,0c-.09,0-.17-.11-.15-.15s.2,0,.23.16h0"/></g><g id="path2584"><path class="cls-13" d="M16.34,37.77a5,5,0,0,0,8.45,0l0,0h0a2.59,2.59,0,0,0,1,.17,2.87,2.87,0,0,0,.8-.1,6.8,6.8,0,0,1-6.05,4,6.78,6.78,0,0,1-6.05-4,2.87,2.87,0,0,0,.8.1,2.59,2.59,0,0,0,1-.17h0l0,0"/></g><g id="path2586"><path class="cls-14" d="M19.4,28a5.66,5.66,0,0,1-.8-.15c-.66-.16-.47-.51-.47-.51-.83-.32-.66-.63-.66-.63-.75-.21-.65-.47-.65-.47A1.18,1.18,0,0,1,16.1,26,.1.1,0,0,0,16,26a6.3,6.3,0,0,1-2.39-.12l-.87-.17a.81.81,0,0,0,.11.27,1.34,1.34,0,0,0,.11.17.76.76,0,0,0,.39.2,4.79,4.79,0,0,0,1.31,0,.47.47,0,0,0,.05.1,12.31,12.31,0,0,1-1.46.12,1.19,1.19,0,0,0,.35.36,2.38,2.38,0,0,0,1.31-.18l.06.09a9.67,9.67,0,0,1-1.22.3.58.58,0,0,0,.41.29,2.89,2.89,0,0,0,1.08-.29l.07.07a7.22,7.22,0,0,1-1.06.39.68.68,0,0,0,.48.26,2.92,2.92,0,0,0,.9-.36l.08.06a4.9,4.9,0,0,1-.89.44.73.73,0,0,0,.35.22c.35.1.69-.15,1-.35l.08.05a3.49,3.49,0,0,1-.77.48,1.11,1.11,0,0,0,.41.18,1.43,1.43,0,0,0,.9-.37l.08,0a8.33,8.33,0,0,1-.72.47.82.82,0,0,0,.41.15,1.34,1.34,0,0,0,.88-.39l.09,0a8.18,8.18,0,0,1-.69.48.8.8,0,0,0,.51.15,2,2,0,0,0,1.15-.46L19.4,28"/></g><g id="path2588"><path class="cls-14" d="M22.62,28.7a2,2,0,0,0,1.14.46.8.8,0,0,0,.51-.15,8.18,8.18,0,0,1-.69-.48l.1,0a1.3,1.3,0,0,0,.87.39.78.78,0,0,0,.41-.15,8.33,8.33,0,0,1-.72-.47l.08,0a1.43,1.43,0,0,0,.9.37,1.16,1.16,0,0,0,.42-.18,3.64,3.64,0,0,1-.78-.48l.09-.05c.3.2.64.45,1,.35a.73.73,0,0,0,.35-.22,4.9,4.9,0,0,1-.89-.44l.08-.06a2.92,2.92,0,0,0,.9.36.68.68,0,0,0,.48-.26,7.22,7.22,0,0,1-1.06-.39l.07-.07a2.89,2.89,0,0,0,1.08.29.58.58,0,0,0,.41-.29,9.67,9.67,0,0,1-1.22-.3l.06-.09a2.4,2.4,0,0,0,1.32.18,1.15,1.15,0,0,0,.34-.36,12.31,12.31,0,0,1-1.46-.12.47.47,0,0,0,.05-.1,4.79,4.79,0,0,0,1.31,0,.73.73,0,0,0,.39-.2,1.34,1.34,0,0,0,.11-.17.81.81,0,0,0,.11-.27l-.87.17a6.33,6.33,0,0,1-2.39.12.07.07,0,0,0-.06,0,1.25,1.25,0,0,1-.73.23s.1.26-.65.47c0,0,.17.31-.66.63,0,0,.19.35-.46.51-.12,0-.45.1-.9.16l1,.67"/></g><g id="path2590"><path class="cls-15" d="M19.48,27.94c-.22,0-.49-.07-.76-.13-.69-.13-.46-.51-.46-.51-.92-.37-.66-.64-.66-.64-.89-.24-.64-.49-.64-.49-.56,0-.93-.24-.92-.35a1.34,1.34,0,0,1,.38-.86c.24-.26.29-.29.42-.07a5.84,5.84,0,0,0,2.33,2.39l.25.09a.41.41,0,0,0,.29,0l-.23.57"/></g><g id="path2592"><path class="cls-16" d="M18.27,23.64l1.26-.46.18-.48-3.84,0,2.4.91"/></g><g id="path2594"><path class="cls-17" d="M18.86,23.34l.85-.64-3.84,0,3,.61"/></g><g id="path2596"><path class="cls-16" d="M19.25,23.24l1.58-.12.45-.19-2.53-2.59.5,2.9"/></g><g id="path2598"><path class="cls-17" d="M20.19,23.12l1.09-.19-2.53-2.59,1.44,2.78"/></g><g id="path2600"><path class="cls-16" d="M18.82,23.4,20.58,23l.23-.2L17,21.12l1.87,2.28"/></g><g id="path2602"><path class="cls-17" d="M19.73,23.19l1.08-.33L17,21.12l2.78,2.07"/></g><g id="path2604"><path class="cls-17" d="M22.86,23.64l-1.26-.46-.18-.48,3.85,0-2.41.91"/></g><g id="path2606"><path class="cls-16" d="M22.27,23.34l-.85-.64,3.85,0-3,.61"/></g><g id="path2608"><path class="cls-17" d="M21.88,23.24l-1.58-.12-.45-.19,2.53-2.59-.5,2.9"/></g><g id="path2610"><path class="cls-16" d="M20.94,23.12l-1.09-.19,2.53-2.59-1.44,2.78"/></g><g id="path2612"><path class="cls-17" d="M22.31,23.4,20.55,23l-.23-.2,3.86-1.7L22.31,23.4"/></g><g id="path2614"><path class="cls-16" d="M21.4,23.19l-1.08-.33,3.86-1.74L21.4,23.19"/></g><g id="path2616"><path class="cls-8" d="M16,39.08l.06.06.45-.39-.08-.08Zm-.14.1.08.09L16,39.2l-.08-.09-.08.07"/></g><g id="path2618"><path class="cls-8" d="M16.17,39.53l.08.07.26-.28h0l-.14.39.09.08.14-.43.37-.14-.07-.07-.37.14h0l.24-.26L16.69,39l-.52.56"/></g><g id="path2620"><path class="cls-8" d="M16.7,40l.23.17L17,40.1,16.83,40l.16-.21.14.1.05-.07-.14-.1.15-.19.15.11.05-.07-.23-.18L16.7,40"/></g><g id="path2622"><path class="cls-8" d="M17.55,40.57l.25.13.05-.08-.17-.08.13-.23.15.08,0-.08-.15-.08L18,40l.16.08,0-.08-.25-.13-.36.68"/></g><g id="path2624"><path class="cls-8" d="M18.09,40.83l.11.05.05-.12-.11,0Zm.24-.6.12.05,0-.12-.11,0-.05.12"/></g><g id="path2626"><path class="cls-8" d="M18.81,41.09l.08,0,.43-.7-.09,0-.42.69"/></g><g id="path2628"><path class="cls-8" d="M19.4,41.23h.1l.16-.26.06.29.11,0-.1-.41.2-.35-.1,0-.14.26-.06-.28-.11,0,.1.39-.22.37"/></g><g id="path2630"><path class="cls-8" d="M20.14,41.32h.1l0-.19h.17l0,.2h.1l-.14-.77h-.12Zm.23-.65h0l.06.37H20.3l.07-.37"/></g><g id="path2632"><path class="cls-8" d="M20.9,41.31H21L21,41h0c.07,0,.08,0,.09.08v.17a.64.64,0,0,0,0,.07h.1a.34.34,0,0,1,0-.1l0-.16c0-.07,0-.11-.1-.11h0c.08,0,.09-.08.08-.18s0-.21-.19-.2l-.16,0Zm.05-.68H21c.07,0,.07,0,.08.12s0,.13-.08.14h0l0-.25"/></g><g id="path2634"><path class="cls-8" d="M21.6,41.23l.1,0-.07-.33h0c.07,0,.08,0,.1.08l0,.17a.16.16,0,0,0,0,.06l.1,0a.47.47,0,0,1,0-.09l0-.17c0-.07-.05-.1-.12-.09h0c.08-.05.08-.09.06-.19s-.06-.21-.21-.17l-.16,0Zm0-.68.05,0c.06,0,.07,0,.1.11s0,.13-.07.15h0l-.05-.25"/></g><g id="path2636"><path class="cls-8" d="M22.24,41.08l.1,0,0-.19.16-.06.09.18.1,0-.38-.68-.12,0Zm0-.7h0l.18.33-.13,0-.05-.38"/></g><g id="path2638"><path class="cls-8" d="M23.33,40.64l.08,0-.18-.8-.08.05.18.79"/></g><g id="path2640"><path class="cls-8" d="M23.83,40.35l.08-.05-.26-.77-.08,0,.26.77"/></g><g id="path2642"><path class="cls-8" d="M24.33,40l.08-.07-.25-.29h0l.38.18.09-.07-.41-.19-.09-.39-.09.07.1.37h0l-.23-.26-.08.06.5.59"/></g><g id="path2644"><path class="cls-8" d="M24.86,39.5l.19-.21L25,39.23l-.13.13-.19-.17.12-.13L24.73,39l-.12.13L24.43,39l.13-.13-.07-.06-.2.21.57.52"/></g><g id="path2646"><path class="cls-8" d="M22.2,36.51v0h0l-.21,0h0l0,0h0l.23,0Zm-1.51-2.88v0h0l.14-.09h0s0,0,0,0v0h0l-.13.09h0Zm0-.05h0l.12-.09h0l0,0h0l-.11.09h0Zm.95,1.67h0L22,35h0l0,0h0l-.35.23h0Zm-.35,1.31v0h0l.27-.06h0v0h0l-.24,0h0"/></g><g id="path2648"><path class="cls-8" d="M18.94,36.51v0h0l.21,0h0l0,0h0l-.23,0Zm1.51-2.88v0h0l-.14-.09h0s0,0,0,0v0h0l.13.09h0Zm0-.05h0l-.12-.09h0l0,0h0l.11.09h0Zm-.95,1.67h0L19.16,35h0l0,0h0l.34.23h0Zm.35,1.31v0h0l-.27-.06h0v0h0l.24,0h0"/></g><g id="path2650"><path class="cls-15" d="M24.89,37.51a8,8,0,0,0,.64-6.64,8.81,8.81,0,0,0-.7-1.52c0-.07-.19-.27-.09-.3s.22.14.28.21a7.89,7.89,0,0,1,1.39,2.48,8.34,8.34,0,0,1-.06,5.85C26.2,37.94,24.88,37.63,24.89,37.51Z"/><path class="cls-14" d="M25.89,37.76a2.93,2.93,0,0,1-.67-.09c-.16,0-.34-.11-.34-.16h0a7.57,7.57,0,0,0,1.05-3.2,7.8,7.8,0,0,0-.41-3.44,7.27,7.27,0,0,0-.7-1.51.09.09,0,0,0,0-.06c0-.07-.1-.17-.08-.22l0,0c.05,0,.24.16.28.22a8,8,0,0,1,1.4,2.48,8.35,8.35,0,0,1-.07,5.85C26.3,37.71,26.11,37.76,25.89,37.76Zm-1-.24s.13.09.33.14a2.75,2.75,0,0,0,.67.09h0c.17,0,.39,0,.45-.16a8.35,8.35,0,0,0,.06-5.85A8,8,0,0,0,25,29.26c-.06-.07-.21-.21-.27-.21h0a0,0,0,0,0,0,0c0,.05,0,.15.08.22l0,.05a8.92,8.92,0,0,1,.7,1.52,8.1,8.1,0,0,1,.41,3.44A7.61,7.61,0,0,1,24.89,37.52Z"/></g><g id="path2652"><path class="cls-18" d="M25.43,37.57a8.5,8.5,0,0,0,1.32-7,10.61,10.61,0,0,0-.62-1.8c0-.06-.15-.31-.07-.34s.22.17.28.26a8.92,8.92,0,0,1,1.27,2.94,7.91,7.91,0,0,1-.82,5.92C26.72,37.7,25.14,37.93,25.43,37.57Z"/><path class="cls-14" d="M25.75,37.76c-.15,0-.32,0-.35-.09s0-.06,0-.11a9.33,9.33,0,0,0,1.44-3.37A7.48,7.48,0,0,0,27,32.42a9.65,9.65,0,0,0-.26-1.88,10.28,10.28,0,0,0-.62-1.8h0a.6.6,0,0,1-.1-.31l0,0a.05.05,0,0,1,0,0c.06,0,.15.14.21.23l0,0a9,9,0,0,1,1.27,3,8.07,8.07,0,0,1,.16,3.11,8.34,8.34,0,0,1-1,2.82,1.89,1.89,0,0,1-.94.23Zm.34-9.37h0a0,0,0,0,0,0,0c0,.07.06.25.09.31h0a10.28,10.28,0,0,1,.61,1.8A8.33,8.33,0,0,1,27,32.42a8.17,8.17,0,0,1-.14,1.78,9.78,9.78,0,0,1-1.44,3.37h0a.11.11,0,0,0,0,.1c0,.07.19.09.45.08a1.86,1.86,0,0,0,.94-.23,8.21,8.21,0,0,0,1-2.81,8.49,8.49,0,0,0-.16-3.11,9.08,9.08,0,0,0-1.27-2.94l0-.05c-.06-.08-.15-.21-.22-.22Zm-.66,9.18Z"/></g><g id="path2654"><path class="cls-19" d="M20.53,31.84l2.73.49a4.84,4.84,0,0,1,.44,2,5.52,5.52,0,0,1-3.05,4.81l-.08,0-.08,0a5.52,5.52,0,0,1-3-4.81,5.13,5.13,0,0,1,.44-2s2.65-.47,2.65-.47"/></g><g id="path2656"><path class="cls-15" d="M17.73,34.36a4.8,4.8,0,0,1,.36-1.82s2.44-.45,2.44-.46l2.53.47a4.74,4.74,0,0,1,.35,1.81,5.07,5.07,0,0,1-2.12,4.06,4.28,4.28,0,0,1-.36.27,2.66,2.66,0,0,1-.36.19,4.22,4.22,0,0,1-.41-.23,2,2,0,0,1-.31-.23,5.07,5.07,0,0,1-2.12-4.06"/></g><g class="cls-20"><g id="path2666"><path class="cls-21" d="M25.15,43.87H14.86V28.44H25.15Zm-10.29,0H25.15V28.44H14.86Z"/></g></g><g id="path2668"><path class="cls-15" d="M16.25,37.51a8,8,0,0,1-.64-6.64,8.81,8.81,0,0,1,.7-1.52c0-.07.19-.27.08-.3s-.21.14-.27.21a7.89,7.89,0,0,0-1.39,2.48,8.34,8.34,0,0,0,.06,5.85C14.94,37.94,16.26,37.63,16.25,37.51Z"/><path class="cls-14" d="M15.25,37.76c-.22,0-.41,0-.46-.17a8.35,8.35,0,0,1-.07-5.85,8,8,0,0,1,1.4-2.48c0-.05.21-.22.27-.22h0l0,0c0,.05,0,.15-.08.22a.09.09,0,0,0,0,.06,7.27,7.27,0,0,0-.7,1.51,7.8,7.8,0,0,0-.41,3.44,7.57,7.57,0,0,0,1.05,3.2h0s0,.05-.1.08l-.24.08A2.93,2.93,0,0,1,15.25,37.76Zm1.14-8.71c-.06,0-.21.14-.27.21a8,8,0,0,0-1.39,2.48,8.35,8.35,0,0,0,.06,5.85c.06.13.28.16.45.16h0a2.61,2.61,0,0,0,.66-.09c.2,0,.34-.11.34-.14a7.61,7.61,0,0,1-1.05-3.21,8.1,8.1,0,0,1,.41-3.44,8.92,8.92,0,0,1,.7-1.52l0-.05c0-.07.1-.17.08-.22a0,0,0,0,0,0,0Z"/></g><g id="path2670"><path class="cls-18" d="M15.71,37.57a8.5,8.5,0,0,1-1.32-7,10.61,10.61,0,0,1,.62-1.8c0-.06.16-.31.07-.34s-.22.17-.28.26a8.92,8.92,0,0,0-1.27,2.94,7.91,7.91,0,0,0,.82,5.92C14.42,37.7,16,37.93,15.71,37.57Z"/><path class="cls-14" d="M15.39,37.76h-.1a1.89,1.89,0,0,1-.94-.23,8.34,8.34,0,0,1-1-2.82,8.07,8.07,0,0,1,.16-3.11,9,9,0,0,1,1.27-3l0,0c.06-.09.15-.22.21-.23a.05.05,0,0,1,0,0l0,0a.63.63,0,0,1-.1.31h0a10.28,10.28,0,0,0-.62,1.8,9.65,9.65,0,0,0-.26,1.88,7.48,7.48,0,0,0,.15,1.77,9.33,9.33,0,0,0,1.44,3.37s0,.08,0,.11S15.54,37.76,15.39,37.76Zm-.34-9.37h0c-.07,0-.16.14-.22.22l0,.05a9.08,9.08,0,0,0-1.27,2.94,8.49,8.49,0,0,0-.16,3.11,8.21,8.21,0,0,0,1,2.81,1.79,1.79,0,0,0,.94.23c.26,0,.41,0,.45-.08a.11.11,0,0,0,0-.1h0a9.78,9.78,0,0,1-1.44-3.37,8.17,8.17,0,0,1-.14-1.78,8.33,8.33,0,0,1,.26-1.88,10.85,10.85,0,0,1,.61-1.8h0c0-.07.12-.24.09-.31a0,0,0,0,0,0,0h0Z"/></g><g id="path2672"><path class="cls-21" d="M18.06,31.23s-.38,0-.45.06A8.61,8.61,0,0,1,16,30.77s1.51.25,2,.37.07.09.07.09"/></g><g id="path2674"><path class="cls-21" d="M18.11,31s-.38-.09-.41-.21a8.5,8.5,0,0,0-1.67,0s1.52.25,2,.29.09-.06.09-.06"/></g><g id="path2676"><path class="cls-22" d="M24.74,24.82a1.62,1.62,0,0,1,.46,1.09,7.06,7.06,0,0,0,1.6,0,7.3,7.3,0,0,0,1.59-.47c.17-.09.19-.19.28-.44s-.46-.07-1.09.18c-.41.17-.68.27-.84.32,0,0,0-.06,0-.09.43-.2,1.72-.74,1.95-.9s.15-.58.05-.6-1.13.61-2,1.11c0,0,0-.06,0-.09L28,24.15c1-.63.89-.5.82-.94s-.35,0-.35,0l-.31.26L26.7,24.6a.29.29,0,0,1,0-.09c.52-.44,1.36-1.17,1.53-1.34s.56-.39.33-.82c-.11-.19-.15-.31-.23-.28a2.84,2.84,0,0,1-.24.29,22.9,22.9,0,0,1-1.52,1.77,1,1,0,0,0,0-.1c.3-.32.58-.65.77-.89.89-1.17,1-1.27.87-1.53s-.31-.47-.37-.44a3.07,3.07,0,0,1-.55,1.07c-.46.69-.74,1.11-.94,1.39l-.09-.12a12.17,12.17,0,0,0,1.32-2.41c0-.22,0-.37-.35-.59a.71.71,0,0,0-.43-.13c.22.35-.06,1.12-.11,1.25a16.89,16.89,0,0,1-.72,1.53l-.1-.09a9.81,9.81,0,0,0,.65-1.67A1.13,1.13,0,0,0,25.88,20a14,14,0,0,1-1.4,4.61l0,0a1.83,1.83,0,0,1,.23.24"/></g><g id="path2678"><path class="cls-22" d="M16.4,24.82a1.62,1.62,0,0,0-.46,1.09,7.06,7.06,0,0,1-1.6,0,7.3,7.3,0,0,1-1.59-.47c-.17-.09-.19-.19-.28-.44s.46-.07,1.09.18c.41.17.68.27.84.32,0,0,0-.06,0-.09-.43-.2-1.72-.74-2-.9s-.15-.58,0-.6,1.13.61,2,1.11c0,0,0-.06,0-.09l-1.21-.75c-1-.63-.89-.5-.82-.94s.35,0,.35,0l.31.26,1.42,1.13a.29.29,0,0,0,0-.09c-.52-.44-1.36-1.17-1.53-1.34s-.56-.39-.33-.82c.11-.19.15-.31.23-.28a2.84,2.84,0,0,0,.24.29,22.9,22.9,0,0,0,1.52,1.77,1,1,0,0,1,0-.1c-.3-.32-.58-.65-.77-.89-.89-1.17-1-1.27-.87-1.53s.31-.47.37-.44a3.07,3.07,0,0,0,.55,1.07c.46.69.74,1.11.94,1.39l.09-.12a12.17,12.17,0,0,1-1.32-2.41c0-.22,0-.37.35-.59a.71.71,0,0,1,.43-.13c-.22.35.06,1.12.11,1.25a16.89,16.89,0,0,0,.72,1.53l.1-.09a9.81,9.81,0,0,1-.65-1.67A1.13,1.13,0,0,1,15.26,20a14,14,0,0,0,1.4,4.61l0,0a1.28,1.28,0,0,0-.24.24"/></g><g id="path2680"><path class="cls-19" d="M21,37.31h0a0,0,0,0,0,0,0v0h0l0,.05c-.06,0-.13.07-.24.15a0,0,0,0,0,0,.06s.1,0,.1,0a.69.69,0,0,1,.22-.07.17.17,0,0,0,.11-.06.37.37,0,0,1,0-.09h0l0,0s0,0,0,0h0v0h0l0,0a0,0,0,0,0,0,0h0s0,0,0,0,0,0,0,0,0,0,0,0c.11-.16.3-.47.24-.63v0h0l-.29.06h0a4,4,0,0,0-.13.46l0,.06h0s0,0,0,0a0,0,0,0,0,0,0s0,0,0,0h0a0,0,0,0,1,0,0h0s0,0,0,0a0,0,0,0,0,0,0h0S21,37.31,21,37.31Zm1.33-4s-.05-.08-.3-.1c0,0-.07,0-.05-.14a.12.12,0,0,1,.06-.09s.09,0,.11-.1v0a.16.16,0,0,0-.08-.16h0l0,0H22a0,0,0,0,0,0,0h0s0,0,0,0h-.05a0,0,0,0,1,0,0h0a0,0,0,0,0,0,0,0,0,0,0,0,0,0,0,0,0,0,1,0,0h0a0,0,0,0,0,0,0,0,0,0,0,0,0,0,.62.62,0,0,0,0,.09c0,.06,0,.07,0,.07a.24.24,0,0,0-.07.14h0a.15.15,0,0,0,.06.12h.08s0,0,0,0a.12.12,0,0,1,0,.1s0,0,0,0a.39.39,0,0,0-.35.18l-.06.07s0,0,0,0h.17s0,0,0,0v0h0a1.13,1.13,0,0,0-.19,0s-.17,0-.18.1,0,.05.06.1h0a.08.08,0,0,0,0,.05h0a.14.14,0,0,0,0,.06s0,0,0,0l0,0a1.45,1.45,0,0,0-.25-.29h0l-.14.09h0s0,0,0,0c.15.29.22.32.22.32a.3.3,0,0,0,.21.1c.07,0,.17-.1.24-.18l.07-.1h0a4.29,4.29,0,0,0,0,.9,1.83,1.83,0,0,0,.07.44,0,0,0,0,0,0,0l.35-.25h0s.1-.39.14-.62a4.26,4.26,0,0,1,.16-.56h0l.13,0,.11-.07a.2.2,0,0,0,.07-.12s0-.08-.14-.07h0Zm-1.79.14.06,0s0,0,0,0a.75.75,0,0,0,.09-.09s0-.06,0-.1-.06-.06-.1-.05l0,0h0a.08.08,0,0,0-.08,0s-.05,0,0,.1a.11.11,0,0,0,.05,0Zm1.72.28h0a1.1,1.1,0,0,0,0,.11,1.35,1.35,0,0,0,.18.27.25.25,0,0,1,0,.18c0,.08,0,.24,0,.24a1,1,0,0,0,.07.27h0l.13,0h0c0-.08,0-.28,0-.28a1.58,1.58,0,0,0-.1-.35.33.33,0,0,1,0-.13s0-.21,0-.21a.43.43,0,0,0-.08-.21h0a.35.35,0,0,1-.12.07Zm.37,1.15h0l0,0s0,.16.07.2a.16.16,0,0,0,.08,0,.14.14,0,0,0,.1-.06.06.06,0,0,0,0-.08.12.12,0,0,0,0,0,.07.07,0,0,1,0-.07s0,0,0,0,0,0,0,0,0,0,0,0-.05,0-.05,0ZM22,35l-.35.24s0,0,0,0a.55.55,0,0,1,0,.21,2.19,2.19,0,0,0-.17.4,1.86,1.86,0,0,0-.09.36v0s0,0,0,0l-.06.15h0l.23,0h0l0-.05a1.8,1.8,0,0,0,.14-.17,1,1,0,0,0,.17-.35s.12-.31.25-.35.23-.12.16-.28A.34.34,0,0,0,22.1,35S22,35,22,35Zm.2,1.4a.4.4,0,0,1,0-.16.85.85,0,0,0,0-.22,2.07,2.07,0,0,0-.12-.49h0c-.12,0-.23.32-.25.38v0a2.82,2.82,0,0,0,.1.31.36.36,0,0,1,0,.18h0l.2,0Zm-.57,1a.17.17,0,0,1-.11.1,1.75,1.75,0,0,0-.27.11c-.07,0,0,.08,0,.08s.18,0,.18,0a.54.54,0,0,0,.22-.05,3.72,3.72,0,0,0,.31-.35,1.08,1.08,0,0,0,.28-.75h0l-.26,0h0L21.8,37l-.17.45"/></g><g id="path2682"><path class="cls-19" d="M20.12,37.31h0a0,0,0,0,1,0,0v0h0l0,.05c.06,0,.13.07.24.15a0,0,0,0,1,0,.06s-.1,0-.1,0a.69.69,0,0,0-.22-.07.17.17,0,0,1-.11-.06.37.37,0,0,0,0-.09h0l0,0s0,0,0,0h0v0h0l0,0a0,0,0,0,1,0,0h0s0,0,0,0,0,0,0,0,0,0,0,0c-.11-.16-.3-.47-.24-.63v0h0l.29.06h0a4,4,0,0,1,.13.46.32.32,0,0,1,0,.06h0s0,0,0,0a0,0,0,0,1,0,0h0a0,0,0,0,0,0,0h0s0,0,0,0a0,0,0,0,1,0,0h0S20.11,37.31,20.12,37.31Zm-1.33-4s.05-.08.3-.1c0,0,.07,0,.05-.14s0,0-.07-.09a.18.18,0,0,1-.1-.1v0a.16.16,0,0,1,.08-.16h0s0,0,0,0h.05a0,0,0,0,1,0,0h0s0,0,0,0h.05a0,0,0,0,0,0,0h0a0,0,0,0,1,0,0,0,0,0,0,1,0,0,0,0,0,0,0,0,0h0a0,0,0,0,1,0,0,0,0,0,0,1,0,0,.62.62,0,0,1,0,.09c0,.06,0,.07,0,.07a.24.24,0,0,1,.07.14h0a.15.15,0,0,1-.06.12h-.08s0,0,0,0a.12.12,0,0,0,0,.1s0,0,0,0a.39.39,0,0,1,.35.18l.06.07s0,0,0,0H19.6v0h0a1.31,1.31,0,0,1,.19,0s.17,0,.18.1,0,.05-.06.1h0a.08.08,0,0,1,0,.05h0a.14.14,0,0,1,0,.06s0,0,0,0l0,0a1.45,1.45,0,0,1,.25-.29h0l.14.09h0s0,0,0,0c-.15.29-.22.32-.22.32a.3.3,0,0,1-.21.1c-.07,0-.17-.1-.24-.18l-.07-.1h0a4.29,4.29,0,0,1,0,.9,1.83,1.83,0,0,1-.07.44,0,0,0,0,1,0,0l-.35-.25h0s-.1-.39-.14-.62a4.26,4.26,0,0,0-.16-.56h0l-.13,0-.11-.07a.2.2,0,0,1-.07-.12s0-.08.14-.07h0Zm1.79.14-.06,0s0,0,0,0l-.09-.09s0-.06,0-.1.06-.06.1-.05l0,0h0a.08.08,0,0,1,.08,0s.05,0,0,.1a.07.07,0,0,1-.05,0Zm-1.72.28h0a1.1,1.1,0,0,1,0,.11,1.35,1.35,0,0,1-.18.27.25.25,0,0,0,0,.18c0,.08,0,.24,0,.24a1,1,0,0,1-.07.27h0l-.13,0h0c0-.08,0-.28,0-.28a1.58,1.58,0,0,1,.1-.35.33.33,0,0,0,0-.13s0-.21,0-.21a.43.43,0,0,1,.08-.21h0a.35.35,0,0,0,.12.07Zm-.37,1.15h0l0,0s0,.16-.07.2a.16.16,0,0,1-.08,0,.14.14,0,0,1-.1-.06.06.06,0,0,1,0-.08.12.12,0,0,1,0,0,.07.07,0,0,0,0-.07s0,0,0,0,0,0,0,0,0,0,0,0,0,0,0,0Zm.65.1.35.24s0,0,0,0a.38.38,0,0,0,0,.21,2.19,2.19,0,0,1,.17.4,1.86,1.86,0,0,1,.09.36v0s0,0,0,0l.06.15h0l-.23,0h0l0-.05a1.8,1.8,0,0,1-.14-.17,1,1,0,0,1-.17-.35s-.12-.31-.25-.35-.23-.12-.16-.28A.34.34,0,0,1,19,35S19.11,35,19.14,35Zm-.2,1.4a.4.4,0,0,0,0-.16.85.85,0,0,1,0-.22,2.07,2.07,0,0,1,.12-.49h0c.12,0,.23.32.25.38v0a2.82,2.82,0,0,1-.1.31.36.36,0,0,0,0,.18h0l-.2,0Zm.57,1a.17.17,0,0,0,.11.1,1.75,1.75,0,0,1,.27.11c.07,0,0,.08,0,.08s-.18,0-.18,0a.54.54,0,0,1-.22-.05,2.67,2.67,0,0,1-.31-.35,1.08,1.08,0,0,1-.28-.75h0l.25,0h0l.14.36.17.45"/></g><g id="path2684"><path class="cls-21" d="M23,31.26,18,32.15s-.1,0-.11-.07a.08.08,0,0,1,.07-.1l5.27-.91.09,0c.32-.09.33-.17.46-.39a.23.23,0,0,1,.22-.1c.25,0,.53.1.57.35s-.15.41-.42.52a.23.23,0,0,1-.24,0c-.2-.17-.23-.25-.57-.2h-.08l-.2,0"/></g><g id="path2686"><path class="cls-21" d="M18.33,31.29l0-.14,4.87.83a.09.09,0,1,1,0,.18l-4.86-.87"/></g><g id="path2688"><path class="cls-19" d="M20.49,24.83a4.35,4.35,0,0,0,.43.08c.12,0,.34,0,.5,0A1.9,1.9,0,0,1,22,25a3.8,3.8,0,0,0-.51,0c-.29,0-.32,0-.31.06s.09,0,.2,0h.4a2.15,2.15,0,0,1,.48.09,2.16,2.16,0,0,0-.65,0,1.63,1.63,0,0,0-.42.08l.61,0a1.75,1.75,0,0,1,.71.22,3.64,3.64,0,0,0-.79-.09,3.14,3.14,0,0,1-.7,0s-.05,0,0,0a.61.61,0,0,0,.19,0,3,3,0,0,1,.44.06,3.5,3.5,0,0,1,.64.2l.39.24a3,3,0,0,0-.75-.22c-.41-.05-.6-.1-.72-.11a1.53,1.53,0,0,1-.45-.13.36.36,0,0,0,.11-.26.34.34,0,0,0-.15-.29,1.31,1.31,0,0,0-.24-.09"/></g><g id="path2690"><path class="cls-23" d="M24,32.69c.06,0,.07,0,.08.07s.16.43.16.43l.24.25c.07.07.24.25.23.31s-.06.12-.12.12-.16-.09-.23-.2a2,2,0,0,1-.15-.28L24,32.75A.06.06,0,0,1,24,32.69Z"/><path class="cls-23" d="M24.58,33.87c-.06,0-.15-.07-.23-.2a1.3,1.3,0,0,1-.15-.28L24,32.75a.06.06,0,0,1,0-.06H24a.24.24,0,0,1,0,.07h0c0,.05.16.42.16.43l.24.25h0c.07.08.23.24.22.3S24.64,33.87,24.58,33.87ZM24,32.69a.06.06,0,0,0,0,.06l.25.64a.91.91,0,0,0,.14.28c.08.13.17.2.23.2s.1-.06.12-.12-.15-.22-.22-.3h0l-.24-.25s-.15-.38-.16-.43h0s0-.06,0-.06Z"/></g><g id="path2692"><path class="cls-23" d="M24.76,33.92c0,.06-.08.11,0,.2s.1.13.19.13.25-.17.3-.42a1.63,1.63,0,0,0,0-.35c0-.1,0-.47,0-.47s0,0-.05,0a0,0,0,0,0-.05,0s0,.38,0,.38,0,0,0,.08Z"/><path class="cls-23" d="M24.94,34.25c-.09,0-.12,0-.19-.13h0a.13.13,0,0,1,0-.19h0s.36-.39.41-.45,0-.08,0-.08,0-.36,0-.38,0,0,.05,0,.05,0,.05,0,0,.37,0,.47v.06a1.11,1.11,0,0,1,0,.29C25.19,34.08,25,34.25,24.94,34.25Zm-.17-.33h0a.13.13,0,0,0,0,.19h0c.07.09.1.13.19.13s.25-.17.3-.42a1.11,1.11,0,0,0,0-.29v-.06c0-.1,0-.46,0-.47s0,0-.05,0a0,0,0,0,0-.05,0s0,.38,0,.38,0,0,0,.08Z"/></g><g id="path2694"><path class="cls-23" d="M24.72,34.71s-.1.09,0,.18.08.15.17.16.27-.12.36-.36a1.36,1.36,0,0,0,.1-.34c0-.1.11-.46.11-.46s0,0,0-.06a.05.05,0,0,0-.06.05s-.08.37-.08.37,0,0,0,.08Z"/><path class="cls-23" d="M24.85,35.05h0c-.09,0-.11-.06-.17-.15h0a.13.13,0,0,1,0-.18h0l.47-.38s0-.08,0-.08.08-.35.08-.37a0,0,0,0,1,.06-.05s0,.06,0,.06-.08.36-.11.46,0,0,0,.06a1.26,1.26,0,0,1-.09.28A.51.51,0,0,1,24.85,35.05Zm-.13-.34h0a.13.13,0,0,0,0,.18h0c.06.09.08.14.17.15s.27-.12.36-.36a1.26,1.26,0,0,0,.09-.28s0,0,0-.06.11-.45.11-.46,0,0,0-.06a0,0,0,0,0-.06.05s-.08.36-.08.37,0,0,0,.08Z"/></g><g id="path2696"><path class="cls-23" d="M24.08,33.39c.06,0,.07,0,.08.07s.14.44.14.44l.23.27c.06.07.22.26.2.32a.13.13,0,0,1-.12.11c-.07,0-.15-.1-.22-.21a1.45,1.45,0,0,1-.13-.29c0-.08-.21-.65-.21-.65A.1.1,0,0,1,24.08,33.39Z"/><path class="cls-23" d="M24.61,34.6h0c-.06,0-.14-.08-.22-.21a1.38,1.38,0,0,1-.13-.29c0-.08-.21-.64-.21-.65a.1.1,0,0,1,0-.06h.05s0,0,0,.07h0a3.88,3.88,0,0,0,.14.44l.23.27h0c.07.08.22.25.2.31A.13.13,0,0,1,24.61,34.6Zm-.53-1.21a.1.1,0,0,0,0,.06s.19.57.21.65a1.38,1.38,0,0,0,.13.29c.08.13.16.21.22.21h0a.13.13,0,0,0,.12-.11c0-.06-.13-.23-.2-.31h0l-.23-.27a4.38,4.38,0,0,1-.14-.43h0s0-.06,0-.07Z"/></g><g id="path2698"><path class="cls-23" d="M24.13,34.06c.07,0,.07,0,.07.08l.08.45.2.29c.05.08.19.29.17.35a.14.14,0,0,1-.14.09c-.07,0-.14-.11-.19-.23a1.1,1.1,0,0,1-.09-.3c0-.09-.13-.68-.13-.68A0,0,0,0,1,24.13,34.06Z"/><path class="cls-23" d="M24.53,35.32h0c-.06,0-.13-.09-.19-.23a.89.89,0,0,1-.09-.3c0-.09-.13-.67-.13-.68a0,0,0,0,1,0,0h0a0,0,0,0,1,.05,0s0,0,0,.08h0l.08.45.2.29h0c.06.09.18.28.16.34A.14.14,0,0,1,24.53,35.32Zm-.4-1.26a0,0,0,0,0,0,0s.11.59.13.68a.89.89,0,0,0,.09.3c.06.14.13.22.19.23a.15.15,0,0,0,.14-.09c0-.06-.1-.25-.16-.34h0l-.2-.29-.08-.45h0s0-.07,0-.08A0,0,0,0,0,24.13,34.06Z"/></g><g id="path2700"><path class="cls-23" d="M24.65,35.49a.13.13,0,0,0-.06.18c.05.11.07.15.16.17s.28-.11.38-.34a1.22,1.22,0,0,0,.12-.34l.13-.45s0-.05,0-.06-.05,0-.06,0-.09.37-.09.37,0,0-.05.07Z"/><path class="cls-23" d="M24.77,35.84h0c-.09,0-.11-.06-.15-.16h0a.14.14,0,0,1,.06-.18h0l.49-.36c.06,0,.05-.07.05-.07s.09-.35.09-.37a.05.05,0,0,1,0,0h0s0,.06,0,.06l-.13.45s0,.05,0,.07a2.43,2.43,0,0,1-.11.27A.5.5,0,0,1,24.77,35.84Zm-.12-.35h0a.14.14,0,0,0-.06.18h0c0,.1.06.14.15.16h0a.5.5,0,0,0,.36-.34,1,1,0,0,0,.1-.27.64.64,0,0,0,0-.07l.13-.45s0-.05,0-.06h0s0,0,0,0-.09.36-.09.37,0,0-.05.07Z"/></g><g id="path2702"><path class="cls-23" d="M24.11,34.85c.06,0,.06,0,.06.09s0,.45,0,.45.13.22.17.31.18.29.15.35a.15.15,0,0,1-.15.09.42.42,0,0,1-.17-.25,1,1,0,0,1-.07-.31l-.08-.68S24.11,34.85,24.11,34.85Z"/><path class="cls-23" d="M24.42,36.14h0l0,0,0,0a.14.14,0,0,0,.15-.09s-.09-.25-.14-.34h0c0-.09-.17-.31-.17-.31s0-.4,0-.45h0s0-.06,0-.07h0s-.05,0,0,0l.08.68a1.11,1.11,0,0,0,.07.31.82.82,0,0,0,.11.21.76.76,0,0,1-.11-.21,1.11,1.11,0,0,1-.07-.31l-.08-.68s0,0,0,0h0s0,0,0,.07h0c0,.05,0,.45,0,.45s.13.22.17.31h0c.05.09.17.29.14.34A.15.15,0,0,1,24.42,36.14Z"/></g><g id="path2704"><path class="cls-23" d="M24.29,36.49a.14.14,0,0,0,.17.14.59.59,0,0,0,.3-.2,8,8,0,0,0,.44-.82s.05-.07,0-.09-.06,0-.07,0-.15.35-.18.4l-.44.34A1.09,1.09,0,0,0,24.29,36.49Z"/><path class="cls-23" d="M24.44,36.63a.19.19,0,0,1-.12,0,.11.11,0,0,1,0-.1h0a1.09,1.09,0,0,1,.22-.21l.44-.34a2.26,2.26,0,0,0,.12-.28l.06-.12h0s0,0,.06,0l0,0s0,.07,0,.07a9.07,9.07,0,0,1-.44.82.63.63,0,0,1-.3.2Zm-.15-.14a.12.12,0,0,0,0,.1.2.2,0,0,0,.13,0,.63.63,0,0,0,.3-.2,9.07,9.07,0,0,0,.44-.82s0,0,0-.07l0,0c-.05,0-.05,0-.06,0h0l-.06.12a2.26,2.26,0,0,1-.12.28l-.44.34A1.09,1.09,0,0,0,24.29,36.49Z"/></g><g id="path2706"><path class="cls-23" d="M24,37.07c0,.07.05.19.14.18a.71.71,0,0,0,.39-.22,3.88,3.88,0,0,0,.31-.39l.16-.2s0,0,0-.07a.07.07,0,0,0-.1,0l-.23.32a2.93,2.93,0,0,1-.42.18C24.11,37,24,37,24,37.07Z"/><path class="cls-23" d="M24.07,37.25a.09.09,0,0,1-.06,0,.2.2,0,0,1-.06-.15h0s.1-.09.25-.17l.15-.06.27-.12.23-.32a.07.07,0,0,1,.1,0s0,.07,0,.07l-.16.2-.07.09a2,2,0,0,1-.24.3.75.75,0,0,1-.39.22ZM24,37.07a.2.2,0,0,0,.06.15.11.11,0,0,0,.08,0,.75.75,0,0,0,.39-.22,2,2,0,0,0,.24-.3l.07-.09.16-.2s0,0,0-.07a.07.07,0,0,0-.1,0l-.23.32-.27.12-.15.06C24.15,36.93,24,37,24,37.07Z"/></g><g id="path2708"><path class="cls-23" d="M23.47,37.74c0,.08,0,.2.18.17a1,1,0,0,0,.44-.24c.09-.08.24-.25.31-.33a1.44,1.44,0,0,1,.16-.17s0,0,0-.06,0,0-.08,0a3.54,3.54,0,0,1-.28.29,2.35,2.35,0,0,1-.49.17A.62.62,0,0,0,23.47,37.74Z"/><path class="cls-23" d="M23.59,37.92a.13.13,0,0,1-.09,0s0-.1,0-.14h0a.57.57,0,0,1,.24-.15l.17-.05a1.35,1.35,0,0,0,.32-.12,1.12,1.12,0,0,0,.21-.22.45.45,0,0,1,.07-.07s.06,0,.08,0,0,0,0,0,0,0,0,0l-.16.17h0a3,3,0,0,1-.29.32h0a1.08,1.08,0,0,1-.43.23Zm-.11-.18a.14.14,0,0,0,0,.14.17.17,0,0,0,.15,0,1.08,1.08,0,0,0,.43-.23v0a2.16,2.16,0,0,0,.29-.31h0l.16-.17s0,0,0,0l0,0s0,0-.08,0a.45.45,0,0,0-.07.07,1.5,1.5,0,0,1-.2.22,1.69,1.69,0,0,1-.33.12l-.17.05A.52.52,0,0,0,23.48,37.74Z"/></g><g id="path2710"><path class="cls-23" d="M23.52,37.37a.12.12,0,0,0,.13.08c.08,0,.13,0,.16-.08a1.64,1.64,0,0,0-.07-.43.63.63,0,0,1,0-.26,1,1,0,0,0,.06-.19s0-.06-.07,0a2.79,2.79,0,0,0-.13.43,2.46,2.46,0,0,0-.07.33C23.51,37.28,23.52,37.37,23.52,37.37Z"/><path class="cls-23" d="M23.64,37.45a.11.11,0,0,1-.12-.08h0s0-.09,0-.14a2.33,2.33,0,0,1,0-.27l0-.06a2.79,2.79,0,0,1,.13-.43s0,0,.05,0,0,0,0,0a.38.38,0,0,1,0,.1l0,.09a.25.25,0,0,0,0,.17s0,0,0,.09a1.3,1.3,0,0,1,0,.13.76.76,0,0,1,0,.3c0,.05-.07.07-.16.08Zm-.12-.08a.11.11,0,0,0,.12.08h0c.09,0,.14,0,.16-.08a.76.76,0,0,0,0-.3,1.3,1.3,0,0,0,0-.13s0-.06,0-.09a.25.25,0,0,1,0-.17l0-.09a.38.38,0,0,0,0-.1s0,0,0,0,0,0-.05,0a2.79,2.79,0,0,0-.13.43l0,.06a2.33,2.33,0,0,0,0,.27C23.51,37.28,23.52,37.36,23.52,37.37Z"/></g><g id="path2712"><path class="cls-23" d="M24,36.84a.11.11,0,0,0,.15,0c.08,0,.12-.05.14-.11a2,2,0,0,0-.17-.4.58.58,0,0,1-.09-.25,1.42,1.42,0,0,0,0-.19s-.05-.06-.07,0a3.39,3.39,0,0,0,0,.47c0,.07,0,.28,0,.33S24,36.84,24,36.84Z"/><path class="cls-23" d="M24.06,36.89s-.06,0-.09,0h0s0-.09,0-.14a1.78,1.78,0,0,1,0-.26v-.07a3.32,3.32,0,0,1,0-.47s0,0,0,0,0,0,0,0a.33.33,0,0,1,0,.1.28.28,0,0,0,0,.09.37.37,0,0,0,.05.16.36.36,0,0,0,0,.09l.05.11a1.26,1.26,0,0,1,.12.29c0,.06-.05.09-.14.11Zm-.09,0a.12.12,0,0,0,.15,0c.09,0,.13-.05.14-.11a1.26,1.26,0,0,0-.12-.29l-.05-.11a.36.36,0,0,1,0-.09.37.37,0,0,1-.05-.16A.28.28,0,0,1,24,36a.33.33,0,0,0,0-.1s0,0,0,0,0,0,0,0a3.32,3.32,0,0,0,0,.47v.07a1.78,1.78,0,0,0,0,.26S24,36.83,24,36.84Z"/></g><g id="path2714"><path class="cls-23" d="M22.88,38.35c0,.07-.05.19.15.18a.94.94,0,0,0,.46-.19,2.42,2.42,0,0,0,.34-.28l.19-.15s0,0,0-.06-.05,0-.09,0a3.46,3.46,0,0,1-.31.26,3.51,3.51,0,0,1-.51.11A.8.8,0,0,0,22.88,38.35Z"/><path class="cls-23" d="M23,38.53c-.06,0-.1,0-.12,0a.14.14,0,0,1,0-.14h0a.7.7,0,0,1,.24-.12l.18,0a1.53,1.53,0,0,0,.33-.07,1.41,1.41,0,0,0,.24-.2l.07-.06s.06,0,.09,0a0,0,0,0,1,0,0l0,0-.19.15h0a2.06,2.06,0,0,1-.33.27h0a.89.89,0,0,1-.45.18Zm-.12-.18a.14.14,0,0,0,0,.14s.07,0,.15,0a.89.89,0,0,0,.45-.18h0a2.61,2.61,0,0,0,.33-.27h0l.19-.15,0,0a0,0,0,0,0,0,0s-.05,0-.09,0l-.07.06a1.41,1.41,0,0,1-.24.2,1.53,1.53,0,0,1-.33.07l-.18,0A.7.7,0,0,0,22.88,38.35Z"/></g><g id="path2716"><path class="cls-23" d="M23,38c0,.06,0,.09.11.11a.16.16,0,0,0,.17-.05,1.44,1.44,0,0,0,0-.44.65.65,0,0,1,0-.26,1.84,1.84,0,0,0,.1-.16s0-.07-.05-.06a2.5,2.5,0,0,0-.23.41c0,.07-.12.26-.13.31S23,38,23,38Z"/><path class="cls-23" d="M23.13,38.13h-.06c-.08,0-.11-.05-.11-.11h0s0-.09,0-.14a2.59,2.59,0,0,1,.1-.24l0-.07a2.5,2.5,0,0,1,.23-.41h0s0,0,0,0l-.05.09,0,.07a.44.44,0,0,0,0,.17v.22a.87.87,0,0,1,0,.31A.12.12,0,0,1,23.13,38.13ZM23,38c0,.06,0,.09.11.11s.14,0,.17-.05a.87.87,0,0,0,0-.31v-.22a.44.44,0,0,1,0-.17l0-.07.05-.09s0,0,0,0h0a2.14,2.14,0,0,0-.23.41l0,.07a2.59,2.59,0,0,0-.1.24S23,38,23,38Z"/></g><g id="path2718"><path class="cls-23" d="M22.45,38.56c0,.06,0,.12.1.13a.16.16,0,0,0,.18-.07,1.32,1.32,0,0,0,0-.43c0-.13,0-.2,0-.26l.1-.17a.05.05,0,0,0-.05-.06,2.61,2.61,0,0,0-.24.42,2.48,2.48,0,0,0-.13.3S22.45,38.56,22.45,38.56Z"/><path class="cls-23" d="M22.59,38.7h0c-.08,0-.09-.07-.1-.13h0s0-.09,0-.14a2.15,2.15,0,0,1,.11-.24l0-.06a3.13,3.13,0,0,1,.24-.42l0,0s0,0,0,0a.41.41,0,0,1-.05.09.35.35,0,0,0-.05.08.31.31,0,0,0,0,.17v.22a.73.73,0,0,1,0,.3A.16.16,0,0,1,22.59,38.7Zm-.14-.14c0,.06,0,.12.1.13a.16.16,0,0,0,.18-.07.73.73,0,0,0,0-.3V38.1a.31.31,0,0,1,0-.17.35.35,0,0,1,.05-.08.41.41,0,0,0,.05-.09s0,0,0,0l0,0a3,3,0,0,0-.24.42l0,.06a2.15,2.15,0,0,0-.11.24S22.45,38.56,22.45,38.56Z"/></g><g id="path2720"><path class="cls-23" d="M21,39.43a3.09,3.09,0,0,0,1.3-.37,4,4,0,0,0,.62-.33.11.11,0,0,0,0-.07,0,0,0,0,0-.07,0,.82.82,0,0,1-.25.14q-.15,0-.21,0a.65.65,0,0,1-.08-.33,3.38,3.38,0,0,1-.56.52C21.43,39.18,21,39.43,21,39.43Z"/><path class="cls-23" d="M21,39.43h0s.42-.25.76-.48a3,3,0,0,0,.56-.52.65.65,0,0,0,.08.33q.06.08.21,0a.78.78,0,0,0,.22-.12l0,0h.05l0,0a.11.11,0,0,1,0,.07,3.44,3.44,0,0,1-.62.33,4.16,4.16,0,0,1-1,.33A1.45,1.45,0,0,1,21,39.43Zm0,0a1.92,1.92,0,0,0,.34,0,4.16,4.16,0,0,0,1-.33,3.44,3.44,0,0,0,.62-.33.11.11,0,0,0,0-.07l0,0h-.05l0,0a.78.78,0,0,1-.22.12q-.15,0-.21,0a.65.65,0,0,1-.08-.33,3,3,0,0,1-.56.52C21.44,39.18,21,39.42,21,39.43Z"/></g><g id="path2722"><path class="cls-23" d="M24.53,32.12s0,0,0,0,.21,1.34.21,1.34-.25-.14-.28-.3a1.39,1.39,0,0,1,.08-.41s-.09-.63-.09-.63S24.5,32.12,24.53,32.12Z"/><path class="cls-23" d="M24.79,33.5s-.26-.14-.28-.3a.87.87,0,0,1,.06-.32.51.51,0,0,0,0-.09s-.09-.63-.09-.63,0,0,0,0h0s0,0,0,0S24.78,33.49,24.79,33.5Zm-.26-1.38s0,0,0,0,.09.58.09.63a.51.51,0,0,1,0,.09.87.87,0,0,0-.06.32c0,.16.27.3.28.3s-.21-1.32-.21-1.34S24.56,32.12,24.53,32.12Z"/></g><g id="path2724"><path class="cls-23" d="M24.7,32.15s.05,0,.05.06.08.52.08.52a3.27,3.27,0,0,1,.25.44.29.29,0,0,1-.08.24.3.3,0,0,1-.12.09l-.21-1.31S24.68,32.15,24.7,32.15Z"/><path class="cls-23" d="M24.88,33.5l-.21-1.31s0,0,0,0h0s.05,0,.05.06.08.52.08.52a3.27,3.27,0,0,1,.25.44.32.32,0,0,1-.08.24A.3.3,0,0,1,24.88,33.5Zm-.18-1.35s0,0,0,0l.21,1.31a.3.3,0,0,0,.12-.09.32.32,0,0,0,.08-.24,3.27,3.27,0,0,0-.25-.44s-.07-.5-.08-.52a.06.06,0,0,0-.05-.06Z"/></g><g id="path2726"><path class="cls-23" d="M17.2,32.69c-.06,0-.07,0-.08.07s-.16.43-.16.43l-.24.25c-.07.07-.24.25-.23.31s.06.12.13.12.15-.09.22-.2a1.3,1.3,0,0,0,.15-.28l.24-.64A.06.06,0,0,0,17.2,32.69Z"/><path class="cls-23" d="M16.62,33.87c-.08,0-.11-.07-.13-.12s.15-.22.22-.3h0l.24-.25s.15-.38.16-.43h0s0-.06,0-.07h0a.06.06,0,0,1,0,.06l-.24.64a1.11,1.11,0,0,1-.15.28C16.76,33.8,16.67,33.87,16.62,33.87Zm.55-1.19h0s0,0,0,.06h0c0,.05-.16.42-.16.43l-.24.25h0c-.07.08-.23.24-.22.3s.05.12.13.12.14-.07.22-.2a1.31,1.31,0,0,0,.15-.28l.24-.64a.06.06,0,0,0,0-.06Z"/></g><g id="path2728"><path class="cls-23" d="M16.43,33.92c0,.06.08.11,0,.2s-.09.13-.19.13-.25-.17-.3-.42a1.63,1.63,0,0,1,0-.35c0-.1,0-.47,0-.47a0,0,0,0,1,0,0s0,0,0,0,0,.38,0,.38,0,0,0,.08Z"/><path class="cls-23" d="M16.25,34.25c-.08,0-.25-.17-.3-.42a1.93,1.93,0,0,1,0-.29v-.06c0-.1,0-.46,0-.47a0,0,0,0,1,0,0A.05.05,0,0,1,16,33s0,.38,0,.38,0,0,0,.08.39.45.4.45h0a.13.13,0,0,1,0,.19h0C16.38,34.21,16.34,34.25,16.25,34.25ZM15.93,33a0,0,0,0,0,0,0s0,.37,0,.47v.06a1.93,1.93,0,0,0,0,.29c.05.25.22.42.3.42s.13,0,.19-.13h0a.13.13,0,0,0,0-.19h0s-.36-.39-.41-.45,0-.08,0-.08S16,33,16,33,16,33,15.93,33Z"/></g><g id="path2730"><path class="cls-23" d="M16.47,34.71c.05,0,.1.09.05.18s-.08.15-.17.16-.27-.12-.36-.36a1.36,1.36,0,0,1-.1-.34c0-.1-.11-.46-.11-.46s0,0,0-.06a.05.05,0,0,1,.06.05s.08.37.08.37,0,0,0,.08Z"/><path class="cls-23" d="M16.34,35.05a.51.51,0,0,1-.35-.36,1.26,1.26,0,0,1-.09-.28s0,0,0-.06-.11-.45-.11-.46,0,0,0-.06h0a0,0,0,0,1,0,0s.08.36.08.37,0,0,0,.08l.47.38h0a.13.13,0,0,1,0,.18h0c-.06.09-.08.14-.17.15Zm-.51-1.22h0s0,.06,0,.06.08.36.11.46a.15.15,0,0,1,0,.06,1.26,1.26,0,0,0,.09.28.51.51,0,0,0,.35.36h0c.09,0,.11-.06.17-.15h0a.13.13,0,0,0,0-.18h0L16,34.33c-.05,0,0-.08,0-.08s-.07-.35-.08-.37a0,0,0,0,0,0,0Z"/></g><g id="path2732"><path class="cls-23" d="M17.11,33.39c-.06,0-.07,0-.08.07s-.13.44-.13.44l-.23.27c-.07.07-.23.26-.21.32a.13.13,0,0,0,.12.11c.07,0,.15-.1.22-.21a1,1,0,0,0,.13-.29c0-.08.21-.65.21-.65A.1.1,0,0,0,17.11,33.39Z"/><path class="cls-23" d="M16.58,34.6a.13.13,0,0,1-.12-.11c0-.06.13-.23.2-.31h0a2.92,2.92,0,0,1,.23-.27s.12-.38.13-.44h0s0-.06,0-.07h.05a.1.1,0,0,1,0,.06s-.19.57-.21.65a1.38,1.38,0,0,1-.13.29c-.08.13-.16.21-.22.21Zm.5-1.21h0s0,0,0,.07h0c0,.05-.13.43-.13.43a2.92,2.92,0,0,0-.23.27h0c-.07.08-.22.25-.2.31a.13.13,0,0,0,.12.11h0c.06,0,.14-.08.22-.21a1.38,1.38,0,0,0,.13-.29c0-.08.21-.64.21-.65a.1.1,0,0,0,0-.06Z"/></g><g id="path2734"><path class="cls-23" d="M17.06,34.06c-.07,0-.07,0-.07.08l-.08.45-.2.29c-.05.08-.19.29-.17.35a.14.14,0,0,0,.14.09c.07,0,.14-.11.19-.23a1.17,1.17,0,0,0,.1-.3c0-.09.12-.68.12-.68A0,0,0,0,0,17.06,34.06Z"/><path class="cls-23" d="M16.67,35.32h0c.06,0,.13-.09.19-.23a1.48,1.48,0,0,0,.1-.3c0-.09.12-.67.12-.68a0,0,0,0,0,0,0,0,0,0,0,0,0,0s0,0,0,.08h0l-.08.45-.2.29h0c-.06.09-.19.28-.17.34a.26.26,0,0,0,.09.09.2.2,0,0,1-.09-.09c0-.06.11-.25.17-.34h0l.2-.29.08-.45h0s0-.07,0-.08a0,0,0,0,1,0,0h0a0,0,0,0,1,0,0s-.11.59-.12.68a1.48,1.48,0,0,1-.1.3c-.06.14-.13.22-.19.23Z"/></g><g id="path2736"><path class="cls-23" d="M16.54,35.49a.13.13,0,0,1,.06.18c-.05.11-.07.15-.16.17s-.28-.11-.38-.34a1.74,1.74,0,0,1-.12-.34l-.13-.45s0-.05,0-.06.05,0,.06,0,.09.37.09.37,0,0,.05.07Z"/><path class="cls-23" d="M16.42,35.84a.52.52,0,0,1-.36-.34,1.16,1.16,0,0,1-.1-.27.64.64,0,0,1,0-.07l-.13-.45s0-.05,0-.06h0a.05.05,0,0,1,0,0s.09.36.09.37,0,0,.05.07l.49.36h0a.14.14,0,0,1,.06.18h0c-.05.1-.07.14-.16.16Zm-.56-1.19h0s0,.06,0,.06l.13.45a.64.64,0,0,0,0,.07,1.16,1.16,0,0,0,.1.27.52.52,0,0,0,.36.34h0c.09,0,.11-.06.15-.16h0a.14.14,0,0,0-.06-.18h0l-.49-.36c-.06,0-.05-.07-.05-.07s-.09-.35-.09-.37a.05.05,0,0,0,0,0Z"/></g><g id="path2738"><path class="cls-23" d="M17.08,34.85c-.06,0-.06,0-.06.09s-.05.45-.05.45l-.17.31c-.05.08-.18.29-.15.35a.15.15,0,0,0,.15.09.42.42,0,0,0,.17-.25,1,1,0,0,0,.07-.31l.08-.68S17.08,34.85,17.08,34.85Z"/><path class="cls-23" d="M16.77,36.14a.14.14,0,0,1-.12-.09s.09-.25.14-.34h0l.17-.31s.05-.4.05-.45h0s0-.06,0-.07h0s.05,0,.05,0-.08.6-.09.68a1.11,1.11,0,0,1-.07.31.44.44,0,0,1-.17.25Zm.29-1.29h0s0,0,0,.07h0c0,.05-.05.45-.05.45l-.17.31h0c-.05.09-.16.29-.14.34a.16.16,0,0,0,.15.09.44.44,0,0,0,.17-.25,1.11,1.11,0,0,0,.07-.31l.08-.68s0,0,0,0Z"/></g><g id="path2740"><path class="cls-23" d="M16.9,36.49a.14.14,0,0,1-.17.14.53.53,0,0,1-.29-.2,6.72,6.72,0,0,1-.45-.82s-.05-.07,0-.09.06,0,.07,0,.15.35.19.4a5.42,5.42,0,0,0,.43.34A1.09,1.09,0,0,1,16.9,36.49Z"/><path class="cls-23" d="M16.75,36.63h0a.63.63,0,0,1-.3-.2,9.07,9.07,0,0,1-.44-.82s0,0,0-.07l0,0s.06,0,.07,0h0a.87.87,0,0,1,.06.13c.05.11.11.24.13.27a5.42,5.42,0,0,0,.43.34,1.09,1.09,0,0,1,.22.21h0a.11.11,0,0,1,0,.1A.19.19,0,0,1,16.75,36.63ZM16,35.51h0l0,0s0,.07,0,.07a7.42,7.42,0,0,0,.45.82.57.57,0,0,0,.29.2.25.25,0,0,0,.14,0,.11.11,0,0,0,0-.1,1.09,1.09,0,0,0-.22-.21,5.42,5.42,0,0,1-.43-.34s-.08-.16-.13-.27a.87.87,0,0,0-.06-.13h0Z"/></g><g id="path2742"><path class="cls-23" d="M17.24,37.07c0,.07,0,.19-.14.18a.71.71,0,0,1-.39-.22c-.14-.15-.25-.32-.31-.39l-.16-.2s0,0,0-.07.06,0,.09,0l.23.32a2.93,2.93,0,0,0,.42.18C17.08,37,17.22,37,17.24,37.07Z"/><path class="cls-23" d="M17.12,37.25h0a.75.75,0,0,1-.39-.22,2.61,2.61,0,0,1-.24-.3l-.07-.09-.16-.2s0,0,0-.07a.06.06,0,0,1,.09,0l.23.32.27.12.15.06c.1.05.23.12.25.17h0a.2.2,0,0,1-.06.15A.09.09,0,0,1,17.12,37.25Zm-.84-.89h0s0,.07,0,.07l.16.2.07.09a2.61,2.61,0,0,0,.24.3.75.75,0,0,0,.39.22.11.11,0,0,0,.08,0,.2.2,0,0,0,.06-.15S17.09,37,17,36.9l-.15-.06-.27-.12-.23-.32S16.3,36.36,16.28,36.36Z"/></g><g id="path2744"><path class="cls-23" d="M17.72,37.74c0,.08,0,.2-.18.17a1,1,0,0,1-.44-.24,3,3,0,0,1-.3-.33,1.3,1.3,0,0,0-.17-.17s0,0,0-.06.05,0,.09,0a2.2,2.2,0,0,0,.27.29,2.35,2.35,0,0,0,.49.17A.62.62,0,0,1,17.72,37.74Z"/><path class="cls-23" d="M17.6,37.92h-.06a1,1,0,0,1-.43-.24h0c-.08-.07-.22-.23-.29-.31l0,0-.16-.17,0,0,0,0s.05,0,.09,0l.06.07a1.12,1.12,0,0,0,.21.22,1.35,1.35,0,0,0,.32.12l.17.05a.57.57,0,0,1,.24.15h0a.23.23,0,0,1,0,.14A.18.18,0,0,1,17.6,37.92Zm-.94-.82h0l0,0,0,0,.17.17v0a2.76,2.76,0,0,0,.29.3h0a1,1,0,0,0,.43.24c.07,0,.13,0,.15,0s0-.1,0-.14a.57.57,0,0,0-.24-.15l-.17-.05a1.35,1.35,0,0,1-.32-.12,1.12,1.12,0,0,1-.21-.22.45.45,0,0,0-.07-.07S16.68,37.1,16.66,37.1Z"/></g><g id="path2746"><path class="cls-23" d="M17.67,37.37a.12.12,0,0,1-.13.08c-.08,0-.13,0-.16-.08a1.64,1.64,0,0,1,.07-.43.63.63,0,0,0,0-.26,1,1,0,0,1-.06-.19s0-.06.07,0a2.79,2.79,0,0,1,.13.43,2.46,2.46,0,0,1,.07.33C17.68,37.28,17.67,37.37,17.67,37.37Z"/><path class="cls-23" d="M17.55,37.45h0c-.09,0-.14,0-.16-.08a.76.76,0,0,1,0-.3,1.3,1.3,0,0,1,0-.13s0-.06,0-.09a.25.25,0,0,0,0-.17.32.32,0,0,0,0-.09.38.38,0,0,1,0-.1s0,0,0,0a0,0,0,0,1,.05,0,2.48,2.48,0,0,1,.13.43l0,.07a2.24,2.24,0,0,1,.05.26c0,.05,0,.14,0,.14h0A.11.11,0,0,1,17.55,37.45Zm-.1-1h0s0,0,0,0a.38.38,0,0,0,0,.1.32.32,0,0,1,0,.09.25.25,0,0,1,0,.17s0,0,0,.09a1.3,1.3,0,0,0,0,.13.76.76,0,0,0,0,.3c0,.05.07.07.16.08h0a.11.11,0,0,0,.12-.08s0-.09,0-.14a2.24,2.24,0,0,0-.05-.26l0-.07a2.79,2.79,0,0,0-.13-.43S17.46,36.45,17.45,36.45Z"/></g><g id="path2748"><path class="cls-23" d="M17.22,36.84a.11.11,0,0,1-.15,0c-.08,0-.12-.05-.14-.11a2,2,0,0,1,.17-.4.58.58,0,0,0,.09-.25,1.42,1.42,0,0,1,0-.19s.05-.06.07,0,0,.4,0,.47,0,.28,0,.33S17.22,36.84,17.22,36.84Z"/><path class="cls-23" d="M17.13,36.89h-.06c-.09,0-.12-.05-.14-.11a1.26,1.26,0,0,1,.12-.29l.05-.11a.36.36,0,0,0,0-.09.37.37,0,0,0,.05-.16.28.28,0,0,0,0-.09.33.33,0,0,1,0-.1s0,0,0,0,0,0,0,0,0,.4,0,.47v.07a1.78,1.78,0,0,1,0,.26s0,.14,0,.14h0S17.17,36.89,17.13,36.89Zm.09-1h0s0,0,0,0a.33.33,0,0,0,0,.1.28.28,0,0,1,0,.09.37.37,0,0,1-.05.16.36.36,0,0,1,0,.09l-.05.11a.82.82,0,0,0-.11.29c0,.06,0,.09.13.11a.12.12,0,0,0,.15,0s0-.09,0-.14a1.78,1.78,0,0,0,0-.26v-.07a3.39,3.39,0,0,0,0-.47Z"/></g><g id="path2750"><path class="cls-23" d="M18.32,38.35c0,.07,0,.19-.16.18a.94.94,0,0,1-.46-.19,2.42,2.42,0,0,1-.34-.28l-.19-.15s0,0,0-.06.05,0,.09,0a3.46,3.46,0,0,0,.31.26,3.51,3.51,0,0,0,.51.11A.93.93,0,0,1,18.32,38.35Z"/><path class="cls-23" d="M18.19,38.53h0a.89.89,0,0,1-.45-.18h0a2.61,2.61,0,0,1-.33-.27h0l-.19-.15,0,0a0,0,0,0,1,0,0,.06.06,0,0,1,.09,0l.07.06a2,2,0,0,0,.24.2,1.53,1.53,0,0,0,.33.07l.18,0a.8.8,0,0,1,.25.12h0a.17.17,0,0,1,0,.14S18.25,38.53,18.19,38.53Zm-1-.69h0a0,0,0,0,0,0,0l0,0a1.49,1.49,0,0,1,.19.15h0a2.61,2.61,0,0,0,.33.27h0a1,1,0,0,0,.45.18c.08,0,.13,0,.15,0a.17.17,0,0,0,0-.14,1,1,0,0,0-.25-.12l-.18,0a1.53,1.53,0,0,1-.33-.07,2,2,0,0,1-.24-.2l-.07-.06A.06.06,0,0,0,17.2,37.84Z"/></g><g id="path2752"><path class="cls-23" d="M18.23,38c0,.06,0,.09-.11.11a.16.16,0,0,1-.17-.05,2.63,2.63,0,0,1,0-.44.65.65,0,0,0,0-.26c0-.06-.08-.12-.1-.16a0,0,0,0,1,.06-.06,3.66,3.66,0,0,1,.22.41c0,.07.12.26.13.31A1,1,0,0,1,18.23,38Z"/><path class="cls-23" d="M18.06,38.13a.12.12,0,0,1-.11-.05,1.16,1.16,0,0,1,0-.31v-.21a.47.47,0,0,0,0-.18l-.05-.07-.05-.09a.2.2,0,0,1,0,0h.05a3.66,3.66,0,0,1,.22.41l0,.07a2.59,2.59,0,0,1,.1.24,1,1,0,0,1,0,.14h0c0,.06,0,.09-.11.11Zm-.2-1h0a.2.2,0,0,0,0,0l.05.09.05.07a.47.47,0,0,1,0,.18v.21a1.2,1.2,0,0,0,0,.31c0,.05.08.06.17.05s.11-.05.11-.11,0-.09,0-.14a2.59,2.59,0,0,0-.1-.24l0-.07a3.66,3.66,0,0,0-.22-.41Z"/></g><g id="path2754"><path class="cls-23" d="M18.74,38.56c0,.06,0,.12-.1.13a.16.16,0,0,1-.18-.07,1.32,1.32,0,0,1,0-.43c0-.13,0-.2,0-.26l-.1-.17a.05.05,0,0,1,.05-.06,2.61,2.61,0,0,1,.24.42,2.48,2.48,0,0,1,.13.3S18.74,38.56,18.74,38.56Z"/><path class="cls-23" d="M18.6,38.7a.17.17,0,0,1-.14-.08.73.73,0,0,1,0-.3V38.1a.29.29,0,0,0,0-.17.35.35,0,0,0,0-.08.41.41,0,0,1-.05-.09s0,0,0,0l0,0a3.13,3.13,0,0,1,.24.42l0,.06a2.15,2.15,0,0,1,.11.24s0,.14,0,.14h0c0,.06,0,.12-.1.13Zm-.25-1,0,0s0,0,0,0a.24.24,0,0,0,.06.09s0,0,0,.08a.29.29,0,0,1,0,.17v.22a.73.73,0,0,0,0,.3.16.16,0,0,0,.18.07c.08,0,.09-.07.1-.13s0-.09,0-.14a2.15,2.15,0,0,0-.11-.24l0-.06a3.13,3.13,0,0,0-.24-.42Z"/></g><g id="path2756"><path class="cls-23" d="M20.18,39.43a3.09,3.09,0,0,1-1.3-.37,4,4,0,0,1-.62-.33.11.11,0,0,1,0-.07s0,0,.08,0a.66.66,0,0,0,.24.14.2.2,0,0,0,.22,0,.61.61,0,0,0,.07-.33,3.22,3.22,0,0,0,.57.52C19.76,39.18,20.18,39.43,20.18,39.43Z"/><path class="cls-23" d="M20.17,39.43a1.45,1.45,0,0,1-.33,0,4.33,4.33,0,0,1-1-.33,3.44,3.44,0,0,1-.62-.33.11.11,0,0,1,0-.07l0,0h.06l0,0a.78.78,0,0,0,.22.12.2.2,0,0,0,.22,0,.73.73,0,0,0,.07-.33,3.23,3.23,0,0,0,.57.52c.33.23.75.48.75.48h0Zm-1.89-.79h0l0,0a.11.11,0,0,0,0,.07,3.44,3.44,0,0,0,.62.33,4.33,4.33,0,0,0,1,.33,1.92,1.92,0,0,0,.34,0s-.43-.25-.75-.48a2.84,2.84,0,0,1-.57-.52.61.61,0,0,1-.07.33.2.2,0,0,1-.22,0,.78.78,0,0,1-.22-.12l0,0Z"/></g><g id="path2758"><path class="cls-23" d="M16.66,32.12s0,0-.05,0-.2,1.34-.2,1.34.25-.14.27-.3a1.39,1.39,0,0,0-.08-.41s.09-.63.09-.63S16.69,32.12,16.66,32.12Z"/><path class="cls-23" d="M16.41,33.5s.2-1.32.2-1.34,0,0,.05,0h0s0,0,0,0-.09.58-.09.63a.51.51,0,0,0,0,.09.87.87,0,0,1,.06.32C16.66,33.36,16.41,33.5,16.41,33.5Zm.25-1.38s0,0-.05,0-.2,1.33-.2,1.34.25-.14.27-.3a.87.87,0,0,0-.06-.32.51.51,0,0,1,0-.09s.09-.63.09-.63S16.69,32.12,16.66,32.12Z"/></g><g id="path2760"><path class="cls-23" d="M16.49,32.15s0,0,0,.06-.08.52-.08.52a3.27,3.27,0,0,0-.25.44.29.29,0,0,0,.08.24.3.3,0,0,0,.12.09l.21-1.31S16.51,32.15,16.49,32.15Z"/><path class="cls-23" d="M16.31,33.5a.3.3,0,0,1-.12-.09.32.32,0,0,1-.08-.24,3.27,3.27,0,0,1,.25-.44s.07-.5.08-.52,0-.07,0-.06h0s0,0,0,0Zm.18-1.35a.06.06,0,0,0,0,.06s-.08.52-.08.52a3.27,3.27,0,0,0-.25.44.32.32,0,0,0,.08.24.3.3,0,0,0,.12.09l.21-1.31s0,0,0,0Z"/></g><g id="path2762"><path class="cls-14" d="M19.67,27.81l.85-.67.46.36a1.18,1.18,0,0,0,.16-.43,2.81,2.81,0,0,0,0-.43,1.18,1.18,0,0,1-.37-.08,1.15,1.15,0,0,1-.44-.47,1.7,1.7,0,0,1-.05.5,1.61,1.61,0,0,1-.34.66A3.13,3.13,0,0,0,19.67,27.81Z"/><path class="cls-23" d="M19.67,27.81h0a2.82,2.82,0,0,1,.31-.56,1.47,1.47,0,0,0,.33-.66,1.54,1.54,0,0,0,.06-.5,1.15,1.15,0,0,0,.44.47,1.18,1.18,0,0,0,.37.08,2.81,2.81,0,0,1,0,.43,1.18,1.18,0,0,1-.16.43l-.46-.36Zm.7-1.72a1.69,1.69,0,0,1-.05.5,1.6,1.6,0,0,1-.34.66,3.09,3.09,0,0,0-.31.56l.85-.67.46.36a1.18,1.18,0,0,0,.16-.43,2.81,2.81,0,0,0,0-.43h0a1.18,1.18,0,0,1-.37-.08A1.15,1.15,0,0,1,20.37,26.09Z"/></g><g id="path2764"><path class="cls-14" d="M20.6,25.74a1,1,0,0,0,.19.5,2,2,0,0,0,.39.32,1.48,1.48,0,0,0-.1-.48A1.79,1.79,0,0,0,20.6,25.74Z"/><path class="cls-23" d="M21.18,26.56a2,2,0,0,1-.39-.32,1,1,0,0,1-.19-.5h0a1.79,1.79,0,0,1,.48.34A1.44,1.44,0,0,1,21.18,26.56Zm-.58-.82a1.07,1.07,0,0,0,.19.5,2,2,0,0,0,.39.32,1.44,1.44,0,0,0-.1-.48A1.65,1.65,0,0,0,20.6,25.74Z"/></g><g id="path2766"><path class="cls-15" d="M21.34,26.53a3,3,0,0,1-.06.6,3.31,3.31,0,0,1-.18.47l.44.35s.43-.05.7-.1a1.17,1.17,0,0,0,.59-.23.27.27,0,0,0,.05-.32,4.64,4.64,0,0,0,.54-.29c.25-.18.12-.35.12-.35a2.1,2.1,0,0,0,.46-.17c.32-.17.18-.32.18-.32a2.68,2.68,0,0,0,.73-.17c.22-.09.19-.21.17-.3a1.27,1.27,0,0,0-.25-.58c-.17-.23-.28-.36-.38-.37s-.28.35-.32.43a7,7,0,0,1-1.21,1.46,2.46,2.46,0,0,1-1.24.73c-.12,0-.16-.3-.18-.37s-.16-.47-.16-.47"/></g><g id="path2768"><path class="cls-22" d="M19,25.61l.1-.14a.15.15,0,0,1,.13,0c.07,0,.65.08.77.11a.54.54,0,0,1,.24.1.7.7,0,0,1,.11.21,1.43,1.43,0,0,0,.32.48,1,1,0,0,0,.46.27.9.9,0,0,1-.56-.65c0-.17-.05-.22-.06-.29s0-.05,0-.06h0l.08.06.39.22a1.59,1.59,0,0,1,.37.46,2.44,2.44,0,0,1,.18.51c0,.15.08.17.08.17a1,1,0,0,0,0-.38,1.25,1.25,0,0,0-.21-.54,2.64,2.64,0,0,0-.2-.23s.16.06.49.15a5.48,5.48,0,0,1,.62.19l.46.18a1.42,1.42,0,0,0-.39-.28,6.52,6.52,0,0,0-.72-.32,4.07,4.07,0,0,0-.57-.16.8.8,0,0,1-.35-.15.34.34,0,0,0,.11-.23.31.31,0,0,0-.14-.32.76.76,0,0,0-.28-.09l-.43,0a.36.36,0,0,0-.23,0,.5.5,0,0,0-.14.17,2.49,2.49,0,0,0-.42.13.39.39,0,0,0-.24.26c-.05.16,0,.22,0,.22"/></g><g id="path2770"><path class="cls-19" d="M19.79,25.25a2.3,2.3,0,0,1-.28,0l.13-.15a.67.67,0,0,1,.39-.18c.28,0,.36.06.36.06a.69.69,0,0,0-.19.33,1.69,1.69,0,0,0-.41-.06"/></g><g id="path2772"><path class="cls-8" d="M19.89,25.08c0-.06.07-.1.16-.1s.16,0,.16.1-.07.11-.16.11-.16-.05-.16-.11"/></g><g id="path2774"><path class="cls-21" d="M20.11,25.08a.06.06,0,0,0-.06-.06.05.05,0,0,0-.06.06.06.06,0,0,0,.06.06.06.06,0,0,0,.06-.06"/></g><g id="path2776"><path class="cls-24" d="M20.56,29.63l-.4,1.4.41.53.35-.52-.36-1.41"/></g><g id="path2778"><path class="cls-24" d="M19.11,29.55l.71,1.3.23.19v0l0-.08.16-.62-1.07-.75"/></g><g id="path2780"><path class="cls-24" d="M19.93,31.19,19.69,31l-.33-.58-1.71-.73,1.51,1.17.77.36"/></g><g id="path2782"><path class="cls-22" d="M17.8,29.52l1.41.59-.33-.59H17.8"/></g><g id="path2784"><path class="cls-22" d="M19.39,29.52l.83.58.16-.58h-1"/></g><g id="path2786"><path class="cls-24" d="M22,29.55l-.71,1.3L21.1,31l0,0,0-.08L21,30.3,22,29.55"/></g><g id="path2788"><path class="cls-24" d="M21.21,31.19l.24-.22.33-.58,1.71-.73L22,30.83l-.77.36"/></g><g id="path2790"><path class="cls-22" d="M23.34,29.52l-1.41.59.33-.59h1.08"/></g><g id="path2792"><path class="cls-22" d="M21.75,29.52l-.83.58-.16-.58h1"/></g><g id="path2794"><path class="cls-25" d="M19.72,28h1.6l-.8-.62-.8.62"/></g><g id="path2796"><path class="cls-24" d="M18.91,28.63h1.6L19.72,28l-.81.63"/></g><g id="path2798"><path class="cls-24" d="M18.91,28.63h0l.81-.63.79.63Zm0,0h1.6L19.72,28Z"/></g><g id="path2800"><path class="cls-24" d="M20.51,28.63h1.6l-.8-.63-.8.63"/></g><g id="path2802"><path class="cls-24" d="M20.51,28.63h0l.8-.63.8.63Zm0,0h1.6l-.8-.63Z"/></g><g id="path2804"><path class="cls-24" d="M21.33,29.27h1.6l-.82-.65-.78.65"/></g><g id="path2806"><path class="cls-24" d="M21.33,29.27h0l.78-.65.82.65Zm0,0h1.6l-.82-.65Z"/></g><g id="path2808"><path class="cls-24" d="M18.1,29.27h1.6l-.78-.63-.82.63"/></g><g id="path2810"><path class="cls-24" d="M18.1,29.27h0l.82-.63.78.63Zm0,0h1.6l-.78-.63Z"/></g><g id="path2812"><path class="cls-21" d="M19.7,29.27h1.62l-.8-.65-.82.65"/></g><g id="path2814"><path class="cls-21" d="M21.32,29.27H19.7l.82-.65Zm-1.62,0h1.62l-.8-.65Z"/></g><g id="path2816"><path class="cls-16" d="M21.31,28h-1.6l.8.64.8-.64"/></g><g id="path2818"><path class="cls-16" d="M20.51,28.64l-.8-.64h1.6Zm-.8-.64.8.64.8-.64Z"/></g><g id="path2820"><path class="cls-16" d="M20.53,28.63H18.91l.8.64.82-.64"/></g><g id="path2822"><path class="cls-16" d="M19.71,29.27l-.8-.64h1.62Zm-.8-.64.8.64.82-.64Z"/></g><g id="path2824"><path class="cls-16" d="M22.11,28.62h-1.6l.81.64.79-.65"/></g><g id="path2826"><path class="cls-16" d="M21.32,29.27l-.81-.64h1.6Zm.79-.64h-1.6l.81.64Z"/></g><g id="path2828"><path class="cls-17" d="M17.87,23.91a3.22,3.22,0,0,1,2.7-1,3.42,3.42,0,0,1,2.7,1,5.63,5.63,0,0,0-5.4,0"/></g><g id="path2830"><path class="cls-17" d="M17.88,23.91a4.19,4.19,0,0,1,5.41,0,5.65,5.65,0,0,0-5.41,0"/></g><g id="path2832"><path class="cls-17" d="M21.57,23.08,21.2,23l-.38,0h-.33l-.38,0-.55.12,1-3.22,1,3.19"/></g><g id="path2834"><path class="cls-16" d="M20.56,23l-.51,0-.49.11,1-3.22V23"/></g></svg>