<svg width="36" height="36" viewBox="0 0 36 36" version="1.1" xmlns="http://www.w3.org/2000/svg" xmlns:xlink="http://www.w3.org/1999/xlink"><title>litmus-logo</title><desc>Created with Sketch.</desc><defs><polygon id="path-1" points="9.64579364 0.0802568807 0.171340864 0.0802568807 0.171340864 11.6434569 9.64579364 11.6434569"/></defs><g id="Page-1" stroke="none" stroke-width="1" fill="none" fill-rule="evenodd"><g id="litmus-logo"><path d="M13.9711677,24.3567413 C14.9443125,24.9565211 16.0684169,25.3336954 17.2734515,25.4205578 L17.2737819,35.9196771 C13.7660344,35.8166312 10.5132997,34.6996404 7.79833811,32.8514202 L13.9711677,24.3567413 Z" id="Fill-1" fill="#4A4A4A" fill-rule="nonzero"/><path d="M17.2452416,10.8315743 L17.2452416,0.33146422 C13.7388154,0.439794495 10.4877323,1.56173945 7.77541338,3.41425321 L13.9475823,11.9082716 C14.9187451,11.3048587 16.0411979,10.9230606 17.2452416,10.8315743" id="Fill-3" fill="#4A4A4A" fill-rule="nonzero"/><g id="Group-7" transform="translate(18.168011, 0.250018)"><g id="Fill-5-Clipped"><mask id="mask-2" fill="#fff"><use xlink:href="#path-1"/></mask><path d="M9.64579364,3.14844771 C6.93116241,1.30022752 3.67809739,0.183236697 0.171340864,0.0801908257 L0.171340864,10.5796404 C1.37604518,10.6661725 2.49981927,11.0433468 3.47329435,11.6434569 L9.64579364,3.14844771 Z" id="Fill-5" fill="#4A4A4A" fill-rule="nonzero" mask="url(#mask-2)"/></g></g><path d="M11.0393462,20.9127303 L1.04925221,24.158345 C2.20705002,27.3715927 4.2623476,30.1558128 6.91355596,32.2084734 L13.0860552,23.7141248 C12.197144,22.9634092 11.4902432,22.0046202 11.0393462,20.9127303" id="Fill-8" fill="#4A4A4A" fill-rule="nonzero"/><path d="M13.0648813,12.5537615 L6.89139098,4.05842202 C4.24414656,6.11537615 2.19281291,8.90256881 1.03997,12.1181284 L11.0294033,15.3630826 C11.4756757,14.269211 12.1792733,13.3081101 13.0648813,12.5537615" id="Fill-10" fill="#4A4A4A" fill-rule="nonzero"/><path d="M10.4882278,18.1250422 C10.4882278,17.5321982 10.5605695,16.9558679 10.6936915,16.4043083 L0.70260655,13.158033 C0.246093972,14.7350972 0,16.4010055 0,18.1250422 C0,19.8586569 0.248736592,21.5341431 0.710864737,23.1188037 L10.7002981,19.8735193 C10.5628818,19.3133725 10.4882278,18.7277945 10.4882278,18.1250422" id="Fill-12" fill="#4A4A4A" fill-rule="nonzero"/><path d="M22.5479225,23.6960257 L28.7210825,32.1916954 C31.3693179,30.134411 33.4199909,27.3468881 34.5721731,24.1316587 L24.5834005,20.8870349 C24.1364674,21.9805761 23.4335305,22.9413468 22.5479225,23.6960257" id="Fill-14" fill="#4A4A4A" fill-rule="nonzero"/><path d="M18.3671989,25.4186752 L18.3671989,35.9191156 C21.8739554,35.8101248 25.1243778,34.6881798 27.8376877,32.8353358 L21.6648581,24.3413174 C20.694356,24.9453908 19.5712425,25.327189 18.3671989,25.4186752" id="Fill-16" fill="#4A4A4A" fill-rule="nonzero"/><path d="M34.9011793,13.1312477 L24.9120763,16.3768624 C25.0501532,16.9370092 25.1241466,17.5222569 25.1241466,18.1250092 C25.1241466,18.7178532 25.0521352,19.2938532 24.9190132,19.8457431 L34.9094375,23.0916881 C35.3666107,21.5152844 35.6127047,19.8490459 35.6127047,18.1250092 C35.6127047,16.3910642 35.3639681,14.7159083 34.9011793,13.1312477" id="Fill-18" fill="#4A4A4A" fill-rule="nonzero"/><path d="M24.572797,15.3368917 L34.5628909,12.0916073 C33.4054234,8.87802936 31.3494652,6.09413945 28.6989175,4.0414789 L22.5264182,12.5358275 C23.4149991,13.2865431 24.1225606,14.2453321 24.572797,15.3368917" id="Fill-20" fill="#4A4A4A" fill-rule="nonzero"/></g></g></svg>