<svg width="784" height="225" xmlns="http://www.w3.org/2000/svg"><defs><linearGradient x1="95.47%" y1="4.602%" x2="2.527%" y2="96.28%" id="a"><stop stop-color="#00EC8B" offset="0%"/><stop stop-color="#00B9B5" offset="100%"/></linearGradient></defs><g fill="none" fill-rule="evenodd"><path fill="#FFF" d="M0 0H784V225H0z"/><g transform="translate(50 37)" fill-rule="nonzero"><circle fill="#00E293" cx="5" cy="64" r="5"/><circle fill="#00E293" cx="8" cy="19" r="5"/><path d="M14.905 149.463l61.182-34.278a10 10 0 0 0 5.113-8.725V41.01a6 6 0 0 0-9.037-5.175L10.91 71.784a10 10 0 0 0-4.939 8.624v63.82a6 6 0 0 0 8.933 5.235z" fill="url(#a)"/><path d="M8 0l68.178 39.774M4 41l19.598 11.347M23 29l19.598 11.347" stroke="#00EB8A" stroke-width="10" stroke-linecap="round"/></g><text font-family="Open Sans" font-size="90" font-weight="500" letter-spacing="1" fill="#332D4F"><tspan x="162" y="142">Edu Reviewer</tspan></text></g></svg>